<svg width="18" height="18" viewBox="0 0 18 18" fill="none" xmlns="http://www.w3.org/2000/svg">
  <path
    d="M3.39389e-05 9.00001C2.82946e-05 7.21998 0.527864 5.47992 1.51679 3.99987C2.50572 2.51983 3.91133 1.36628 5.55586 0.685088C7.2004 0.0038992 9.01 -0.17433 10.7558 0.172938C12.5017 0.520207 14.1053 1.37738 15.364 2.63605C17.0518 4.32388 18 6.61306 18 9.00001C18 11.387 17.0518 13.6761 15.364 15.364C13.6761 17.0518 11.387 18 9.00001 18C6.61306 18 4.32388 17.0518 2.63605 15.364C1.79771 14.5302 1.13307 13.5384 0.680593 12.446C0.22812 11.3536 -0.00319716 10.1824 3.39389e-05 9.00001ZM16.8 9.00001C16.8 4.69911 13.3009 1.20003 9.00001 1.20003C4.69911 1.20003 1.20003 4.69911 1.20003 9.00001C1.20003 13.3009 4.69911 16.8 9.00001 16.8C13.3009 16.8 16.8 13.3009 16.8 9.00001Z"
    fill="white" />
  <path
    d="M5.7515 9.00001L10.3758 4.37578L11.2242 5.22426L7.44856 9.00001L11.2242 12.7758L10.3758 13.6242L5.7515 9.00001Z"
    fill="white" />
</svg>