<svg width="18" height="18" viewBox="0 0 18 18" fill="none" xmlns="http://www.w3.org/2000/svg">
  <path
    d="M9.00001 18C7.21998 18 5.47992 17.4721 3.99987 16.4832C2.51983 15.4943 1.36628 14.0887 0.685088 12.4441C0.00389872 10.7996 -0.174331 8.99 0.172938 7.24418C0.520206 5.49835 1.37737 3.89471 2.63605 2.63604C4.32388 0.948211 6.61306 -1.77841e-08 9.00001 0C11.387 1.77841e-08 13.6761 0.948211 15.364 2.63604C17.0518 4.32386 18 6.61305 18 8.99999C18 11.3869 17.0518 13.6761 15.364 15.3639C14.5302 16.2023 13.5384 16.8669 12.446 17.3194C11.3536 17.7719 10.1824 18.0032 9.00001 18ZM9.00001 1.20002C4.69911 1.20002 1.20003 4.69909 1.20003 8.99999C1.20003 13.3009 4.69911 16.8 9.00001 16.8C13.3009 16.8 16.8 13.3009 16.8 8.99999C16.8 4.69909 13.3009 1.20002 9.00001 1.20002Z"
    fill="white" />
  <path
    d="M9.00001 12.2485L4.37578 7.62423L5.22425 6.77576L9.00001 10.5514L12.7758 6.77576L13.6242 7.62423L9.00001 12.2485Z"
    fill="white" />
</svg>