<svg width="36" height="36" viewBox="0 0 36 36" fill="none" xmlns="http://www.w3.org/2000/svg">
<rect x="0.5" y="0.5" width="35" height="35" rx="1.5" fill="black" fill-opacity="0.9"/>
<rect x="0.5" y="0.5" width="35" height="35" rx="1.5" fill="url(#paint0_linear_111_997)" fill-opacity="0.9"/>
<rect x="0.5" y="0.5" width="35" height="35" rx="1.5" stroke="#EE313B"/>
<path d="M16.9541 9.14406C16.5556 9.25364 16.0276 9.81149 15.8583 10.2897C15.7388 10.6582 15.6989 10.6782 15.1909 10.7579C14.4637 10.8575 13.3579 11.4253 12.82 11.9632L12.3817 12.4215L12.5112 13.0391C13.0391 15.5992 13.2184 15.9877 14.125 16.446L14.6529 16.705H21.3671L21.8951 16.4261C22.7219 15.9977 22.9311 15.6192 23.2997 13.8858L23.6184 12.4215L23.22 12.013C22.5924 11.3556 21.666 10.8874 20.7096 10.7479C20.3112 10.6881 20.2614 10.6483 20.1418 10.2797C19.9725 9.80153 19.325 9.18391 18.8866 9.09425C18.4483 9.01456 17.3127 9.03448 16.9541 9.14406ZM19.046 9.87126C19.3548 10.0705 19.6338 10.4889 19.5541 10.6184C19.4644 10.7678 16.4859 10.708 16.4361 10.5686C16.3763 10.3793 16.8943 9.84138 17.233 9.7318C17.6813 9.6023 18.7472 9.68199 19.046 9.87126ZM20.5104 14.1747C20.5303 14.5034 20.5004 14.7525 20.4407 14.7724C20.3809 14.8023 19.2453 14.8023 17.9104 14.7923L15.4698 14.7624L15.4598 14.2644C15.4499 13.9854 15.4598 13.7364 15.4797 13.6866C15.4997 13.6467 16.6353 13.6169 18.0001 13.6169H20.4706L20.5104 14.1747Z" fill="white"/>
<path d="M9.08434 9.56245C8.68588 9.75172 8.38703 10.0904 8.14795 10.6383C7.20159 12.7701 8.09814 16.6253 10.469 20.6398L10.8774 21.3372L10.9372 19.6935L10.4292 19.046C9.10427 17.3027 8.37707 14.8222 8.62611 12.81C8.77553 11.6146 8.93492 11.0667 9.24373 10.708C9.48281 10.4192 9.53262 10.3992 9.76174 10.4988C10.0905 10.6483 10.4292 11.1065 10.9073 12.0529L11.2958 12.8299L13.1587 10.8077L12.9096 10.6184C12.7801 10.5188 12.2522 10.2199 11.7441 9.97088C10.9472 9.57241 10.7081 9.49272 10.1004 9.46283C9.62228 9.44291 9.28358 9.47279 9.08434 9.56245Z" fill="white"/>
<path d="M25.2422 9.54253C24.6246 9.69195 22.8414 10.6682 22.9012 10.8276C22.9211 10.8774 23.3296 11.3456 23.8177 11.8736L24.7043 12.8299L25.1426 11.9533C25.551 11.1364 26.1188 10.4291 26.3679 10.4291C26.597 10.4291 26.9556 10.9272 27.105 11.4352C27.4935 12.7402 27.4935 14.4238 27.115 15.918C26.8859 16.8046 26.1886 18.2192 25.5809 19.0261L25.0629 19.7134L25.1227 21.3372L25.5311 20.6398C27.4836 17.3326 28.4598 14.095 28.161 11.8935C27.882 9.85134 26.9855 9.1341 25.2422 9.54253Z" fill="white"/>
<path d="M11.7142 13.587L11.4751 14.1647V26.1487L11.7242 26.4176C12.2522 26.9854 12.0629 26.9655 18.02 26.9655C23.3395 26.9655 23.5388 26.9556 23.8575 26.7663C24.0368 26.6567 24.266 26.4276 24.3755 26.2483C24.5748 25.9295 24.5748 25.7701 24.5548 20.0421L24.525 14.1647L24.2859 13.587C24.1564 13.2682 24.0169 13.049 23.9771 13.0889C23.9372 13.1287 23.8077 13.6368 23.6782 14.2146C23.3196 15.8582 22.9211 16.4759 21.915 16.9241C21.5265 17.0935 21.2077 17.1134 17.9901 17.1034C14.8223 17.1034 14.4437 17.0835 14.0751 16.9142C13.0889 16.4759 12.6805 15.8483 12.3219 14.2146C12.1924 13.6368 12.0629 13.1287 12.0131 13.0889C11.9732 13.0391 11.8437 13.2582 11.7142 13.587ZM22.184 21.387H13.8161V20.1916H22.184V21.387ZM22.184 25.5211H13.8161V22.5824H22.184V25.5211Z" fill="white"/>
<defs>
<linearGradient id="paint0_linear_111_997" x1="0" y1="0" x2="36" y2="36" gradientUnits="userSpaceOnUse">
<stop stop-color="#EE313B"/>
<stop offset="1" stop-color="#EE313B" stop-opacity="0.4"/>
</linearGradient>
</defs>
</svg>
