<svg width="84" height="98" viewBox="0 0 84 98" fill="none" xmlns="http://www.w3.org/2000/svg">
<mask id="path-1-outside-1_12_45" maskUnits="userSpaceOnUse" x="-1" y="-3.05176e-05" width="86" height="98" fill="black">
<rect fill="white" x="-1" y="-3.05176e-05" width="86" height="98"/>
<path fill-rule="evenodd" clip-rule="evenodd" d="M40.3464 2.04075L44 18.648L30.3944 15.1189L32.7606 31L18.5634 16.2953L11.4648 31L6.7547 23.6823C2.35606 31.7259 0.685321 41.1838 3.12553 50.5717C4.6474 56.4316 6.2515 61.8094 8.1171 66.6193C5.16393 69.9582 6.44 76.4057 9.24995 79.518C10.9733 81.4253 14.8237 84.7049 18.054 86.0397C20.6672 85.6506 28.3116 85.2125 27.8385 93.4404C28.7246 93.807 29.6524 94.1247 30.6087 94.4123V91.159H31.761V94.7328C33.3096 95.1342 34.9295 95.4454 36.6176 95.6531V91.159H37.7662V95.7678C39.3306 95.9182 40.9347 96 42.5822 96H42.6247V91.1571H43.7751V95.9774C45.4143 95.9417 47.0221 95.8402 48.5689 95.6493V91.1571H49.7221V95.4811C51.329 95.2395 52.8721 94.9096 54.3413 94.4828V91.159H55.4917V94.1209C56.1524 93.8991 56.7955 93.665 57.4192 93.4018C56.1339 83.1201 66.3471 84.8422 67.7978 85.1364C71.1382 83.9962 75.3748 80.4063 77.2072 78.3797C80.1298 75.1479 81.4068 68.2935 77.9787 65.0909C77.9164 65.0325 77.8486 64.9838 77.7804 64.9347C77.7223 64.8928 77.6639 64.8508 77.6082 64.8023C78.8815 61.0329 80.006 56.9044 81.0511 52.4075C86.6682 28.1902 66.5365 1.99997 42.0749 1.99997C41.4966 1.99997 40.9203 2.01367 40.3464 2.04075ZM30.1431 65.7619C31.0123 65.0161 31.8618 64.2871 32.697 63.6715C36.8995 60.5732 39.0672 52.0428 36.9808 48.4049C34.8953 44.7662 18.7018 43.7172 15.877 48.0534C12.5875 53.0984 12.7169 65.8119 18.3229 69.2758C22.8136 72.0514 26.638 68.7697 30.1431 65.7619ZM42.4824 77.4218C43.9183 78.4483 47.1247 80.5247 47.6403 78.9465C48.3102 76.9029 44.1253 64.1556 43.6245 63.1272C43.4776 62.8198 43.254 62.5576 43.0137 62.3686C42.8927 62.1675 42.7208 62.0867 42.5212 62.1064C42.5138 62.1049 42.5072 62.1055 42.5006 62.1062C42.4949 62.1067 42.4893 62.1073 42.4833 62.1064C42.4695 62.1083 42.4593 62.1036 42.4454 62.1064C42.2459 62.0867 42.074 62.1665 41.9539 62.3677C41.7145 62.5585 41.49 62.8208 41.3403 63.1272C40.8367 64.1565 36.6546 76.902 37.3236 78.9465C37.8401 80.5257 41.0483 78.4483 42.4824 77.4218ZM55.5605 65.5575C59.2531 68.3191 63.2828 71.3328 67.5816 68.2615C72.9446 64.4235 72.2442 51.7307 68.6359 46.9179C65.534 42.7847 49.444 44.9288 47.6015 48.6992C45.7553 52.4714 48.4738 60.8402 52.8721 63.6433C53.7467 64.201 54.6432 64.8715 55.5605 65.5575Z"/>
</mask>
<path fill-rule="evenodd" clip-rule="evenodd" d="M40.3464 2.04075L44 18.648L30.3944 15.1189L32.7606 31L18.5634 16.2953L11.4648 31L6.7547 23.6823C2.35606 31.7259 0.685321 41.1838 3.12553 50.5717C4.6474 56.4316 6.2515 61.8094 8.1171 66.6193C5.16393 69.9582 6.44 76.4057 9.24995 79.518C10.9733 81.4253 14.8237 84.7049 18.054 86.0397C20.6672 85.6506 28.3116 85.2125 27.8385 93.4404C28.7246 93.807 29.6524 94.1247 30.6087 94.4123V91.159H31.761V94.7328C33.3096 95.1342 34.9295 95.4454 36.6176 95.6531V91.159H37.7662V95.7678C39.3306 95.9182 40.9347 96 42.5822 96H42.6247V91.1571H43.7751V95.9774C45.4143 95.9417 47.0221 95.8402 48.5689 95.6493V91.1571H49.7221V95.4811C51.329 95.2395 52.8721 94.9096 54.3413 94.4828V91.159H55.4917V94.1209C56.1524 93.8991 56.7955 93.665 57.4192 93.4018C56.1339 83.1201 66.3471 84.8422 67.7978 85.1364C71.1382 83.9962 75.3748 80.4063 77.2072 78.3797C80.1298 75.1479 81.4068 68.2935 77.9787 65.0909C77.9164 65.0325 77.8486 64.9838 77.7804 64.9347C77.7223 64.8928 77.6639 64.8508 77.6082 64.8023C78.8815 61.0329 80.006 56.9044 81.0511 52.4075C86.6682 28.1902 66.5365 1.99997 42.0749 1.99997C41.4966 1.99997 40.9203 2.01367 40.3464 2.04075ZM30.1431 65.7619C31.0123 65.0161 31.8618 64.2871 32.697 63.6715C36.8995 60.5732 39.0672 52.0428 36.9808 48.4049C34.8953 44.7662 18.7018 43.7172 15.877 48.0534C12.5875 53.0984 12.7169 65.8119 18.3229 69.2758C22.8136 72.0514 26.638 68.7697 30.1431 65.7619ZM42.4824 77.4218C43.9183 78.4483 47.1247 80.5247 47.6403 78.9465C48.3102 76.9029 44.1253 64.1556 43.6245 63.1272C43.4776 62.8198 43.254 62.5576 43.0137 62.3686C42.8927 62.1675 42.7208 62.0867 42.5212 62.1064C42.5138 62.1049 42.5072 62.1055 42.5006 62.1062C42.4949 62.1067 42.4893 62.1073 42.4833 62.1064C42.4695 62.1083 42.4593 62.1036 42.4454 62.1064C42.2459 62.0867 42.074 62.1665 41.9539 62.3677C41.7145 62.5585 41.49 62.8208 41.3403 63.1272C40.8367 64.1565 36.6546 76.902 37.3236 78.9465C37.8401 80.5257 41.0483 78.4483 42.4824 77.4218ZM55.5605 65.5575C59.2531 68.3191 63.2828 71.3328 67.5816 68.2615C72.9446 64.4235 72.2442 51.7307 68.6359 46.9179C65.534 42.7847 49.444 44.9288 47.6015 48.6992C45.7553 52.4714 48.4738 60.8402 52.8721 63.6433C53.7467 64.201 54.6432 64.8715 55.5605 65.5575Z" fill="#EE313B"/>
<path d="M44 18.648L43.4978 20.584C44.1711 20.7586 44.8867 20.5709 45.3876 20.0883C45.8885 19.6058 46.1027 18.8976 45.9533 18.2183L44 18.648ZM40.3464 2.04075L40.2521 0.0429732C39.6634 0.0707513 39.1169 0.356798 38.7585 0.824735C38.4002 1.29267 38.2665 1.89485 38.3931 2.47048L40.3464 2.04075ZM30.3944 15.1189L30.8965 13.183C30.2469 13.0145 29.556 13.183 29.057 13.6318C28.5579 14.0806 28.3173 14.7498 28.4162 15.4137L30.3944 15.1189ZM32.7606 31L31.3217 32.3891C31.9257 33.0147 32.8647 33.1783 33.6446 32.794C34.4246 32.4096 34.8669 31.5653 34.7387 30.7052L32.7606 31ZM18.5634 16.2953L20.0022 14.9061C19.548 14.4356 18.8924 14.217 18.2466 14.3205C17.6009 14.4241 17.0466 14.8369 16.7623 15.4258L18.5634 16.2953ZM11.4648 31L9.78304 32.0824C10.1747 32.6909 10.8646 33.0404 11.5869 32.9962C12.3092 32.9521 12.9513 32.5211 13.2659 31.8694L11.4648 31ZM6.7547 23.6823L8.43644 22.5998C8.05457 22.0065 7.38834 21.6583 6.68323 21.6836C5.97812 21.7088 5.33846 22.1036 4.99993 22.7227L6.7547 23.6823ZM3.12553 50.5717L5.06132 50.0689L5.06121 50.0685L3.12553 50.5717ZM8.1171 66.6193L9.6152 67.9444C10.1109 67.3839 10.2523 66.5937 9.98176 65.8961L8.1171 66.6193ZM9.24995 79.518L7.76546 80.8583L7.76599 80.8588L9.24995 79.518ZM18.054 86.0397L17.2903 87.8881C17.6248 88.0264 17.9906 88.0712 18.3486 88.0179L18.054 86.0397ZM27.8385 93.4404L25.8418 93.3255C25.7929 94.1754 26.2873 94.963 27.0739 95.2884L27.8385 93.4404ZM30.6087 94.4123L30.0327 96.3276C30.6383 96.5097 31.2945 96.3947 31.802 96.0173C32.3096 95.64 32.6087 95.0448 32.6087 94.4123H30.6087ZM30.6087 91.159V89.159C29.5042 89.159 28.6087 90.0544 28.6087 91.159H30.6087ZM31.761 91.159H33.761C33.761 90.0544 32.8655 89.159 31.761 89.159V91.159ZM31.761 94.7328H29.761C29.761 95.6442 30.377 96.4402 31.2592 96.6689L31.761 94.7328ZM36.6176 95.6531L36.3734 97.6381C36.9421 97.7081 37.5135 97.5308 37.9427 97.1512C38.3719 96.7716 38.6176 96.2261 38.6176 95.6531H36.6176ZM36.6176 91.159V89.159C35.5131 89.159 34.6176 90.0544 34.6176 91.159H36.6176ZM37.7662 91.159H39.7662C39.7662 90.0544 38.8708 89.159 37.7662 89.159V91.159ZM37.7662 95.7678H35.7662C35.7662 96.7982 36.5491 97.66 37.5748 97.7586L37.7662 95.7678ZM42.6247 96V98C43.7293 98 44.6247 97.1045 44.6247 96H42.6247ZM42.6247 91.1571V89.1571C41.5201 89.1571 40.6247 90.0525 40.6247 91.1571H42.6247ZM43.7751 91.1571H45.7751C45.7751 90.0525 44.8797 89.1571 43.7751 89.1571V91.1571ZM43.7751 95.9774H41.7751C41.7751 96.5154 41.9919 97.0307 42.3764 97.4069C42.7609 97.7832 43.2808 97.9887 43.8187 97.9769L43.7751 95.9774ZM48.5689 95.6493L48.8138 97.6343C49.8161 97.5107 50.5689 96.6592 50.5689 95.6493H48.5689ZM48.5689 91.1571V89.1571C47.4644 89.1571 46.5689 90.0525 46.5689 91.1571H48.5689ZM49.7221 91.1571H51.7221C51.7221 90.0525 50.8267 89.1571 49.7221 89.1571V91.1571ZM49.7221 95.4811H47.7221C47.7221 96.0634 47.9759 96.6168 48.4173 96.9968C48.8586 97.3767 49.4436 97.5454 50.0195 97.4589L49.7221 95.4811ZM54.3413 94.4828L54.8992 96.4034C55.7536 96.1553 56.3413 95.3725 56.3413 94.4828H54.3413ZM54.3413 91.159V89.159C53.2367 89.159 52.3413 90.0544 52.3413 91.159H54.3413ZM55.4917 91.159H57.4917C57.4917 90.0544 56.5963 89.159 55.4917 89.159V91.159ZM55.4917 94.1209H53.4917C53.4917 94.7646 53.8015 95.3689 54.3241 95.7447C54.8467 96.1205 55.5182 96.2218 56.1283 96.0169L55.4917 94.1209ZM57.4192 93.4018L58.1968 95.2445C59.0218 94.8963 59.5149 94.0423 59.4038 93.1537L57.4192 93.4018ZM67.7978 85.1364L67.4003 87.0965C67.748 87.167 68.1082 87.1438 68.4439 87.0292L67.7978 85.1364ZM77.2072 78.3797L75.7238 77.0382L75.7236 77.0384L77.2072 78.3797ZM77.9787 65.0909L76.612 66.5511L76.6134 66.5524L77.9787 65.0909ZM77.7804 64.9347L76.6119 66.5578L76.6119 66.5578L77.7804 64.9347ZM77.6082 64.8023L75.7134 64.1622C75.4539 64.9304 75.6839 65.7793 76.2957 66.3114L77.6082 64.8023ZM81.0511 52.4075L82.9992 52.8602L82.9994 52.8594L81.0511 52.4075ZM32.697 63.6715L33.8837 65.2814L33.8838 65.2813L32.697 63.6715ZM30.1431 65.7619L28.8407 64.2441L28.8407 64.2441L30.1431 65.7619ZM36.9808 48.4049L35.2456 49.3995L35.2459 49.4L36.9808 48.4049ZM15.877 48.0534L17.5524 49.1458L17.5528 49.1451L15.877 48.0534ZM18.3229 69.2758L19.3745 67.5745L19.3742 67.5744L18.3229 69.2758ZM47.6403 78.9465L45.7398 78.3235L45.7392 78.3254L47.6403 78.9465ZM42.4824 77.4218L43.6455 75.7948C42.9495 75.2972 42.014 75.2975 41.3183 75.7955L42.4824 77.4218ZM43.6245 63.1272L41.82 63.9897C41.8221 63.9941 41.8243 63.9985 41.8264 64.0029L43.6245 63.1272ZM43.0137 62.3686L41.3 63.3998C41.425 63.6076 41.5868 63.7908 41.7774 63.9407L43.0137 62.3686ZM42.5212 62.1064L42.1224 64.0662C42.3183 64.1061 42.5191 64.1164 42.7181 64.0967L42.5212 62.1064ZM42.5006 62.1062L42.3068 60.1156L42.3065 60.1156L42.5006 62.1062ZM42.4833 62.1064L42.7699 60.127C42.5859 60.1004 42.3991 60.0995 42.2149 60.1245L42.4833 62.1064ZM42.4454 62.1064L42.2486 64.0967C42.4477 64.1164 42.6486 64.1061 42.8446 64.0662L42.4454 62.1064ZM41.9539 62.3677L43.2007 63.9315C43.3885 63.7817 43.5479 63.5993 43.671 63.3931L41.9539 62.3677ZM41.3403 63.1272L43.1368 64.0062L43.1374 64.0051L41.3403 63.1272ZM37.3236 78.9465L39.2245 78.3247L39.2244 78.3245L37.3236 78.9465ZM67.5816 68.2615L68.7443 69.8888L68.7456 69.8879L67.5816 68.2615ZM55.5605 65.5575L56.7583 63.9559L55.5605 65.5575ZM68.6359 46.9179L70.2361 45.7181L70.2355 45.7174L68.6359 46.9179ZM47.6015 48.6992L49.3979 49.5784L49.3984 49.5773L47.6015 48.6992ZM52.8721 63.6433L53.9475 61.957L53.947 61.9567L52.8721 63.6433ZM45.9533 18.2183L42.2997 1.61103L38.3931 2.47048L42.0467 19.0778L45.9533 18.2183ZM29.8922 17.0548L43.4978 20.584L44.5022 16.7121L30.8965 13.183L29.8922 17.0548ZM34.7387 30.7052L32.3725 14.8242L28.4162 15.4137L30.7824 31.2947L34.7387 30.7052ZM17.1246 17.6845L31.3217 32.3891L34.1994 29.6108L20.0022 14.9061L17.1246 17.6845ZM13.2659 31.8694L20.3645 17.1648L16.7623 15.4258L9.66367 30.1305L13.2659 31.8694ZM5.07295 24.7647L9.78304 32.0824L13.1465 29.9175L8.43644 22.5998L5.07295 24.7647ZM4.99993 22.7227C0.387712 31.1569 -1.39371 41.1355 1.18986 51.0748L5.06121 50.0685C2.76435 41.2322 4.3244 32.2949 8.50946 24.6419L4.99993 22.7227ZM1.18975 51.0744C2.721 56.9705 4.34744 62.431 6.25245 67.3426L9.98176 65.8961C8.15556 61.1877 6.5738 55.8927 5.06132 50.0689L1.18975 51.0744ZM6.61901 65.2943C4.6217 67.5525 4.1969 70.6639 4.53768 73.4007C4.88069 76.1554 6.04148 78.9488 7.76546 80.8583L10.7344 78.1778C9.64847 76.9749 8.76625 74.9883 8.50703 72.9065C8.24558 70.8068 8.65933 69.0251 9.6152 67.9444L6.61901 65.2943ZM7.76599 80.8588C9.59777 82.8862 13.6826 86.3974 17.2903 87.8881L18.8178 84.1913C15.9648 83.0124 12.3487 79.9644 10.7339 78.1772L7.76599 80.8588ZM18.3486 88.0179C19.576 87.8351 21.6965 87.7007 23.3616 88.366C24.1423 88.6778 24.7581 89.1393 25.1789 89.8152C25.6027 90.4959 25.9423 91.5773 25.8418 93.3255L29.8352 93.5552C29.9712 91.1895 29.5327 89.2402 28.5746 87.7012C27.6134 86.1572 26.2435 85.2099 24.8456 84.6514C22.1535 83.576 19.1452 83.8552 17.7594 84.0615L18.3486 88.0179ZM27.0739 95.2884C28.0371 95.6869 29.0305 96.0261 30.0327 96.3276L31.1848 92.4971C30.2742 92.2232 29.4122 91.927 28.6031 91.5923L27.0739 95.2884ZM32.6087 94.4123V91.159H28.6087V94.4123H32.6087ZM30.6087 93.159H31.761V89.159H30.6087V93.159ZM29.761 91.159V94.7328H33.761V91.159H29.761ZM31.2592 96.6689C32.8929 97.0923 34.5987 97.4198 36.3734 97.6381L36.8619 93.6681C35.2602 93.471 33.7264 93.1762 32.2628 92.7968L31.2592 96.6689ZM38.6176 95.6531V91.159H34.6176V95.6531H38.6176ZM36.6176 93.159H37.7662V89.159H36.6176V93.159ZM35.7662 91.159V95.7678H39.7662V91.159H35.7662ZM37.5748 97.7586C39.2003 97.9149 40.8683 98 42.5822 98V94C41.0011 94 39.4609 93.9215 37.9576 93.777L37.5748 97.7586ZM42.5822 98H42.6247V94H42.5822V98ZM44.6247 96V91.1571H40.6247V96H44.6247ZM42.6247 93.1571H43.7751V89.1571H42.6247V93.1571ZM41.7751 91.1571V95.9774H45.7751V91.1571H41.7751ZM43.8187 97.9769C45.5104 97.9401 47.187 97.835 48.8138 97.6343L48.3241 93.6644C46.8573 93.8453 45.3182 93.9433 43.7315 93.9779L43.8187 97.9769ZM50.5689 95.6493V91.1571H46.5689V95.6493H50.5689ZM48.5689 93.1571H49.7221V89.1571H48.5689V93.1571ZM47.7221 91.1571V95.4811H51.7221V91.1571H47.7221ZM50.0195 97.4589C51.7044 97.2055 53.3354 96.8577 54.8992 96.4034L53.7834 92.5622C52.4089 92.9615 50.9536 93.2735 49.4248 93.5033L50.0195 97.4589ZM56.3413 94.4828V91.159H52.3413V94.4828H56.3413ZM54.3413 93.159H55.4917V89.159H54.3413V93.159ZM53.4917 91.159V94.1209H57.4917V91.159H53.4917ZM56.1283 96.0169C56.8186 95.7851 57.5121 95.5334 58.1968 95.2445L56.6417 91.5592C56.079 91.7966 55.4862 92.013 54.8551 92.2249L56.1283 96.0169ZM59.4038 93.1537C59.1212 90.8933 59.5029 89.5721 59.9909 88.7909C60.4744 88.0168 61.2226 87.516 62.1882 87.2092C64.2416 86.5567 66.7211 86.9587 67.4003 87.0965L68.1954 83.1763C67.4238 83.0198 64.0714 82.4137 60.9768 83.397C59.3684 83.9081 57.7136 84.8863 56.5984 86.6718C55.4875 88.4502 55.0746 90.7694 55.4347 93.6499L59.4038 93.1537ZM68.4439 87.0292C70.414 86.3567 72.5089 85.0242 74.2764 83.6841C76.0659 82.3273 77.6787 80.8403 78.6907 79.721L75.7236 77.0384C74.9033 77.9457 73.4816 79.2669 71.8596 80.4967C70.2156 81.7433 68.522 82.7759 67.1517 83.2436L68.4439 87.0292ZM78.6905 79.7212C80.4814 77.7409 81.6721 74.7988 81.9642 71.9267C82.2544 69.0734 81.6904 65.8214 79.344 63.6294L76.6134 66.5524C77.6951 67.5629 78.2067 69.3395 77.9847 71.522C77.7647 73.6857 76.8556 75.7867 75.7238 77.0382L78.6905 79.7212ZM79.3454 63.6307C79.1741 63.4703 79.0013 63.3492 78.949 63.3116L76.6119 66.5578C76.6207 66.5641 76.6276 66.5691 76.6341 66.5738C76.6405 66.5784 76.6455 66.5821 76.6497 66.5851C76.6582 66.5913 76.6612 66.5937 76.661 66.5935C76.6606 66.5932 76.6556 66.5893 76.6473 66.5825C76.639 66.5755 76.6268 66.5649 76.612 66.5511L79.3454 63.6307ZM78.949 63.3116C78.9337 63.3006 78.9239 63.2935 78.915 63.287C78.9065 63.2808 78.902 63.2774 78.8997 63.2757C78.8949 63.2721 78.9042 63.2788 78.9207 63.2932L76.2957 66.3114C76.4318 66.4298 76.5647 66.5238 76.6119 66.5578L78.949 63.3116ZM79.503 65.4424C80.8029 61.5942 81.9442 57.3998 82.9992 52.8602L79.103 51.9547C78.0679 56.409 76.9601 60.4716 75.7134 64.1622L79.503 65.4424ZM82.9994 52.8594C85.9645 40.0758 82.12 26.8712 74.4259 16.9004C66.7323 6.93031 55.0368 -3.05176e-05 42.0749 -3.05176e-05V3.99997C53.5746 3.99997 64.1758 10.1648 71.2591 19.3441C78.342 28.5227 81.7548 40.5219 79.1028 51.9556L82.9994 52.8594ZM42.0749 -3.05176e-05C41.465 -3.05176e-05 40.8573 0.0144221 40.2521 0.0429732L40.4407 4.03853C40.9833 4.01292 41.5281 3.99997 42.0749 3.99997V-3.05176e-05ZM31.5104 62.0616C30.6045 62.7293 29.697 63.5094 28.8407 64.2441L31.4455 67.2797C32.3276 66.5228 33.1192 65.8449 33.8837 65.2814L31.5104 62.0616ZM35.2459 49.4C35.5402 49.9132 35.7619 50.758 35.783 51.9254C35.8035 53.0676 35.6289 54.3822 35.2669 55.7172C34.5239 58.4581 33.1095 60.8826 31.5102 62.0617L33.8838 65.2813C36.487 63.3621 38.2577 59.9723 39.1276 56.7639C39.572 55.1243 39.8107 53.4305 39.7823 51.8533C39.7543 50.3013 39.4645 48.7156 38.7157 47.4099L35.2459 49.4ZM17.5528 49.1451C17.8124 48.7466 18.6785 48.1464 20.5274 47.715C22.2552 47.3117 24.4227 47.1542 26.6311 47.2372C28.837 47.32 30.9762 47.6387 32.6397 48.1248C33.4728 48.3683 34.1312 48.6378 34.6024 48.9058C34.8352 49.0382 34.9986 49.1569 35.1073 49.2529C35.2169 49.3496 35.2473 49.4025 35.2456 49.3995L38.716 47.4104C38.2037 46.5166 37.3776 45.8825 36.5798 45.4287C35.7551 44.9598 34.7842 44.5843 33.7618 44.2854C31.7141 43.687 29.2373 43.3322 26.7812 43.24C24.3274 43.1478 21.7865 43.3137 19.6184 43.8196C17.5714 44.2973 15.354 45.1921 14.2012 46.9617L17.5528 49.1451ZM19.3742 67.5744C18.4357 66.9945 17.6007 65.9438 16.953 64.4238C16.3095 62.9138 15.9072 61.0664 15.7584 59.1061C15.454 55.0941 16.2412 51.1567 17.5524 49.1458L14.2017 46.961C12.2234 49.9951 11.4305 54.9369 11.7699 59.4088C11.943 61.6906 12.4186 63.9864 13.2732 65.9919C14.1237 67.9876 15.4071 69.8251 17.2716 70.9772L19.3742 67.5744ZM28.8407 64.2441C27.0289 65.7988 25.4312 67.1471 23.8058 67.8532C22.3429 68.4886 20.9694 68.5603 19.3745 67.5745L17.2714 70.977C20.1671 72.7668 22.9511 72.5855 25.3994 71.522C27.6851 70.5292 29.7521 68.7328 31.4455 67.2797L28.8407 64.2441ZM45.7392 78.3254C45.7974 78.1472 45.9455 77.8933 46.228 77.7069C46.484 77.538 46.7047 77.5209 46.762 77.5192C46.8144 77.5178 46.6495 77.5186 46.1974 77.3239C45.3605 76.9637 44.3456 76.2953 43.6455 75.7948L41.3193 79.0488C42.0551 79.5748 43.3614 80.4579 44.6156 80.9979C45.209 81.2534 46.0321 81.5416 46.8756 81.5176C47.3284 81.5048 47.8954 81.399 48.431 81.0455C48.9933 80.6746 49.3543 80.1403 49.5414 79.5676L45.7392 78.3254ZM41.8264 64.0029C41.8171 63.9839 41.8366 64.0242 41.8935 64.1717C41.9434 64.3011 42.0076 64.4748 42.0848 64.691C42.2389 65.1225 42.4354 65.6966 42.6581 66.3718C43.1032 67.7218 43.6445 69.4505 44.1491 71.208C44.6556 72.9724 45.1155 74.7328 45.4063 76.1573C45.5524 76.8726 45.6476 77.464 45.6894 77.9092C45.7401 78.449 45.6821 78.4996 45.7398 78.3235L49.5408 79.5695C49.766 78.8824 49.7238 78.0877 49.6719 77.5352C49.6111 76.8881 49.4854 76.1403 49.3255 75.3571C49.0044 73.7847 48.5124 71.9107 47.9938 70.1043C47.4732 68.291 46.9163 66.5123 46.4569 65.1191C46.0237 63.8055 45.6213 62.6596 45.4226 62.2515L41.8264 64.0029ZM41.7774 63.9407C41.7829 63.9451 41.7941 63.9553 41.8056 63.9692C41.8168 63.983 41.8207 63.9912 41.82 63.9897L45.429 62.2647C45.138 61.6559 44.7094 61.1578 44.2501 60.7966L41.7774 63.9407ZM42.7181 64.0967C42.4857 64.1197 42.1831 64.0886 41.8792 63.9317C41.579 63.7767 41.3967 63.5604 41.3 63.3998L44.7274 61.3375C44.5097 60.9757 44.1809 60.6185 43.7146 60.3776C43.2447 60.135 42.7563 60.0734 42.3244 60.1161L42.7181 64.0967ZM42.6945 64.0967C42.7233 64.0939 42.4474 64.1324 42.1224 64.0662L42.92 60.1466C42.744 60.1107 42.5919 60.104 42.48 60.1057C42.4261 60.1065 42.382 60.1093 42.3535 60.1115C42.3391 60.1126 42.3273 60.1137 42.3198 60.1143C42.3159 60.1147 42.3128 60.115 42.3107 60.1152C42.3087 60.1154 42.307 60.1156 42.3068 60.1156L42.6945 64.0967ZM42.1968 64.0858C42.347 64.1075 42.4732 64.1086 42.5597 64.1057C42.6021 64.1042 42.6367 64.1017 42.6586 64.1C42.6697 64.0991 42.6788 64.0982 42.6846 64.0977C42.6899 64.0972 42.6946 64.0967 42.6947 64.0967L42.3065 60.1156C42.2938 60.1168 42.3536 60.1104 42.4245 60.108C42.5053 60.1052 42.6256 60.1061 42.7699 60.127L42.1968 64.0858ZM42.8446 64.0662C42.7691 64.0815 42.6965 64.0917 42.6279 64.0978C42.5596 64.1039 42.4984 64.1057 42.4461 64.1054C42.3944 64.1052 42.3517 64.1029 42.3223 64.1009C42.2943 64.099 42.2727 64.0968 42.2697 64.0965C42.2687 64.0964 42.2678 64.0964 42.2684 64.0964C42.2685 64.0964 42.27 64.0966 42.2718 64.0967C42.2752 64.0971 42.283 64.0978 42.2927 64.0987C42.312 64.1004 42.3461 64.1032 42.3886 64.105C42.4774 64.1088 42.603 64.1084 42.7517 64.0883L42.2149 60.1245C42.3568 60.1053 42.4759 60.1051 42.5585 60.1086C42.5978 60.1103 42.6289 60.1128 42.6451 60.1143C42.6559 60.1152 42.6734 60.1169 42.6591 60.1155C42.634 60.1131 42.3694 60.0808 42.0463 60.1466L42.8446 64.0662ZM43.671 63.3931C43.5726 63.5579 43.3876 63.7769 43.0846 63.9328C42.7791 64.0899 42.477 64.1193 42.2486 64.0967L42.6423 60.1161C42.2143 60.0738 41.7265 60.1332 41.2551 60.3757C40.7862 60.6168 40.4553 60.9763 40.2367 61.3423L43.671 63.3931ZM43.1374 64.0051C43.1385 64.0027 43.1452 63.9904 43.1598 63.9725C43.1747 63.9544 43.19 63.94 43.2007 63.9315L40.707 60.8039C40.2596 61.1607 39.836 61.6502 39.5433 62.2494L43.1374 64.0051ZM39.2244 78.3245C39.2819 78.5 39.224 78.4488 39.2747 77.9091C39.3165 77.4637 39.4117 76.8723 39.5578 76.1569C39.8485 74.7324 40.3082 72.9722 40.8146 71.2079C41.319 69.4506 41.8602 67.722 42.3055 66.3722C42.5282 65.6971 42.7248 65.1231 42.879 64.6919C42.9562 64.4758 43.0205 64.3022 43.0704 64.1731C43.1273 64.0257 43.1466 63.9862 43.1368 64.0062L39.5438 62.2483C39.3431 62.6584 38.9398 63.8066 38.5068 65.1192C38.0472 66.5125 37.4903 68.2912 36.9699 70.1044C36.4514 71.9107 35.9595 73.7846 35.6386 75.357C35.4787 76.1401 35.353 76.8879 35.2922 77.5349C35.2403 78.0875 35.1981 78.8818 35.4228 79.5685L39.2244 78.3245ZM41.3183 75.7955C40.6199 76.2954 39.605 76.964 38.7681 77.3243C38.316 77.5189 38.1507 77.5182 38.2029 77.5196C38.26 77.5213 38.4803 77.5383 38.736 77.707C39.0183 77.8932 39.1663 78.1467 39.2245 78.3247L35.4227 79.5682C35.6101 80.1411 35.9713 80.6751 36.5334 81.046C37.069 81.3993 37.636 81.5051 38.0889 81.518C38.9327 81.5421 39.756 81.2539 40.3498 80.9983C41.6046 80.4581 42.9109 79.5747 43.6465 79.0481L41.3183 75.7955ZM66.419 66.6342C64.89 67.7265 63.5142 67.7469 62.0148 67.2128C60.3481 66.6191 58.6671 65.3834 56.7583 63.9559L54.3627 67.1591C56.1465 68.4932 58.3266 70.1452 60.6726 70.9809C63.1859 71.8762 65.9744 71.8678 68.7443 69.8888L66.419 66.6342ZM67.0357 48.1176C68.4731 50.0348 69.515 53.9098 69.4731 57.9344C69.4527 59.9006 69.172 61.7718 68.6287 63.3231C68.0818 64.8846 67.3171 65.9914 66.4177 66.6351L68.7456 69.8879C70.5276 68.6126 71.6865 66.6935 72.4039 64.6453C73.1248 62.5868 73.4491 60.2644 73.4729 57.976C73.5195 53.4915 72.407 48.6137 70.2361 45.7181L67.0357 48.1176ZM49.3984 49.5773C49.3972 49.5798 49.4245 49.5246 49.5278 49.4202C49.6304 49.3168 49.7861 49.187 50.01 49.039C50.4631 48.7395 51.1029 48.4259 51.9184 48.1265C53.5469 47.5287 55.6609 47.0658 57.8567 46.8336C60.055 46.6012 62.2281 46.6114 63.9784 46.8963C65.8521 47.2014 66.7532 47.7411 67.0363 48.1184L70.2355 45.7174C68.9677 44.028 66.6943 43.2858 64.6212 42.9483C62.4245 42.5907 59.8784 42.5976 57.4361 42.8558C54.9914 43.1143 52.5435 43.636 50.54 44.3715C49.5395 44.7388 48.5958 45.1789 47.8042 45.7022C47.0384 46.2084 46.2566 46.8961 45.8046 47.821L49.3984 49.5773ZM53.947 61.9567C52.2761 60.8918 50.7071 58.571 49.7871 55.8863C49.339 54.5788 49.0792 53.2788 49.0254 52.1374C48.9705 50.9709 49.1368 50.1119 49.3979 49.5784L45.8051 47.82C45.1431 49.1726 44.9568 50.7742 45.0299 52.3254C45.104 53.9017 45.4525 55.5764 46.0031 57.183C47.0804 60.3265 49.0698 63.5917 51.7972 65.3299L53.947 61.9567ZM56.7583 63.9559C55.8547 63.2801 54.8966 62.5623 53.9475 61.957L51.7967 65.3296C52.5968 65.8398 53.4317 66.4629 54.3627 67.1591L56.7583 63.9559Z" fill="#EE313B" fill-opacity="0.08" mask="url(#path-1-outside-1_12_45)"/>
</svg>
