<svg width="44" height="45" viewBox="0 0 44 45" fill="none"
  xmlns="http://www.w3.org/2000/svg">
  <g filter="url(#filter0_d_68_271)">
    <path d="M15.8472 28.6169V27.9798C15.8472 27.9692 15.8495 27.9587 15.8539 27.9489C15.8584 27.9391 15.865 27.9301 15.8733 27.9226C15.8816 27.9151 15.8915 27.9092 15.9024 27.9052C15.9132 27.9011 15.9249 27.8991 15.9367 27.8991H17.2027C17.2144 27.8991 17.2259 27.8971 17.2367 27.893C17.2475 27.889 17.2573 27.8831 17.2656 27.8756C17.2738 27.8682 17.2804 27.8593 17.2848 27.8496C17.2893 27.8399 17.2916 27.8294 17.2916 27.8189V26.2675C17.2917 26.257 17.2894 26.2465 17.285 26.2367C17.2805 26.2269 17.274 26.218 17.2657 26.2105C17.2575 26.203 17.2476 26.1971 17.2368 26.193C17.226 26.1889 17.2144 26.1868 17.2027 26.1868H15.938C15.9145 26.1868 15.8918 26.1784 15.8751 26.1633C15.8585 26.1483 15.8491 26.1279 15.8491 26.1066V24.9624C15.849 24.9518 15.8513 24.9413 15.8557 24.9316C15.8602 24.9218 15.8667 24.9129 15.875 24.9054C15.8832 24.8979 15.8931 24.8919 15.9039 24.8879C15.9147 24.8838 15.9263 24.8817 15.938 24.8817H17.2119C17.2355 24.8817 17.2582 24.8733 17.2748 24.8582C17.2915 24.8432 17.3009 24.8227 17.3009 24.8015V23.2463C17.3009 23.2358 17.2987 23.2253 17.2942 23.2155C17.2898 23.2057 17.2833 23.1968 17.275 23.1893C17.2667 23.1818 17.2569 23.1759 17.2461 23.1718C17.2353 23.1678 17.2237 23.1657 17.2119 23.1657H15.9353C15.9117 23.1657 15.889 23.1572 15.8724 23.1422C15.8557 23.1271 15.8463 23.1067 15.8463 23.0854V21.7477C15.8464 21.732 15.8515 21.7167 15.8611 21.7037C15.8706 21.6906 15.8842 21.6803 15.9001 21.6741C16.3678 21.4979 16.7779 21.2169 17.0915 20.8577C17.5118 20.3766 17.731 19.7773 17.7108 19.165C17.6909 18.1763 17.6488 17.1881 17.6182 16.1994C17.6177 16.1827 17.6231 16.1662 17.6335 16.1523C17.6439 16.1385 17.6589 16.1279 17.6763 16.1221C17.6937 16.1163 17.7127 16.1155 17.7306 16.1199C17.7485 16.1244 17.7645 16.1337 17.7762 16.1468L19.3567 17.89C19.3641 17.8982 19.3732 17.9051 19.3835 17.9101C19.3938 17.9152 19.4051 17.9183 19.4168 17.9194C19.4285 17.9205 19.4403 17.9195 19.4515 17.9165C19.4627 17.9134 19.4732 17.9084 19.4823 17.9017L20.5301 17.1325C20.5485 17.1189 20.5601 17.0994 20.5626 17.0781C20.565 17.0568 20.558 17.0355 20.5431 17.0188L18.8532 15.1347C18.8397 15.1195 18.8328 15.1005 18.8336 15.081C18.8345 15.0616 18.8431 15.0431 18.8578 15.0289L18.8615 15.0252C18.8778 15.0097 18.9002 15.0007 18.9238 15C18.9474 14.9994 18.9703 15.0072 18.9875 15.0218C18.9954 15.0285 19.0024 15.0352 19.0093 15.0419C19.7408 15.7918 20.6455 16.2747 21.7225 16.51C22.0417 16.5798 22.3344 16.5305 22.6309 16.4565C23.5214 16.2367 24.3284 15.8014 24.9647 15.1978C25.0008 15.1635 25.0365 15.128 25.0754 15.0891C25.0905 15.074 25.1113 15.0646 25.1337 15.0628C25.1562 15.061 25.1785 15.067 25.1963 15.0795L25.25 15.1167C25.2594 15.1233 25.2672 15.1315 25.2731 15.1409C25.2789 15.1503 25.2826 15.1606 25.2839 15.1713C25.2852 15.1819 25.2842 15.1927 25.2808 15.203C25.2775 15.2133 25.2719 15.2229 25.2644 15.2313C24.6932 15.8658 24.1276 16.495 23.5328 17.1542C23.518 17.1709 23.5111 17.1921 23.5136 17.2133C23.516 17.2345 23.5276 17.254 23.5458 17.2675L24.5941 18.0396C24.6125 18.0532 24.6361 18.0595 24.6597 18.0574C24.6833 18.0553 24.705 18.0449 24.7201 18.0284L26.3493 16.2274C26.361 16.2145 26.3768 16.2051 26.3946 16.2007C26.4124 16.1962 26.4314 16.1969 26.4487 16.2026C26.4661 16.2083 26.4811 16.2188 26.4916 16.2325C26.5021 16.2462 26.5075 16.2626 26.5073 16.2793C26.5073 16.2918 26.5073 16.3044 26.5073 16.3165C26.4795 17.1659 26.4609 18.0158 26.4202 18.8644C26.3553 20.1604 26.9075 21.1219 28.231 21.6808C28.2464 21.6871 28.2595 21.6973 28.2686 21.7101C28.2778 21.7229 28.2828 21.7378 28.2829 21.7531V23.077C28.2829 23.0876 28.2806 23.0982 28.2762 23.108C28.2717 23.1178 28.2651 23.1267 28.2568 23.1342C28.2485 23.1417 28.2386 23.1477 28.2277 23.1517C28.2169 23.1557 28.2052 23.1578 28.1934 23.1577H26.9228C26.8992 23.1577 26.8766 23.1662 26.8599 23.1812C26.8432 23.1963 26.8338 23.2167 26.8338 23.238V24.7927C26.8338 24.814 26.8432 24.8344 26.8599 24.8494C26.8766 24.8645 26.8992 24.8729 26.9228 24.8729H28.1828C28.2064 24.8729 28.229 24.8814 28.2457 24.8965C28.2624 24.9115 28.2717 24.9319 28.2717 24.9532V26.089C28.2717 26.1103 28.2624 26.1308 28.2457 26.1459C28.229 26.161 28.2064 26.1696 28.1828 26.1697H26.9209C26.8973 26.1697 26.8747 26.1782 26.858 26.1932C26.8414 26.2083 26.832 26.2287 26.832 26.25V27.8126C26.8319 27.8232 26.8342 27.8337 26.8386 27.8434C26.8431 27.8532 26.8496 27.8621 26.8579 27.8696C26.8661 27.8771 26.876 27.8831 26.8868 27.8871C26.8976 27.8912 26.9092 27.8933 26.9209 27.8933H28.186C28.2096 27.8933 28.2322 27.9017 28.2489 27.9168C28.2656 27.9318 28.275 27.9523 28.275 27.9736V28.6169C28.275 28.6323 28.2702 28.6473 28.2611 28.6602C28.252 28.6732 28.2389 28.6835 28.2236 28.6901C24.1196 30.4366 20.0122 30.4366 15.9014 28.6901C15.8858 28.6836 15.8724 28.6734 15.8628 28.6605C15.8532 28.6475 15.8478 28.6324 15.8472 28.6169ZM25.5641 26.3444V24.2354C25.5641 24.0903 25.5002 23.9511 25.3865 23.8485C25.2728 23.7459 25.1186 23.6882 24.9577 23.6882H19.4749C19.314 23.6882 19.1598 23.7459 19.0461 23.8485C18.9324 23.9511 18.8685 24.0903 18.8685 24.2354V26.3444C18.8685 26.4896 18.9324 26.6288 19.0461 26.7314C19.1598 26.834 19.314 26.8917 19.4749 26.8917H24.9573C25.0369 26.8917 25.1158 26.8776 25.1895 26.8501C25.2631 26.8227 25.33 26.7824 25.3863 26.7315C25.4427 26.6807 25.4874 26.6204 25.5179 26.554C25.5484 26.4875 25.5641 26.4163 25.5641 26.3444Z" fill="white"/>
    <path d="M16.7042 26.4072H15.353C15.158 26.4072 15 26.5498 15 26.7257V27.3406C15 27.5166 15.158 27.6592 15.353 27.6592H16.7042C16.8992 27.6592 17.0572 27.5166 17.0572 27.3406V26.7257C17.0572 26.5498 16.8992 26.4072 16.7042 26.4072Z" fill="white"/>
    <path d="M16.7056 23.3922H15.3562C15.1613 23.3922 15.0032 23.5348 15.0032 23.7107V24.3349C15.0032 24.5108 15.1613 24.6534 15.3562 24.6534H16.7056C16.9006 24.6534 17.0586 24.5108 17.0586 24.3349V23.7107C17.0586 23.5348 16.9006 23.3922 16.7056 23.3922Z" fill="white"/>
    <path d="M28.647 23.3906H27.4352C27.2402 23.3906 27.0822 23.5332 27.0822 23.7091V24.3295C27.0822 24.5054 27.2402 24.648 27.4352 24.648H28.647C28.842 24.648 29 24.5054 29 24.3295V23.7091C29 23.5332 28.842 23.3906 28.647 23.3906Z" fill="white"/>
    <path d="M28.6465 26.4076H27.43C27.2351 26.4076 27.077 26.5502 27.077 26.7261V27.3436C27.077 27.5195 27.2351 27.6621 27.43 27.6621H28.6465C28.8414 27.6621 28.9995 27.5195 28.9995 27.3436V26.7261C28.9995 26.5502 28.8414 26.4076 28.6465 26.4076Z" fill="white"/>
    <path d="M20.0636 17.1848L19.6342 17.5004C19.5845 17.5369 19.5208 17.5541 19.457 17.5483C19.3933 17.5424 19.3347 17.5139 19.2942 17.4691L18.049 16.0896C18.0086 16.0448 17.9896 15.9874 17.996 15.93C18.0024 15.8725 18.0338 15.8197 18.0833 15.7831L18.5122 15.4658C18.5369 15.4477 18.5652 15.434 18.5957 15.4258C18.6262 15.4175 18.6582 15.4147 18.6898 15.4176C18.7215 15.4204 18.7522 15.4289 18.7802 15.4425C18.8083 15.4561 18.8331 15.4745 18.8532 15.4968C19.2701 15.9566 19.6796 16.4135 20.0984 16.8784C20.1184 16.9006 20.1334 16.9261 20.1424 16.9535C20.1515 16.9809 20.1546 17.0096 20.1513 17.0381C20.1481 17.0666 20.1387 17.0942 20.1236 17.1193C20.1086 17.1445 20.0882 17.1668 20.0636 17.1848Z" fill="white"/>
    <path d="M25.5641 15.6024L25.9931 15.9168C26.0429 15.9532 26.0746 16.006 26.0813 16.0635C26.088 16.1211 26.0691 16.1787 26.0288 16.2236C25.6156 16.6835 25.2056 17.1391 24.7859 17.6052C24.766 17.6275 24.7414 17.646 24.7136 17.6597C24.6857 17.6734 24.6552 17.682 24.6236 17.685C24.5921 17.6881 24.5602 17.6855 24.5298 17.6774C24.4994 17.6693 24.471 17.6558 24.4464 17.6379C24.3023 17.5325 24.1591 17.4288 24.0142 17.3226C23.9894 17.3046 23.9688 17.2824 23.9536 17.2572C23.9384 17.232 23.9288 17.2043 23.9255 17.1757C23.9222 17.1472 23.9252 17.1183 23.9343 17.0908C23.9433 17.0633 23.9584 17.0376 23.9785 17.0154C24.3954 16.5555 24.8058 16.0982 25.2241 15.6338C25.2646 15.5889 25.3232 15.5605 25.3869 15.5546C25.4507 15.5487 25.5144 15.5659 25.5641 15.6024Z" fill="white"/>
    <path d="M24.8096 23.9085H19.6282C19.3425 23.9085 19.1108 24.1176 19.1108 24.3755V26.2048C19.1108 26.4627 19.3425 26.6718 19.6282 26.6718H24.8096C25.0953 26.6718 25.327 26.4627 25.327 26.2048V24.3755C25.327 24.1176 25.0953 23.9085 24.8096 23.9085Z" fill="white"/>
  </g>
  <defs>
    <filter id="filter0_d_68_271" x="0" y="0" width="44" height="45" filterUnits="userSpaceOnUse" color-interpolation-filters="sRGB">
      <feFlood flood-opacity="0" result="BackgroundImageFix"/>
      <feColorMatrix in="SourceAlpha" type="matrix" values="0 0 0 0 0 0 0 0 0 0 0 0 0 0 0 0 0 0 127 0" result="hardAlpha"/>
      <feOffset/>
      <feGaussianBlur stdDeviation="7.5"/>
      <feComposite in2="hardAlpha" operator="out"/>
      <feColorMatrix type="matrix" values="0 0 0 0 1 0 0 0 0 1 0 0 0 0 1 0 0 0 0.15 0"/>
      <feBlend mode="normal" in2="BackgroundImageFix" result="effect1_dropShadow_68_271"/>
      <feBlend mode="normal" in="SourceGraphic" in2="effect1_dropShadow_68_271" result="shape"/>
    </filter>
  </defs>
</svg>
