<svg width="147" height="34" viewBox="0 0 147 34" fill="none" xmlns="http://www.w3.org/2000/svg">
<rect width="147" height="33.19" rx="5" fill="url(#paint0_linear_447_222)"/>
<rect x="0.5" y="0.5" width="146" height="32.19" rx="4.5" stroke="white" stroke-opacity="0.04"/>
<path d="M30.2076 18.3515C29.9272 17.4256 29.6473 16.4996 29.3679 15.5736C29.1984 15.0114 29.0295 14.4492 28.861 13.887C28.2823 13.8285 27.7273 13.767 27.1719 13.7174C26.4862 13.6564 25.8951 13.2213 25.8015 12.6261C25.6946 11.944 25.8961 11.3641 26.5404 11.0491C26.8513 10.9013 27.2021 10.8494 27.5449 10.9003C27.6746 10.9162 27.8064 10.9167 27.9614 10.9251C27.8885 10.6562 27.8271 10.429 27.7728 10.2271C27.9444 10.0386 28.0999 9.88387 28.2378 9.71472C28.3758 9.54556 28.3293 9.39526 28.1893 9.24595C28.0492 9.09664 27.8937 9.04753 27.7082 9.14674C27.5599 9.2271 27.4194 9.32085 27.2819 9.40419C26.5162 8.96468 25.6915 9.24744 24.8616 9.14228L25.3055 10.2832C25.1417 10.371 25.0001 10.503 24.8492 10.5134C24.6611 10.5268 24.5909 10.3512 24.5309 10.18C24.4126 9.83675 24.2607 9.50439 24.1253 9.17353H23.5926L24.006 10.241L23.7667 10.5178C23.3446 10.4901 23.3373 10.4648 23.2283 10.1309C23.1193 9.79707 22.9699 9.48604 22.8428 9.17204H22.3199C22.4532 9.54457 22.5783 9.90075 22.7074 10.2574H22.7043C22.5974 10.4216 22.4594 10.5456 22.2419 10.4985C22.0352 10.4538 21.9954 10.2842 21.937 10.1126C21.828 9.7926 21.6864 9.48257 21.5614 9.17502H21.0369C21.1821 9.56442 21.3206 9.93596 21.4503 10.2797C21.0741 10.621 20.7863 10.5347 20.6592 10.1309C20.5558 9.80203 20.4075 9.48604 20.2779 9.16112C18.5784 9.16112 16.9084 9.15418 15.2388 9.17353C15.0973 9.17353 14.8575 9.33574 14.8368 9.45132C14.781 9.74998 14.7872 10.0563 14.8549 10.3526C14.889 10.4915 15.1283 10.5843 15.3158 10.7302V11.0913C15.3158 12.1543 15.3158 12.1543 16.4361 12.1543H20.4246C20.421 12.7 20.5734 13.1668 20.9671 13.5081C21.2491 13.7607 21.5722 13.9673 21.9236 14.1197C22.6134 14.4019 23.3306 14.522 24.0814 14.2715C24.5704 14.1129 25.0696 13.9847 25.5757 13.8875C26.2227 13.7581 26.8102 14.1227 26.9709 14.7353C27.0256 14.9397 27.0313 15.1564 27.067 15.4233C27.2669 15.7041 27.4581 16.0488 27.4008 16.4735C27.3935 16.5311 27.4076 16.5894 27.4406 16.6381C27.7036 16.9655 27.7506 17.3396 27.703 17.7176C28.058 18.2027 28.1939 18.6963 27.8818 19.2305C27.9154 19.2479 27.9294 19.2613 27.9433 19.2618C28.46 19.2643 28.9768 19.2672 29.4935 19.2667C30.1306 19.2652 30.3853 18.9359 30.2076 18.3515ZM23.2619 13.9173C22.5493 13.8841 21.8843 13.7124 21.3583 13.2139C21.0658 12.9361 20.9046 12.6027 20.9449 12.1756H22.6212C22.507 12.4653 22.4062 12.7263 22.3013 12.9857C22.231 13.1603 22.2279 13.3245 22.4341 13.4004C22.6403 13.4763 22.756 13.3602 22.8263 13.1831C22.9581 12.8523 23.0929 12.5229 23.2324 12.1791L23.4861 12.1543L24.0752 13.8865C23.7796 13.8965 23.5197 13.9272 23.2619 13.9148V13.9173Z" fill="white"/>
<path d="M21.8712 17.7518C21.2625 18.2042 20.6239 18.1541 19.9594 17.8594C19.3827 17.605 18.7906 17.3817 18.1969 17.1412C16.4493 17.7756 15.5446 19.3972 15.7926 21.0074C16.0509 22.6786 17.4125 23.9222 19.0712 24.075C20.9732 24.2501 22.3781 23.259 22.9982 21.7574C23.5836 20.3263 23.0597 18.5499 21.8712 17.7518ZM21.71 20.246C21.6791 20.3986 21.6144 20.543 21.5204 20.6696C21.3979 20.8318 21.2067 20.874 21.0119 20.7847C20.8171 20.6954 20.7794 20.5366 20.8197 20.3447C20.8652 20.1264 20.907 19.9071 20.8921 19.6854L20.1516 20.4345C20.2033 20.5366 20.2947 20.7033 20.3722 20.8759C20.6456 21.4821 20.5583 21.8958 20.0705 22.3294C19.6437 22.7094 19.1239 22.7674 18.5653 22.4906C18.4278 22.4226 18.3002 22.3378 18.1607 22.256C17.9096 22.3879 17.7122 22.8572 17.3593 22.4951C17.0064 22.133 17.522 21.9742 17.6512 21.7173C17.3634 21.3075 17.2146 20.8616 17.365 20.3635C17.4042 20.237 17.4653 20.1178 17.5458 20.0108C17.674 19.8417 17.8522 19.7598 18.0625 19.866C18.2728 19.9721 18.341 20.1522 18.2511 20.369C18.1478 20.6215 18.0909 20.8725 18.2046 21.1131L19.0634 20.2648C18.7689 19.7276 18.495 19.1001 19.1848 18.5509C19.7496 18.1015 20.3123 18.3089 20.8574 18.6462C21.247 18.3332 21.4088 18.292 21.5808 18.4507C21.7529 18.6095 21.7235 18.7325 21.3964 19.1591C21.6196 19.485 21.788 19.8397 21.7085 20.246H21.71Z" fill="white"/>
<path d="M15.5556 22.4866C15.013 21.4618 14.8967 20.3943 15.2352 19.2906C15.5068 18.3765 16.0987 17.5805 16.9109 17.037C17.3687 16.724 17.8136 16.3425 18.4471 16.6342V16.6401H18.5112V16.6342C19.1989 16.9318 19.8779 17.2498 20.578 17.5192C20.7559 17.5886 20.9528 17.5996 21.1379 17.5505C21.323 17.5014 21.486 17.395 21.6016 17.2478C22.0445 16.6525 21.8833 16.0374 21.1836 15.7438C20.2225 15.34 19.2561 14.9489 18.2843 14.5706C17.871 14.4099 17.4752 14.4585 17.1424 14.7785C16.7481 15.1574 16.358 15.5409 15.9539 15.9075C15.5612 16.2607 15.1582 16.6029 14.7448 16.9343C14.4493 17.1719 14.3315 17.4616 14.3382 17.8272C14.3557 19.231 14.3563 20.6344 14.3785 22.0382C14.388 22.1912 14.4469 22.3375 14.5469 22.4569C14.8508 22.8205 15.2662 22.8835 15.7214 22.813C15.7214 22.7887 15.7245 22.7793 15.7214 22.7729C15.6599 22.6761 15.6062 22.5819 15.5556 22.4866ZM19.9079 16.8138C19.9079 16.8172 19.9079 16.8207 19.9079 16.8247V16.8162C19.9079 16.8158 19.9079 16.8162 19.9079 16.8138C19.9079 16.8192 19.9079 16.8252 19.9079 16.8306V16.8232V16.8272L19.9047 16.8123L19.9079 16.8138Z" fill="white"/>
<path d="M26.3709 12.2079C26.3193 12.7258 26.6226 13.0834 27.1858 13.1544C27.3734 13.1782 27.5625 13.1891 27.7506 13.2084C28.2781 13.2625 28.8057 13.3181 29.3281 13.3726C29.5937 14.2556 29.85 15.1118 30.1104 15.9665C30.1404 16.0387 30.1776 16.108 30.2215 16.1734C30.2184 16.1752 30.2155 16.1772 30.2127 16.1793C30.3744 16.7785 30.5357 17.3783 30.7077 18.0177C30.741 17.9812 30.772 17.943 30.8007 17.9031C31.189 17.2318 31.5765 16.5601 31.9633 15.8881C32.092 15.6644 32.0904 15.4417 32.0062 15.1971C31.6833 14.2655 31.366 13.3325 31.0612 12.3949C30.9315 11.9981 30.6478 11.7868 30.2432 11.7396C29.2873 11.6285 28.3313 11.5313 27.3713 11.442C26.807 11.3899 26.4247 11.695 26.3709 12.2079Z" fill="white"/>
<path d="M26.9476 17.9289C27.2979 17.3792 27.2059 17.0826 26.6065 16.7666C26.9341 16.1763 26.8334 15.8018 26.2422 15.5642C26.5523 15.2864 26.5373 14.9764 26.3518 14.6743C26.1906 14.4114 25.9017 14.3593 25.6232 14.4228C25.0548 14.5522 24.4895 14.6966 23.9361 14.8747C23.5388 15.0022 23.3843 15.3395 23.5507 15.7085C23.637 15.8995 23.8338 16.0444 23.994 16.2244C23.9034 16.2997 23.8421 16.4024 23.8203 16.5155C23.7984 16.6286 23.8172 16.7455 23.8736 16.847C23.9837 17.0454 24.1651 17.2121 24.3283 17.409C24.178 17.5524 24.1216 17.7602 24.193 18.0226C24.2684 18.2945 24.4642 18.4195 24.7138 18.5068C24.4637 18.8664 24.4343 19.111 24.6146 19.3922C24.7753 19.6437 25.0419 19.7176 25.3122 19.6571C25.8976 19.5267 26.4804 19.3783 27.0509 19.1988C27.4297 19.0792 27.5459 18.7687 27.4534 18.4016C27.3863 18.1332 27.1935 18.0092 26.9476 17.9289Z" fill="white"/>
<path d="M13.9025 17.4993C13.7475 17.1392 13.222 16.9194 12.7658 17.0117C12.2547 17.1139 12 17.3947 12 17.858C12 19.1146 12 20.3701 12 21.6245C12.0028 21.8135 12.0179 22.0023 12.045 22.1895C12.0868 22.4951 12.51 22.753 12.8366 22.6776H12.8298L12.8195 22.6861L12.8319 22.6786C12.9353 22.7109 13.0386 22.7778 13.1342 22.7694C13.6556 22.7248 13.9527 22.4078 13.9542 21.8998C13.9577 20.5208 13.9577 19.1414 13.9542 17.7617C13.9548 17.6719 13.9373 17.5828 13.9025 17.4993Z" fill="white"/>
<path d="M33.8627 16.0285C33.6488 15.7194 33.3418 15.5592 33.0153 15.5498C32.6753 15.5498 32.4438 15.6326 32.3032 15.8767C31.6284 17.0454 30.9544 18.2146 30.2813 19.3843C30.2222 19.4811 30.1914 19.5914 30.1922 19.7036C30.193 19.8158 30.2254 19.9257 30.286 20.0217C30.4927 20.3883 30.8311 20.5674 31.2543 20.5793C31.5225 20.5862 31.756 20.486 31.8976 20.24C32.5652 19.0766 33.2347 17.9143 33.9061 16.7532C34.0518 16.5002 34.0208 16.2572 33.8627 16.0285Z" fill="white"/>
<path d="M18.739 21.8284C18.8997 21.9569 19.126 21.9717 19.3425 21.8179C19.5854 21.6458 19.6494 21.3363 19.5239 21.0535L18.739 21.8284Z" fill="white"/>
<path d="M19.7621 19.1452C19.5849 19.3124 19.6138 19.5073 19.7208 19.6978L20.3496 19.111C20.1414 19.0019 19.9383 18.978 19.7621 19.1452Z" fill="white"/>
<path d="M43.344 13.831H43.289C43.1937 14.117 43.0763 14.4507 42.937 14.832C42.805 15.206 42.6693 15.5983 42.53 16.009C42.3907 16.4123 42.2587 16.7937 42.134 17.153L42.035 17.593C41.991 17.725 41.9397 17.8827 41.881 18.066C41.8223 18.2493 41.76 18.44 41.694 18.638C41.6353 18.8287 41.5767 19.0083 41.518 19.177C41.4593 19.3457 41.4153 19.4887 41.386 19.606C41.32 19.628 41.2503 19.6463 41.177 19.661C41.111 19.683 41.0267 19.694 40.924 19.694C40.748 19.694 40.6013 19.6537 40.484 19.573C40.3667 19.4923 40.308 19.3713 40.308 19.21C40.308 19.1367 40.319 19.0633 40.341 18.99C40.3703 18.9093 40.3997 18.8213 40.429 18.726C40.5097 18.4767 40.6123 18.1723 40.737 17.813C40.8617 17.4463 41.001 17.0503 41.155 16.625C41.309 16.1997 41.4667 15.7707 41.628 15.338C41.7893 14.898 41.9433 14.4763 42.09 14.073C42.244 13.6697 42.3797 13.3177 42.497 13.017C42.5703 12.9803 42.684 12.9437 42.838 12.907C42.992 12.863 43.146 12.841 43.3 12.841C43.5053 12.841 43.6923 12.8703 43.861 12.929C44.037 12.9877 44.147 13.0867 44.191 13.226C44.3597 13.6367 44.5357 14.1097 44.719 14.645C44.9097 15.173 45.1003 15.723 45.291 16.295C45.489 16.867 45.676 17.4243 45.852 17.967C46.028 18.5097 46.1857 19.001 46.325 19.441C46.2663 19.5143 46.182 19.573 46.072 19.617C45.962 19.661 45.841 19.683 45.709 19.683C45.511 19.683 45.368 19.6463 45.28 19.573C45.192 19.4923 45.1187 19.3677 45.06 19.199L44.543 17.593L44.422 17.076C44.29 16.6653 44.1543 16.2583 44.015 15.855C43.883 15.4443 43.7583 15.0667 43.641 14.722C43.5237 14.37 43.4247 14.073 43.344 13.831ZM41.507 17.912L41.914 16.988H44.818L45.005 17.912H41.507ZM49.3687 18.803C49.8234 18.803 50.1644 18.704 50.3917 18.506C50.6191 18.308 50.7327 18.0587 50.7327 17.758C50.7327 17.494 50.6447 17.2777 50.4687 17.109C50.2927 16.9403 50.0214 16.801 49.6547 16.691L48.8187 16.438C48.4814 16.3353 48.1881 16.207 47.9387 16.053C47.6894 15.899 47.4951 15.7047 47.3557 15.47C47.2164 15.2353 47.1467 14.953 47.1467 14.623C47.1467 14.0437 47.3594 13.589 47.7847 13.259C48.2174 12.9217 48.7967 12.753 49.5227 12.753C49.9261 12.753 50.2854 12.797 50.6007 12.885C50.9234 12.9657 51.1727 13.0757 51.3487 13.215C51.5321 13.3543 51.6237 13.512 51.6237 13.688C51.6237 13.8053 51.5944 13.9117 51.5357 14.007C51.4771 14.095 51.4001 14.1683 51.3047 14.227C51.1287 14.0877 50.8904 13.9667 50.5897 13.864C50.2891 13.7613 49.9591 13.71 49.5997 13.71C49.2037 13.71 48.8921 13.7943 48.6647 13.963C48.4374 14.1243 48.3237 14.3443 48.3237 14.623C48.3237 14.843 48.4044 15.0227 48.5657 15.162C48.7271 15.294 48.9801 15.4113 49.3247 15.514L49.9737 15.712C50.5824 15.888 51.0554 16.1373 51.3927 16.46C51.7374 16.7753 51.9097 17.208 51.9097 17.758C51.9097 18.352 51.6897 18.8323 51.2497 19.199C50.8097 19.5657 50.1864 19.749 49.3797 19.749C48.9324 19.749 48.5364 19.6977 48.1917 19.595C47.8544 19.4997 47.5904 19.375 47.3997 19.221C47.2091 19.0597 47.1137 18.8873 47.1137 18.704C47.1137 18.5573 47.1577 18.4363 47.2457 18.341C47.3337 18.2383 47.4327 18.1613 47.5427 18.11C47.7261 18.2713 47.9681 18.429 48.2687 18.583C48.5767 18.7297 48.9434 18.803 49.3687 18.803ZM55.2017 18.803C55.6564 18.803 55.9974 18.704 56.2247 18.506C56.4521 18.308 56.5657 18.0587 56.5657 17.758C56.5657 17.494 56.4777 17.2777 56.3017 17.109C56.1257 16.9403 55.8544 16.801 55.4877 16.691L54.6517 16.438C54.3144 16.3353 54.0211 16.207 53.7717 16.053C53.5224 15.899 53.3281 15.7047 53.1887 15.47C53.0494 15.2353 52.9797 14.953 52.9797 14.623C52.9797 14.0437 53.1924 13.589 53.6177 13.259C54.0504 12.9217 54.6297 12.753 55.3557 12.753C55.7591 12.753 56.1184 12.797 56.4337 12.885C56.7564 12.9657 57.0057 13.0757 57.1817 13.215C57.3651 13.3543 57.4567 13.512 57.4567 13.688C57.4567 13.8053 57.4274 13.9117 57.3687 14.007C57.3101 14.095 57.2331 14.1683 57.1377 14.227C56.9617 14.0877 56.7234 13.9667 56.4227 13.864C56.1221 13.7613 55.7921 13.71 55.4327 13.71C55.0367 13.71 54.7251 13.7943 54.4977 13.963C54.2704 14.1243 54.1567 14.3443 54.1567 14.623C54.1567 14.843 54.2374 15.0227 54.3987 15.162C54.5601 15.294 54.8131 15.4113 55.1577 15.514L55.8067 15.712C56.4154 15.888 56.8884 16.1373 57.2257 16.46C57.5704 16.7753 57.7427 17.208 57.7427 17.758C57.7427 18.352 57.5227 18.8323 57.0827 19.199C56.6427 19.5657 56.0194 19.749 55.2127 19.749C54.7654 19.749 54.3694 19.6977 54.0247 19.595C53.6874 19.4997 53.4234 19.375 53.2327 19.221C53.0421 19.0597 52.9467 18.8873 52.9467 18.704C52.9467 18.5573 52.9907 18.4363 53.0787 18.341C53.1667 18.2383 53.2657 18.1613 53.3757 18.11C53.5591 18.2713 53.8011 18.429 54.1017 18.583C54.4097 18.7297 54.7764 18.803 55.2017 18.803ZM61.6165 13.831H61.5615C61.4661 14.117 61.3488 14.4507 61.2095 14.832C61.0775 15.206 60.9418 15.5983 60.8025 16.009C60.6631 16.4123 60.5311 16.7937 60.4065 17.153L60.3075 17.593C60.2635 17.725 60.2121 17.8827 60.1535 18.066C60.0948 18.2493 60.0325 18.44 59.9665 18.638C59.9078 18.8287 59.8491 19.0083 59.7905 19.177C59.7318 19.3457 59.6878 19.4887 59.6585 19.606C59.5925 19.628 59.5228 19.6463 59.4495 19.661C59.3835 19.683 59.2991 19.694 59.1965 19.694C59.0205 19.694 58.8738 19.6537 58.7565 19.573C58.6391 19.4923 58.5805 19.3713 58.5805 19.21C58.5805 19.1367 58.5915 19.0633 58.6135 18.99C58.6428 18.9093 58.6721 18.8213 58.7015 18.726C58.7821 18.4767 58.8848 18.1723 59.0095 17.813C59.1341 17.4463 59.2735 17.0503 59.4275 16.625C59.5815 16.1997 59.7391 15.7707 59.9005 15.338C60.0618 14.898 60.2158 14.4763 60.3625 14.073C60.5165 13.6697 60.6521 13.3177 60.7695 13.017C60.8428 12.9803 60.9565 12.9437 61.1105 12.907C61.2645 12.863 61.4185 12.841 61.5725 12.841C61.7778 12.841 61.9648 12.8703 62.1335 12.929C62.3095 12.9877 62.4195 13.0867 62.4635 13.226C62.6321 13.6367 62.8081 14.1097 62.9915 14.645C63.1821 15.173 63.3728 15.723 63.5635 16.295C63.7615 16.867 63.9485 17.4243 64.1245 17.967C64.3005 18.5097 64.4581 19.001 64.5975 19.441C64.5388 19.5143 64.4545 19.573 64.3445 19.617C64.2345 19.661 64.1135 19.683 63.9815 19.683C63.7835 19.683 63.6405 19.6463 63.5525 19.573C63.4645 19.4923 63.3911 19.3677 63.3325 19.199L62.8155 17.593L62.6945 17.076C62.5625 16.6653 62.4268 16.2583 62.2875 15.855C62.1555 15.4443 62.0308 15.0667 61.9135 14.722C61.7961 14.37 61.6971 14.073 61.6165 13.831ZM59.7795 17.912L60.1865 16.988H63.0905L63.2775 17.912H59.7795ZM65.7919 15.448H66.9469V19.507L66.4079 19.606C66.2246 19.606 66.0742 19.5473 65.9569 19.43C65.8469 19.3127 65.7919 19.1623 65.7919 18.979V15.448ZM66.4079 19.606V18.638H69.9499C69.9866 18.682 70.0196 18.7443 70.0489 18.825C70.0782 18.9057 70.0929 18.9973 70.0929 19.1C70.0929 19.2613 70.0526 19.386 69.9719 19.474C69.8912 19.562 69.7849 19.606 69.6529 19.606H66.4079ZM66.9469 16.581H65.7919V12.918C65.8432 12.9033 65.9166 12.8887 66.0119 12.874C66.1146 12.852 66.2209 12.841 66.3309 12.841C66.5436 12.841 66.6976 12.8813 66.7929 12.962C66.8956 13.0353 66.9469 13.171 66.9469 13.369V16.581ZM72.2675 13.864L72.2235 12.907H75.0615C75.0908 12.951 75.1201 13.017 75.1495 13.105C75.1788 13.1857 75.1935 13.27 75.1935 13.358C75.1935 13.5193 75.1531 13.644 75.0725 13.732C74.9991 13.82 74.8965 13.864 74.7645 13.864H72.2675ZM72.7955 12.907L72.8285 13.864H69.9905C69.9611 13.82 69.9318 13.7577 69.9025 13.677C69.8731 13.589 69.8585 13.4973 69.8585 13.402C69.8585 13.2407 69.8951 13.1197 69.9685 13.039C70.0491 12.951 70.1555 12.907 70.2875 12.907H72.7955ZM71.9485 13.567H73.0925V19.573C73.0485 19.5877 72.9751 19.606 72.8725 19.628C72.7698 19.65 72.6671 19.661 72.5645 19.661C72.3518 19.661 72.1941 19.6207 72.0915 19.54C71.9961 19.452 71.9485 19.3127 71.9485 19.122V13.567ZM82.2322 16.251C82.2322 17.0137 82.0892 17.6553 81.8032 18.176C81.5172 18.6967 81.1285 19.089 80.6372 19.353C80.1458 19.617 79.5885 19.749 78.9652 19.749C78.3492 19.749 77.7918 19.617 77.2932 19.353C76.8018 19.089 76.4132 18.6967 76.1272 18.176C75.8412 17.6553 75.6982 17.0137 75.6982 16.251C75.6982 15.4883 75.8448 14.8467 76.1382 14.326C76.4315 13.8053 76.8238 13.413 77.3152 13.149C77.8065 12.885 78.3565 12.753 78.9652 12.753C79.5812 12.753 80.1348 12.885 80.6262 13.149C81.1175 13.413 81.5062 13.8053 81.7922 14.326C82.0855 14.8467 82.2322 15.4883 82.2322 16.251ZM81.0442 16.251C81.0442 15.4297 80.8535 14.8027 80.4722 14.37C80.0982 13.93 79.5958 13.71 78.9652 13.71C78.3418 13.71 77.8395 13.93 77.4582 14.37C77.0768 14.8027 76.8862 15.4297 76.8862 16.251C76.8862 17.0723 77.0732 17.703 77.4472 18.143C77.8285 18.5757 78.3345 18.792 78.9652 18.792C79.6032 18.792 80.1092 18.5757 80.4832 18.143C80.8572 17.703 81.0442 17.0723 81.0442 16.251ZM85.9013 15.448H87.0563V19.507L86.5173 19.606C86.3339 19.606 86.1836 19.5473 86.0663 19.43C85.9563 19.3127 85.9013 19.1623 85.9013 18.979V15.448ZM86.5173 19.606V18.638H90.0593C90.0959 18.682 90.1289 18.7443 90.1583 18.825C90.1876 18.9057 90.2023 18.9973 90.2023 19.1C90.2023 19.2613 90.1619 19.386 90.0813 19.474C90.0006 19.562 89.8943 19.606 89.7623 19.606H86.5173ZM87.0563 16.581H85.9013V12.918C85.9526 12.9033 86.0259 12.8887 86.1213 12.874C86.2239 12.852 86.3303 12.841 86.4403 12.841C86.6529 12.841 86.8069 12.8813 86.9023 12.962C87.0049 13.0353 87.0563 13.171 87.0563 13.369V16.581ZM91.4553 15.382H92.5993V19.573C92.5553 19.5877 92.4819 19.606 92.3793 19.628C92.2839 19.65 92.1813 19.661 92.0713 19.661C91.8586 19.661 91.7009 19.6207 91.5983 19.54C91.5029 19.452 91.4553 19.3127 91.4553 19.122V15.382ZM92.5993 16.57H91.4553V12.918C91.5066 12.9033 91.5799 12.8887 91.6753 12.874C91.7779 12.852 91.8843 12.841 91.9943 12.841C92.2069 12.841 92.3609 12.8813 92.4563 12.962C92.5516 13.0353 92.5993 13.171 92.5993 13.369V16.57ZM98.0491 15.701V16.581H95.2111V15.701H98.0491ZM96.9271 16.581L97.2021 15.91C97.7374 15.91 98.1811 15.9907 98.5331 16.152C98.8924 16.306 99.1601 16.5187 99.3361 16.79C99.5121 17.0613 99.6001 17.3693 99.6001 17.714C99.6001 18.396 99.3507 18.902 98.8521 19.232C98.3607 19.562 97.6567 19.727 96.7401 19.727C96.5494 19.727 96.3514 19.7197 96.1461 19.705C95.9407 19.6977 95.7354 19.6757 95.5301 19.639C95.3247 19.6097 95.1304 19.5693 94.9471 19.518C94.6171 19.4153 94.4521 19.221 94.4521 18.935V13.435C94.4521 13.303 94.4851 13.204 94.5511 13.138C94.6244 13.0647 94.7234 13.0097 94.8481 12.973C95.0974 12.8997 95.3724 12.8483 95.6731 12.819C95.9811 12.7897 96.3037 12.775 96.6411 12.775C97.4991 12.775 98.1627 12.9253 98.6321 13.226C99.1087 13.5267 99.3471 13.9887 99.3471 14.612C99.3471 14.9347 99.2627 15.2243 99.0941 15.481C98.9254 15.7377 98.6651 15.9393 98.3131 16.086C97.9611 16.2327 97.5064 16.306 96.9491 16.306L96.8501 15.701C97.2974 15.701 97.6311 15.613 97.8511 15.437C98.0711 15.2537 98.1811 14.997 98.1811 14.667C98.1811 14.3443 98.0527 14.1023 97.7961 13.941C97.5394 13.7723 97.1581 13.688 96.6521 13.688C96.4394 13.688 96.2414 13.6953 96.0581 13.71C95.8821 13.7247 95.7244 13.7467 95.5851 13.776V18.693C95.7391 18.7297 95.9224 18.759 96.1351 18.781C96.3551 18.7957 96.5677 18.803 96.7731 18.803C97.3084 18.803 97.7154 18.7113 97.9941 18.528C98.2801 18.3447 98.4231 18.0623 98.4231 17.681C98.4231 17.3363 98.2947 17.0687 98.0381 16.878C97.7887 16.68 97.4184 16.581 96.9271 16.581ZM101.091 15.36H102.224V19.507C102.187 19.5217 102.117 19.5437 102.015 19.573C101.919 19.595 101.817 19.606 101.707 19.606C101.523 19.606 101.373 19.5473 101.256 19.43C101.146 19.3127 101.091 19.1623 101.091 18.979V15.36ZM102.224 17.109L101.091 17.098V13.534C101.091 13.3433 101.146 13.193 101.256 13.083C101.373 12.9657 101.523 12.907 101.707 12.907C101.817 12.907 101.919 12.918 102.015 12.94C102.117 12.962 102.187 12.984 102.224 13.006V17.109ZM101.707 16.636V15.701H105.029C105.058 15.745 105.084 15.8073 105.106 15.888C105.135 15.9687 105.15 16.0567 105.15 16.152C105.15 16.306 105.113 16.427 105.04 16.515C104.966 16.5957 104.864 16.636 104.732 16.636H101.707ZM101.707 19.606V18.66H105.414C105.443 18.704 105.469 18.7663 105.491 18.847C105.52 18.9277 105.535 19.0157 105.535 19.111C105.535 19.265 105.498 19.386 105.425 19.474C105.351 19.562 105.249 19.606 105.117 19.606H101.707ZM101.707 13.853V12.907H105.359C105.388 12.951 105.414 13.0133 105.436 13.094C105.465 13.1747 105.48 13.2627 105.48 13.358C105.48 13.512 105.443 13.633 105.37 13.721C105.296 13.809 105.194 13.853 105.062 13.853H101.707ZM108.121 16.229H109.21C109.694 16.229 110.076 16.1227 110.354 15.91C110.633 15.6973 110.772 15.3857 110.772 14.975C110.772 14.5643 110.629 14.2527 110.343 14.04C110.057 13.8273 109.639 13.721 109.089 13.721C108.921 13.721 108.752 13.7283 108.583 13.743C108.415 13.7577 108.261 13.7797 108.121 13.809V16.229ZM109.254 17.153H106.977V13.435C106.977 13.303 107.01 13.204 107.076 13.138C107.15 13.072 107.249 13.017 107.373 12.973C107.593 12.907 107.861 12.8593 108.176 12.83C108.492 12.7933 108.807 12.775 109.122 12.775C110.061 12.775 110.765 12.9693 111.234 13.358C111.704 13.7467 111.938 14.282 111.938 14.964C111.938 15.404 111.832 15.789 111.619 16.119C111.407 16.449 111.102 16.7057 110.706 16.889C110.31 17.065 109.826 17.153 109.254 17.153ZM109.177 16.834L110.101 16.504C110.299 16.746 110.501 16.999 110.706 17.263C110.912 17.527 111.11 17.7837 111.3 18.033C111.498 18.275 111.671 18.4987 111.817 18.704C111.971 18.902 112.092 19.0597 112.18 19.177C112.136 19.331 112.052 19.4557 111.927 19.551C111.81 19.639 111.682 19.683 111.542 19.683C111.366 19.683 111.227 19.6427 111.124 19.562C111.029 19.474 110.93 19.3603 110.827 19.221L109.177 16.834ZM106.977 16.79H108.132V19.573C108.081 19.5877 108.008 19.606 107.912 19.628C107.817 19.65 107.714 19.661 107.604 19.661C107.384 19.661 107.223 19.6207 107.12 19.54C107.025 19.452 106.977 19.3127 106.977 19.122V16.79ZM116.026 13.831H115.971C115.875 14.117 115.758 14.4507 115.619 14.832C115.487 15.206 115.351 15.5983 115.212 16.009C115.072 16.4123 114.94 16.7937 114.816 17.153L114.717 17.593C114.673 17.725 114.621 17.8827 114.563 18.066C114.504 18.2493 114.442 18.44 114.376 18.638C114.317 18.8287 114.258 19.0083 114.2 19.177C114.141 19.3457 114.097 19.4887 114.068 19.606C114.002 19.628 113.932 19.6463 113.859 19.661C113.793 19.683 113.708 19.694 113.606 19.694C113.43 19.694 113.283 19.6537 113.166 19.573C113.048 19.4923 112.99 19.3713 112.99 19.21C112.99 19.1367 113.001 19.0633 113.023 18.99C113.052 18.9093 113.081 18.8213 113.111 18.726C113.191 18.4767 113.294 18.1723 113.419 17.813C113.543 17.4463 113.683 17.0503 113.837 16.625C113.991 16.1997 114.148 15.7707 114.31 15.338C114.471 14.898 114.625 14.4763 114.772 14.073C114.926 13.6697 115.061 13.3177 115.179 13.017C115.252 12.9803 115.366 12.9437 115.52 12.907C115.674 12.863 115.828 12.841 115.982 12.841C116.187 12.841 116.374 12.8703 116.543 12.929C116.719 12.9877 116.829 13.0867 116.873 13.226C117.041 13.6367 117.217 14.1097 117.401 14.645C117.591 15.173 117.782 15.723 117.973 16.295C118.171 16.867 118.358 17.4243 118.534 17.967C118.71 18.5097 118.867 19.001 119.007 19.441C118.948 19.5143 118.864 19.573 118.754 19.617C118.644 19.661 118.523 19.683 118.391 19.683C118.193 19.683 118.05 19.6463 117.962 19.573C117.874 19.4923 117.8 19.3677 117.742 19.199L117.225 17.593L117.104 17.076C116.972 16.6653 116.836 16.2583 116.697 15.855C116.565 15.4443 116.44 15.0667 116.323 14.722C116.205 14.37 116.106 14.073 116.026 13.831ZM114.189 17.912L114.596 16.988H117.5L117.687 17.912H114.189ZM124.777 16.196C124.777 15.6167 124.667 15.1473 124.447 14.788C124.227 14.4213 123.934 14.1537 123.567 13.985C123.2 13.809 122.786 13.721 122.324 13.721C122.126 13.721 121.946 13.7283 121.785 13.743C121.631 13.7577 121.484 13.776 121.345 13.798V18.682C121.499 18.7187 121.668 18.7443 121.851 18.759C122.034 18.7737 122.218 18.781 122.401 18.781C123.164 18.781 123.75 18.5647 124.161 18.132C124.572 17.692 124.777 17.0467 124.777 16.196ZM125.954 16.196C125.954 16.988 125.807 17.648 125.514 18.176C125.221 18.6967 124.806 19.0853 124.271 19.342C123.743 19.5987 123.12 19.727 122.401 19.727C122.166 19.727 121.891 19.716 121.576 19.694C121.261 19.672 120.967 19.617 120.696 19.529C120.366 19.419 120.201 19.2247 120.201 18.946V13.424C120.201 13.2993 120.234 13.204 120.3 13.138C120.373 13.0647 120.472 13.0097 120.597 12.973C120.846 12.8923 121.121 12.841 121.422 12.819C121.723 12.7897 122.016 12.775 122.302 12.775C123.028 12.775 123.662 12.9033 124.205 13.16C124.755 13.4093 125.184 13.787 125.492 14.293C125.8 14.7917 125.954 15.426 125.954 16.196ZM133.58 16.251C133.58 17.0137 133.437 17.6553 133.151 18.176C132.865 18.6967 132.476 19.089 131.985 19.353C131.494 19.617 130.936 19.749 130.313 19.749C129.697 19.749 129.14 19.617 128.641 19.353C128.15 19.089 127.761 18.6967 127.475 18.176C127.189 17.6553 127.046 17.0137 127.046 16.251C127.046 15.4883 127.193 14.8467 127.486 14.326C127.779 13.8053 128.172 13.413 128.663 13.149C129.154 12.885 129.704 12.753 130.313 12.753C130.929 12.753 131.483 12.885 131.974 13.149C132.465 13.413 132.854 13.8053 133.14 14.326C133.433 14.8467 133.58 15.4883 133.58 16.251ZM132.392 16.251C132.392 15.4297 132.201 14.8027 131.82 14.37C131.446 13.93 130.944 13.71 130.313 13.71C129.69 13.71 129.187 13.93 128.806 14.37C128.425 14.8027 128.234 15.4297 128.234 16.251C128.234 17.0723 128.421 17.703 128.795 18.143C129.176 18.5757 129.682 18.792 130.313 18.792C130.951 18.792 131.457 18.5757 131.831 18.143C132.205 17.703 132.392 17.0723 132.392 16.251Z" fill="white"/>
<defs>
<linearGradient id="paint0_linear_447_222" x1="147" y1="16.595" x2="0" y2="16.595" gradientUnits="userSpaceOnUse">
<stop stop-color="#D3132F"/>
<stop offset="1" stop-color="#B10D25"/>
</linearGradient>
</defs>
</svg>
