<svg width="17" height="9" viewBox="0 0 17 9" fill="none"
  xmlns="http://www.w3.org/2000/svg">
  <path fill-rule="evenodd" clip-rule="evenodd" d="M0.061515 5.49156C0.0476936 5.21744 0.057215 4.98887 0.0667365 4.7603C0.0716849 4.64254 0.0785292 4.52478 0.0853736 4.40701C0.0908491 4.3128 0.0963245 4.21859 0.100829 4.12438C0.105162 4.03252 0.115809 3.9411 0.126454 3.8497C0.13241 3.79855 0.138367 3.74741 0.143215 3.69621C0.171472 3.4005 0.227679 3.10847 0.301086 2.81907C0.387393 2.47833 0.524072 2.15155 0.705286 1.83951C0.880972 1.53695 1.09966 1.25809 1.3466 0.994761C1.54225 0.785681 1.74066 0.578708 1.95044 0.380161C2.07944 0.257979 2.22534 0.152122 2.37215 0.0467922C2.37683 0.0433274 2.38195 0.0403678 2.38711 0.0373885L2.39396 0.0333626C2.47381 -0.0124559 2.53524 -0.0119292 2.61049 0.0402091C2.75946 0.143432 2.89736 0.257452 3.03128 0.374631C3.42565 0.71985 3.76258 1.10351 4.06666 1.50956C4.26722 1.77763 4.43031 2.06096 4.54764 2.36273C4.6189 2.54601 4.67449 2.73323 4.71749 2.92335C4.75189 3.07582 4.77861 3.22881 4.80472 3.38233C4.81559 3.44635 4.82324 3.51064 4.83088 3.57489C4.83836 3.63775 4.84584 3.70059 4.85632 3.76309C4.87487 3.87373 4.88208 3.98514 4.88931 4.09665L4.89318 4.15545C4.89796 4.22545 4.9034 4.29536 4.90884 4.36529C4.91249 4.41208 4.91615 4.45909 4.91959 4.50593C4.92174 4.53543 4.92389 4.56492 4.92389 4.59441C4.9241 4.79871 4.92403 5.00289 4.92396 5.20712L4.92389 5.51368C4.9242 5.75673 4.91806 5.99951 4.90055 6.24203C4.8898 6.39318 4.86646 6.54222 4.78752 6.68073C4.71411 6.8095 4.59801 6.89455 4.43707 6.93563C4.11088 7.01937 3.77917 7.08256 3.44193 7.12312C3.05431 7.16972 2.66394 7.17025 2.27356 7.16578C2.05272 7.16314 1.83342 7.14813 1.61351 7.12917C1.26674 7.09942 0.932572 7.02516 0.599322 6.94353C0.594637 6.94237 0.589978 6.94105 0.585323 6.93974C0.574108 6.93657 0.562911 6.9334 0.551408 6.93247C0.452815 6.92378 0.385243 6.87612 0.325965 6.81081C0.230136 6.70575 0.138301 6.59936 0.118029 6.46244C0.104102 6.36875 0.0997502 6.27426 0.0954021 6.17984L0.0934579 6.13828C0.0894675 6.05504 0.0844372 5.97183 0.0795361 5.89075C0.0708563 5.74717 0.0628891 5.61004 0.061515 5.49156ZM1.10549 6.51668L1.1022 6.41121C1.09938 6.31804 1.09658 6.22526 1.09167 6.13249C1.08827 6.07076 1.08298 6.00911 1.07768 5.94741C1.07342 5.89778 1.06916 5.8481 1.06587 5.79833C1.06005 5.70983 1.05553 5.62146 1.05101 5.53303L1.04591 5.43442L1.04265 5.37532C1.03641 5.26499 1.03017 5.15477 1.04007 5.04417C1.05174 4.91435 1.06219 4.78453 1.06219 4.65418C1.06219 4.6107 1.06166 4.56719 1.06113 4.52368C1.05902 4.34957 1.0569 4.17536 1.0886 4.00219C1.09628 3.96059 1.07232 3.93636 1.01427 3.9282C0.971218 3.92199 0.928803 3.91396 0.8864 3.90594C0.856837 3.90034 0.827194 3.89473 0.797429 3.88975C0.702522 3.87395 0.605772 3.86842 0.507486 3.86869C0.483836 3.94874 0.474008 4.028 0.468479 4.10752C0.465211 4.15449 0.463055 4.2015 0.4609 4.24852C0.457991 4.31196 0.455081 4.37542 0.449436 4.43879L0.444889 4.48982C0.433903 4.61238 0.42291 4.73501 0.422101 4.85826C0.420258 5.12422 0.431008 5.38965 0.448515 5.65534C0.463565 5.88444 0.472165 6.11458 0.459572 6.34447C0.457729 6.37659 0.465715 6.3995 0.504722 6.41056L0.543746 6.42171C0.724143 6.47336 0.905238 6.52503 1.10549 6.51668Z" fill="white"/>
  <path fill-rule="evenodd" clip-rule="evenodd" d="M0.0016222 7.87122C0.0018867 7.82443 0.0013666 7.77764 0.000846566 7.73086C-0.000444973 7.61466 -0.00173608 7.49851 0.00899362 7.38249C0.0123722 7.34721 0.0234293 7.31376 0.044315 7.28295C0.0891579 7.21739 0.146286 7.15998 0.207101 7.10547C0.259315 7.05887 0.290643 7.05597 0.357293 7.08625C0.512913 7.15674 0.681017 7.1955 0.849028 7.23423C0.879941 7.24136 0.910957 7.24851 0.941786 7.25583C1.1679 7.30962 1.39971 7.33823 1.63173 7.36687L1.65804 7.37011C2.01464 7.41409 2.37246 7.41198 2.73059 7.40514C2.90136 7.40198 3.07213 7.39803 3.24228 7.38275C3.64403 7.34642 4.03625 7.27374 4.41895 7.16314C4.49236 7.14181 4.56453 7.1168 4.63579 7.09046C4.69753 7.06755 4.74728 7.07756 4.79612 7.11601C4.9027 7.20027 4.96321 7.30402 4.98593 7.42594C5.00565 7.53181 5.00045 7.63785 4.99524 7.74392C4.99396 7.77003 4.99268 7.79614 4.99177 7.82224C4.99021 7.86613 4.98806 7.91004 4.98592 7.95396C4.9809 8.05655 4.97589 8.15922 4.97826 8.26173C4.98071 8.36285 4.93556 8.42868 4.84096 8.4853C4.53413 8.6691 4.1975 8.78706 3.83261 8.85342L3.77245 8.86435C3.57565 8.90016 3.37855 8.93602 3.17871 8.95322C3.13072 8.95737 3.08272 8.96185 3.0347 8.96632C2.78124 8.98994 2.52694 9.01363 2.2711 8.99061C2.19721 8.98397 2.12321 8.97832 2.04921 8.97267C1.85934 8.95817 1.66934 8.94366 1.48174 8.91241C1.1402 8.85553 0.801422 8.78864 0.486293 8.65646C0.346236 8.59773 0.215701 8.52532 0.0913079 8.44501C0.0415508 8.41314 0.0197436 8.36969 0.0182079 8.31756C0.0149317 8.21837 0.0113824 8.11918 0.00783312 8.02L0.0016222 7.87122ZM1.09321 8.61669C1.11567 8.37015 1.1086 8.12587 1.10155 7.88237C1.09838 7.77295 1.09522 7.66368 1.09474 7.55444C1.06679 7.53232 1.0327 7.52495 0.998915 7.52179C0.894814 7.51185 0.795916 7.48543 0.696979 7.459L0.64785 7.44595C0.60532 7.43494 0.562789 7.42365 0.520718 7.41248L0.472165 7.39961C0.458592 7.41342 0.459597 7.42591 0.460562 7.43787L0.460801 7.44095C0.46249 7.46886 0.464333 7.49671 0.466176 7.52455C0.468018 7.5524 0.469861 7.58025 0.471551 7.60816C0.485986 7.84199 0.496122 8.07609 0.468479 8.30939C0.462336 8.36074 0.482301 8.39129 0.532365 8.41604C0.65645 8.47687 0.783915 8.53111 0.918443 8.57272L0.93959 8.57926C0.988482 8.59444 1.03792 8.60979 1.09321 8.61669Z" fill="white"/>
  <path fill-rule="evenodd" clip-rule="evenodd" d="M6.06151 5.49156C6.04769 5.21744 6.05722 4.98888 6.06674 4.76032C6.07168 4.64256 6.07853 4.52478 6.08537 4.40702C6.09085 4.3128 6.09632 4.21859 6.10083 4.12438C6.10516 4.03252 6.11581 3.9411 6.12645 3.84969C6.13241 3.79857 6.13837 3.7474 6.14322 3.69621C6.17147 3.4005 6.22768 3.10847 6.30109 2.81907C6.38739 2.47833 6.52407 2.15155 6.70529 1.83951C6.88097 1.53695 7.09966 1.25809 7.3466 0.994761C7.54225 0.785681 7.74066 0.578708 7.95044 0.380161C8.07944 0.257979 8.22534 0.152122 8.37215 0.0467922C8.37683 0.043328 8.38195 0.0403687 8.3871 0.03739L8.39396 0.0333626C8.47381 -0.0124559 8.53524 -0.0119292 8.61049 0.0402091C8.75946 0.143432 8.89736 0.257452 9.03128 0.374631C9.42565 0.71985 9.76258 1.10351 10.0667 1.50956C10.2672 1.77763 10.4303 2.06096 10.5476 2.36273C10.6189 2.54601 10.6745 2.73323 10.7175 2.92335C10.7519 3.07582 10.7786 3.22881 10.8047 3.38233C10.8156 3.44635 10.8232 3.51064 10.8309 3.5749C10.8384 3.63776 10.8458 3.70059 10.8563 3.76309C10.8749 3.87372 10.8821 3.9851 10.8893 4.0966L10.8932 4.15545C10.8979 4.22528 10.9034 4.29502 10.9088 4.36478L10.9089 4.36569C10.9125 4.41235 10.9162 4.45922 10.9196 4.50593C10.9217 4.53543 10.9239 4.56492 10.9239 4.59441C10.9241 4.798 10.924 5.00148 10.924 5.20499L10.9239 5.51368C10.9242 5.75673 10.9181 5.99951 10.9005 6.24203C10.8898 6.39318 10.8665 6.54222 10.7875 6.68073C10.7141 6.8095 10.598 6.89455 10.4371 6.93563C10.1109 7.01937 9.77917 7.08256 9.44193 7.12312C9.05431 7.16972 8.66393 7.17025 8.27356 7.16578C8.05272 7.16314 7.83342 7.14813 7.61351 7.12917C7.26674 7.09942 6.93257 7.02516 6.59932 6.94353C6.59464 6.94237 6.58998 6.94105 6.58533 6.93974C6.57411 6.93657 6.56291 6.9334 6.55141 6.93247C6.45282 6.92378 6.38524 6.87612 6.32596 6.81081C6.23014 6.70575 6.1383 6.59936 6.11803 6.46244C6.1041 6.36875 6.09975 6.27426 6.0954 6.17985L6.09346 6.13828C6.08947 6.05504 6.08444 5.97182 6.07954 5.89075C6.07086 5.74717 6.06289 5.61003 6.06151 5.49156ZM7.10549 6.51668L7.1022 6.4112C7.09938 6.31805 7.09658 6.22523 7.09167 6.13249C7.08827 6.07076 7.08298 6.00911 7.07768 5.9474C7.07342 5.89777 7.06916 5.8481 7.06587 5.79833C7.06005 5.70986 7.05554 5.62153 7.05102 5.53313L7.04591 5.43442L7.04265 5.37532C7.03641 5.265 7.03017 5.15477 7.04007 5.04417C7.05174 4.91435 7.06219 4.78453 7.06219 4.65418C7.06219 4.6107 7.06166 4.56719 7.06113 4.52368C7.05902 4.34957 7.0569 4.17536 7.0886 4.00219C7.09628 3.96059 7.07232 3.93636 7.01427 3.9282C6.97122 3.92199 6.9288 3.91396 6.8864 3.90594C6.85684 3.90034 6.82719 3.89473 6.79743 3.88975C6.70252 3.87395 6.60577 3.86842 6.50749 3.86869C6.48384 3.94874 6.47401 4.028 6.46848 4.10752C6.46521 4.15447 6.46306 4.20146 6.4609 4.24846C6.45799 4.3119 6.45508 4.37542 6.44944 4.43879L6.44489 4.48982C6.4339 4.61238 6.42291 4.73502 6.4221 4.85826C6.42026 5.12422 6.43101 5.38965 6.44851 5.65534C6.46356 5.88444 6.47216 6.11458 6.45957 6.34447C6.45773 6.37659 6.46571 6.3995 6.50472 6.41056L6.54375 6.42171C6.72414 6.47336 6.90524 6.52503 7.10549 6.51668Z" fill="white"/>
  <path fill-rule="evenodd" clip-rule="evenodd" d="M6.00162 7.87122C6.00189 7.82443 6.00137 7.77764 6.00085 7.73086C5.99956 7.61467 5.99826 7.49851 6.00899 7.38249C6.01237 7.34721 6.02343 7.31376 6.04432 7.28295C6.08916 7.21739 6.14629 7.15998 6.2071 7.10547C6.25931 7.05887 6.29064 7.05597 6.35729 7.08625C6.51291 7.15674 6.68101 7.19549 6.84902 7.23423C6.87997 7.24136 6.91092 7.2485 6.94179 7.25583C7.1679 7.30962 7.39971 7.33823 7.63173 7.36687L7.65804 7.37011C8.01464 7.41409 8.37246 7.41198 8.73059 7.40514C8.90136 7.40198 9.07213 7.39803 9.24228 7.38275C9.64403 7.34642 10.0362 7.27374 10.4189 7.16314C10.4924 7.14181 10.5645 7.1168 10.6358 7.09046C10.6975 7.06755 10.7473 7.07756 10.7961 7.11601C10.9027 7.20027 10.9632 7.30402 10.9859 7.42594C11.0057 7.53181 11.0004 7.63785 10.9952 7.74392C10.994 7.77003 10.9927 7.79614 10.9918 7.82224C10.9902 7.86613 10.9881 7.91004 10.9859 7.95397C10.9809 8.05656 10.9759 8.15921 10.9783 8.26173C10.9807 8.36285 10.9356 8.42868 10.841 8.4853C10.5341 8.6691 10.1975 8.78706 9.83261 8.85342L9.77245 8.86435C9.57565 8.90016 9.37855 8.93602 9.17871 8.95322C9.13072 8.95737 9.08272 8.96185 9.0347 8.96632C8.78124 8.98994 8.52694 9.01363 8.2711 8.99061C8.1973 8.98398 8.12337 8.97833 8.04946 8.97269C7.85958 8.95819 7.66934 8.94367 7.48174 8.91241C7.1402 8.85553 6.80142 8.78864 6.48629 8.65646C6.34624 8.59773 6.2157 8.52532 6.09131 8.44501C6.04155 8.41314 6.01974 8.36969 6.01821 8.31756C6.01493 8.21839 6.01138 8.11923 6.00783 8.02007L6.00162 7.87122ZM7.09321 8.61669C7.11567 8.37015 7.1086 8.12587 7.10155 7.88237C7.09838 7.77295 7.09522 7.66368 7.09474 7.55444C7.06679 7.53232 7.0327 7.52495 6.99891 7.52179C6.89482 7.51185 6.79592 7.48543 6.69699 7.459L6.64785 7.44595C6.60522 7.43491 6.56258 7.42359 6.52041 7.4124L6.47216 7.39961C6.45859 7.41343 6.4596 7.42591 6.46056 7.43787L6.4608 7.44095C6.46249 7.46886 6.46433 7.49671 6.46618 7.52455C6.46802 7.5524 6.46986 7.58025 6.47155 7.60816C6.48599 7.84199 6.49612 8.07609 6.46848 8.30939C6.46234 8.36074 6.4823 8.39129 6.53236 8.41604C6.65645 8.47687 6.78391 8.53111 6.91844 8.57272L6.93959 8.57926C6.98849 8.59444 7.03791 8.60979 7.09321 8.61669Z" fill="white"/>
  <path fill-rule="evenodd" clip-rule="evenodd" d="M12.0667 4.7603C12.0572 4.98887 12.0477 5.21744 12.0615 5.49156C12.0629 5.61004 12.0709 5.74717 12.0795 5.89075C12.0844 5.97181 12.0895 6.05504 12.0935 6.13828L12.0954 6.17985C12.0998 6.27426 12.1041 6.36875 12.118 6.46244C12.1383 6.59936 12.2301 6.70575 12.326 6.81081C12.3852 6.87612 12.4528 6.92378 12.5514 6.93247C12.5629 6.9334 12.5741 6.93656 12.5853 6.93973C12.5878 6.94045 12.5904 6.94117 12.5929 6.94186C12.5951 6.94244 12.5972 6.943 12.5993 6.94353C12.9326 7.02516 13.2667 7.09942 13.6135 7.12917C13.8334 7.14813 14.0527 7.16314 14.2736 7.16578C14.6639 7.17025 15.0543 7.16972 15.4419 7.12312C15.7792 7.08256 16.1109 7.01937 16.4371 6.93563C16.598 6.89455 16.7141 6.8095 16.7875 6.68073C16.8665 6.54222 16.8898 6.39318 16.9005 6.24203C16.9181 5.99951 16.9242 5.75673 16.9239 5.51368L16.924 5.20721C16.924 5.00295 16.9241 4.79874 16.9239 4.59441C16.9239 4.56492 16.9217 4.53543 16.9196 4.50593C16.9161 4.45901 16.9125 4.41214 16.9088 4.36527L16.9088 4.36435C16.9034 4.29473 16.8979 4.22514 16.8932 4.15545L16.8893 4.09666C16.8821 3.98517 16.8749 3.87372 16.8563 3.76309C16.8458 3.70062 16.8384 3.63782 16.8309 3.57499C16.8232 3.51074 16.8156 3.44635 16.8047 3.38233C16.7786 3.22881 16.7519 3.07582 16.7175 2.92335C16.6745 2.73323 16.6189 2.54601 16.5476 2.36273C16.4303 2.06096 16.2672 1.77763 16.0667 1.50956C15.7626 1.10351 15.4257 0.71985 15.0313 0.374631C14.8974 0.257452 14.7595 0.143432 14.6105 0.0402091C14.5352 -0.0119292 14.4738 -0.0124559 14.394 0.0333626L14.3871 0.0373876C14.382 0.0403671 14.3768 0.043327 14.3722 0.0467922C14.2253 0.152122 14.0794 0.257979 13.9504 0.380161C13.7407 0.578708 13.5423 0.785681 13.3466 0.994761C13.0997 1.25809 12.881 1.53695 12.7053 1.83951C12.5241 2.15155 12.3874 2.47833 12.3011 2.81907C12.2277 3.10847 12.1715 3.4005 12.1432 3.69621C12.1384 3.74741 12.1324 3.79855 12.1265 3.84969C12.1158 3.9411 12.1052 4.03252 12.1008 4.12438C12.0963 4.21859 12.0908 4.3128 12.0854 4.40702C12.0785 4.52478 12.0717 4.64254 12.0667 4.7603ZM13.1022 6.41121L13.1055 6.51668C12.9052 6.52503 12.7241 6.47336 12.5437 6.42171L12.5047 6.41056C12.4657 6.3995 12.4577 6.37659 12.4596 6.34447C12.4722 6.11458 12.4636 5.88444 12.4485 5.65534C12.431 5.38965 12.4203 5.12422 12.4221 4.85826C12.4229 4.73502 12.4339 4.61239 12.4449 4.48983L12.4494 4.43879C12.4551 4.37542 12.458 4.31196 12.4609 4.24852C12.4631 4.2015 12.4652 4.15449 12.4685 4.10752C12.474 4.028 12.4838 3.94874 12.5075 3.86869C12.6058 3.86842 12.7025 3.87395 12.7974 3.88975C12.8272 3.89473 12.8568 3.90033 12.8863 3.90593C12.9287 3.91395 12.9712 3.92199 13.0143 3.9282C13.0723 3.93636 13.0963 3.96059 13.0886 4.00219C13.0569 4.17536 13.059 4.34954 13.0611 4.52365C13.0617 4.56716 13.0622 4.6107 13.0622 4.65418C13.0622 4.78453 13.0517 4.91435 13.0401 5.04417C13.0302 5.15477 13.0364 5.26499 13.0427 5.37532L13.0459 5.43442L13.051 5.5331C13.0555 5.62147 13.0601 5.70989 13.0659 5.79833C13.0692 5.8481 13.0734 5.89777 13.0777 5.94741C13.083 6.00911 13.0883 6.07076 13.0917 6.13249C13.0966 6.22526 13.0994 6.31803 13.1022 6.41121Z" fill="white"/>
  <path fill-rule="evenodd" clip-rule="evenodd" d="M12.0008 7.73086C12.0014 7.77764 12.0019 7.82443 12.0016 7.87122L12.0078 8.02L12.0079 8.02103C12.0114 8.11987 12.0149 8.21871 12.0182 8.31756C12.0197 8.36969 12.0416 8.41314 12.0913 8.44501C12.2157 8.52532 12.3462 8.59773 12.4863 8.65646C12.8014 8.78864 13.1402 8.85553 13.4817 8.91241C13.6693 8.94366 13.8592 8.95816 14.049 8.97266C14.123 8.9783 14.1973 8.98397 14.2711 8.99061C14.5269 9.01363 14.781 8.98996 15.0345 8.96634C15.0825 8.96187 15.1307 8.95737 15.1787 8.95322C15.3786 8.93602 15.5756 8.90016 15.7724 8.86435L15.8326 8.85342C16.1975 8.78706 16.5341 8.6691 16.841 8.4853C16.9356 8.42868 16.9807 8.36285 16.9783 8.26173C16.9759 8.15926 16.9809 8.05666 16.9859 7.95411C16.9881 7.91022 16.9902 7.86611 16.9918 7.82224C16.9927 7.79614 16.994 7.77003 16.9952 7.74393C17.0004 7.63786 17.0057 7.5318 16.9859 7.42594C16.9632 7.30402 16.9027 7.20027 16.7961 7.11601C16.7473 7.07756 16.6975 7.06755 16.6358 7.09046C16.5645 7.1168 16.4924 7.14181 16.4189 7.16314C16.0362 7.27374 15.644 7.34642 15.2423 7.38275C15.0721 7.39803 14.9014 7.40198 14.7306 7.40514C14.3725 7.41198 14.0146 7.41409 13.658 7.37011L13.6317 7.36687C13.3997 7.33823 13.1679 7.30962 12.9418 7.25583C12.9109 7.2485 12.88 7.24137 12.849 7.23423C12.681 7.1955 12.5129 7.15674 12.3573 7.08625C12.2906 7.05597 12.2593 7.05887 12.2071 7.10547C12.1463 7.15998 12.0892 7.21739 12.0443 7.28295C12.0234 7.31376 12.0124 7.34721 12.009 7.38249C11.9983 7.49851 11.9996 7.61466 12.0008 7.73086ZM13.1015 7.88236C13.1086 8.12586 13.1157 8.37015 13.0932 8.61669C13.0379 8.60979 12.9885 8.59444 12.9396 8.57926L12.9184 8.57272C12.7839 8.53111 12.6565 8.47687 12.5324 8.41604C12.4823 8.39129 12.4623 8.36074 12.4685 8.30939C12.4961 8.07609 12.486 7.84199 12.4715 7.60816C12.4699 7.58025 12.468 7.5524 12.4662 7.52455C12.4643 7.49671 12.4625 7.46886 12.4608 7.44095L12.4606 7.43787C12.4596 7.42591 12.4586 7.41343 12.4722 7.39961L12.5203 7.41236C12.5625 7.42357 12.6052 7.4349 12.6479 7.44595L12.697 7.45899C12.7959 7.48543 12.8948 7.51185 12.9989 7.52179C13.0327 7.52495 13.0668 7.53232 13.0947 7.55444C13.0952 7.66365 13.0984 7.77297 13.1015 7.88236Z" fill="white"/>
</svg>
