<svg width="18" height="19" viewBox="0 0 18 19" fill="none" xmlns="http://www.w3.org/2000/svg">
<path d="M9 2.1875C7.55373 2.1875 6.13993 2.61637 4.9374 3.41988C3.73486 4.22339 2.7976 5.36544 2.24413 6.70163C1.69067 8.03781 1.54586 9.50811 1.82801 10.9266C2.11017 12.3451 2.80661 13.648 3.82928 14.6707C4.85196 15.6934 6.15492 16.3898 7.57341 16.672C8.99189 16.9541 10.4622 16.8093 11.7984 16.2559C13.1346 15.7024 14.2766 14.7651 15.0801 13.5626C15.8836 12.3601 16.3125 10.9463 16.3125 9.5C16.3105 7.56123 15.5394 5.70246 14.1685 4.33154C12.7975 2.96063 10.9388 2.18955 9 2.1875ZM9 15.6875C7.77623 15.6875 6.57994 15.3246 5.56241 14.6447C4.54488 13.9648 3.75182 12.9985 3.2835 11.8679C2.81518 10.7372 2.69265 9.49314 2.93139 8.29288C3.17014 7.09262 3.75944 5.99011 4.62478 5.12478C5.49012 4.25944 6.59262 3.67014 7.79288 3.43139C8.99314 3.19264 10.2372 3.31518 11.3679 3.7835C12.4985 4.25181 13.4648 5.04488 14.1447 6.06241C14.8246 7.07994 15.1875 8.27623 15.1875 9.5C15.1856 11.1405 14.5331 12.7132 13.3732 13.8732C12.2132 15.0331 10.6405 15.6856 9 15.6875ZM13.5 9.5C13.5 9.64918 13.4407 9.79226 13.3353 9.89775C13.2298 10.0032 13.0867 10.0625 12.9375 10.0625H9C8.85082 10.0625 8.70775 10.0032 8.60226 9.89775C8.49677 9.79226 8.4375 9.64918 8.4375 9.5V5.5625C8.4375 5.41332 8.49677 5.27024 8.60226 5.16475C8.70775 5.05926 8.85082 5 9 5C9.14919 5 9.29226 5.05926 9.39775 5.16475C9.50324 5.27024 9.5625 5.41332 9.5625 5.5625V8.9375H12.9375C13.0867 8.9375 13.2298 8.99676 13.3353 9.10225C13.4407 9.20774 13.5 9.35082 13.5 9.5Z" fill="white"/>
</svg>
