<svg width="42" height="48" viewBox="0 0 42 48" fill="none" xmlns="http://www.w3.org/2000/svg">
  <path d="M20.7846 0L41.5692 12V36L20.7846 48L0 36V12L20.7846 0Z" fill="#9C0032" fill-opacity="0.15" />
  <path d="M3.9641 14.2887L20.7846 4.57735L37.6051 14.2887V33.7113L20.7846 43.4226L3.9641 33.7113V14.2887Z"
    fill="url(#paint0_linear_37_256)" stroke="#A6013A" />
  <path
    d="M9.52628 10.5L14.7224 7.5L15.4724 8.79904L20.7846 5.73205L26.0968 8.79904L26.8468 7.5L32.0429 10.5L31.2929 11.799L36.6051 14.866V21H38.1051V27H36.6051V33.134L31.2929 36.201L32.0429 37.5L26.8468 40.5L26.0968 39.201L20.7846 42.2679L15.4724 39.201L14.7224 40.5L9.52628 37.5L10.2763 36.201L4.9641 33.134V27H3.4641V21H4.9641V14.866L10.2763 11.799L9.52628 10.5Z"
    stroke="#87002F" stroke-width="3" stroke-dasharray="42 18" />
  <path
    d="M25.7113 28.6665L25.3438 28.3805C22.3163 29.6912 19.2908 29.7865 16.2399 28.3805L15.8808 28.656C16.1621 28.8143 16.403 28.9544 16.6468 29.0793C16.8906 29.2041 17.1231 29.3042 17.4081 29.4367L16.4461 31C14.8035 30.4995 13.2591 29.7121 11.882 28.6732C11.6676 26.8204 11.808 24.943 12.2955 23.1445C12.7437 21.4897 13.454 19.9202 14.3985 18.4975C14.4761 18.3634 14.5923 18.2566 14.7313 18.1915C15.8742 17.7855 17.0246 17.3994 18.1882 17.001L18.7104 17.999H22.8658L23.3805 17C24.5478 17.3994 25.7094 17.794 26.8664 18.2001C26.9798 18.249 27.0759 18.3318 27.1421 18.4375C29.1513 21.5221 30.0748 24.8917 29.7045 28.5969C29.6983 28.6296 29.6888 28.6615 29.6764 28.6922C28.3082 29.7296 26.7694 30.511 25.1319 31L24.1774 29.4577L25.7113 28.6665ZM19.4052 24.7087C19.3948 23.6811 18.6654 22.89 17.7456 22.9109C16.8737 22.931 16.1752 23.7612 16.1874 24.764C16.1996 25.7668 16.9262 26.5799 17.7991 26.5637C18.7132 26.5503 19.4145 25.7401 19.4052 24.7087ZM25.3888 24.7202C25.3888 23.7107 24.6744 22.909 23.7771 22.909C22.8798 22.909 22.1738 23.7145 22.1738 24.7202C22.1738 25.7458 22.862 26.5408 23.7583 26.5532C24.6547 26.5656 25.3907 25.7573 25.3888 24.724V24.7202Z"
    fill="white" />
  <defs>
    <linearGradient id="paint0_linear_37_256" x1="20.7846" y1="4" x2="19.7846" y2="67.5" gradientUnits="userSpaceOnUse">
      <stop stop-color="#A6013A" />
      <stop offset="1" stop-color="#A6013A" stop-opacity="0" />
    </linearGradient>
  </defs>
</svg>