<svg width="12" height="7" viewBox="0 0 12 7" fill="none"
  xmlns="http://www.w3.org/2000/svg">
  <path d="M2.98806 6.46745C1.61348 6.9559 4.04003 6.09363 2.66544 6.58209C2.46208 6.65435 2.26091 6.73281 2.04575 6.76513C1.4803 6.8511 0.964222 6.52931 0.790327 5.98257C0.625591 5.46162 0.870752 4.89952 1.37828 4.64717C1.48318 4.5948 1.59245 4.55132 1.70212 4.51235C4.61632 3.47679 3.72616 3.78963 6.64366 2.76335C6.84384 2.69222 6.92653 2.59083 6.97914 2.40142C7.16337 1.72859 7.58112 1.22362 8.20099 0.879085C9.05925 0.402229 10.2164 0.510132 10.9566 1.12854C11.0331 1.19194 11.0127 1.21546 10.9318 1.24421C10.3522 1.44901 9.77921 1.67236 9.19226 1.85306C9.11769 1.87608 9.08357 1.9184 9.06822 1.98656C8.98744 2.35321 8.90704 2.72088 8.82627 3.08753C8.80617 3.17945 8.84353 3.24746 8.9121 3.30207C9.20542 3.53694 9.49944 3.7704 9.79206 4.00669C9.84269 4.04792 9.89247 4.03952 9.94853 4.01844C10.5224 3.81104 11.0974 3.60672 11.6698 3.39867C11.7592 3.36688 11.7797 3.38052 11.7592 3.47141C11.5896 4.2157 11.1578 4.77908 10.4663 5.12466C9.51937 5.5982 8.61715 5.48563 7.78451 4.88381C7.68944 4.8154 7.6153 4.80923 7.50706 4.84885C6.00048 5.3877 4.49244 5.92242 2.98476 6.45817C2.98586 6.46126 2.98696 6.46435 2.98843 6.46848L2.98806 6.46745Z" fill="white"/>
</svg>
