<svg width="16" height="18" viewBox="0 0 16 18" fill="none"
  xmlns="http://www.w3.org/2000/svg">
  <path fill-rule="evenodd" clip-rule="evenodd" d="M12.5698 7.85229C12.5698 7.50044 12.2546 7.20834 11.9232 7.20834C11.4475 7.20834 11.3948 7.4211 11.0827 7.66843L10.2074 8.47989C10.1257 8.53965 9.75558 8.93252 9.6986 8.93252H6.30136C6.25711 8.93252 5.55933 8.26604 5.42191 8.13536C5.37509 8.09081 5.33568 8.06466 5.29033 8.02116L4.79174 7.55889C4.54794 7.32782 4.4549 7.20834 4.07667 7.20834C3.89969 7.20834 3.74314 7.29134 3.62457 7.40306C3.39549 7.61891 3.36436 7.95603 3.55067 8.20545C3.61896 8.29686 3.70506 8.36656 3.78895 8.44702L4.72648 9.3138C4.75748 9.33834 4.76778 9.34296 4.79731 9.37129L5.16988 9.72446C5.19964 9.7493 5.29309 9.80688 5.29309 9.84659V13.0041C5.29309 13.0362 5.20571 13.1025 5.18078 13.1262L4.36421 13.8791C4.21197 14.0125 4.097 14.1423 3.92057 14.2895L3.55352 14.6479C3.11504 15.2296 3.89022 15.9397 4.51736 15.5407C4.62295 15.4735 4.79192 15.3019 4.89582 15.2035L5.46583 14.6843C5.61531 14.5533 5.74749 14.4023 5.90358 14.2786C5.96056 14.2335 6.25238 13.9285 6.29037 13.9285H9.70954C9.74339 13.9285 9.81334 14.0113 9.83832 14.035L10.5946 14.7307C10.6393 14.7699 10.6769 14.809 10.7205 14.8503C10.8263 14.9506 10.921 15.0482 11.0323 15.1364L11.2191 15.3125C11.4419 15.5237 11.5556 15.6527 11.9122 15.6527C12.3882 15.6527 12.777 15.1014 12.4509 14.6539C12.4006 14.5849 11.76 13.9974 11.6521 13.8946L11.4602 13.7234C11.3753 13.6429 11.298 13.5705 11.2136 13.4896L10.9615 13.2612C10.9187 13.2205 10.8838 13.1876 10.841 13.1469C10.8051 13.1129 10.7556 13.0476 10.7067 13.0352C10.7067 12.0026 10.7165 10.929 10.7062 9.89799C10.705 9.7809 10.7272 9.82288 10.8521 9.70393L11.1917 9.38176C11.2349 9.34039 11.2696 9.31886 11.3123 9.27797C11.3955 9.1982 11.6276 8.97027 11.7166 8.90297C11.782 8.85354 12.0276 8.6032 12.1231 8.5196C12.2413 8.41599 12.3748 8.31796 12.4625 8.18693C12.5209 8.09966 12.5698 7.9909 12.5698 7.85238L12.5698 7.85229ZM9.31503 12.6405H6.68488V10.21H9.31503V12.6405ZM4.70132 1.53727C4.70132 1.8267 4.57268 2.00708 4.37529 2.19421C4.31453 2.25183 4.2605 2.29259 4.19997 2.34999L3.43302 3.06682C3.39834 3.09986 3.37424 3.11137 3.33957 3.14441L3.00001 3.46658C2.96533 3.49971 2.9474 3.51013 2.9124 3.53933C2.70576 3.71182 2.56006 3.9438 2.2481 4.04187C1.72927 4.20503 1.25814 3.92841 1.05978 3.49295C0.947513 3.24654 0.937027 2.99887 1.00578 2.73981C1.04948 2.57522 1.17218 2.3826 1.29576 2.26683L1.93678 1.66952C1.97008 1.63779 1.99225 1.62772 2.02481 1.59716C2.13377 1.49499 2.23389 1.39861 2.34238 1.29574L2.66566 0.999724C2.7879 0.883776 2.87533 0.824494 3.03547 0.74782C3.46319 0.542994 3.97195 0.620365 4.35082 0.893061C4.54904 1.03573 4.70128 1.29709 4.70128 1.53723L4.70132 1.53727ZM14.4657 3.11603C14.4657 2.78249 14.4156 2.54179 14.2721 2.27127C14.1771 2.09216 14.0673 1.95119 13.9314 1.80482C13.9134 1.78547 13.8915 1.76515 13.8713 1.7475L13.7472 1.64703C13.696 1.60932 13.663 1.58391 13.6087 1.54978C13.5068 1.48566 13.4176 1.43649 13.3004 1.38492C13.1059 1.29944 12.7938 1.21532 12.515 1.21532H9.31498C8.66384 1.21532 7.98836 1.42686 7.46512 1.75748C7.22574 1.90874 7.10335 2.00808 6.89579 2.20462C6.73998 2.35217 6.55431 2.56463 6.40286 2.71379L6.15069 2.97337C5.82148 3.29336 6.03985 3.83273 6.58618 3.83273H13.5999C13.9388 3.83273 14.2141 3.69011 14.3777 3.41698C14.4146 3.35525 14.4656 3.21232 14.4656 3.11603H14.4657ZM15.9999 3.60419V14.3959C15.9999 14.7368 15.8988 15.2287 15.773 15.531C15.6042 15.9367 15.4567 16.2068 15.1718 16.5504L14.9508 16.798L14.5829 17.1243C14.4446 17.2351 14.1699 17.4158 14.0199 17.4944C13.9183 17.5475 13.8094 17.6063 13.7018 17.6498C13.2345 17.8389 12.6969 18 12.1534 18H3.84657C3.39144 18 2.89055 17.8783 2.47516 17.721C2.05521 17.5621 1.90956 17.4553 1.55828 17.2294C1.46395 17.1687 1.38048 17.092 1.2958 17.0211C1.26904 16.9987 1.25708 16.9948 1.2299 16.9693L0.940798 16.6824C0.589746 16.2681 0.442759 16.0512 0.233315 15.5457C0.104079 15.2338 9.53674e-07 14.7522 9.53674e-07 14.3958V7.92495C9.53674e-07 7.44704 0.222092 6.82018 0.529129 6.43219C0.600692 6.34174 0.742668 6.16725 0.824487 6.08892C0.848723 6.06569 0.86597 6.05004 0.890437 6.02681C0.913479 6.00493 0.932014 5.98453 0.956665 5.96495C1.08466 5.86357 1.67542 5.30401 1.82723 5.15938L2.29299 4.72836C2.58977 4.46818 2.8785 4.19553 3.1642 3.9234L3.62995 3.49239C3.82427 3.32204 4.46525 2.70965 4.57144 2.62936L5.56982 1.706C5.66194 1.61869 5.74666 1.53932 5.83827 1.45149L6.37545 0.963501C6.4822 0.869958 6.51752 0.825453 6.64372 0.719182C6.67306 0.694467 6.6789 0.685313 6.71303 0.660206C6.99964 0.449276 7.27601 0.277752 7.64513 0.16224C7.78375 0.118868 7.91036 0.0822097 8.05754 0.0545304C8.20379 0.0269819 8.36761 0 8.53699 0H12.1534C12.4567 0 12.9046 0.078243 13.1685 0.159712C13.7214 0.330408 14.1191 0.517668 14.5769 0.871004L14.7701 1.03067C14.9523 1.20154 15.1195 1.37281 15.2721 1.57275C15.5424 1.92687 15.7682 2.36952 15.8817 2.80228C15.9411 3.02925 16 3.31982 16 3.60415L15.9999 3.60419Z" fill="#FEFEFE"/>
</svg>
