<svg width="11" height="17" viewBox="0 0 11 17" fill="none" xmlns="http://www.w3.org/2000/svg">
<path d="M8.30043 5.77148C8.30043 6.64373 8.31308 7.51597 8.30043 8.38692C8.27274 9.93758 7.15343 11.2679 5.74029 11.4527C4.27236 11.6466 2.89896 10.6896 2.50278 9.18809C2.43539 8.94047 2.39934 8.68425 2.3956 8.42633C2.38657 6.63984 2.37031 4.85272 2.3956 3.06688C2.41487 1.82377 3.01758 0.916614 4.0261 0.364838C5.01957 -0.178538 6.03471 -0.114562 6.96797 0.554159C7.82055 1.16409 8.29261 2.03376 8.30043 3.1567C8.30646 4.0283 8.30043 4.90117 8.30043 5.77148Z" fill="#00FF19"/>
<path d="M4.73177 15.288V14.0391C4.2266 13.8782 3.71241 13.7858 3.25661 13.5577C1.1625 12.5104 0.062453 10.7375 0.00525312 8.2435C-0.00317633 7.87781 -0.000165811 7.51146 0.00525312 7.14512C0.0112742 6.67604 0.252711 6.38269 0.61578 6.39238C0.965602 6.40142 1.17755 6.69218 1.19501 7.14446C1.22391 7.87327 1.18537 8.62018 1.32205 9.32703C1.72606 11.412 3.54983 12.8431 5.56929 12.743C7.53034 12.6454 9.20359 11.0088 9.43961 8.91804C9.50584 8.33331 9.48236 7.73694 9.4944 7.14575C9.50343 6.69347 9.7214 6.40207 10.0712 6.39238C10.4325 6.38204 10.6799 6.67603 10.683 7.14446C10.6884 8.1666 10.7432 9.20038 10.3897 10.1767C9.64674 12.2248 8.29321 13.5151 6.25449 13.9241C6.15695 13.9435 6.06061 13.968 5.95344 13.9926V15.2848C6.6567 15.2848 7.34609 15.2848 8.0349 15.2848C8.16503 15.2797 8.29531 15.2884 8.42386 15.3106C8.56294 15.3402 8.68726 15.4231 8.77365 15.5437C8.86005 15.6643 8.90264 15.8146 8.8935 15.9664C8.88229 16.1176 8.82185 16.2598 8.72278 16.368C8.6237 16.4762 8.49231 16.5436 8.35161 16.5583C8.29152 16.5633 8.23122 16.5648 8.17098 16.5628C6.28459 16.5628 4.3988 16.5692 2.5112 16.5537C2.30643 16.5432 2.10938 16.4667 1.94583 16.334C1.75858 16.1809 1.73509 15.9257 1.83504 15.6847C1.94884 15.4088 2.16018 15.2861 2.43714 15.2854C3.08942 15.2854 3.7415 15.2854 4.39338 15.2854L4.73177 15.288Z" fill="#00FF19"/>
</svg>
