<svg width="12" height="17" viewBox="0 0 12 17" fill="none" xmlns="http://www.w3.org/2000/svg">
<path d="M6 11.375C6.89482 11.3741 7.75272 11.0182 8.38546 10.3855C9.01819 9.75272 9.37407 8.89482 9.375 8V3.5C9.375 2.60489 9.01942 1.74645 8.38649 1.11351C7.75355 0.480579 6.89511 0.125 6 0.125C5.10489 0.125 4.24645 0.480579 3.61351 1.11351C2.98058 1.74645 2.625 2.60489 2.625 3.5V8C2.62593 8.89482 2.98181 9.75272 3.61454 10.3855C4.24728 11.0182 5.10518 11.3741 6 11.375ZM3.75 3.5C3.75 2.90326 3.98705 2.33097 4.40901 1.90901C4.83097 1.48705 5.40326 1.25 6 1.25C6.59674 1.25 7.16903 1.48705 7.59099 1.90901C8.01295 2.33097 8.25 2.90326 8.25 3.5V8C8.25 8.59674 8.01295 9.16903 7.59099 9.59099C7.16903 10.0129 6.59674 10.25 6 10.25C5.40326 10.25 4.83097 10.0129 4.40901 9.59099C3.98705 9.16903 3.75 8.59674 3.75 8V3.5ZM6.5625 13.5969V15.875C6.5625 16.0242 6.50324 16.1673 6.39775 16.2727C6.29226 16.3782 6.14918 16.4375 6 16.4375C5.85082 16.4375 5.70774 16.3782 5.60225 16.2727C5.49676 16.1673 5.4375 16.0242 5.4375 15.875V13.5969C4.05069 13.4558 2.76546 12.8054 1.83036 11.7716C0.895257 10.7378 0.376713 9.39398 0.375 8C0.375 7.85082 0.434263 7.70774 0.539753 7.60225C0.645242 7.49676 0.788316 7.4375 0.9375 7.4375C1.08668 7.4375 1.22976 7.49676 1.33525 7.60225C1.44074 7.70774 1.5 7.85082 1.5 8C1.5 9.19347 1.97411 10.3381 2.81802 11.182C3.66193 12.0259 4.80653 12.5 6 12.5C7.19347 12.5 8.33807 12.0259 9.18198 11.182C10.0259 10.3381 10.5 9.19347 10.5 8C10.5 7.85082 10.5593 7.70774 10.6648 7.60225C10.7702 7.49676 10.9133 7.4375 11.0625 7.4375C11.2117 7.4375 11.3548 7.49676 11.4602 7.60225C11.5657 7.70774 11.625 7.85082 11.625 8C11.6233 9.39398 11.1047 10.7378 10.1696 11.7716C9.23454 12.8054 7.94931 13.4558 6.5625 13.5969Z" fill="white"/>
</svg>
