<svg width="5" height="11" viewBox="0 0 5 11" fill="none"
  xmlns="http://www.w3.org/2000/svg">
  <path d="M2.66361 1.43968V1.33763C2.82777 1.34141 2.99132 1.35402 3.15291 1.37535C3.16135 1.37736 3.17029 1.37801 3.17912 1.37725C3.18794 1.37649 3.19644 1.37435 3.204 1.37097C3.21157 1.36759 3.21803 1.36306 3.22294 1.35769C3.22785 1.35231 3.23108 1.34623 3.23242 1.33985V0.539047C3.23015 0.528075 3.2223 0.51811 3.21041 0.511129C3.19852 0.504148 3.18346 0.500663 3.16819 0.50134H2.66361V0.354924H3.2997C3.36458 0.354924 3.42681 0.336227 3.47269 0.302946C3.51857 0.269665 3.54434 0.224529 3.54434 0.177462C3.54434 0.130395 3.51857 0.0852592 3.47269 0.0519781C3.42681 0.018697 3.36458 0 3.2997 0H1.70031C1.66818 0 1.63637 0.00459397 1.60668 0.0135124C1.577 0.0224308 1.55003 0.035499 1.52732 0.0519781C1.5046 0.0684572 1.48658 0.0880169 1.47428 0.109548C1.46199 0.131079 1.45566 0.154157 1.45566 0.177462C1.45566 0.200767 1.46199 0.223845 1.47428 0.245376C1.48658 0.266907 1.5046 0.286467 1.52732 0.302946C1.55003 0.319425 1.577 0.332507 1.60668 0.341425C1.63637 0.350344 1.66818 0.354924 1.70031 0.354924H2.33639V0.50134H1.83181C1.81654 0.500663 1.80148 0.504148 1.78959 0.511129C1.7777 0.51811 1.76985 0.528075 1.76759 0.539047V1.33985C1.76892 1.34623 1.77215 1.35231 1.77706 1.35769C1.78197 1.36306 1.78843 1.36759 1.796 1.37097C1.80356 1.37435 1.81206 1.37649 1.82088 1.37725C1.82971 1.37801 1.83865 1.37736 1.8471 1.37535C2.00869 1.35402 2.17223 1.34141 2.33639 1.33763V1.43968C1.7033 1.46953 1.10957 1.67298 0.675675 2.00873C0.24178 2.34448 0.000216729 2.7874 0 3.24761V10.6923C1.61867 11.1026 3.38133 11.1026 5 10.6923V3.24095C4.99746 2.78189 4.75486 2.34063 4.3212 2.00629C3.88754 1.67196 3.29513 1.46946 2.66361 1.43968ZM2.33333 0.907281L2.49847 0.705421L2.66973 0.907281L2.49847 1.10915L2.33333 0.907281ZM2.49541 8.33197V6.90116H0.966362L2.53211 4.74497V6.00052H4.03364L2.49541 8.33197Z" fill="white"/>
</svg>
