<svg width="62" height="65" viewBox="0 0 62 65" fill="none" xmlns="http://www.w3.org/2000/svg">
<g filter="url(#filter0_d_126_55)">
<path d="M32.9513 50.4096C31.7387 51.0872 30.2613 51.0872 29.0487 50.4096L16.0487 43.1448C14.7837 42.4379 14 41.1021 14 39.6531L14 25.3464C14 23.8973 14.7838 22.5615 16.0488 21.8546L29.0488 14.5903C30.2614 13.9127 31.7386 13.9127 32.9512 14.5903L45.9512 21.8546C47.2162 22.5615 48 23.8973 48 25.3464L48 39.653C48 41.1021 47.2163 42.4379 45.9513 43.1448L32.9513 50.4096Z" fill="black"/>
<path d="M32.7074 49.9731C31.6463 50.566 30.3537 50.566 29.2926 49.9731L16.2926 42.7083C15.1858 42.0898 14.5 40.921 14.5 39.6531L14.5 25.3464C14.5 24.0784 15.1858 22.9096 16.2927 22.2911L29.2927 15.0268C30.3537 14.4339 31.6463 14.4339 32.7073 15.0268L45.7073 22.2911C46.8142 22.9096 47.5 24.0784 47.5 25.3464L47.5 39.653C47.5 40.921 46.8142 42.0898 45.7074 42.7083L32.7074 49.9731Z" stroke="black"/>
</g>
</svg>
