<svg width="25" height="28" viewBox="0 0 25 28" fill="none"
  xmlns="http://www.w3.org/2000/svg">
  <g filter="url(#filter0_d_39_257)">
    <path d="M18.6403 16.0859C18.5417 16.0859 18.4471 16.0427 18.3774 15.9658C18.3076 15.889 18.2685 15.7848 18.2685 15.6761V12.5707C18.2678 11.0728 17.7875 9.6232 16.9121 8.4772C16.0368 7.3312 14.8226 6.56232 13.4833 6.3059C13.6759 6.06065 13.7804 5.74608 13.7768 5.42171C13.7813 5.19629 13.7361 4.97306 13.6449 4.77121C13.5537 4.56936 13.4194 4.39494 13.2535 4.263C13.0875 4.13107 12.895 4.04556 12.6924 4.01384C12.4898 3.98211 12.2833 4.00513 12.0905 4.0809C11.8978 4.15668 11.7247 4.28292 11.5861 4.44879C11.4475 4.61467 11.3476 4.8152 11.2949 5.03308C11.2423 5.25096 11.2385 5.47965 11.2839 5.6995C11.3293 5.91935 11.4225 6.12376 11.5555 6.29511C10.2073 6.5427 8.98264 7.30925 8.09925 8.45837C7.21586 9.6075 6.73107 11.0647 6.73113 12.5707V15.7192C6.73114 15.8306 6.71108 15.9409 6.67211 16.0436C6.63314 16.1464 6.57604 16.2396 6.50412 16.3178C6.43221 16.396 6.34691 16.4578 6.25317 16.4994C6.15943 16.541 6.05912 16.5618 5.95806 16.5603C5.57046 16.5632 5.19962 16.7348 4.92646 17.0378C4.6533 17.3408 4.49999 17.7506 4.5 18.1777V19.5148C4.5 19.6749 4.55773 19.8285 4.6605 19.9417C4.76327 20.055 4.90266 20.1186 5.048 20.1186H9.77448C9.73246 20.313 9.70949 20.5119 9.70598 20.7117C9.68336 21.1341 9.73935 21.5573 9.8705 21.9551C10.0017 22.3528 10.2052 22.7168 10.4687 23.0248C10.7322 23.3327 11.05 23.5781 11.4026 23.7458C11.7553 23.9135 12.1353 24 12.5194 24C12.9034 24 13.2835 23.9135 13.6361 23.7458C13.9888 23.5781 14.3066 23.3327 14.57 23.0248C14.8335 22.7168 15.0371 22.3528 15.1682 21.9551C15.2994 21.5573 15.3554 21.1341 15.3327 20.7117C15.3277 20.5126 15.3081 20.3142 15.274 20.1186H19.9516C20.0969 20.1186 20.2363 20.055 20.3391 19.9417C20.4419 19.8285 20.4996 19.6749 20.4996 19.5148V18.1777C20.5048 17.9051 20.4606 17.634 20.3695 17.3804C20.2784 17.1269 20.1422 16.8959 19.9691 16.7011C19.7959 16.5063 19.5891 16.3515 19.361 16.2458C19.1328 16.1402 18.8878 16.0858 18.6403 16.0859Z" fill="white"/>
  </g>
  <defs>
    <filter id="filter0_d_39_257" x="0.5" y="0" width="24" height="28" filterUnits="userSpaceOnUse" color-interpolation-filters="sRGB">
      <feFlood flood-opacity="0" result="BackgroundImageFix"/>
      <feColorMatrix in="SourceAlpha" type="matrix" values="0 0 0 0 0 0 0 0 0 0 0 0 0 0 0 0 0 0 127 0" result="hardAlpha"/>
      <feOffset/>
      <feGaussianBlur stdDeviation="2"/>
      <feComposite in2="hardAlpha" operator="out"/>
      <feColorMatrix type="matrix" values="0 0 0 0 1 0 0 0 0 1 0 0 0 0 1 0 0 0 0.25 0"/>
      <feBlend mode="normal" in2="BackgroundImageFix" result="effect1_dropShadow_39_257"/>
      <feBlend mode="normal" in="SourceGraphic" in2="effect1_dropShadow_39_257" result="shape"/>
    </filter>
  </defs>
</svg>
