<svg width="246" height="70" viewBox="0 0 246 70" fill="none" xmlns="http://www.w3.org/2000/svg">
<g filter="url(#filter0_d_144_133)">
<rect x="190" y="14" width="42" height="42" rx="5" fill="url(#paint0_linear_144_133)" shape-rendering="crispEdges"/>
<rect x="190.5" y="14.5" width="41" height="41" rx="4.5" stroke="#39E87F" shape-rendering="crispEdges"/>
<path d="M219.993 31.4307C219.993 32.9801 220.012 34.5294 219.988 36.0788C219.954 38.2267 219.105 39.9775 217.473 41.2619C215.69 42.6653 213.86 44.0018 212.052 45.3693C211.937 45.4566 211.831 45.5577 211.719 45.6499C211.167 46.1041 210.907 46.1187 210.327 45.68C208.458 44.2636 206.578 42.8569 204.726 41.4135C202.922 40.0069 201.979 38.1395 202 35.7404C202.032 32.6979 202 29.6546 202.01 26.6073C202.01 25.3254 202.633 24.4349 203.735 24.0997C204.035 24.0047 204.35 23.9781 204.661 24.0217C204.971 24.0653 205.268 24.1781 205.533 24.3525C206.11 24.717 206.674 25.1068 207.24 25.4893C208.211 26.1416 209.191 26.7842 210.142 27.4692C210.717 27.8843 211.263 27.8476 211.81 27.4863C212.968 26.7231 214.113 25.937 215.263 25.1615C215.623 24.9168 215.989 24.6869 216.346 24.439C217.121 23.8999 217.926 23.8616 218.743 24.3003C219.572 24.7464 219.966 25.508 219.98 26.4572C220.004 28.1142 219.986 29.7721 219.986 31.4315L219.993 31.4307ZM210.341 36.6904V30.4929C210.341 29.7052 210.077 29.0781 209.407 28.6451C208.416 28.0025 207.447 27.3265 206.467 26.6668C205.933 26.3064 205.408 25.928 204.856 25.6002C204.217 25.2202 203.552 25.5496 203.39 26.2982C203.35 26.4838 203.331 26.6733 203.331 26.8633C203.331 29.8512 203.31 32.8398 203.337 35.8277C203.351 37.3852 203.847 38.7633 204.996 39.812C205.406 40.1863 205.853 40.5133 206.294 40.8501C207.393 41.6916 208.493 42.5324 209.605 43.356C209.744 43.4595 209.983 43.5337 210.124 43.4775C210.235 43.4334 210.288 43.1741 210.329 43.0012C210.361 42.8593 210.339 42.7036 210.339 42.5544C210.341 40.6022 210.342 38.6475 210.341 36.6904Z" fill="white"/>
</g>
<rect y="14" width="182" height="42" rx="5" fill="url(#paint1_linear_144_133)" fill-opacity="0.7"/>
<rect x="0.5" y="14.5" width="181" height="41" rx="4.5" stroke="white" stroke-opacity="0.04"/>
<path d="M53.664 37.188C53.576 37.26 53.456 37.32 53.304 37.368C53.16 37.416 52.992 37.44 52.8 37.44C52.552 37.44 52.344 37.408 52.176 37.344C52.008 37.28 51.9 37.172 51.852 37.02C51.58 36.26 51.348 35.628 51.156 35.124C50.972 34.62 50.828 34.184 50.724 33.816H50.664C50.64 34.32 50.62 34.78 50.604 35.196C50.588 35.612 50.576 36.02 50.568 36.42C50.56 36.812 50.548 37.212 50.532 37.62C50.516 38.028 50.492 38.476 50.46 38.964C50.372 38.988 50.252 39.016 50.1 39.048C49.956 39.08 49.812 39.096 49.668 39.096C49.364 39.096 49.124 39.044 48.948 38.94C48.78 38.836 48.696 38.656 48.696 38.4C48.696 38.224 48.704 37.964 48.72 37.62C48.744 37.268 48.768 36.868 48.792 36.42C48.824 35.964 48.852 35.484 48.876 34.98C48.908 34.476 48.94 33.98 48.972 33.492C49.012 32.996 49.048 32.54 49.08 32.124C49.144 32.028 49.272 31.932 49.464 31.836C49.656 31.732 49.92 31.68 50.256 31.68C50.616 31.68 50.904 31.74 51.12 31.86C51.344 31.972 51.504 32.16 51.6 32.424C51.72 32.712 51.848 33.048 51.984 33.432C52.12 33.808 52.252 34.192 52.38 34.584C52.516 34.968 52.64 35.316 52.752 35.628H52.812C53.036 34.924 53.264 34.236 53.496 33.564C53.736 32.892 53.94 32.332 54.108 31.884C54.22 31.82 54.36 31.772 54.528 31.74C54.704 31.7 54.888 31.68 55.08 31.68C55.424 31.68 55.7 31.732 55.908 31.836C56.124 31.932 56.252 32.08 56.292 32.28C56.324 32.432 56.356 32.672 56.388 33C56.428 33.328 56.468 33.708 56.508 34.14C56.548 34.564 56.588 35.012 56.628 35.484C56.668 35.948 56.704 36.404 56.736 36.852C56.776 37.292 56.808 37.688 56.832 38.04C56.856 38.392 56.872 38.672 56.88 38.88C56.76 38.952 56.632 39.004 56.496 39.036C56.368 39.076 56.204 39.096 56.004 39.096C55.748 39.096 55.528 39.048 55.344 38.952C55.168 38.856 55.072 38.672 55.056 38.4C55.016 37.776 54.984 37.184 54.96 36.624C54.936 36.056 54.916 35.54 54.9 35.076C54.892 34.604 54.88 34.2 54.864 33.864H54.804C54.7 34.208 54.552 34.644 54.36 35.172C54.176 35.692 53.944 36.364 53.664 37.188ZM65.377 35.352C65.377 36.184 65.213 36.888 64.885 37.464C64.565 38.032 64.121 38.464 63.553 38.76C62.993 39.056 62.357 39.204 61.645 39.204C60.933 39.204 60.297 39.056 59.737 38.76C59.177 38.464 58.737 38.032 58.417 37.464C58.097 36.888 57.937 36.184 57.937 35.352C57.937 34.52 58.101 33.82 58.429 33.252C58.757 32.676 59.201 32.244 59.761 31.956C60.321 31.66 60.949 31.512 61.645 31.512C62.349 31.512 62.981 31.66 63.541 31.956C64.109 32.244 64.557 32.676 64.885 33.252C65.213 33.82 65.377 34.52 65.377 35.352ZM63.493 35.352C63.493 34.584 63.325 34 62.989 33.6C62.661 33.2 62.213 33 61.645 33C61.101 33 60.661 33.2 60.325 33.6C59.989 33.992 59.821 34.576 59.821 35.352C59.821 36.136 59.985 36.728 60.313 37.128C60.649 37.52 61.097 37.716 61.657 37.716C62.217 37.716 62.661 37.52 62.989 37.128C63.325 36.728 63.493 36.136 63.493 35.352ZM71.4514 35.364C71.4514 34.828 71.3594 34.388 71.1754 34.044C70.9994 33.7 70.7514 33.444 70.4314 33.276C70.1194 33.1 69.7554 33.012 69.3394 33.012C69.1954 33.012 69.0554 33.02 68.9194 33.036C68.7914 33.044 68.6594 33.056 68.5234 33.072V37.62C68.6434 37.644 68.7794 37.664 68.9314 37.68C69.0834 37.688 69.2274 37.692 69.3634 37.692C69.9954 37.692 70.4994 37.496 70.8754 37.104C71.2594 36.712 71.4514 36.132 71.4514 35.364ZM73.3354 35.328C73.3354 36.192 73.1674 36.908 72.8314 37.476C72.5034 38.044 72.0394 38.472 71.4394 38.76C70.8474 39.04 70.1514 39.18 69.3514 39.18C69.0874 39.18 68.7634 39.16 68.3794 39.12C67.9954 39.088 67.6474 39.016 67.3354 38.904C66.9194 38.752 66.7114 38.484 66.7114 38.1V32.364C66.7114 32.204 66.7554 32.084 66.8434 32.004C66.9314 31.916 67.0474 31.844 67.1914 31.788C67.5114 31.684 67.8554 31.616 68.2234 31.584C68.5914 31.552 68.9274 31.536 69.2314 31.536C70.0554 31.536 70.7714 31.676 71.3794 31.956C71.9954 32.228 72.4754 32.644 72.8194 33.204C73.1634 33.764 73.3354 34.472 73.3354 35.328ZM81.7364 35.352C81.7364 36.184 81.5724 36.888 81.2444 37.464C80.9244 38.032 80.4804 38.464 79.9124 38.76C79.3524 39.056 78.7164 39.204 78.0044 39.204C77.2924 39.204 76.6564 39.056 76.0964 38.76C75.5364 38.464 75.0964 38.032 74.7764 37.464C74.4564 36.888 74.2964 36.184 74.2964 35.352C74.2964 34.52 74.4604 33.82 74.7884 33.252C75.1164 32.676 75.5604 32.244 76.1204 31.956C76.6804 31.66 77.3084 31.512 78.0044 31.512C78.7084 31.512 79.3404 31.66 79.9004 31.956C80.4684 32.244 80.9164 32.676 81.2444 33.252C81.5724 33.82 81.7364 34.52 81.7364 35.352ZM79.8524 35.352C79.8524 34.584 79.6844 34 79.3484 33.6C79.0204 33.2 78.5724 33 78.0044 33C77.4604 33 77.0204 33.2 76.6844 33.6C76.3484 33.992 76.1804 34.576 76.1804 35.352C76.1804 36.136 76.3444 36.728 76.6724 37.128C77.0084 37.52 77.4564 37.716 78.0164 37.716C78.5764 37.716 79.0204 37.52 79.3484 37.128C79.6844 36.728 79.8524 36.136 79.8524 35.352ZM85.4731 33.804L87.1291 33.78C87.1611 34.124 87.1851 34.464 87.2011 34.8C87.2171 35.136 87.2251 35.46 87.2251 35.772C87.2331 36.084 87.2371 36.388 87.2371 36.684V39C87.1651 39.016 87.0491 39.032 86.8891 39.048C86.7371 39.072 86.5811 39.084 86.4211 39.084C86.0691 39.084 85.8211 39.024 85.6771 38.904C85.5411 38.784 85.4731 38.568 85.4731 38.256V33.804ZM91.8691 36.888L90.2011 36.9C90.1451 36.316 90.1131 35.76 90.1051 35.232C90.0971 34.704 90.0931 34.2 90.0931 33.72V31.704C90.1731 31.688 90.2891 31.668 90.4411 31.644C90.5931 31.62 90.7531 31.608 90.9211 31.608C91.2651 31.608 91.5091 31.672 91.6531 31.8C91.7971 31.92 91.8691 32.132 91.8691 32.436V36.888ZM91.8691 36.312V38.772C91.7651 38.868 91.6171 38.944 91.4251 39C91.2411 39.064 91.0211 39.096 90.7651 39.096C90.4931 39.096 90.2371 39.052 89.9971 38.964C89.7651 38.876 89.5731 38.68 89.4211 38.376L87.9691 35.616C87.8811 35.44 87.7931 35.264 87.7051 35.088C87.6251 34.912 87.5451 34.736 87.4651 34.56C87.3851 34.376 87.3051 34.192 87.2251 34.008L85.4731 34.404V32.04C85.5691 31.904 85.7171 31.8 85.9171 31.728C86.1251 31.656 86.3491 31.62 86.5891 31.62C86.8531 31.62 87.1011 31.664 87.3331 31.752C87.5731 31.84 87.7691 32.032 87.9211 32.328L89.3851 35.1C89.4731 35.268 89.5611 35.444 89.6491 35.628C89.7371 35.804 89.8211 35.98 89.9011 36.156C89.9811 36.332 90.0571 36.512 90.1291 36.696L91.8691 36.312ZM100.627 35.352C100.627 36.184 100.463 36.888 100.135 37.464C99.815 38.032 99.371 38.464 98.803 38.76C98.243 39.056 97.607 39.204 96.895 39.204C96.183 39.204 95.547 39.056 94.987 38.76C94.427 38.464 93.987 38.032 93.667 37.464C93.347 36.888 93.187 36.184 93.187 35.352C93.187 34.52 93.351 33.82 93.679 33.252C94.007 32.676 94.451 32.244 95.011 31.956C95.571 31.66 96.199 31.512 96.895 31.512C97.599 31.512 98.231 31.66 98.791 31.956C99.359 32.244 99.807 32.676 100.135 33.252C100.463 33.82 100.627 34.52 100.627 35.352ZM98.743 35.352C98.743 34.584 98.575 34 98.239 33.6C97.911 33.2 97.463 33 96.895 33C96.351 33 95.911 33.2 95.575 33.6C95.239 33.992 95.071 34.576 95.071 35.352C95.071 36.136 95.235 36.728 95.563 37.128C95.899 37.52 96.347 37.716 96.907 37.716C97.467 37.716 97.911 37.52 98.239 37.128C98.575 36.728 98.743 36.136 98.743 35.352ZM105.853 38.796C105.757 38.876 105.605 38.948 105.397 39.012C105.189 39.076 104.961 39.108 104.713 39.108C104.433 39.108 104.185 39.064 103.969 38.976C103.753 38.888 103.609 38.768 103.537 38.616C103.417 38.384 103.277 38.08 103.117 37.704C102.965 37.32 102.797 36.892 102.613 36.42C102.437 35.94 102.257 35.448 102.073 34.944C101.897 34.432 101.733 33.928 101.581 33.432C101.429 32.936 101.297 32.484 101.185 32.076C101.281 31.98 101.421 31.892 101.605 31.812C101.789 31.724 101.989 31.68 102.205 31.68C102.469 31.68 102.681 31.736 102.841 31.848C103.001 31.96 103.117 32.16 103.189 32.448C103.437 33.296 103.685 34.112 103.933 34.896C104.181 35.672 104.445 36.472 104.725 37.296H104.785C104.953 36.776 105.121 36.216 105.289 35.616C105.465 35.016 105.637 34.4 105.805 33.768C105.981 33.128 106.145 32.5 106.297 31.884C106.417 31.828 106.549 31.78 106.693 31.74C106.837 31.7 106.993 31.68 107.161 31.68C107.425 31.68 107.645 31.74 107.821 31.86C108.005 31.972 108.097 32.16 108.097 32.424C108.097 32.584 108.053 32.832 107.965 33.168C107.885 33.496 107.773 33.88 107.629 34.32C107.493 34.752 107.341 35.2 107.173 35.664C107.013 36.12 106.849 36.56 106.681 36.984C106.513 37.408 106.353 37.78 106.201 38.1C106.057 38.42 105.941 38.652 105.853 38.796ZM111.815 33.24H111.743C111.663 33.496 111.567 33.78 111.455 34.092C111.351 34.404 111.243 34.732 111.131 35.076C111.019 35.412 110.911 35.748 110.807 36.084L110.591 37.164C110.543 37.316 110.495 37.476 110.447 37.644C110.407 37.812 110.363 37.976 110.315 38.136C110.267 38.296 110.223 38.448 110.183 38.592C110.143 38.736 110.103 38.872 110.063 39C109.975 39.024 109.875 39.048 109.763 39.072C109.651 39.104 109.519 39.12 109.367 39.12C109.031 39.12 108.775 39.06 108.599 38.94C108.423 38.82 108.335 38.644 108.335 38.412C108.335 38.316 108.347 38.216 108.371 38.112C108.403 38.008 108.439 37.888 108.479 37.752C108.551 37.488 108.651 37.156 108.779 36.756C108.915 36.356 109.059 35.924 109.211 35.46C109.371 34.988 109.531 34.524 109.691 34.068C109.859 33.612 110.011 33.192 110.147 32.808C110.291 32.424 110.407 32.124 110.495 31.908C110.607 31.836 110.783 31.772 111.023 31.716C111.271 31.652 111.515 31.62 111.755 31.62C112.099 31.62 112.407 31.672 112.679 31.776C112.951 31.872 113.123 32.028 113.195 32.244C113.347 32.668 113.511 33.16 113.687 33.72C113.871 34.272 114.055 34.852 114.239 35.46C114.423 36.068 114.599 36.66 114.767 37.236C114.943 37.804 115.095 38.316 115.223 38.772C115.135 38.868 115.007 38.948 114.839 39.012C114.671 39.084 114.471 39.12 114.239 39.12C113.911 39.12 113.679 39.06 113.543 38.94C113.407 38.82 113.303 38.64 113.231 38.4L112.847 37.056L112.643 36.036C112.547 35.676 112.447 35.328 112.343 34.992C112.239 34.656 112.143 34.34 112.055 34.044C111.967 33.74 111.887 33.472 111.815 33.24ZM109.787 37.38L110.495 35.964H113.303L113.543 37.38H109.787ZM117.456 33.192L117.444 31.728H121.152C121.2 31.8 121.244 31.9 121.284 32.028C121.324 32.156 121.344 32.292 121.344 32.436C121.344 32.692 121.284 32.884 121.164 33.012C121.052 33.132 120.896 33.192 120.696 33.192H117.456ZM119.148 31.728L119.16 33.192H115.452C115.396 33.12 115.348 33.02 115.308 32.892C115.276 32.764 115.26 32.628 115.26 32.484C115.26 32.22 115.316 32.028 115.428 31.908C115.548 31.788 115.704 31.728 115.896 31.728H119.148ZM117.36 32.868H119.196V38.988C119.116 39.012 118.996 39.032 118.836 39.048C118.676 39.072 118.512 39.084 118.344 39.084C117.984 39.084 117.728 39.02 117.576 38.892C117.432 38.764 117.36 38.54 117.36 38.22V32.868ZM129.197 35.352C129.197 36.184 129.033 36.888 128.705 37.464C128.385 38.032 127.941 38.464 127.373 38.76C126.813 39.056 126.177 39.204 125.465 39.204C124.753 39.204 124.117 39.056 123.557 38.76C122.997 38.464 122.557 38.032 122.237 37.464C121.917 36.888 121.757 36.184 121.757 35.352C121.757 34.52 121.921 33.82 122.249 33.252C122.577 32.676 123.021 32.244 123.581 31.956C124.141 31.66 124.769 31.512 125.465 31.512C126.169 31.512 126.801 31.66 127.361 31.956C127.929 32.244 128.377 32.676 128.705 33.252C129.033 33.82 129.197 34.52 129.197 35.352ZM127.313 35.352C127.313 34.584 127.145 34 126.809 33.6C126.481 33.2 126.033 33 125.465 33C124.921 33 124.481 33.2 124.145 33.6C123.809 33.992 123.641 34.576 123.641 35.352C123.641 36.136 123.805 36.728 124.133 37.128C124.469 37.52 124.917 37.716 125.477 37.716C126.037 37.716 126.481 37.52 126.809 37.128C127.145 36.728 127.313 36.136 127.313 35.352ZM132.308 32.232C132.308 32.432 132.304 32.7 132.296 33.036C132.288 33.364 132.272 33.728 132.248 34.128C132.232 34.528 132.208 34.924 132.176 35.316C132.144 35.7 132.104 36.048 132.056 36.36C132 36.408 131.9 36.448 131.756 36.48C131.612 36.504 131.488 36.516 131.384 36.516C131.192 36.516 131.024 36.484 130.88 36.42C130.744 36.348 130.66 36.224 130.628 36.048C130.596 35.848 130.564 35.572 130.532 35.22C130.508 34.86 130.484 34.464 130.46 34.032C130.444 33.6 130.432 33.176 130.424 32.76C130.416 32.344 130.412 31.98 130.412 31.668C130.708 31.492 131.044 31.404 131.42 31.404C131.7 31.404 131.916 31.472 132.068 31.608C132.228 31.744 132.308 31.952 132.308 32.232ZM130.352 38.172C130.352 37.884 130.444 37.644 130.628 37.452C130.82 37.26 131.076 37.164 131.396 37.164C131.708 37.164 131.956 37.26 132.14 37.452C132.332 37.644 132.428 37.884 132.428 38.172C132.428 38.468 132.332 38.712 132.14 38.904C131.956 39.096 131.708 39.192 131.396 39.192C131.076 39.192 130.82 39.096 130.628 38.904C130.444 38.712 130.352 38.468 130.352 38.172Z" fill="white"/>
<defs>
<filter id="filter0_d_144_133" x="176.5" y="0.5" width="69" height="69" filterUnits="userSpaceOnUse" color-interpolation-filters="sRGB">
<feFlood flood-opacity="0" result="BackgroundImageFix"/>
<feColorMatrix in="SourceAlpha" type="matrix" values="0 0 0 0 0 0 0 0 0 0 0 0 0 0 0 0 0 0 127 0" result="hardAlpha"/>
<feOffset/>
<feGaussianBlur stdDeviation="6.75"/>
<feComposite in2="hardAlpha" operator="out"/>
<feColorMatrix type="matrix" values="0 0 0 0 0.223529 0 0 0 0 0.909804 0 0 0 0 0.498039 0 0 0 0.35 0"/>
<feBlend mode="normal" in2="BackgroundImageFix" result="effect1_dropShadow_144_133"/>
<feBlend mode="normal" in="SourceGraphic" in2="effect1_dropShadow_144_133" result="shape"/>
</filter>
<linearGradient id="paint0_linear_144_133" x1="232" y1="35" x2="190" y2="35" gradientUnits="userSpaceOnUse">
<stop stop-color="#15B756"/>
<stop offset="1" stop-color="#39E87F"/>
</linearGradient>
<linearGradient id="paint1_linear_144_133" x1="0" y1="35" x2="182" y2="35" gradientUnits="userSpaceOnUse">
<stop/>
<stop offset="1" stop-opacity="0.75"/>
</linearGradient>
</defs>
</svg>
