<svg width="18" height="18" viewBox="0 0 18 18" fill="none" xmlns="http://www.w3.org/2000/svg">
<path d="M14.625 2.8125H3.375C3.07663 2.8125 2.79048 2.93103 2.5795 3.142C2.36853 3.35298 2.25 3.63913 2.25 3.9375V8.06977C2.25 14.3705 7.58109 16.4609 8.64844 16.8159C8.8764 16.8935 9.1236 16.8935 9.35156 16.8159C10.4203 16.4609 15.75 14.3705 15.75 8.06977V3.9375C15.75 3.63913 15.6315 3.35298 15.4205 3.142C15.2095 2.93103 14.9234 2.8125 14.625 2.8125ZM12.2105 7.71047L8.27297 11.648C8.22073 11.7003 8.15869 11.7418 8.0904 11.7701C8.02212 11.7984 7.94892 11.8129 7.875 11.8129C7.80108 11.8129 7.72788 11.7984 7.6596 11.7701C7.59131 11.7418 7.52927 11.7003 7.47703 11.648L5.78953 9.96047C5.68398 9.85492 5.62469 9.71177 5.62469 9.5625C5.62469 9.41323 5.68398 9.27008 5.78953 9.16453C5.89508 9.05898 6.03823 8.99969 6.1875 8.99969C6.33677 8.99969 6.47992 9.05898 6.58547 9.16453L7.875 10.4541L11.4145 6.91453C11.4668 6.86227 11.5288 6.82081 11.5971 6.79253C11.6654 6.76424 11.7386 6.74969 11.8125 6.74969C11.8864 6.74969 11.9596 6.76424 12.0279 6.79253C12.0962 6.82081 12.1582 6.86227 12.2105 6.91453C12.2627 6.96679 12.3042 7.02884 12.3325 7.09712C12.3608 7.1654 12.3753 7.23859 12.3753 7.3125C12.3753 7.38641 12.3608 7.4596 12.3325 7.52788C12.3042 7.59616 12.2627 7.65821 12.2105 7.71047Z" fill="white"/>
</svg>
