<svg width="92" height="107" viewBox="0 0 92 107" fill="none" xmlns="http://www.w3.org/2000/svg">
<path d="M17.1305 46.7895C18.9044 46.9475 20.4873 47.1547 22.0734 47.2172C23.892 47.3029 25.714 47.2667 27.5279 47.1087V14.6918C27.5312 14.137 27.3965 13.5903 27.1362 13.1026C26.8677 12.6021 26.5021 12.1622 26.0615 11.8094C25.5842 11.424 25.044 11.1266 24.4656 10.9309C23.8407 10.7121 23.1843 10.6009 22.5234 10.6018H5.04331C4.37702 10.5997 3.71508 10.7109 3.0849 10.9309C2.50778 11.1273 1.96882 11.4246 1.49226 11.8094C1.05169 12.1622 0.686079 12.6021 0.417559 13.1026C0.157261 13.5903 0.0225255 14.137 0.025879 14.6918V106H12.9482V63.225H14.6282V106H27.5538V55.7821H22.3745C20.5553 54.0119 18.8429 52.3733 18.3444 49.8792C17.1855 49.1948 15.8874 49.3823 14.6379 49.2606V55.0615H12.9579V49.0335C12.0839 48.9019 11.2164 48.7506 10.3683 48.5334C9.66259 48.3524 9.03783 47.8424 8.36453 47.4706C9.07992 46.3914 9.23206 46.3387 11.3102 46.3946C11.3879 46.138 11.4591 45.8814 11.5368 45.628C12.0066 45.5374 12.4831 45.4878 12.9611 45.4799V18.7916H14.6412V45.6477C15.5385 45.8527 16.3855 46.2412 17.1305 46.7895Z" fill="white"/>
<path d="M36.0187 72.1124L35.0055 69.6413L34.2512 69.3123C34.4487 65.66 34.6429 62.0339 34.8436 58.3586C32.9467 57.5689 31.0627 56.7825 29.2047 56.0158V106.03H35.6982C35.6982 103.726 35.6335 101.499 35.6982 99.2745C35.8212 95.5235 36.0219 91.7758 36.2032 88.0247C36.297 86.0143 36.4492 83.9973 36.4395 81.9836C36.4395 78.657 36.3132 75.3567 36.0187 72.1124ZM29.2047 10.6151V46.9048C29.7744 46.8236 30.3441 46.7216 30.9138 46.5987C34.18 45.9045 37.5433 45.6906 41.1332 45.2332C41.2465 44.154 41.0167 42.8378 41.1979 41.5315C41.3169 40.4855 41.515 39.4504 41.7903 38.4353C41.8766 38.1335 41.9904 37.8404 42.1302 37.5601V10.6151H29.2047Z" fill="white"/>
<path d="M53.9487 58.9706C54.3134 66.0537 54.6781 73.1258 55.0428 80.187L53.3013 80.7891L52.5309 79.7559C51.7378 79.6408 50.9447 79.5322 49.9639 79.394L48.9928 78.8248C48.9345 78.8972 48.8762 78.9761 48.8212 79.0518L49.9218 80.2758L52.3625 79.9468C52.6215 80.4305 52.8837 80.9339 53.1653 81.4472L54.5346 81.2432V89.7127C54.4828 89.7785 54.1688 90.1404 53.7156 90.6701C53.9131 95.6057 54.1203 100.758 54.3339 105.997H60.1606V57.1839C58.0353 57.562 55.9538 58.1606 53.9487 58.9706ZM44.257 10.6019V18.7786H47.2124V36.7572C47.8598 37.7443 48.1058 39.1428 47.9893 40.4589C47.8371 42.1732 47.9666 43.8875 47.7853 45.605C50.0513 46.1611 54.6414 46.2993 56.7487 46.8554C57.7555 47.1219 58.9046 46.9508 59.9146 47.1614L60.1574 47.2107V18.7786H61.8147V10.6019H44.257Z" fill="white"/>
<path d="M90.6083 13.106C90.3398 12.6055 89.9742 12.1655 89.5336 11.8128C89.057 11.428 88.5181 11.1307 87.941 10.9343C87.316 10.716 86.6596 10.6048 85.9987 10.6052H68.5187C67.8577 10.6043 67.2013 10.7155 66.5764 10.9343C65.998 11.13 65.4579 11.4274 64.9806 11.8128C64.5401 12.1647 64.1754 12.6049 63.9091 13.106C63.6457 13.5926 63.5097 14.1398 63.5142 14.6952V47.7701C63.8994 47.8129 64.2814 47.8458 64.6666 47.8655C66.8095 47.9741 68.9654 47.9017 71.1148 47.8655C72.593 47.9004 74.0641 47.6481 75.4492 47.1219C75.7701 46.9913 76.1015 46.8889 76.4397 46.8159V18.7819H78.1198V46.5626C78.4953 46.5198 78.8643 46.477 79.2204 46.4145C79.502 46.7435 79.6638 46.964 79.7577 47.0726C80.6058 47.1746 81.36 47.2437 82.1046 47.3753C82.2794 47.4082 82.4283 47.6583 82.7164 47.9544C82.3731 48.2905 82.0052 48.5997 81.6158 48.879C80.5395 49.5032 79.3505 49.9005 78.1198 50.0471V55.0485H76.4397V50.2281H76.4041C75.3618 50.284 74.3195 50.2281 73.1962 50.2281C72.6621 52.4392 71.9014 54.5055 70.066 55.927C68.2111 56.0652 65.8999 56.2824 63.5142 56.6213V106H76.4397V63.2251H78.1198V106H91.0421V14.6919C91.032 14.1344 90.8827 13.5887 90.6083 13.106Z" fill="white"/>
<path d="M23.3391 54.318C23.3799 54.354 23.412 54.399 23.433 54.4496C23.4676 54.5435 23.4716 54.6463 23.4443 54.7426C23.417 54.839 23.36 54.9239 23.2816 54.9848C23.2032 55.0457 23.1076 55.0793 23.009 55.0807C22.9103 55.0821 22.8138 55.0512 22.7338 54.9925C22.0107 54.4451 21.3837 53.7777 20.879 53.0183C20.2089 52.0805 19.6198 51.0902 18.995 50.1228L19.0144 50.0636C19.0412 49.9808 19.0902 49.9073 19.1558 49.8513C19.2215 49.7954 19.3013 49.7592 19.3861 49.7469C19.471 49.7346 19.5575 49.7466 19.636 49.7816C19.7144 49.8167 19.7817 49.8733 19.8302 49.9451C20.8887 51.4916 21.8598 53.1039 23.3391 54.318Z" fill="white"/>
<path d="M27.052 49.7213L25.8252 48.8823C26.0906 48.8727 26.3522 48.9487 26.5725 49.0994C26.7929 49.2501 26.9607 49.4678 27.052 49.7213Z" fill="white"/>
<path d="M27.1912 49.8595L31.0757 52.3174C31.7975 52.7386 32.7428 52.8504 33.1215 53.7586L30.9009 52.5083C29.5219 51.8272 28.13 51.1658 27.1912 49.8595Z" fill="white"/>
<path d="M35.0864 55.8217C35.14 56.0856 35.1778 56.3526 35.1997 56.6212C35.1966 56.8309 35.1771 57.0399 35.1414 57.2464C34.9958 57.2826 34.876 57.3615 34.8177 57.3253C31.6584 55.6143 28.4958 53.9132 25.3493 52.1693C24.9186 51.8636 24.5204 51.5128 24.1613 51.123C23.7308 50.7939 23.3035 50.4846 22.8665 50.1688C23.5787 50.0273 23.8376 50.6261 24.2358 51.0341C24.3426 51.0572 24.4721 51.0341 24.5595 51.0901C27.6962 53.4427 31.2505 54.8839 35.0864 55.8217Z" fill="white"/>
<path d="M36.9056 62.4025H37.0966L37.0448 63.4817H36.9542C36.9412 63.1297 36.925 62.771 36.9056 62.4025Z" fill="white"/>
<path d="M42.7647 42.851C43.5675 43.7953 44.558 44.2461 45.9305 43.8381C45.4579 44.5784 45.0792 45.1543 44.6098 45.8847C43.7876 44.9634 42.6999 44.3053 42.7647 42.851Z" fill="white"/>
<path d="M37.7861 54.0416C37.6404 56.5357 37.5012 58.8982 37.362 61.2804H37.1484V53.7882C35.2062 52.5839 33.1215 51.7021 31.7166 49.876C32.0565 50.0471 32.4061 50.205 32.7266 50.409C34.8954 51.7976 36.9347 53.4724 39.5697 53.8902C40.6894 54.0336 41.8174 54.0995 42.9459 54.0876C44.3735 54.114 45.7946 54.0876 47.2253 54.4167L39.7121 54.8905V65.5777H39.547C39.382 62.0274 39.2233 58.4737 39.0518 54.8313L37.7861 54.0416Z" fill="white"/>
<path d="M46.0211 69.2465C46.1398 69.4228 46.2376 69.6128 46.3125 69.8124L46.4938 70.1414L46.2154 69.9177C43.5998 67.9204 41.8842 65.3605 41.3954 62.0208C41.625 62.2671 41.8239 62.5411 41.9878 62.8368C43.0115 65.1651 44.3709 67.3255 46.0211 69.2465Z" fill="white"/>
<path d="M47.4649 71.6352C47.4635 71.6287 47.4635 71.622 47.4649 71.6155L47.5393 71.6451L47.4649 71.6352Z" fill="white"/>
<path d="M48.7759 50.1787C49.6175 59.4905 50.2423 68.8122 49.8862 78.1667C49.515 68.8352 49.1449 59.5059 48.7759 50.1787Z" fill="white"/>
<path d="M50.566 84.0663L50.5012 83.8426L51.0645 83.6945L52.7251 82.7534L51.1842 83.8261L50.566 84.0663Z" fill="white"/>
<path d="M52.6053 58.5033H52.5406V60.2307H52.6053V58.5033Z" fill="white"/>
<path d="M53.4631 82.51L53.4372 82.4146L53.4664 82.51H53.4631Z" fill="white"/>
<path d="M52.9128 62.0405C53.0941 67.8974 53.7253 73.7313 53.6185 79.598C53.0197 78.3839 52.4985 64.4984 52.9128 62.0405Z" fill="white"/>
<path d="M41.3889 81.8158C44.1307 83.201 46.8466 84.5961 49.7502 85.6556C52.5179 86.6723 53.748 88.3504 54.0005 90.4431C54.0005 90.532 53.9098 90.6373 53.7933 90.8808C53.6279 90.6077 53.4963 90.3147 53.4016 90.0088C53.3224 89.3837 53.0818 88.7912 52.7042 88.2913C52.3267 87.7914 51.8258 87.402 51.2522 87.1626C50.1419 86.6625 49.0769 86.0932 47.9245 85.649C44.6643 84.3846 41.5743 82.7063 38.7281 80.6542C38.5209 80.5292 38.317 80.4141 38.1098 80.2923L37.6696 80.187C37.6696 80.141 37.689 80.0916 37.6987 80.0389L38.2004 80.1772C38.4011 80.3022 38.6051 80.4371 38.8058 80.5654C39.6668 80.9701 40.5343 81.3748 41.3889 81.8158Z" fill="white"/>
<path d="M53.6315 53.3638C53.5667 53.2519 53.4955 53.14 53.4275 53.0347C54.7223 52.2088 58.6327 50.4024 59.934 49.5765C58.9823 50.9453 55.1237 52.8373 53.6315 53.3638Z" fill="white"/>
<path d="M61.2191 52.8208C59.866 54.2126 55.6255 56.0882 53.5505 56.97C54.1979 55.6769 57.8623 54.6239 58.6101 54.1172C59.3578 53.6105 60.2286 53.1301 61.0702 52.6596C61.4554 52.426 61.8342 52.1858 62.2194 51.9554L61.2191 52.8208Z" fill="white"/>
<path d="M66.2754 51.9949C66.4796 51.8941 66.698 51.8264 66.9228 51.7942C66.3078 52.3207 65.7121 52.8702 65.0744 53.3637C64.5727 53.7553 64.0192 54.0711 63.4106 54.4693L64.0353 54.7193C62.9768 55.1109 61.9313 55.5617 60.8533 55.8743C59.484 56.2691 55.4928 57.5392 54.1073 57.8682C54.0782 57.7629 54.0458 57.6609 54.0167 57.5392C54.2303 57.4503 54.444 57.3517 54.6641 57.276C57.8267 56.2066 63.4106 53.7421 66.2754 51.9949Z" fill="white"/>
<path d="M71.992 50.182C72.1345 52.2615 71.2928 53.8574 69.1143 55.4729C69.5707 53.117 71.4968 52.0575 71.992 50.182Z" fill="white"/>
<path d="M19.9878 1.50374L19.9716 4.58024H18.8581V1.37212C18.8588 1.32268 18.8497 1.27359 18.8313 1.2278C18.813 1.18202 18.7858 1.14045 18.7513 1.10558C18.717 1.07053 18.6761 1.04286 18.631 1.0242C18.586 1.00555 18.5377 0.996305 18.4891 0.99701C18.4409 0.996179 18.3931 1.00537 18.3485 1.02404C18.304 1.04272 18.2637 1.07047 18.2301 1.10558C18.1952 1.14028 18.1675 1.18175 18.1485 1.22752C18.1296 1.2733 18.12 1.32248 18.12 1.37212V7.89364C18.1198 7.94282 18.1295 7.99154 18.1484 8.03679C18.1673 8.08205 18.1951 8.12291 18.2301 8.15689C18.2993 8.22537 18.3925 8.26321 18.4891 8.26216C18.5867 8.26336 18.6808 8.22557 18.7513 8.15689C18.7858 8.12275 18.8131 8.08178 18.8315 8.03651C18.8499 7.99124 18.8589 7.94261 18.8581 7.89364V5.15277H19.9878V7.76531C19.9892 8.03075 19.9187 8.29147 19.7839 8.51882C19.6541 8.75001 19.465 8.94108 19.2368 9.07163C19.0108 9.20871 18.7522 9.28039 18.4891 9.27892C18.227 9.27996 17.9695 9.20829 17.7445 9.07163C17.5196 8.93899 17.3331 8.74827 17.204 8.51882C17.0692 8.29147 16.9986 8.03075 17 7.76531V1.51358C16.999 1.24716 17.0695 0.985524 17.204 0.756818C17.335 0.528843 17.521 0.338572 17.7445 0.204016C17.9704 0.0698674 18.2275 -0.000556573 18.4891 1.40492e-05C18.7518 -0.00114392 19.01 0.0693004 19.2368 0.204016C19.4636 0.336482 19.6522 0.527101 19.7839 0.756818C19.9166 0.982648 19.9871 1.24067 19.9878 1.50374Z" fill="white"/>
<path d="M27.9878 0.138184H29.0949V9.12095H27.9878V0.138184Z" fill="white"/>
<path d="M39.9468 1.59253V7.67974C39.9468 7.83768 39.9468 7.94297 39.9468 8.00878C39.9406 8.20168 39.9102 8.39299 39.8561 8.57801C39.7959 8.75645 39.6771 8.90842 39.5198 9.00846C39.3624 9.10851 39.176 9.15051 38.9918 9.12748H37.0949V0.144751H39.0371C39.2197 0.12245 39.4042 0.165871 39.5585 0.267457C39.7129 0.369044 39.8273 0.522357 39.882 0.700807C39.9386 0.885055 39.9669 1.07703 39.9662 1.27004C39.9468 1.32268 39.9468 1.4313 39.9468 1.59253ZM38.8203 7.51522V1.77677C38.8305 1.69564 38.8173 1.61321 38.7822 1.53959C38.7472 1.46597 38.6918 1.40433 38.6228 1.36218C38.5697 1.33346 38.5112 1.31662 38.4512 1.31281H38.189V7.97913H38.4253C38.4942 7.97975 38.5621 7.96277 38.6228 7.92977C38.6926 7.88599 38.7483 7.82263 38.7834 7.7473C38.8184 7.67196 38.8312 7.58792 38.8203 7.50534V7.51522Z" fill="white"/>
<path d="M51.2777 9.12095H50.1739L50.0476 7.96931H49.1963L49.0733 9.12095H47.9662L49.0733 0.138184H50.1739L51.2777 9.12095ZM49.6203 2.81656L49.3355 6.85057H49.9084L49.6203 2.81656Z" fill="white"/>
<path d="M62.1295 1.59253V7.67974C62.1295 7.83768 62.1295 7.94297 62.1295 8.00878C62.1234 8.20168 62.093 8.39299 62.0389 8.57801C61.9787 8.75645 61.8599 8.90842 61.7026 9.00846C61.5452 9.10851 61.3588 9.15051 61.1746 9.12748H59.2777V0.144751H61.2199C61.4025 0.12245 61.587 0.165871 61.7413 0.267457C61.8957 0.369044 62.0101 0.522357 62.0648 0.700807C62.1213 0.885055 62.1497 1.07703 62.149 1.27004C62.1263 1.32268 62.1295 1.4313 62.1295 1.59253ZM61.003 7.51522V1.77677C61.0133 1.69564 61.0001 1.61321 60.965 1.53959C60.9299 1.46597 60.8745 1.40433 60.8056 1.36218C60.7523 1.33391 60.6939 1.31711 60.634 1.31281H60.3718V7.97913H60.6081C60.677 7.97975 60.7449 7.96277 60.8056 7.92977C60.8736 7.8847 60.9274 7.82077 60.9606 7.74553C60.9939 7.67029 61.0053 7.58693 60.9933 7.50534L61.003 7.51522Z" fill="white"/>
<path d="M72.3566 0.138184V1.26351H71.256V4.33672H72.3566V5.462H71.256V7.99562H72.3566V9.12095H70.149V0.138184H72.3566Z" fill="white"/>
</svg>
