<svg width="55" height="44" viewBox="0 0 55 44" fill="none" xmlns="http://www.w3.org/2000/svg">
  <path
    d="M35.3264 33.8366C35.4654 32.0676 35.1874 30.3751 35.5369 28.6723H39.214C39.3135 28.3165 39.5596 27.9236 39.4793 27.615C39.3517 27.1392 38.8964 26.9326 38.3722 26.9403C37.422 26.953 36.4718 26.9403 35.4552 26.9403C35.3055 26.0439 35.2991 25.1295 35.4361 24.2312H38.8314C39.788 23.5233 39.7969 23.2695 38.8735 22.4175H35.3749C35.4119 20.6459 35.2065 18.9572 35.4922 17.2392H41.3593C44.3758 17.2392 47.3935 17.2392 50.415 17.2315C51.7747 17.2315 52.9302 17.6409 53.8409 18.6957C54.386 19.2947 54.6959 20.0708 54.7133 20.8806C54.7477 24.0463 54.7618 27.2119 54.7133 30.3776C54.6916 31.7296 53.6929 33.1402 52.2899 33.6402C51.8147 33.8065 51.3152 33.8927 50.8117 33.8953C45.965 33.9132 41.1182 33.9068 36.2805 33.9042C36.0062 33.8902 35.7371 33.8621 35.3264 33.8366ZM46.465 29.171C48.6575 29.2208 50.1383 27.5525 50.1128 25.564C50.0847 23.3601 48.3769 22.0055 46.581 22.0043C44.5862 22.0043 43.0097 23.4761 42.96 25.5526C42.9103 27.629 44.6436 29.2514 46.465 29.171Z"
    fill="white" fill-opacity="0.35" />
  <path
    d="M0.0153796 21.8805C0.0153796 15.8859 0.0408893 9.89128 7.47992e-05 3.89664C-0.0126797 2.04851 1.60715 -0.00496773 3.75884 0.0281941C8.77265 0.105997 13.7877 0.0498748 18.8092 0.0460484C19.9137 0.0460484 21.0221 0.099619 22.1254 0.00778634C22.8792 -0.0559863 23.383 0.279457 23.8485 0.739896C24.9467 1.82786 26.0168 2.94516 27.1035 4.0446C28.1238 5.08537 29.1569 6.12741 30.1977 7.15415C31.2831 8.22553 32.3864 9.28034 33.4807 10.3428C33.6819 10.527 33.8411 10.7522 33.9477 11.0033C34.0542 11.2544 34.1055 11.5254 34.0981 11.7981C34.087 20.9992 34.087 30.2003 34.0981 39.4015C34.0981 41.1463 33.5445 42.6041 31.9017 43.4255C31.416 43.6682 30.8821 43.7989 30.3393 43.8081C21.5004 43.8324 12.6602 43.8081 3.82006 43.8426C1.90688 43.8515 0.0102803 41.9804 0.017933 40.0353C0.0332385 33.9922 0.0153796 27.9364 0.0153796 21.8805ZM22.3358 1.57787H13.6627C10.4116 1.57787 7.15792 1.59062 3.90807 1.57022C2.87112 1.56384 1.66327 2.47706 1.71939 3.6441C1.77424 4.7665 1.70153 5.89528 1.70153 7.0215C1.70153 17.9445 1.69813 28.8675 1.69133 39.7905C1.69133 41.5378 2.67598 42.1896 4.17336 42.2636C5.61463 42.3363 7.06227 42.2636 8.50991 42.2636C14.1627 42.2695 19.8172 42.2763 25.4734 42.284C27.004 42.284 28.5345 42.2674 30.0651 42.2406C31.25 42.2202 32.3877 41.3733 32.3787 39.7905C32.3252 31.0141 32.3571 22.2364 32.3583 13.46C32.3583 12.8452 32.3583 12.2317 32.3583 11.6884L22.3358 1.57787Z"
    fill="white" fill-opacity="0.35" />
  <path
    d="M50.7886 16.4344H48.0681C47.878 15.1117 47.6982 13.8439 47.512 12.5761C47.4304 12.0136 47.3347 11.4537 47.248 10.8912C47.0847 9.82877 46.9253 8.76632 46.7607 7.70259C46.6332 6.88885 45.4725 6.05343 44.4483 6.05215C40.2819 6.05215 36.1188 6.05215 31.9591 6.05215H31.051L29.0103 4.02801L29.1059 3.82649C29.4253 3.77653 29.7472 3.74416 30.0702 3.72955C34.7893 3.74103 39.4996 3.79205 44.2137 3.76272C45.7442 3.75251 47.1115 4.08796 48.2033 5.14913C48.9968 5.91726 49.4706 6.95693 49.5298 8.05972C49.6305 9.37344 49.9481 10.6706 50.1573 11.9779C50.2848 12.7687 50.383 13.5633 50.494 14.3566C50.5935 15.0326 50.693 15.7086 50.7886 16.4344Z"
    fill="white" fill-opacity="0.35" />
  <path
    d="M50.4952 34.7448C50.4952 36.9487 50.5411 38.9448 50.4786 40.9371C50.4404 42.1347 49.1828 43.5556 47.9379 43.789C46.6931 44.0224 45.3985 43.8222 44.4368 42.4549C43.9886 41.8426 43.7566 41.0987 43.7774 40.3402C43.8042 38.7484 43.7851 37.1515 43.7851 35.5623V34.7307C46.0515 34.6261 48.2364 34.6835 50.4952 34.7448Z"
    fill="white" fill-opacity="0.35" />
  <path
    d="M3.03568 3.11223C3.39919 3.00509 3.71041 2.83291 4.02289 2.83163C9.59067 2.81548 15.158 2.81208 20.725 2.82143C20.8525 2.82143 20.9801 2.84439 21.1854 2.86352C21.2339 3.06631 21.3295 3.27932 21.3295 3.49104C21.3219 5.44504 21.2874 7.39903 21.2823 9.35813C21.2823 11.7101 22.3677 12.6322 24.4837 12.7228C26.3969 12.8057 28.3101 12.7228 30.2233 12.7228C30.4911 12.7228 30.759 12.7534 31.0663 12.7725V40.4601C30.6965 41.057 30.046 41.0123 29.4465 41.0123C23.9876 41.0123 18.5274 40.9932 13.0671 40.983C10.0724 40.983 7.0725 40.983 4.08028 40.9703C3.24996 40.9703 2.93237 40.6335 2.93237 39.8032C2.93747 29.1999 2.94428 18.5971 2.95278 7.99467C2.95278 6.70008 2.94258 5.4055 2.95278 4.10964C2.94258 3.81756 2.99104 3.52548 3.03568 3.11223ZM12.6437 7.29445C9.41041 7.15415 6.30085 10.0711 6.41819 13.562C6.54574 17.1779 9.21526 19.6434 12.645 19.6447C15.891 19.6447 18.6919 17.1626 18.7544 13.4906C18.8156 9.93463 15.6716 7.172 12.6437 7.29445ZM27.578 24.5909C27.5971 23.6789 27.3994 23.457 26.6966 23.457C20.2403 23.457 13.7844 23.4604 7.32887 23.4672C7.03679 23.4672 6.74471 23.6483 6.46921 23.7401L6.51385 24.7082C6.89649 24.7835 7.27912 24.9212 7.66176 24.9225C13.9064 24.9352 20.1502 24.9331 26.3931 24.9161C26.7961 24.9148 27.1979 24.6993 27.578 24.5909ZM14.7405 33.7741C15.1691 34.7244 15.5632 35.5776 15.9395 36.4386C16.1474 36.9169 16.345 37.4207 16.9853 37.3582C17.581 37.2995 17.9649 36.9118 18.1638 36.362C18.3564 35.8314 18.4738 35.2702 18.7072 34.7601C19.0095 34.0981 19.3959 33.4744 19.8028 32.7295C20.012 32.9987 20.0834 33.093 20.1574 33.1849C20.4724 33.5777 20.7377 34.0305 21.114 34.3506C22.3142 35.371 23.6942 35.4246 25.0934 34.8608C26.0887 34.4698 26.9984 33.8889 27.7718 33.1504C27.5244 32.6505 27.2068 32.5548 26.7987 32.7678C26.4645 32.9438 26.1456 33.1504 25.8127 33.3328C25.1355 33.7002 24.4531 34.056 23.9072 34.3468C22.6152 34.0458 21.9405 33.292 21.4099 32.3673C21.0566 31.7538 20.3959 31.5651 19.7263 31.7921C18.7773 32.1148 18.1881 32.801 17.7187 33.6249C17.4968 34.0075 17.3195 34.4272 17.0491 34.9769C16.794 34.4871 16.6078 34.1644 16.442 33.829C16.0849 33.1377 15.0377 33.1249 14.7405 33.778V33.7741ZM22.6483 26.7489H6.6363C6.33274 27.6418 6.50875 27.9287 7.32121 27.9287C12.1458 27.9338 16.9709 27.9338 21.7963 27.9287C22.0451 27.9287 22.2925 27.8854 22.6445 27.8535L22.6483 26.7489Z"
    fill="white" fill-opacity="0.35" />
  <path
    d="M11.6998 9.61449C11.7189 9.56347 11.7661 9.42317 11.8273 9.28797C11.8885 9.15277 11.9549 9.01885 12.039 8.83136H13.104L13.2673 9.68081C14.2634 9.97034 15.2965 10.2216 15.6371 11.5506L14.831 12.3491L13.2647 10.9078V12.6156C14.5581 13.0161 16.0082 13.2189 15.9266 15.0033C15.8514 16.632 14.5568 16.8782 13.2711 17.118L13.1512 18.1205L12.5441 18.461L11.9931 18.169L11.7036 17.1205C9.61312 16.3553 9.08764 15.8234 9.30829 14.6359L10.0736 14.1934L11.576 15.6831L11.7776 15.6563C11.8069 15.0747 11.8362 14.4931 11.8681 13.863C11.5607 13.7293 11.2461 13.613 10.9256 13.5148C10.307 13.3618 9.52256 12.6718 9.46644 12.1552C9.38099 11.4307 9.45751 10.5991 10.395 10.214C10.7878 10.0481 11.1794 9.853 11.6998 9.61449ZM13.2418 15.7112C13.9101 15.7647 14.1563 15.6193 14.2137 15.1627C14.2851 14.5862 13.9076 14.1564 13.2418 14.0901V15.7112ZM11.8235 12.0021L11.7176 10.7267L10.9766 11.1846C11.0187 11.6335 11.0748 12.0187 11.8235 12.0021Z"
    fill="white" fill-opacity="0.35" />
</svg>