<svg width="55" height="45" viewBox="0 0 55 45" fill="none" xmlns="http://www.w3.org/2000/svg">
  <path
    d="M35.3264 34.709C35.4654 32.94 35.1874 31.2474 35.5369 29.5447H39.214C39.3135 29.1889 39.5596 28.796 39.4793 28.4873C39.3517 28.0116 38.8964 27.805 38.3722 27.8126C37.422 27.8254 36.4718 27.8126 35.4552 27.8126C35.3055 26.9163 35.2991 26.0019 35.4361 25.1036H38.8314C39.788 24.3957 39.7969 24.1419 38.8735 23.2899H35.3749C35.4119 21.5183 35.2065 19.8296 35.4922 18.1115H41.3593C44.3758 18.1115 47.3935 18.1115 50.415 18.1039C51.7747 18.1039 52.9302 18.5133 53.8409 19.5681C54.386 20.1671 54.6959 20.9432 54.7133 21.753C54.7477 24.9186 54.7618 28.0843 54.7133 31.25C54.6916 32.602 53.6929 34.0126 52.2899 34.5126C51.8147 34.6789 51.3152 34.7651 50.8117 34.7677C45.965 34.7855 41.1182 34.7792 36.2805 34.7766C36.0062 34.7626 35.7371 34.7345 35.3264 34.709ZM46.465 30.0434C48.6575 30.0931 50.1383 28.4248 50.1128 26.4364C50.0847 24.2324 48.3769 22.8779 46.581 22.8766C44.5862 22.8766 43.0097 24.3485 42.96 26.4249C42.9103 28.5014 44.6436 30.1238 46.465 30.0434Z"
    fill="white" />
  <path
    d="M0.0153796 22.7529C0.0153796 16.7582 0.0408893 10.7636 7.47992e-05 4.76896C-0.0126797 2.92083 1.60715 0.867347 3.75884 0.900509C8.77265 0.978311 13.7877 0.922189 18.8092 0.918363C19.9137 0.918363 21.0221 0.971933 22.1254 0.880101C22.8792 0.816328 23.383 1.15177 23.8485 1.61221C24.9467 2.70017 26.0168 3.81747 27.1035 4.91691C28.1238 5.95768 29.1569 6.99973 30.1977 8.02647C31.2831 9.09785 32.3864 10.1526 33.4807 11.2151C33.6819 11.3993 33.8411 11.6245 33.9477 11.8756C34.0542 12.1267 34.1055 12.3978 34.0981 12.6704C34.087 21.8715 34.087 31.0726 34.0981 40.2738C34.0981 42.0186 33.5445 43.4764 31.9017 44.2978C31.416 44.5405 30.8821 44.6712 30.3393 44.6805C21.5004 44.7047 12.6602 44.6805 3.82006 44.7149C1.90688 44.7238 0.0102803 42.8527 0.017933 40.9077C0.0332385 34.8646 0.0153796 28.8087 0.0153796 22.7529ZM22.3358 2.45018H13.6627C10.4116 2.45018 7.15792 2.46294 3.90807 2.44253C2.87112 2.43615 1.66327 3.34938 1.71939 4.51642C1.77424 5.63882 1.70153 6.76759 1.70153 7.89382C1.70153 18.8168 1.69813 29.7398 1.69133 40.6628C1.69133 42.4101 2.67598 43.0619 4.17336 43.1359C5.61463 43.2086 7.06227 43.1359 8.50991 43.1359C14.1627 43.1418 19.8172 43.1486 25.4734 43.1563C27.004 43.1563 28.5345 43.1397 30.0651 43.1129C31.25 43.0925 32.3877 42.2456 32.3787 40.6628C32.3252 31.8864 32.3571 23.1087 32.3583 14.3323C32.3583 13.7175 32.3583 13.104 32.3583 12.5607L22.3358 2.45018Z"
    fill="white" />
  <path
    d="M50.7886 17.3067H48.0681C47.878 15.9841 47.6982 14.7163 47.512 13.4485C47.4304 12.886 47.3347 12.3261 47.248 11.7636C47.0847 10.7011 46.9253 9.6387 46.7607 8.57497C46.6332 7.76123 45.4725 6.9258 44.4483 6.92453C40.2819 6.92453 36.1188 6.92453 31.9591 6.92453H31.051L29.0103 4.90038L29.1059 4.69886C29.4253 4.6489 29.7472 4.61654 30.0702 4.60193C34.7893 4.61341 39.4996 4.66443 44.2137 4.63509C45.7442 4.62489 47.1115 4.96033 48.2033 6.02151C48.9968 6.78964 49.4706 7.82931 49.5298 8.9321C49.6305 10.2458 49.9481 11.543 50.1573 12.8503C50.2848 13.6411 50.383 14.4357 50.494 15.229C50.5935 15.905 50.693 16.581 50.7886 17.3067Z"
    fill="white" />
  <path
    d="M50.4952 35.6171C50.4952 37.8211 50.5411 39.8171 50.4786 41.8094C50.4404 43.007 49.1828 44.4279 47.9379 44.6613C46.6931 44.8947 45.3985 44.6945 44.4368 43.3272C43.9886 42.7149 43.7566 41.971 43.7774 41.2125C43.8042 39.6207 43.7851 38.0238 43.7851 36.4346V35.603C46.0515 35.4985 48.2364 35.5558 50.4952 35.6171Z"
    fill="white" />
  <path
    d="M3.03568 3.98455C3.39919 3.87741 3.71041 3.70522 4.02289 3.70395C9.59067 3.68779 15.158 3.68439 20.725 3.69374C20.8525 3.69374 20.9801 3.7167 21.1854 3.73583C21.2339 3.93863 21.3295 4.15163 21.3295 4.36336C21.3219 6.31735 21.2874 8.27135 21.2823 10.2304C21.2823 12.5824 22.3677 13.5045 24.4837 13.5951C26.3969 13.678 28.3101 13.5951 30.2233 13.5951C30.4911 13.5951 30.759 13.6257 31.0663 13.6448V41.3324C30.6965 41.9293 30.046 41.8847 29.4465 41.8847C23.9876 41.8847 18.5274 41.8655 13.0671 41.8553C10.0724 41.8553 7.0725 41.8553 4.08028 41.8426C3.24996 41.8426 2.93237 41.5058 2.93237 40.6755C2.93747 30.0723 2.94428 19.4694 2.95278 8.86698C2.95278 7.5724 2.94258 6.27781 2.95278 4.98195C2.94258 4.68987 2.99104 4.39779 3.03568 3.98455ZM12.6437 8.16676C9.41041 8.02646 6.30085 10.9434 6.41819 14.4343C6.54574 18.0502 9.21526 20.5157 12.645 20.517C15.891 20.517 18.6919 18.0349 18.7544 14.3629C18.8156 10.8069 15.6716 8.04432 12.6437 8.16676ZM27.578 25.4632C27.5971 24.5512 27.3994 24.3293 26.6966 24.3293C20.2403 24.3293 13.7844 24.3327 7.32887 24.3395C7.03679 24.3395 6.74471 24.5206 6.46921 24.6125L6.51385 25.5805C6.89649 25.6558 7.27912 25.7935 7.66176 25.7948C13.9064 25.8076 20.1502 25.8054 26.3931 25.7884C26.7961 25.7872 27.1979 25.5716 27.578 25.4632ZM14.7405 34.6465C15.1691 35.5967 15.5632 36.4499 15.9395 37.3109C16.1474 37.7892 16.345 38.293 16.9853 38.2305C17.581 38.1718 17.9649 37.7841 18.1638 37.2344C18.3564 36.7038 18.4738 36.1426 18.7072 35.6324C19.0095 34.9704 19.3959 34.3467 19.8028 33.6019C20.012 33.871 20.0834 33.9654 20.1574 34.0572C20.4724 34.45 20.7377 34.9028 21.114 35.223C22.3142 36.2433 23.6942 36.2969 25.0934 35.7331C26.0887 35.3421 26.9984 34.7612 27.7718 34.0228C27.5244 33.5228 27.2068 33.4271 26.7987 33.6401C26.4645 33.8161 26.1456 34.0228 25.8127 34.2051C25.1355 34.5725 24.4531 34.9283 23.9072 35.2191C22.6152 34.9181 21.9405 34.1643 21.4099 33.2396C21.0566 32.6261 20.3959 32.4374 19.7263 32.6644C18.7773 32.9871 18.1881 33.6733 17.7187 34.4972C17.4968 34.8799 17.3195 35.2995 17.0491 35.8492C16.794 35.3594 16.6078 35.0367 16.442 34.7013C16.0849 34.01 15.0377 33.9972 14.7405 34.6503V34.6465ZM22.6483 27.6213H6.6363C6.33274 28.5141 6.50875 28.8011 7.32121 28.8011C12.1458 28.8062 16.9709 28.8062 21.7963 28.8011C22.0451 28.8011 22.2925 28.7577 22.6445 28.7258L22.6483 27.6213Z"
    fill="white" />
  <path
    d="M11.6998 10.4869C11.7189 10.4358 11.7661 10.2955 11.8273 10.1603C11.8885 10.0251 11.9549 9.89123 12.039 9.70374H13.104L13.2673 10.5532C14.2634 10.8427 15.2965 11.094 15.6371 12.423L14.831 13.2214L13.2647 11.7802V13.488C14.5581 13.8885 16.0082 14.0913 15.9266 15.8757C15.8514 17.5044 14.5568 17.7506 13.2711 17.9904L13.1512 18.9929L12.5441 19.3334L11.9931 19.0413L11.7036 17.9929C9.61312 17.2276 9.08764 16.6958 9.30829 15.5083L10.0736 15.0657L11.576 16.5555L11.7776 16.5287C11.8069 15.9471 11.8362 15.3655 11.8681 14.7354C11.5607 14.6017 11.2461 14.4854 10.9256 14.3872C10.307 14.2341 9.52256 13.5441 9.46644 13.0276C9.38099 12.3031 9.45751 11.4715 10.395 11.0863C10.7878 10.9205 11.1794 10.7254 11.6998 10.4869ZM13.2418 16.5835C13.9101 16.6371 14.1563 16.4917 14.2137 16.0351C14.2851 15.4586 13.9076 15.0288 13.2418 14.9624V16.5835ZM11.8235 12.8745L11.7176 11.5991L10.9766 12.0569C11.0187 12.5059 11.0748 12.8911 11.8235 12.8745Z"
    fill="white" />
</svg>