<svg width="19" height="19" viewBox="0 0 19 19" fill="none" xmlns="http://www.w3.org/2000/svg">
  <path fill-rule="evenodd" clip-rule="evenodd"
    d="M13.9874 7.99279C13.9874 11.3035 11.3035 13.9874 7.99279 13.9874C4.68207 13.9874 1.9982 11.3035 1.9982 7.99279C1.9982 4.68207 4.68207 1.9982 7.99279 1.9982C11.3035 1.9982 13.9874 4.68207 13.9874 7.99279ZM12.9393 14.2715C11.5786 15.345 9.86049 15.9856 7.99279 15.9856C3.57849 15.9856 0 12.4071 0 7.99279C0 3.57849 3.57849 0 7.99279 0C12.4071 0 15.9856 3.57849 15.9856 7.99279C15.9856 9.81917 15.373 11.5025 14.3421 12.8484L18.6902 17.1965C19.0804 17.5867 19.0804 18.2193 18.6902 18.6095C18.3 18.9996 17.6674 18.9996 17.2773 18.6095L12.9393 14.2715Z"
    fill="white" />
</svg>