<svg width="37" height="34" viewBox="0 0 37 34" fill="none" xmlns="http://www.w3.org/2000/svg">
  <path
    d="M26.7057 20.5982L26.1136 21.1544L26.2558 21.9542C26.8078 25.057 27.3521 28.1487 27.9065 31.3088L19.1834 26.8919L18.5057 26.5488L17.8281 26.8919L9.11047 31.3066C9.30159 30.2214 9.49114 29.1433 9.68005 28.0688L9.68928 28.0163C10.0454 25.9908 10.3993 23.9779 10.7574 21.9527L10.8989 21.1531L10.3066 20.5975L3.31612 14.0403L13.0008 12.6956L13.7761 12.588L14.1312 11.8903C14.6808 10.8106 15.2323 9.72731 15.7869 8.63794C16.6817 6.88033 17.5845 5.10691 18.5003 3.30727C19.2533 4.7866 19.9993 6.25277 20.7436 7.7156C21.4516 9.10688 22.158 10.4951 22.8673 11.8888L23.2223 12.5865L23.9977 12.6942L33.6869 14.0405L26.7057 20.5982Z"
    stroke="#FAFF0B" stroke-width="3" />
</svg>