<?xml version="1.0" encoding="UTF-8"?>
<!DOCTYPE svg PUBLIC "-//W3C//DTD SVG 1.1//EN" "http://www.w3.org/Graphics/SVG/1.1/DTD/svg11.dtd">
<svg xmlns="http://www.w3.org/2000/svg" version="1.1" width="1103px" height="594px" style="shape-rendering:geometricPrecision; text-rendering:geometricPrecision; image-rendering:optimizeQuality; fill-rule:evenodd; clip-rule:evenodd" xmlns:xlink="http://www.w3.org/1999/xlink">
<g><path style="opacity:0.203" fill="#fdfdfd" d="M 899.5,-0.5 C 928.167,-0.5 956.833,-0.5 985.5,-0.5C 974.116,14.0576 961.783,27.8909 948.5,41C 951.638,46.1123 954.638,51.2789 957.5,56.5C 956.5,56.8333 955.833,57.5 955.5,58.5C 953.389,57.0319 951.556,57.3652 950,59.5C 950.374,57.2313 950.374,54.898 950,52.5C 948.644,51.6198 947.144,51.2865 945.5,51.5C 945.657,52.8734 945.49,54.2068 945,55.5C 939.486,58.0181 935.652,62.1848 933.5,68C 933.613,69.2798 934.28,70.1131 935.5,70.5C 936.736,69.7542 938.07,69.4208 939.5,69.5C 939.5,67.8333 939.5,66.1667 939.5,64.5C 944.238,65.2579 948.238,63.9246 951.5,60.5C 951.669,61.3966 952.002,62.3966 952.5,63.5C 953.522,63.1445 954.189,62.4778 954.5,61.5C 956.167,60.8333 957.833,60.1667 959.5,59.5C 959.5,59.8333 959.5,60.1667 959.5,60.5C 959.5,61.1667 959.5,61.8333 959.5,62.5C 957.129,65.1842 954.129,66.5175 950.5,66.5C 950.238,67.9778 950.571,69.3112 951.5,70.5C 954.889,68.4773 958.222,66.4773 961.5,64.5C 959.579,66.9485 957.079,69.6152 954,72.5C 953.333,73.5 953.333,74.5 954,75.5C 957.007,73.9138 959.507,71.7472 961.5,69C 962.448,68.5172 963.448,68.3505 964.5,68.5C 964.5,69.1667 964.833,69.5 965.5,69.5C 965.029,70.9008 964.362,72.2342 963.5,73.5C 958.692,75.1842 954.026,77.0176 949.5,79C 947.097,81.6824 944.597,84.1824 942,86.5C 941.601,86.2716 941.435,85.9382 941.5,85.5C 941.044,74.7645 935.711,71.2645 925.5,75C 918.251,78.4603 910.918,81.627 903.5,84.5C 903.113,65.7999 902.113,47.1332 900.5,28.5C 890.167,28.5 879.833,28.5 869.5,28.5C 879.5,18.8333 889.5,9.16667 899.5,-0.5 Z"/></g>
<g><path style="opacity:0.597" fill="#fefffe" d="M 1040.5,-0.5 C 1042.17,-0.5 1043.83,-0.5 1045.5,-0.5C 1059.06,24.2739 1072.89,48.9405 1087,73.5C 1087.31,75.3914 1086.48,76.7248 1084.5,77.5C 1069.3,51.7695 1054.64,25.7695 1040.5,-0.5 Z"/></g>
<g><path style="opacity:0.169" fill="#fefffe" d="M 869.5,28.5 C 869.657,29.8734 869.49,31.2068 869,32.5C 864.468,37.3671 859.634,41.8671 854.5,46C 851.691,47.7411 848.691,48.9078 845.5,49.5C 853.475,42.529 861.475,35.529 869.5,28.5 Z"/></g>
<g><path style="opacity:0.008" fill="#fefffe" d="M 845.5,49.5 C 844.833,50.1667 844.833,50.1667 845.5,49.5 Z"/></g>
<g><path style="opacity:0.993" fill="#212121" d="M 955.5,58.5 C 955.047,59.4584 954.381,60.2917 953.5,61C 953.728,61.3988 954.062,61.5654 954.5,61.5C 954.189,62.4778 953.522,63.1445 952.5,63.5C 952.002,62.3966 951.669,61.3966 951.5,60.5C 948.238,63.9246 944.238,65.2579 939.5,64.5C 939.5,66.1667 939.5,67.8333 939.5,69.5C 938.07,69.4208 936.736,69.7542 935.5,70.5C 934.28,70.1131 933.613,69.2798 933.5,68C 935.652,62.1848 939.486,58.0181 945,55.5C 945.49,54.2068 945.657,52.8734 945.5,51.5C 947.144,51.2865 948.644,51.6198 950,52.5C 950.374,54.898 950.374,57.2313 950,59.5C 951.556,57.3652 953.389,57.0319 955.5,58.5 Z"/></g>
<g><path style="opacity:0.175" fill="#fefefe" d="M 862.5,146.5 C 862.094,144.595 861.761,142.595 861.5,140.5C 860.792,142.745 859.792,144.745 858.5,146.5C 856.108,143.402 853.942,140.069 852,136.5C 851.791,123.449 848.791,111.116 843,99.5C 837.919,94.0135 833.252,94.3469 829,100.5C 829.078,111.164 829.078,121.831 829,132.5C 828.363,134.303 827.197,135.636 825.5,136.5C 822.01,127.203 817.844,118.203 813,109.5C 808.333,104.167 803.667,104.167 799,109.5C 797.902,123.554 795.069,137.221 790.5,150.5C 787.605,140.533 784.772,130.533 782,120.5C 780.5,117.667 778.333,115.5 775.5,114C 777.833,112.333 780.167,110.667 782.5,109C 790.018,99.9821 798.351,91.8155 807.5,84.5C 820.412,77.5456 833.746,71.3789 847.5,66C 853.114,62.9459 858.614,59.7792 864,56.5C 864.122,61.2366 863.455,65.9033 862,70.5C 861.333,79.5 861.333,88.5 862,97.5C 864.305,104.799 869.305,108.799 877,109.5C 877.667,114.167 877.667,118.833 877,123.5C 874.549,128.187 872.882,133.187 872,138.5C 871.535,139.931 870.701,141.097 869.5,142C 867.102,143.524 864.769,145.024 862.5,146.5 Z"/></g>
<g><path style="opacity:0.594" fill="#fcfcfc" d="M 684.5,94.5 C 684.615,96.9468 685.615,98.9468 687.5,100.5C 688.248,102.332 689.248,103.999 690.5,105.5C 689.252,107.69 687.586,108.023 685.5,106.5C 677.045,92.427 668.712,78.2604 660.5,64C 661.886,61.2166 663.386,61.0499 665,63.5C 671.025,74.2348 677.525,84.5681 684.5,94.5 Z"/></g>
<g><path style="opacity:0.843" fill="#343434" d="M 959.5,62.5 C 960.167,63.1667 960.833,63.8333 961.5,64.5C 958.222,66.4773 954.889,68.4773 951.5,70.5C 950.571,69.3112 950.238,67.9778 950.5,66.5C 954.129,66.5175 957.129,65.1842 959.5,62.5 Z"/></g>
<g><path style="opacity:0.004" fill="#fefffe" d="M 876.5,74.5 C 877.653,80.3188 877.819,86.3188 877,92.5C 875.886,90.0302 875.386,87.3636 875.5,84.5C 875.645,81.1327 875.978,77.7994 876.5,74.5 Z"/></g>
<g><path style="opacity:0.864" fill="#050506" d="M 968.5,74.5 C 963.801,77.6851 959.468,81.5184 955.5,86C 950.288,90.052 944.955,93.8854 939.5,97.5C 938.833,97.5 938.5,97.8333 938.5,98.5C 937.279,99.0283 936.113,99.695 935,100.5C 934.667,100.167 934.333,99.8333 934,99.5C 930.716,103.626 927.216,106.792 923.5,109C 927.214,118.544 930.214,128.044 932.5,137.5C 932.291,138.086 931.957,138.586 931.5,139C 932.358,140.57 933.025,142.237 933.5,144C 932.305,149.804 932.305,155.638 933.5,161.5C 932.811,163.444 932.311,165.444 932,167.5C 931.346,166.304 930.846,166.304 930.5,167.5C 931.326,168.451 931.492,169.451 931,170.5C 926.603,174.615 922.103,178.615 917.5,182.5C 915.589,183.075 913.922,184.075 912.5,185.5C 907.868,188.143 903.535,191.143 899.5,194.5C 898.5,194.833 897.833,195.5 897.5,196.5C 887.059,201.616 877.892,208.282 870,216.5C 867.578,219.387 865.411,222.387 863.5,225.5C 857.498,231.504 851.831,237.837 846.5,244.5C 846.027,245.906 845.027,246.573 843.5,246.5C 843.027,245.094 842.027,244.427 840.5,244.5C 839.232,241.394 837.732,238.394 836,235.5C 835.075,234.953 834.242,234.287 833.5,233.5C 835.011,231.162 834.677,230.496 832.5,231.5C 830.666,229.023 829.333,226.357 828.5,223.5C 829.873,223.657 831.207,223.49 832.5,223C 835.958,218.128 837.458,212.628 837,206.5C 838.991,203.506 840.991,200.506 843,197.5C 844.848,188.444 846.848,179.444 849,170.5C 852.074,162.443 855.24,154.443 858.5,146.5C 859.792,144.745 860.792,142.745 861.5,140.5C 861.761,142.595 862.094,144.595 862.5,146.5C 860.376,155.494 857.71,164.328 854.5,173C 855.574,173.739 856.241,174.739 856.5,176C 855.177,181.8 853.177,187.3 850.5,192.5C 849.152,190.539 847.819,190.372 846.5,192C 846.833,192.333 847.167,192.667 847.5,193C 844.643,196.087 844.976,198.754 848.5,201C 845.917,206.934 843.25,212.768 840.5,218.5C 839.833,218.5 839.5,218.833 839.5,219.5C 838.4,220.605 837.733,221.938 837.5,223.5C 836.527,225.3 835.527,227.134 834.5,229C 837.027,228.404 839.36,227.237 841.5,225.5C 843.716,224.797 845.549,223.464 847,221.5C 849.483,218.861 851.316,215.861 852.5,212.5C 860.53,203.613 867.697,193.946 874,183.5C 874.145,179.477 874.979,175.644 876.5,172C 876.833,171.833 877.167,171.667 877.5,171.5C 878.314,173.766 878.814,176.1 879,178.5C 883.263,177.703 887.263,175.703 891,172.5C 891.414,172.957 891.914,173.291 892.5,173.5C 895.751,171.625 898.918,169.625 902,167.5C 902.333,167.833 902.667,168.167 903,168.5C 907.837,165.749 912.503,162.749 917,159.5C 915.806,144.937 914.639,130.604 913.5,116.5C 913.666,111.489 913.499,106.489 913,101.5C 912.79,99.9419 912.29,98.6085 911.5,97.5C 910.302,93.5115 910.302,89.5115 911.5,85.5C 914.725,86.8323 915.725,88.999 914.5,92C 914.808,93.4595 915.475,94.6261 916.5,95.5C 916.62,97.7345 916.287,99.9011 915.5,102C 915.63,103.059 916.13,103.892 917,104.5C 919.028,101.308 921.528,98.6411 924.5,96.5C 925.496,96.5858 926.329,96.2524 927,95.5C 927.219,94.062 927.719,92.7287 928.5,91.5C 930.167,91.5 931.833,91.5 933.5,91.5C 936.511,89.8044 939.177,87.8044 941.5,85.5C 941.435,85.9382 941.601,86.2716 942,86.5C 944.597,84.1824 947.097,81.6824 949.5,79C 954.026,77.0176 958.692,75.1842 963.5,73.5C 964.362,72.2342 965.029,70.9008 965.5,69.5C 965.953,68.5416 966.619,67.7083 967.5,67C 966.002,66.4153 965.002,66.9153 964.5,68.5C 963.448,68.3505 962.448,68.5172 961.5,69C 959.507,71.7472 957.007,73.9138 954,75.5C 953.333,74.5 953.333,73.5 954,72.5C 957.079,69.6152 959.579,66.9485 961.5,64.5C 960.833,63.8333 960.167,63.1667 959.5,62.5C 959.5,61.8333 959.5,61.1667 959.5,60.5C 961.103,61.6772 962.436,61.5106 963.5,60C 963.167,59.6667 962.833,59.3333 962.5,59C 966.336,56.9164 970.003,54.583 973.5,52C 968.552,53.7347 963.886,56.2347 959.5,59.5C 957.833,60.1667 956.167,60.8333 954.5,61.5C 954.062,61.5654 953.728,61.3988 953.5,61C 954.381,60.2917 955.047,59.4584 955.5,58.5C 955.833,57.5 956.5,56.8333 957.5,56.5C 958.329,57.3324 959.162,56.999 960,55.5C 961,53.8333 962,52.1667 963,50.5C 963.414,50.9574 963.914,51.2907 964.5,51.5C 967.406,49.1968 970.406,47.8634 973.5,47.5C 977.683,47.5809 979.183,49.9143 978,54.5C 974.59,55.8741 974.757,56.5408 978.5,56.5C 976.776,63.2706 973.443,69.2706 968.5,74.5 Z M 965.5,69.5 C 964.833,69.5 964.5,69.1667 964.5,68.5C 965.002,66.9153 966.002,66.4153 967.5,67C 966.619,67.7083 965.953,68.5416 965.5,69.5 Z M 959.5,60.5 C 959.5,60.1667 959.5,59.8333 959.5,59.5C 963.886,56.2347 968.552,53.7347 973.5,52C 970.003,54.583 966.336,56.9164 962.5,59C 962.833,59.3333 963.167,59.6667 963.5,60C 962.436,61.5106 961.103,61.6772 959.5,60.5 Z M 928.5,152.5 C 931.033,155.684 931.033,159.018 928.5,162.5C 928.177,159.295 928.177,155.962 928.5,152.5 Z M 837.5,223.5 C 839.153,223.66 840.486,224.326 841.5,225.5C 839.36,227.237 837.027,228.404 834.5,229C 835.527,227.134 836.527,225.3 837.5,223.5 Z"/></g>
<g><path style="opacity:0.389" fill="#f6f6f6" d="M 968.5,74.5 C 969.609,76.5544 970.609,78.7211 971.5,81C 971.355,81.772 971.022,82.4387 970.5,83C 959.753,88.7884 949.253,94.9551 939,101.5C 938.517,100.552 938.351,99.552 938.5,98.5C 939.167,98.5 939.5,98.1667 939.5,97.5C 944.955,93.8854 950.288,90.052 955.5,86C 959.468,81.5184 963.801,77.6851 968.5,74.5 Z"/></g>
<g><path style="opacity:0.597" fill="#fefffe" d="M 1102.5,202.5 C 1102.5,205.833 1102.5,209.167 1102.5,212.5C 1079.73,171.126 1057.06,129.626 1034.5,88C 1035.48,85.9908 1036.82,85.4908 1038.5,86.5C 1059.35,125.55 1080.69,164.217 1102.5,202.5 Z"/></g>
<g><path style="opacity:0.156" fill="#f6f6f6" d="M 924.5,96.5 C 921.528,98.6411 919.028,101.308 917,104.5C 916.13,103.892 915.63,103.059 915.5,102C 916.287,99.9011 916.62,97.7345 916.5,95.5C 919.122,93.3565 922.122,92.0231 925.5,91.5C 925.371,93.2161 925.038,94.8828 924.5,96.5 Z"/></g>
<g><path style="opacity:0.223" fill="#fefefe" d="M 911.5,97.5 C 912.29,98.6085 912.79,99.9419 913,101.5C 913.499,106.489 913.666,111.489 913.5,116.5C 910.699,117.735 908.032,119.235 905.5,121C 908.23,124.961 910.563,129.128 912.5,133.5C 910.436,138.628 907.602,143.295 904,147.5C 903.333,132.167 903.333,116.833 904,101.5C 906.448,100.027 908.948,98.6935 911.5,97.5 Z"/></g>
<g><path style="opacity:0.658" fill="#080808" d="M 690.5,105.5 C 691.397,106.598 692.23,106.598 693,105.5C 693.075,108.447 694.242,109.447 696.5,108.5C 696.833,109.5 697.5,110.167 698.5,110.5C 698.5,111.167 698.833,111.5 699.5,111.5C 699.5,112.167 699.833,112.5 700.5,112.5C 700.635,114.554 699.968,116.221 698.5,117.5C 697.094,117.027 696.427,116.027 696.5,114.5C 696.5,113.833 696.167,113.5 695.5,113.5C 695.5,112.833 695.167,112.5 694.5,112.5C 693.194,111.533 692.527,110.199 692.5,108.5C 691.5,108.5 690.5,108.5 689.5,108.5C 689.259,110.898 689.926,112.898 691.5,114.5C 691.5,115.167 691.5,115.833 691.5,116.5C 691.25,117.922 690.417,118.922 689,119.5C 681.903,117.292 680.736,112.958 685.5,106.5C 687.586,108.023 689.252,107.69 690.5,105.5 Z"/></g>
<g><path style="opacity:0.741" fill="#5c5c5c" d="M 694.5,112.5 C 692.973,112.427 691.973,113.094 691.5,114.5C 689.926,112.898 689.259,110.898 689.5,108.5C 690.5,108.5 691.5,108.5 692.5,108.5C 692.527,110.199 693.194,111.533 694.5,112.5 Z"/></g>
<g><path style="opacity:0.595" fill="#fcfcfc" d="M 694.5,112.5 C 695.167,112.5 695.5,112.833 695.5,113.5C 696.167,113.5 696.5,113.833 696.5,114.5C 696.427,116.027 697.094,117.027 698.5,117.5C 702.665,125.836 707.332,133.836 712.5,141.5C 711.685,142.837 710.518,143.837 709,144.5C 707.97,142.654 706.804,140.987 705.5,139.5C 704.833,138.167 704.167,136.833 703.5,135.5C 699.736,128.962 695.736,122.628 691.5,116.5C 691.5,115.833 691.5,115.167 691.5,114.5C 691.973,113.094 692.973,112.427 694.5,112.5 Z"/></g>
<g><path style="opacity:0.028" fill="#fefffe" d="M 763.5,121.5 C 764.376,121.369 765.043,121.702 765.5,122.5C 764.814,125.998 762.814,127.165 759.5,126C 761.041,124.629 762.375,123.129 763.5,121.5 Z"/></g>
<g><path style="opacity:0.528" fill="#090909" d="M 666.5,101.5 C 668.225,101.843 668.725,102.843 668,104.5C 661.737,111.29 660.737,118.957 665,127.5C 665.273,125.899 665.773,124.399 666.5,123C 664.789,121.867 664.289,120.367 665,118.5C 668.391,115.315 672.058,113.315 676,112.5C 681.322,116.453 681.989,121.12 678,126.5C 676.488,125.743 675.154,124.743 674,123.5C 672.088,125.657 670.421,127.991 669,130.5C 664.997,127.975 664.497,128.808 667.5,133C 667.167,133.333 666.833,133.667 666.5,134C 668.719,136.324 670.385,138.99 671.5,142C 670.711,142.546 669.711,143.213 668.5,144C 669.654,144.914 669.487,145.747 668,146.5C 664.228,140.788 661.395,134.621 659.5,128C 659.957,127.586 660.291,127.086 660.5,126.5C 656.297,116.534 658.297,108.201 666.5,101.5 Z"/></g>
<g><path style="opacity:0.633" fill="#040404" d="M 687.5,126.5 C 689.541,126.854 691.374,126.854 693,126.5C 693.273,128.101 693.773,129.601 694.5,131C 692.497,132.334 690.997,133.834 690,135.5C 688.333,135.167 686.667,134.833 685,134.5C 683.837,131.029 684.67,128.362 687.5,126.5 Z"/></g>
<g><path style="opacity:0.471" fill="#0a0a0a" d="M 703.5,135.5 C 704.167,136.833 704.833,138.167 705.5,139.5C 705.217,140.289 704.717,140.956 704,141.5C 702.257,139.773 700.424,139.106 698.5,139.5C 696.408,144.421 693.742,145.088 690.5,141.5C 686.983,147.134 685.149,146.8 685,140.5C 685.667,139.167 686.333,139.167 687,140.5C 687.751,137.951 689.418,136.284 692,135.5C 695.945,135.39 699.778,135.39 703.5,135.5 Z"/></g>
<g><path style="opacity:0.125" fill="#fefffe" d="M 808.5,138.5 C 810.649,139.59 811.982,141.424 812.5,144C 810.977,145.854 809.144,147.354 807,148.5C 807.365,145.206 807.865,141.873 808.5,138.5 Z"/></g>
<g><path style="opacity:0.535" fill="#f1f1f1" d="M 716.5,141.5 C 716.833,141.5 717.167,141.5 717.5,141.5C 719.047,142.768 720.047,144.435 720.5,146.5C 719.833,146.833 719.167,147.167 718.5,147.5C 718.5,147.167 718.5,146.833 718.5,146.5C 717.833,145.167 717.167,143.833 716.5,142.5C 716.5,142.167 716.5,141.833 716.5,141.5 Z"/></g>
<g><path style="opacity:0.303" fill="#fcfcfc" d="M 713.5,143.5 C 714.167,143.5 714.833,143.5 715.5,143.5C 715.232,145.099 715.566,146.432 716.5,147.5C 715.016,149.074 713.349,150.407 711.5,151.5C 710.5,151.5 709.5,151.5 708.5,151.5C 705.055,151.775 701.722,153.108 698.5,155.5C 698.238,154.022 698.571,152.689 699.5,151.5C 704.194,148.821 708.861,146.155 713.5,143.5 Z"/></g>
<g><path style="opacity:0.714" fill="#797979" d="M 716.5,142.5 C 717.167,143.833 717.833,145.167 718.5,146.5C 717.508,146.328 716.842,146.662 716.5,147.5C 715.566,146.432 715.232,145.099 715.5,143.5C 715.5,142.833 715.833,142.5 716.5,142.5 Z"/></g>
<g><path style="opacity:0.036" fill="#fefffe" d="M 935.5,146.5 C 936.693,146.97 937.36,147.97 937.5,149.5C 937.333,150.5 937.167,151.5 937,152.5C 935.288,150.582 934.788,148.582 935.5,146.5 Z"/></g>
<g><path style="opacity:0.331" fill="#fefffe" d="M 963.5,146.5 C 964.496,146.414 965.329,146.748 966,147.5C 970.086,154.003 973.919,160.67 977.5,167.5C 974.3,170.369 970.634,172.369 966.5,173.5C 964.778,165.666 962.445,157.999 959.5,150.5C 960.549,148.784 961.882,147.451 963.5,146.5 Z"/></g>
<g><path style="opacity:0.857" fill="#09090a" d="M 684.5,94.5 C 687.686,95.509 690.519,97.1756 693,99.5C 693.333,99.1667 693.667,98.8333 694,98.5C 695.708,100.543 697.708,102.21 700,103.5C 700.333,103.167 700.667,102.833 701,102.5C 702.093,104.349 703.426,106.016 705,107.5C 710.566,117.299 715.566,127.299 720,137.5C 723.723,139.557 726.39,142.557 728,146.5C 729.174,150.178 730.341,153.844 731.5,157.5C 732.476,158.815 733.476,160.148 734.5,161.5C 735.192,160.975 735.692,160.308 736,159.5C 737.669,160.846 738.836,162.513 739.5,164.5C 737.271,167.094 735.105,166.76 733,163.5C 733.15,165.506 733.65,167.506 734.5,169.5C 732.833,169.5 731.167,169.5 729.5,169.5C 728.167,168.5 728.167,167.5 729.5,166.5C 728.955,164.407 728.122,162.407 727,160.5C 726.536,161.094 726.369,161.761 726.5,162.5C 725.167,161.167 723.833,161.167 722.5,162.5C 722.167,162.5 721.833,162.5 721.5,162.5C 717.194,152.084 715.194,152.751 715.5,164.5C 715.018,165.416 714.685,166.416 714.5,167.5C 716.438,170.917 717.271,174.584 717,178.5C 716.044,179.894 714.711,180.561 713,180.5C 711.061,180.046 709.228,179.379 707.5,178.5C 702.676,175.509 698.676,171.676 695.5,167C 693.08,166.975 690.747,166.309 688.5,165C 692.969,171.275 696.636,177.942 699.5,185C 698.628,187.592 696.961,189.426 694.5,190.5C 694.167,189.167 693.833,189.167 693.5,190.5C 690.674,183.909 687.841,177.243 685,170.5C 677.91,165.415 675.91,159.082 679,151.5C 681.907,154.965 684.574,158.631 687,162.5C 687.519,161.484 688.353,160.818 689.5,160.5C 690.863,161.198 692.029,161.198 693,160.5C 694,161.167 695,161.833 696,162.5C 697.144,160.291 697.977,157.957 698.5,155.5C 701.722,153.108 705.055,151.775 708.5,151.5C 710.418,152.956 711.085,154.623 710.5,156.5C 711.452,154.955 711.785,153.288 711.5,151.5C 713.349,150.407 715.016,149.074 716.5,147.5C 716.842,146.662 717.508,146.328 718.5,146.5C 718.5,146.833 718.5,147.167 718.5,147.5C 723.899,155.625 724.566,155.291 720.5,146.5C 720.047,144.435 719.047,142.768 717.5,141.5C 717.167,137.5 716.833,137.5 716.5,141.5C 716.5,141.833 716.5,142.167 716.5,142.5C 715.833,142.5 715.5,142.833 715.5,143.5C 714.833,143.5 714.167,143.5 713.5,143.5C 713.672,142.508 713.338,141.842 712.5,141.5C 712.804,140.85 713.137,140.183 713.5,139.5C 709.752,133.086 707.586,126.42 707,119.5C 705.281,116.712 703.115,114.379 700.5,112.5C 699.833,112.5 699.5,112.167 699.5,111.5C 698.833,111.5 698.5,111.167 698.5,110.5C 698.869,108.007 698.203,107.34 696.5,108.5C 695.954,106.697 695.12,105.03 694,103.5C 693.667,103.833 693.333,104.167 693,104.5C 691.549,102.536 689.716,101.203 687.5,100.5C 685.615,98.9468 684.615,96.9468 684.5,94.5 Z M 708.5,151.5 C 709.5,151.5 710.5,151.5 711.5,151.5C 711.785,153.288 711.452,154.955 710.5,156.5C 711.085,154.623 710.418,152.956 708.5,151.5 Z M 720.5,146.5 C 724.566,155.291 723.899,155.625 718.5,147.5C 719.167,147.167 719.833,146.833 720.5,146.5 Z M 721.5,162.5 C 719.685,163.63 717.685,164.296 715.5,164.5C 715.194,152.751 717.194,152.084 721.5,162.5 Z"/></g>
<g><path style="opacity:0.688" fill="#020202" d="M 828.5,151.5 C 830.732,156.478 830.732,161.645 828.5,167C 828.587,172.028 828.587,177.028 828.5,182C 828.138,183.225 827.638,184.391 827,185.5C 823.844,187.657 821.011,190.157 818.5,193C 818.833,193.333 819.167,193.667 819.5,194C 817.718,196.243 817.218,198.743 818,201.5C 818.667,202.833 819.333,202.833 820,201.5C 823.382,204.202 823.215,206.535 819.5,208.5C 815.612,203.948 811.779,199.281 808,194.5C 803.667,188.323 799.501,181.989 795.5,175.5C 796.035,173.729 796.869,173.396 798,174.5C 798.333,173.167 798.667,171.833 799,170.5C 800.878,172.043 802.378,173.876 803.5,176C 803.167,176.333 802.833,176.667 802.5,177C 804.188,179.726 805.688,182.559 807,185.5C 808.61,187.731 810.443,189.731 812.5,191.5C 818.026,177.849 823.36,164.515 828.5,151.5 Z"/></g>
<g><path style="opacity:0.021" fill="#fefffe" d="M 775.5,158.5 C 776.117,158.611 776.617,158.944 777,159.5C 777.818,162.227 777.652,164.894 776.5,167.5C 775.516,164.572 775.183,161.572 775.5,158.5 Z"/></g>
<g><path style="opacity:0.196" fill="#fcfcfc" d="M 748.5,168.5 C 747.057,167.665 746.057,166.332 745.5,164.5C 741.942,166.123 740.776,168.79 742,172.5C 743.992,173.328 745.492,174.661 746.5,176.5C 746.5,177.167 746.5,177.833 746.5,178.5C 745.596,179.209 745.263,180.209 745.5,181.5C 743.812,195.581 739.645,208.914 733,221.5C 730.46,222.876 728.46,222.21 727,219.5C 719.953,206.074 713.453,192.407 707.5,178.5C 709.228,179.379 711.061,180.046 713,180.5C 714.711,180.561 716.044,179.894 717,178.5C 717.271,174.584 716.438,170.917 714.5,167.5C 714.685,166.416 715.018,165.416 715.5,164.5C 717.685,164.296 719.685,163.63 721.5,162.5C 721.833,162.5 722.167,162.5 722.5,162.5C 723.855,165.855 726.189,168.189 729.5,169.5C 731.167,169.5 732.833,169.5 734.5,169.5C 736.5,168.833 738.5,168.167 740.5,167.5C 740.737,166.209 740.404,165.209 739.5,164.5C 738.836,162.513 737.669,160.846 736,159.5C 735.692,160.308 735.192,160.975 734.5,161.5C 733.476,160.148 732.476,158.815 731.5,157.5C 738.801,155.041 745.801,151.874 752.5,148C 753.5,147.333 754.5,147.333 755.5,148C 752.737,154.691 750.404,161.525 748.5,168.5 Z"/></g>
<g><path style="opacity:0.196" fill="#f4f4f4" d="M 729.5,166.5 C 727.738,165.738 726.738,164.404 726.5,162.5C 726.369,161.761 726.536,161.094 727,160.5C 728.122,162.407 728.955,164.407 729.5,166.5 Z"/></g>
<g><path style="opacity:0.48" fill="#626261" d="M 726.5,162.5 C 726.738,164.404 727.738,165.738 729.5,166.5C 728.167,167.5 728.167,168.5 729.5,169.5C 726.189,168.189 723.855,165.855 722.5,162.5C 723.833,161.167 725.167,161.167 726.5,162.5 Z"/></g>
<g><path style="opacity:0.685" fill="#080808" d="M 748.5,168.5 C 750.851,171.507 753.351,175.174 756,179.5C 758.016,181.684 760.183,183.684 762.5,185.5C 761.253,187.042 761.253,188.542 762.5,190C 761.584,190.374 760.75,190.874 760,191.5C 757.629,188.794 754.963,186.461 752,184.5C 751.667,184.833 751.333,185.167 751,185.5C 749.226,184.035 747.392,182.702 745.5,181.5C 745.263,180.209 745.596,179.209 746.5,178.5C 747.833,177.833 747.833,177.167 746.5,176.5C 745.492,174.661 743.992,173.328 742,172.5C 740.776,168.79 741.942,166.123 745.5,164.5C 746.057,166.332 747.057,167.665 748.5,168.5 Z"/></g>
<g><path style="opacity:0.431" fill="#7d7d7d" d="M 739.5,164.5 C 740.404,165.209 740.737,166.209 740.5,167.5C 738.5,168.167 736.5,168.833 734.5,169.5C 733.65,167.506 733.15,165.506 733,163.5C 735.105,166.76 737.271,167.094 739.5,164.5 Z"/></g>
<g><path style="opacity:0.112" fill="#fefffe" d="M 658.5,173.5 C 660.833,173.5 663.167,173.5 665.5,173.5C 664.969,178.959 663.802,184.292 662,189.5C 661,184.739 659.5,180.073 657.5,175.5C 657.863,174.817 658.196,174.15 658.5,173.5 Z"/></g>
<g><path style="opacity:0.007" fill="#fefffe" d="M 951.5,179.5 C 952.573,180.251 952.74,181.251 952,182.5C 951.517,181.552 951.351,180.552 951.5,179.5 Z"/></g>
<g><path style="opacity:0.084" fill="#fdfdfd" d="M 917.5,182.5 C 917.666,188.842 917.5,195.175 917,201.5C 915.56,196.127 914.06,190.793 912.5,185.5C 913.922,184.075 915.589,183.075 917.5,182.5 Z"/></g>
<g><path style="opacity:0.167" fill="#fefffe" d="M 634.5,185.5 C 635.239,185.369 635.906,185.536 636.5,186C 635.212,190.794 634.045,195.627 633,200.5C 631.424,197.027 629.924,193.527 628.5,190C 630.358,188.245 632.358,186.745 634.5,185.5 Z"/></g>
<g><path style="opacity:0.195" fill="#fdfdfd" d="M 680.5,223.5 C 678.598,224.511 676.598,224.678 674.5,224C 671.813,223.272 669.48,222.105 667.5,220.5C 671.756,209.733 675.422,198.733 678.5,187.5C 683.046,197.013 686.046,207.013 687.5,217.5C 686.233,220.649 683.899,222.649 680.5,223.5 Z"/></g>
<g><path style="opacity:0.251" fill="#fefefe" d="M 634.5,262.5 C 634.209,263.649 633.376,264.316 632,264.5C 630.93,264.472 630.097,264.139 629.5,263.5C 629.5,262.833 629.167,262.5 628.5,262.5C 627.013,259.527 625.513,256.527 624,253.5C 620.579,255.461 617.079,257.294 613.5,259C 612.402,259.77 612.402,260.603 613.5,261.5C 613.738,263.404 614.738,264.738 616.5,265.5C 619.302,271.768 622.635,277.768 626.5,283.5C 624.985,285.082 623.319,286.416 621.5,287.5C 618.503,288.352 615.503,288.018 612.5,286.5C 612.5,285.833 612.167,285.5 611.5,285.5C 610.205,281.577 608.372,277.91 606,274.5C 596.916,259.996 587.582,245.663 578,231.5C 576.992,225.802 575.825,220.135 574.5,214.5C 574.833,213.833 575.167,213.167 575.5,212.5C 582.396,209.602 589.062,206.435 595.5,203C 593.507,199.349 591.507,195.683 589.5,192C 591.027,190.368 592.693,190.201 594.5,191.5C 596.103,195.256 598.27,198.59 601,201.5C 603.139,200.764 605.139,199.764 607,198.5C 606.832,206.816 607.498,215.149 609,223.5C 613.6,229.373 616.6,236.04 618,243.5C 621.16,248.998 625.66,250.498 631.5,248C 633.626,245.567 634.959,242.734 635.5,239.5C 637.618,240.946 639.951,241.613 642.5,241.5C 642.439,243.592 641.439,245.092 639.5,246C 635.5,248 631.5,250 627.5,252C 629.733,255.651 632.066,259.151 634.5,262.5 Z M 628.5,262.5 C 627.833,262.5 627.167,262.5 626.5,262.5C 626.167,261.167 625.833,261.167 625.5,262.5C 621.271,261.95 617.271,261.616 613.5,261.5C 612.402,260.603 612.402,259.77 613.5,259C 617.079,257.294 620.579,255.461 624,253.5C 625.513,256.527 627.013,259.527 628.5,262.5 Z"/></g>
<g><path style="opacity:0.004" fill="#000000" d="M 693.5,190.5 C 693.833,190.5 694.167,190.5 694.5,190.5C 694.315,191.17 693.981,191.17 693.5,190.5 Z"/></g>
<g><path style="opacity:0.215" fill="#fefefe" d="M 899.5,194.5 C 901.125,200.012 902.292,205.679 903,211.5C 900.502,213.417 897.835,215.084 895,216.5C 895.241,209.787 896.074,203.12 897.5,196.5C 897.833,195.5 898.5,194.833 899.5,194.5 Z"/></g>
<g><path style="opacity:0.065" fill="#fefffe" d="M 951.5,200.5 C 954.454,202.314 954.788,204.314 952.5,206.5C 951.534,204.604 951.201,202.604 951.5,200.5 Z"/></g>
<g><path style="opacity:0.062" fill="#fefffe" d="M 647.5,202.5 C 648.117,202.611 648.617,202.944 649,203.5C 650.092,207.797 650.425,212.131 650,216.5C 648.89,218.037 647.39,218.703 645.5,218.5C 646.073,213.153 646.74,207.82 647.5,202.5 Z"/></g>
<g><path style="opacity:0.138" fill="#fefffe" d="M 931.5,205.5 C 935.555,221.029 937.388,236.696 937,252.5C 934.938,250.099 933.271,247.433 932,244.5C 931.5,231.504 931.333,218.504 931.5,205.5 Z"/></g>
<g><path style="opacity:0.653" fill="#030303" d="M 758.5,209.5 C 759.993,210.312 760.66,211.645 760.5,213.5C 758.903,218.901 757.57,224.401 756.5,230C 757.552,231.119 758.719,231.619 760,231.5C 760.667,233.167 760.667,234.833 760,236.5C 757.667,237.5 756,239.167 755,241.5C 754.667,240.5 754.333,239.5 754,238.5C 753.259,239.641 752.425,239.641 751.5,238.5C 750.719,239.729 750.219,241.062 750,242.5C 749.333,241.167 748.667,241.167 748,242.5C 746.443,239.706 746.11,236.706 747,233.5C 751.096,225.587 754.929,217.587 758.5,209.5 Z"/></g>
<g><path style="opacity:0.359" fill="#f8f8f8" d="M 852.5,212.5 C 851.316,215.861 849.483,218.861 847,221.5C 845.549,223.464 843.716,224.797 841.5,225.5C 840.486,224.326 839.153,223.66 837.5,223.5C 837.733,221.938 838.4,220.605 839.5,219.5C 840.167,219.5 840.5,219.167 840.5,218.5C 844.5,216.5 848.5,214.5 852.5,212.5 Z"/></g>
<g><path style="opacity:0.004" fill="#fefffe" d="M 773.5,221.5 C 774.833,222.167 774.833,222.167 773.5,221.5 Z"/></g>
<g><path style="opacity:0.523" fill="#040403" d="M 834.5,248.5 C 834.285,250.179 834.952,251.179 836.5,251.5C 858.647,285.643 880.814,318.976 903,351.5C 906.581,358.33 910.414,364.997 914.5,371.5C 914.192,372.308 913.692,372.975 913,373.5C 903.597,363.688 895.93,352.688 890,340.5C 869.492,312.057 849.992,283.057 831.5,253.5C 831.158,252.662 830.492,252.328 829.5,252.5C 826.934,247.035 824.101,241.702 821,236.5C 809.902,223.505 800.735,209.672 793.5,195C 793.93,193.566 794.764,192.399 796,191.5C 808.854,210.559 821.688,229.559 834.5,248.5 Z"/></g>
<g><path style="opacity:0.172" fill="#fefffe" d="M 951.5,221.5 C 952.776,223.562 953.61,225.896 954,228.5C 956.562,243.202 958.895,257.868 961,272.5C 958.715,270.093 956.549,267.593 954.5,265C 949.618,262.96 944.951,260.627 940.5,258C 946.458,259.725 950.291,257.558 952,251.5C 952.011,241.509 951.844,231.509 951.5,221.5 Z"/></g>
<g><path style="opacity:0.103" fill="#fefffe" d="M 551.5,223.5 C 556.662,227.836 560.495,233.169 563,239.5C 563.968,248.662 563.635,257.662 562,266.5C 559.729,258.352 557.062,250.352 554,242.5C 553.212,236.15 552.379,229.817 551.5,223.5 Z"/></g>
<g><path style="opacity:0.667" fill="#060606" d="M 667.5,220.5 C 669.48,222.105 671.813,223.272 674.5,224C 676.598,224.678 678.598,224.511 680.5,223.5C 684.305,225.554 688.638,227.554 693.5,229.5C 695.444,231.28 696.777,233.447 697.5,236C 693.284,240.409 688.784,239.909 684,234.5C 683.667,234.833 683.333,235.167 683,235.5C 679.651,232.205 676.151,229.871 672.5,228.5C 670.403,226.518 667.736,225.518 664.5,225.5C 663.603,224.402 662.77,224.402 662,225.5C 659.945,224.328 659.278,222.661 660,220.5C 662.308,219.789 664.808,219.789 667.5,220.5 Z"/></g>
<g><path style="opacity:0.272" fill="#f6f6f6" d="M 664.5,225.5 C 667.736,225.518 670.403,226.518 672.5,228.5C 667.651,231.09 662.651,233.424 657.5,235.5C 659.833,232.167 662.167,228.833 664.5,225.5 Z"/></g>
<g><path style="opacity:0.355" fill="#f6f6f6" d="M 863.5,225.5 C 865.035,227.806 866.202,230.139 867,232.5C 860.358,236.902 853.525,240.902 846.5,244.5C 851.831,237.837 857.498,231.504 863.5,225.5 Z"/></g>
<g><path style="opacity:0.208" fill="#fefffe" d="M 534.5,227.5 C 535.5,227.5 536.5,227.5 537.5,227.5C 538.44,231.463 538.607,235.463 538,239.5C 537.052,237.43 535.552,235.93 533.5,235C 529.892,234.974 526.558,234.141 523.5,232.5C 527.175,230.619 530.841,228.952 534.5,227.5 Z"/></g>
<g><path style="opacity:0.4" fill="#fefffe" d="M 1102.5,324.5 C 1102.5,327.833 1102.5,331.167 1102.5,334.5C 1084.73,301.808 1067.07,268.975 1049.5,236C 1051.48,233.985 1053.31,234.152 1055,236.5C 1070.61,266.055 1086.44,295.388 1102.5,324.5 Z"/></g>
<g><path style="opacity:0.168" fill="#fefffe" d="M 511.5,235.5 C 512.675,235.281 513.675,235.614 514.5,236.5C 513.717,241.447 513.217,246.447 513,251.5C 511.667,252.833 510.333,254.167 509,255.5C 507.855,260.083 507.189,264.749 507,269.5C 504.02,260.593 501.187,251.593 498.5,242.5C 498.608,241.558 498.941,240.725 499.5,240C 503.715,238.766 507.715,237.266 511.5,235.5 Z"/></g>
<g><path style="opacity:0.004" fill="#fefffe" d="M 657.5,235.5 C 656.833,236.167 656.833,236.167 657.5,235.5 Z"/></g>
<g><path style="opacity:0.15" fill="#efefef" d="M 840.5,244.5 C 842.027,244.427 843.027,245.094 843.5,246.5C 840.991,247.921 838.657,249.588 836.5,251.5C 834.952,251.179 834.285,250.179 834.5,248.5C 836.772,247.559 838.772,246.226 840.5,244.5 Z"/></g>
<g><path style="opacity:0.245" fill="#fefffe" d="M 977.5,244.5 C 980.637,249.161 983.637,253.994 986.5,259C 984.19,259.497 981.857,259.663 979.5,259.5C 978.673,254.523 978.006,249.523 977.5,244.5 Z"/></g>
<g><path style="opacity:0.325" fill="#fefffe" d="M 1102.5,373.5 C 1102.5,376.5 1102.5,379.5 1102.5,382.5C 1078.02,338.882 1054.02,294.882 1030.5,250.5C 1031.34,248.238 1032.68,247.571 1034.5,248.5C 1056.94,290.388 1079.61,332.055 1102.5,373.5 Z"/></g>
<g><path style="opacity:0.004" fill="#fefffe" d="M 457.5,253.5 C 458.077,252.227 458.743,252.227 459.5,253.5C 459.03,254.463 458.363,254.463 457.5,253.5 Z"/></g>
<g><path style="opacity:0.022" fill="#fafafa" d="M 829.5,252.5 C 830.492,252.328 831.158,252.662 831.5,253.5C 830.075,255.031 829.409,254.698 829.5,252.5 Z"/></g>
<g><path style="opacity:0.586" fill="#050505" d="M 613.5,261.5 C 617.271,261.616 621.271,261.95 625.5,262.5C 625.833,263.833 626.167,263.833 626.5,262.5C 627.167,262.5 627.833,262.5 628.5,262.5C 629.167,262.5 629.5,262.833 629.5,263.5C 630.097,264.139 630.93,264.472 632,264.5C 633.376,264.316 634.209,263.649 634.5,262.5C 636.96,264.385 639.46,264.718 642,263.5C 642.853,265.125 643.853,265.458 645,264.5C 646,265.167 647,265.833 648,266.5C 649.667,266.5 651.333,266.5 653,266.5C 653.853,268.125 654.853,268.458 656,267.5C 658.333,268.5 660.667,269.5 663,270.5C 664.147,269.542 665.147,269.875 666,271.5C 667.398,270.949 668.732,270.616 670,270.5C 675.55,273.808 680.883,273.141 686,268.5C 687.324,269.88 688.657,270.214 690,269.5C 692.321,272.058 692.654,274.725 691,277.5C 689.407,275.715 687.907,275.548 686.5,277C 688.513,279.379 690.346,281.879 692,284.5C 692.494,286.134 692.66,287.801 692.5,289.5C 691.603,288.402 690.77,288.402 690,289.5C 688.172,284.165 685.005,279.832 680.5,276.5C 680.167,276.667 679.833,276.833 679.5,277C 683.313,280.614 683.146,283.781 679,286.5C 677.192,286.112 675.525,286.112 674,286.5C 672.731,285.095 672.231,283.429 672.5,281.5C 677.532,281.668 677.699,280.668 673,278.5C 672.667,278.833 672.333,279.167 672,279.5C 669.409,278.845 666.742,277.845 664,276.5C 663.228,276.645 662.561,276.978 662,277.5C 659.076,277.374 656.409,276.041 654,273.5C 653,273.833 652,274.167 651,274.5C 647.374,272.566 643.874,271.233 640.5,270.5C 640.167,269.167 639.833,269.167 639.5,270.5C 639.167,270.5 638.833,270.5 638.5,270.5C 638.5,269.833 638.167,269.5 637.5,269.5C 635.683,267.49 633.683,267.157 631.5,268.5C 629.595,268.928 627.762,268.262 626,266.5C 624.657,267.214 623.324,266.88 622,265.5C 620.34,266.166 618.506,266.166 616.5,265.5C 614.738,264.738 613.738,263.404 613.5,261.5 Z"/></g>
<g><path style="opacity:0.27" fill="#fefffe" d="M 406.5,264.5 C 408.417,267.804 409.584,271.471 410,275.5C 410.332,284.158 411.499,292.658 413.5,301C 413.167,301.167 412.833,301.333 412.5,301.5C 405.597,290.702 398.93,279.702 392.5,268.5C 397.283,267.142 401.95,265.808 406.5,264.5 Z"/></g>
<g><path style="opacity:0.562" fill="#050505" d="M 735.5,280.5 C 734.833,281.5 734.167,282.5 733.5,283.5C 731.951,283.264 730.451,283.264 729,283.5C 727.05,281.612 724.883,280.446 722.5,280C 724.969,284.787 727.802,289.287 731,293.5C 731.781,294.944 731.614,296.277 730.5,297.5C 725.388,290.548 720.055,283.714 714.5,277C 711.8,275.655 709.134,275.989 706.5,278C 708.569,278.324 708.902,279.158 707.5,280.5C 708.934,282.22 709.767,284.22 710,286.5C 711.057,289.272 712.557,291.605 714.5,293.5C 714.389,294.117 714.056,294.617 713.5,295C 715.037,297.28 716.203,299.78 717,302.5C 717.667,303.833 717.667,305.167 717,306.5C 710.847,299.38 706.18,291.38 703,282.5C 699.975,279.062 696.808,275.729 693.5,272.5C 693.885,267.872 695.718,266.872 699,269.5C 700,269.167 701,268.833 702,268.5C 703.154,269.743 704.488,270.743 706,271.5C 708.111,271.423 710.111,271.089 712,270.5C 713.743,272.227 715.576,272.894 717.5,272.5C 721.801,270.031 725.967,267.364 730,264.5C 732.127,265.397 732.627,266.731 731.5,268.5C 728.5,270.5 725.5,272.5 722.5,274.5C 726.394,277.379 730.727,279.379 735.5,280.5 Z"/></g>
<g><path style="opacity:0.202" fill="#fefefe" d="M 502.5,317.5 C 499.958,318.039 497.792,319.372 496,321.5C 495.601,321.272 495.435,320.938 495.5,320.5C 493.261,316.36 490.761,312.36 488,308.5C 469.927,314.44 451.593,318.44 433,320.5C 432.607,311.765 433.273,303.098 435,294.5C 435.615,292.884 436.615,291.551 438,290.5C 439.409,283.012 441.409,275.679 444,268.5C 445.312,280.01 445.979,291.677 446,303.5C 449.705,307.982 454.038,308.649 459,305.5C 462.754,298.807 465.754,291.807 468,284.5C 468.973,286.392 469.64,288.392 470,290.5C 473.719,293.097 476.886,296.263 479.5,300C 483.582,301.293 486.749,300.126 489,296.5C 490.008,289.765 491.342,283.099 493,276.5C 497.887,289.769 501.054,303.435 502.5,317.5 Z"/></g>
<g><path style="opacity:0.597" fill="#fcfcfc" d="M 631.5,268.5 C 633.683,267.157 635.683,267.49 637.5,269.5C 638.167,269.5 638.5,269.833 638.5,270.5C 638.5,271.167 638.833,271.5 639.5,271.5C 642.899,278.631 646.566,285.631 650.5,292.5C 648.833,292.5 647.167,292.5 645.5,292.5C 645.5,291.833 645.167,291.5 644.5,291.5C 640.404,283.636 636.071,275.969 631.5,268.5 Z"/></g>
<g><path style="opacity:0.004" fill="#000000" d="M 639.5,270.5 C 639.833,270.5 640.167,270.5 640.5,270.5C 640.315,271.17 639.981,271.17 639.5,270.5 Z"/></g>
<g><path style="opacity:0.012" fill="#fefffe" d="M 992.5,270.5 C 993.833,271.167 993.833,271.167 992.5,270.5 Z"/></g>
<g><path style="opacity:0.154" fill="#fdfdfd" d="M 739.5,282.5 C 738.5,281.833 737.5,281.167 736.5,280.5C 737.987,279.196 739.654,278.03 741.5,277C 746.661,275.37 751.827,273.87 757,272.5C 757.688,273.332 757.521,273.998 756.5,274.5C 750.622,276.942 744.955,279.608 739.5,282.5 Z"/></g>
<g><path style="opacity:0.734" fill="#040404" d="M 611.5,285.5 C 612.167,285.5 612.5,285.833 612.5,286.5C 615.503,288.018 618.503,288.352 621.5,287.5C 623.022,287.79 624.522,287.79 626,287.5C 627.154,288.743 628.488,289.743 630,290.5C 632.111,290.423 634.111,290.089 636,289.5C 637,290.167 638,290.833 639,291.5C 640.626,291.146 642.459,291.146 644.5,291.5C 645.167,291.5 645.5,291.833 645.5,292.5C 647.167,292.5 648.833,292.5 650.5,292.5C 659.298,292.632 667.798,292.632 676,292.5C 677.743,294.227 679.576,294.894 681.5,294.5C 682.386,295.325 682.719,296.325 682.5,297.5C 676.556,298.139 671.056,298.139 666,297.5C 664.561,299.014 663.061,299.347 661.5,298.5C 659.435,299.857 657.435,301.19 655.5,302.5C 653.5,302.5 652.5,303.5 652.5,305.5C 651.542,305.953 650.708,306.619 650,307.5C 648.192,307.112 646.525,307.112 645,307.5C 642.667,306.5 640.333,305.5 638,304.5C 636.043,305.854 634.043,305.521 632,303.5C 628.87,303.604 625.704,303.937 622.5,304.5C 622.5,303.833 622.167,303.5 621.5,303.5C 620.833,303.5 620.5,303.833 620.5,304.5C 616.951,304.264 613.451,304.264 610,304.5C 608.676,303.12 607.343,302.786 606,303.5C 603.002,302.716 602.169,301.049 603.5,298.5C 605.07,298.694 606.57,298.694 608,298.5C 609.324,299.88 610.657,300.214 612,299.5C 614.791,302.273 616.625,301.607 617.5,297.5C 616.723,295.461 615.557,294.795 614,295.5C 612.676,294.12 611.343,293.786 610,294.5C 609.196,293.196 608.029,292.529 606.5,292.5C 604.236,292.904 602.07,292.904 600,292.5C 597.731,290.731 595.398,290.065 593,290.5C 590.489,288.437 587.656,286.937 584.5,286C 583.663,284.989 583.33,283.822 583.5,282.5C 585.144,282.714 586.644,282.38 588,281.5C 589.154,282.743 590.488,283.743 592,284.5C 595.333,284.5 598.667,284.5 602,284.5C 603,285.167 604,285.833 605,286.5C 606.924,285.522 609.09,285.189 611.5,285.5 Z"/></g>
<g><path style="opacity:0.216" fill="#3e3e3e" d="M 735.5,280.5 C 735.833,280.5 736.167,280.5 736.5,280.5C 737.5,281.167 738.5,281.833 739.5,282.5C 738.866,283.947 737.699,284.613 736,284.5C 734.93,284.472 734.097,284.139 733.5,283.5C 734.167,282.5 734.833,281.5 735.5,280.5 Z"/></g>
<g><path style="opacity:0.176" fill="#fefffe" d="M 931.5,285.5 C 953.394,319.603 974.561,354.269 995,389.5C 995.735,391.871 996.568,394.205 997.5,396.5C 997.167,396.833 996.833,397.167 996.5,397.5C 975.097,363.704 953.93,329.704 933,295.5C 931.684,292.312 931.184,288.978 931.5,285.5 Z"/></g>
<g><path style="opacity:0.141" fill="#f7f7f7" d="M 581.5,309.5 C 579.369,310.314 577.036,310.814 574.5,311C 575.942,311.377 576.942,312.21 577.5,313.5C 575.243,313.962 573.243,314.962 571.5,316.5C 570.571,315.311 570.238,313.978 570.5,312.5C 573.884,311.756 574.218,310.423 571.5,308.5C 573.757,301.788 575.257,294.788 576,287.5C 578.397,294.639 580.23,301.973 581.5,309.5 Z"/></g>
<g><path style="opacity:0.026" fill="#fefffe" d="M 714.5,293.5 C 715.665,291.584 717.332,290.751 719.5,291C 718.347,292.883 716.681,293.716 714.5,293.5 Z"/></g>
<g><path style="opacity:0.227" fill="#fefffe" d="M 1006.5,294.5 C 1010.18,299.347 1013.52,304.513 1016.5,310C 1014.57,310.251 1012.73,310.751 1011,311.5C 1009.19,305.9 1007.69,300.233 1006.5,294.5 Z"/></g>
<g><path style="opacity:0.192" fill="#050505" d="M 692.5,289.5 C 697.524,293.787 700.357,299.121 701,305.5C 698.03,301.188 695.03,296.854 692,292.5C 691.53,291.423 691.697,290.423 692.5,289.5 Z"/></g>
<g><path style="opacity:0.091" fill="#fafafa" d="M 539.5,308.5 C 538.883,308.611 538.383,308.944 538,309.5C 536.961,308.29 535.794,307.29 534.5,306.5C 535.011,304.805 535.678,303.139 536.5,301.5C 539.093,303.071 540.093,305.404 539.5,308.5 Z"/></g>
<g><path style="opacity:0.834" fill="#030304" d="M 679.5,329.5 C 672.648,328.666 665.981,329.666 659.5,332.5C 657.968,331.63 656.468,331.964 655,333.5C 654.282,332.549 653.449,332.383 652.5,333C 644.413,337.712 637.413,342.878 631.5,348.5C 630.508,348.328 629.842,348.662 629.5,349.5C 624.057,352.392 618.724,355.559 613.5,359C 611.514,358.206 609.681,358.706 608,360.5C 607.774,357.905 607.274,355.405 606.5,353C 606.833,352.667 607.167,352.333 607.5,352C 604.121,347.885 600.455,344.885 596.5,343C 596.63,341.941 597.13,341.108 598,340.5C 600.333,340.833 602.667,341.167 605,341.5C 606.512,340.743 607.846,339.743 609,338.5C 610.711,339.581 612.211,339.248 613.5,337.5C 614.71,337.068 615.71,336.401 616.5,335.5C 621.427,332.58 626.094,329.246 630.5,325.5C 631.888,324.409 632.388,323.076 632,321.5C 631.667,321.833 631.333,322.167 631,322.5C 629.846,321.257 628.512,320.257 627,319.5C 624.522,318.553 622.188,318.553 620,319.5C 619,318.833 618,318.167 617,317.5C 614.889,317.577 612.889,317.911 611,318.5C 610,317.833 609,317.167 608,316.5C 606.093,316.421 604.093,316.754 602,317.5C 601,316.833 600,316.167 599,315.5C 597.093,315.421 595.093,315.754 593,316.5C 590.667,315.5 588.333,314.5 586,313.5C 584.434,312.939 583.101,313.606 582,315.5C 581.667,314.833 581.333,314.167 581,313.5C 580.014,314.171 578.847,314.171 577.5,313.5C 576.942,312.21 575.942,311.377 574.5,311C 577.036,310.814 579.369,310.314 581.5,309.5C 584.225,309.542 587.058,310.209 590,311.5C 592.42,310.512 594.753,310.845 597,312.5C 606.007,313.18 614.84,313.18 623.5,312.5C 623.5,313.167 623.833,313.5 624.5,313.5C 625.396,314.506 626.062,314.506 626.5,313.5C 636.89,313.028 647.556,313.028 658.5,313.5C 659.478,313.023 660.311,312.357 661,311.5C 662.533,311.944 664.033,312.277 665.5,312.5C 666.478,312.023 667.311,311.357 668,310.5C 672.667,311.833 677.333,311.833 682,310.5C 683.512,309.743 684.846,308.743 686,307.5C 687.507,308.535 689.007,308.368 690.5,307C 691.641,306.259 691.641,305.425 690.5,304.5C 691.145,303.354 691.978,302.354 693,301.5C 697.333,308.5 701.667,315.5 706,322.5C 706.667,323.833 706.667,325.167 706,326.5C 704,326.5 702,326.5 700,326.5C 699.333,327.167 698.667,327.833 698,328.5C 696.467,328.056 694.967,327.723 693.5,327.5C 692.522,327.977 691.689,328.643 691,329.5C 687.076,329.348 683.242,329.348 679.5,329.5 Z"/></g>
<g><path style="opacity:0.503" fill="#fdfdfd" d="M 655.5,302.5 C 657.059,304.608 658.392,306.941 659.5,309.5C 658.672,310.415 657.672,311.081 656.5,311.5C 654.748,309.754 653.415,307.754 652.5,305.5C 652.5,303.5 653.5,302.5 655.5,302.5 Z"/></g>
<g><path style="opacity:0.044" fill="#f3f3f3" d="M 621.5,303.5 C 622.167,303.5 622.5,303.833 622.5,304.5C 623.833,307.5 625.167,310.5 626.5,313.5C 626.062,314.506 625.396,314.506 624.5,313.5C 623.833,313.5 623.5,313.167 623.5,312.5C 622.499,309.828 621.499,307.162 620.5,304.5C 620.5,303.833 620.833,303.5 621.5,303.5 Z"/></g>
<g><path style="opacity:0.161" fill="#080808" d="M 571.5,308.5 C 574.218,310.423 573.884,311.756 570.5,312.5C 568.494,311.834 566.66,311.834 565,312.5C 564.83,307.975 566.496,306.975 570,309.5C 570.383,308.944 570.883,308.611 571.5,308.5 Z"/></g>
<g><path style="opacity:0.043" fill="#fefffe" d="M 713.5,309.5 C 714.5,309.5 715.5,309.5 716.5,309.5C 716.662,311.527 716.495,313.527 716,315.5C 714.5,314 713,312.5 711.5,311C 712.416,310.722 713.082,310.222 713.5,309.5 Z"/></g>
<g><path style="opacity:0.174" fill="#f9f9f9" d="M 533.5,309.5 C 536.06,311.273 538.393,313.273 540.5,315.5C 540.328,316.492 540.662,317.158 541.5,317.5C 541.5,317.833 541.5,318.167 541.5,318.5C 541.5,319.5 541.5,320.5 541.5,321.5C 539.9,322.644 538.233,323.811 536.5,325C 535.101,325.595 533.768,325.428 532.5,324.5C 531.818,325.243 531.151,325.909 530.5,326.5C 530.601,320.661 531.601,314.994 533.5,309.5 Z"/></g>
<g><path style="opacity:0.32" fill="#fefffe" d="M 1024.5,325.5 C 1029.81,332.765 1034.64,340.432 1039,348.5C 1039.37,352.762 1040.2,356.929 1041.5,361C 1040.4,363.035 1039.73,365.202 1039.5,367.5C 1042.55,379.669 1044.05,392.002 1044,404.5C 1042.67,399.833 1041.33,395.167 1040,390.5C 1038.67,387.833 1036.67,385.833 1034,384.5C 1031.59,369.558 1029.59,354.558 1028,339.5C 1026.83,334.815 1025.66,330.148 1024.5,325.5 Z"/></g>
<g><path style="opacity:0.344" fill="#fcfcfc" d="M 679.5,329.5 C 679.357,336.972 679.024,344.306 678.5,351.5C 677.167,349.5 675.833,347.5 674.5,345.5C 672.999,346.752 671.332,347.752 669.5,348.5C 668.386,345.064 666.886,341.397 665,337.5C 663.296,335.627 661.463,333.96 659.5,332.5C 665.981,329.666 672.648,328.666 679.5,329.5 Z"/></g>
<g><path style="opacity:0.039" fill="#fefffe" d="M 616.5,335.5 C 615.71,336.401 614.71,337.068 613.5,337.5C 613.46,333.8 614.46,333.133 616.5,335.5 Z"/></g>
<g><path style="opacity:0.568" fill="#030303" d="M 793.5,370.5 C 799.47,376.018 805.97,381.685 813,387.5C 816.613,388.685 819.947,391.685 823,396.5C 823.333,396.167 823.667,395.833 824,395.5C 826.314,397.369 826.647,399.369 825,401.5C 807.132,386.33 789.132,371.996 771,358.5C 770.342,360.108 770.842,361.275 772.5,362C 772.167,362.333 771.833,362.667 771.5,363C 773.922,365.003 774.755,367.503 774,370.5C 772.981,369.313 771.814,368.313 770.5,367.5C 763.333,356.5 756.167,345.5 749,334.5C 748.333,332.833 748.333,331.167 749,329.5C 763.34,342.284 778.173,355.95 793.5,370.5 Z"/></g>
<g><path style="opacity:0.518" fill="#080808" d="M 534.5,306.5 C 535.794,307.29 536.961,308.29 538,309.5C 538.383,308.944 538.883,308.611 539.5,308.5C 543.213,312.377 547.379,315.71 552,318.5C 552.333,318.167 552.667,317.833 553,317.5C 554.601,319.972 556.601,320.972 559,320.5C 561.988,323.565 565.321,325.232 569,325.5C 570.301,327.365 570.635,329.365 570,331.5C 567.705,331.311 565.705,329.977 564,327.5C 562.984,328.634 562.317,328.301 562,326.5C 560.434,327.061 559.101,326.394 558,324.5C 555.692,324.207 553.526,325.041 551.5,327C 555.333,330.167 559.167,333.333 563,336.5C 563.333,336.167 563.667,335.833 564,335.5C 568.037,337.79 572.037,340.79 576,344.5C 576.333,344.167 576.667,343.833 577,343.5C 578.558,345.359 580.391,346.859 582.5,348C 588.133,350.383 593.299,352.883 598,355.5C 598.699,357.074 598.365,358.407 597,359.5C 592.872,357.513 588.539,355.179 584,352.5C 583.667,352.833 583.333,353.167 583,353.5C 577.348,350.596 572.015,346.596 567,341.5C 566.667,341.833 566.333,342.167 566,342.5C 563.302,339.365 560.302,337.365 557,336.5C 554.63,333.961 552.13,331.628 549.5,329.5C 549.167,328.167 548.833,328.167 548.5,329.5C 547.348,328.375 546.348,328.375 545.5,329.5C 542.699,330.766 539.699,331.599 536.5,332C 528.101,337.524 519.768,343.024 511.5,348.5C 508.739,348.105 506.239,349.105 504,351.5C 501.684,350.633 499.684,351.299 498,353.5C 496.413,352.273 495.079,352.606 494,354.5C 492.333,354.167 490.667,353.833 489,353.5C 487.518,355.781 485.851,355.781 484,353.5C 482.887,354.305 481.721,354.972 480.5,355.5C 480.167,354.167 479.833,354.167 479.5,355.5C 478.034,354.653 477.2,353.32 477,351.5C 475.602,352.051 474.268,352.384 473,352.5C 470.793,351.003 470.126,349.003 471,346.5C 475.669,340.498 481.502,335.998 488.5,333C 487.185,331.605 487.519,330.605 489.5,330C 488.531,328.242 487.364,327.742 486,328.5C 485.401,322.778 487.568,320.778 492.5,322.5C 493.518,321.807 494.518,321.141 495.5,320.5C 495.435,320.938 495.601,321.272 496,321.5C 497.792,319.372 499.958,318.039 502.5,317.5C 504.541,317.854 506.374,317.854 508,317.5C 509.188,318.563 509.688,319.897 509.5,321.5C 507.886,322.271 506.386,323.271 505,324.5C 503.943,323.373 502.777,322.873 501.5,323C 500.139,324.584 499.472,326.418 499.5,328.5C 497.616,328.712 496.283,329.712 495.5,331.5C 495.846,332.696 496.346,332.696 497,331.5C 497.464,332.094 497.631,332.761 497.5,333.5C 499.25,332.767 500.917,332.434 502.5,332.5C 502.5,332.833 502.5,333.167 502.5,333.5C 501.188,336.536 498.854,338.702 495.5,340C 498.873,338.781 502.207,337.948 505.5,337.5C 505.5,337.833 505.5,338.167 505.5,338.5C 505.267,340.062 504.6,341.395 503.5,342.5C 505.153,342.34 506.486,341.674 507.5,340.5C 509.707,337.933 512.373,336.267 515.5,335.5C 519.171,333.308 522.837,331.808 526.5,331C 528.286,329.804 529.619,328.304 530.5,326.5C 531.151,325.909 531.818,325.243 532.5,324.5C 533.768,325.428 535.101,325.595 536.5,325C 538.233,323.811 539.9,322.644 541.5,321.5C 543.375,320.358 545.041,319.692 546.5,319.5C 544.831,318.027 543.164,317.694 541.5,318.5C 541.5,318.167 541.5,317.833 541.5,317.5C 541.672,316.508 541.338,315.842 540.5,315.5C 538.393,313.273 536.06,311.273 533.5,309.5C 533.263,308.209 533.596,307.209 534.5,306.5 Z M 505.5,338.5 C 506.167,339.167 506.833,339.833 507.5,340.5C 506.486,341.674 505.153,342.34 503.5,342.5C 504.6,341.395 505.267,340.062 505.5,338.5 Z M 490.5,337.5 C 490.141,339.485 489.308,340.151 488,339.5C 483.847,343.156 479.347,345.49 474.5,346.5C 479.564,342.969 484.897,339.969 490.5,337.5 Z M 502.5,333.5 C 503.974,334.436 504.974,335.77 505.5,337.5C 502.207,337.948 498.873,338.781 495.5,340C 498.854,338.702 501.188,336.536 502.5,333.5 Z M 497.5,333.5 C 497.315,335.196 496.481,336.529 495,337.5C 493.586,336.587 492.086,336.587 490.5,337.5C 492.534,335.024 494.867,333.691 497.5,333.5 Z M 499.5,328.5 C 500.974,329.436 501.974,330.77 502.5,332.5C 500.917,332.434 499.25,332.767 497.5,333.5C 497.631,332.761 497.464,332.094 497,331.5C 496.346,332.696 495.846,332.696 495.5,331.5C 496.283,329.712 497.616,328.712 499.5,328.5 Z M 541.5,321.5 C 541.5,320.5 541.5,319.5 541.5,318.5C 543.164,317.694 544.831,318.027 546.5,319.5C 545.041,319.692 543.375,320.358 541.5,321.5 Z M 503.5,342.5 C 501.487,344.497 499.154,346.164 496.5,347.5C 495.094,346.332 493.928,346.665 493,348.5C 492.383,347.551 492.549,346.718 493.5,346C 497.115,345.53 500.449,344.363 503.5,342.5 Z"/></g>
<g><path style="opacity:0.004" fill="#000000" d="M 548.5,329.5 C 548.833,329.5 549.167,329.5 549.5,329.5C 549.315,330.17 548.981,330.17 548.5,329.5 Z"/></g>
<g><path style="opacity:0.364" fill="#e7e7e7" d="M 545.5,329.5 C 544.972,330.721 544.305,331.887 543.5,333C 533.669,338.414 524.002,344.081 514.5,350C 513.212,350.239 512.212,349.739 511.5,348.5C 519.768,343.024 528.101,337.524 536.5,332C 539.699,331.599 542.699,330.766 545.5,329.5 Z"/></g>
<g><path style="opacity:0.265" fill="#fafafa" d="M 515.5,335.5 C 512.373,336.267 509.707,337.933 507.5,340.5C 506.833,339.833 506.167,339.167 505.5,338.5C 505.5,338.167 505.5,337.833 505.5,337.5C 504.974,335.77 503.974,334.436 502.5,333.5C 502.5,333.167 502.5,332.833 502.5,332.5C 501.974,330.77 500.974,329.436 499.5,328.5C 499.472,326.418 500.139,324.584 501.5,323C 502.777,322.873 503.943,323.373 505,324.5C 506.386,323.271 507.886,322.271 509.5,321.5C 511.39,321.703 512.89,321.037 514,319.5C 514.215,324.915 514.715,330.248 515.5,335.5 Z"/></g>
<g><path style="opacity:0.704" fill="#030303" d="M 756.5,322.5 C 763.901,327.31 771.401,332.644 779,338.5C 779.333,338.167 779.667,337.833 780,337.5C 782.333,339.5 784.667,341.5 787,343.5C 787.333,343.167 787.667,342.833 788,342.5C 790.333,344.5 792.667,346.5 795,348.5C 797.61,348.653 799.943,349.986 802,352.5C 803.566,351.939 804.899,352.606 806,354.5C 806.333,354.167 806.667,353.833 807,353.5C 811.353,357.944 816.02,361.278 821,363.5C 822.566,362.939 823.899,363.606 825,365.5C 825.333,365.167 825.667,364.833 826,364.5C 831.242,368.066 836.742,371.233 842.5,374C 843.766,374.309 844.933,374.809 846,375.5C 846.333,375.167 846.667,374.833 847,374.5C 848.667,375.833 850.333,377.167 852,378.5C 852.333,378.167 852.667,377.833 853,377.5C 855.307,379.608 857.64,380.941 860,381.5C 860.333,381.167 860.667,380.833 861,380.5C 862.667,381.833 864.333,383.167 866,384.5C 867.667,384.5 869.333,384.5 871,384.5C 872.101,386.394 873.434,387.061 875,386.5C 875.781,387.944 875.614,389.277 874.5,390.5C 871.786,389.747 869.286,389.747 867,390.5C 865.488,389.743 864.154,388.743 863,387.5C 860.522,386.553 858.188,386.553 856,387.5C 853.591,384.959 850.924,383.626 848,383.5C 847,383.833 846,384.167 845,384.5C 842,382.833 839,381.167 836,379.5C 835,379.833 834,380.167 833,380.5C 831.54,378.578 829.873,377.911 828,378.5C 825.262,375.689 822.762,375.856 820.5,379C 826,384.5 831.5,390 837,395.5C 837.333,395.167 837.667,394.833 838,394.5C 838.667,396.167 838.667,397.833 838,399.5C 837.333,398.167 836.667,398.167 836,399.5C 821.828,386.307 808.828,373.64 797,361.5C 796.792,359.141 796.626,356.974 796.5,355C 788.854,349.45 780.854,343.783 772.5,338C 770.152,337.654 768.319,336.487 767,334.5C 766.667,334.833 766.333,335.167 766,335.5C 763.318,332.65 760.484,329.984 757.5,327.5C 756.548,325.955 756.215,324.288 756.5,322.5 Z"/></g>
<g><path style="opacity:0.007" fill="#fefffe" d="M 629.5,349.5 C 629.842,348.662 630.508,348.328 631.5,348.5C 631.591,350.698 630.925,351.031 629.5,349.5 Z"/></g>
<g><path style="opacity:0.517" fill="#050605" d="M 848.5,328.5 C 847.101,323.366 844.435,319.033 840.5,315.5C 839.101,310.366 836.435,306.033 832.5,302.5C 831.617,299.296 829.95,296.629 827.5,294.5C 827.5,293.833 827.167,293.5 826.5,293.5C 825.968,290.54 825.301,290.207 824.5,292.5C 823.11,291.101 822.11,289.434 821.5,287.5C 822.833,286.833 822.833,286.167 821.5,285.5C 820.968,282.54 820.301,282.207 819.5,284.5C 818.11,283.101 817.11,281.434 816.5,279.5C 815.609,280.11 814.609,280.443 813.5,280.5C 804.406,262.999 794.239,245.999 783,229.5C 782.219,228.056 782.386,226.723 783.5,225.5C 784.967,225.277 786.467,224.944 788,224.5C 819.555,272.974 850.555,321.641 881,370.5C 885.5,377.093 890.333,383.926 895.5,391C 895.167,391.333 894.833,391.667 894.5,392C 897.014,394.057 898.347,396.39 898.5,399C 899.551,400.385 900.884,401.385 902.5,402C 902.043,402.414 901.709,402.914 901.5,403.5C 904.016,406.859 905.682,410.525 906.5,414.5C 904.61,414.703 903.11,414.037 902,412.5C 884.889,386.604 868.556,360.271 853,333.5C 851.951,331.382 850.451,329.716 848.5,328.5 Z M 816.5,277.5 C 814.915,276.998 814.415,275.998 815,274.5C 816.039,275.244 816.539,276.244 816.5,277.5 Z M 813.5,272.5 C 811.915,271.998 811.415,270.998 812,269.5C 813.039,270.244 813.539,271.244 813.5,272.5 Z"/></g>
<g><path style="opacity:0.004" fill="#000000" d="M 479.5,355.5 C 479.833,355.5 480.167,355.5 480.5,355.5C 480.315,356.17 479.981,356.17 479.5,355.5 Z"/></g>
<g><path style="opacity:0.295" fill="#fefffe" d="M 649.5,358.5 C 651.144,358.286 652.644,358.62 654,359.5C 657.667,365.833 661.333,372.167 665,378.5C 665.896,381.792 664.729,384.125 661.5,385.5C 656.173,377.172 652.173,368.172 649.5,358.5 Z"/></g>
<g><path style="opacity:0.274" fill="#fefffe" d="M 622.5,365.5 C 631.047,374.869 633.881,385.869 631,398.5C 627.031,391.7 622.865,385.034 618.5,378.5C 616.668,379.248 615.001,380.248 613.5,381.5C 613.167,381.167 612.833,380.833 612.5,380.5C 616.598,375.959 619.931,370.959 622.5,365.5 Z"/></g>
<g><path style="opacity:0.169" fill="#fefffe" d="M 587.5,366.5 C 593.201,367.373 594.701,370.373 592,375.5C 589.833,373.333 587.667,371.167 585.5,369C 586.381,368.292 587.047,367.458 587.5,366.5 Z"/></g>
<g><path style="opacity:0.004" fill="#000000" d="M 793.5,369.5 C 794.833,370.167 794.833,370.167 793.5,369.5 Z"/></g>
<g><path style="opacity:0.281" fill="#121312" d="M 816.5,279.5 C 817.11,281.434 818.11,283.101 819.5,284.5C 820.167,284.833 820.833,285.167 821.5,285.5C 821.5,286.167 821.5,286.833 821.5,287.5C 822.11,289.434 823.11,291.101 824.5,292.5C 825.167,292.833 825.833,293.167 826.5,293.5C 827.167,293.5 827.5,293.833 827.5,294.5C 828.151,297.803 829.818,300.47 832.5,302.5C 834.06,307.512 836.727,311.845 840.5,315.5C 841.899,320.634 844.565,324.967 848.5,328.5C 850.456,333.746 852.956,338.746 856,343.5C 862.916,353.663 869.583,363.997 876,374.5C 881.627,385.387 887.627,396.053 894,406.5C 894.749,407.635 894.583,408.635 893.5,409.5C 891.443,407.731 889.61,405.731 888,403.5C 863.63,362.232 838.797,321.232 813.5,280.5C 814.609,280.443 815.609,280.11 816.5,279.5 Z"/></g>
<g><path style="opacity:0.291" fill="#fefffe" d="M 525.5,382.5 C 526.675,382.281 527.675,382.614 528.5,383.5C 553.078,430.991 577.912,478.324 603,525.5C 608.064,534.959 612.564,544.626 616.5,554.5C 615.022,554.762 613.689,554.429 612.5,553.5C 583.333,497.833 554.167,442.167 525,386.5C 524.421,385.072 524.588,383.738 525.5,382.5 Z"/></g>
<g><path style="opacity:0.049" fill="#fefffe" d="M 578.5,384.5 C 580.681,384.284 582.347,385.117 583.5,387C 581.647,388.669 579.647,388.835 577.5,387.5C 578.127,386.583 578.461,385.583 578.5,384.5 Z"/></g>
<g><path style="opacity:0.749" fill="#010101" d="M 755.5,402.5 C 756.222,402.082 756.722,401.416 757,400.5C 758.587,401.727 759.921,401.394 761,399.5C 762.158,399.998 762.991,400.831 763.5,402C 762.833,403.333 762.167,404.667 761.5,406C 762.45,410.302 763.783,414.469 765.5,418.5C 763.013,419.576 760.68,420.91 758.5,422.5C 755.886,419.834 753.72,416.834 752,413.5C 750.663,408.872 751.83,405.205 755.5,402.5 Z"/></g>
<g><path style="opacity:0.004" fill="#000000" d="M 755.5,402.5 C 754.833,401.167 754.833,401.167 755.5,402.5 Z"/></g>
<g><path style="opacity:0.598" fill="#020202" d="M 783.5,403.5 C 785.527,404.125 787.36,404.125 789,403.5C 790.324,404.88 791.657,405.214 793,404.5C 795.692,406.212 796.026,408.212 794,410.5C 793.333,409.833 792.667,409.167 792,408.5C 789.828,409.585 787.828,410.919 786,412.5C 782.944,411.788 779.777,411.454 776.5,411.5C 775.386,412.723 775.219,414.056 776,415.5C 778.168,416.629 778.668,418.129 777.5,420C 780.111,424.148 782.111,428.648 783.5,433.5C 782.685,435.276 781.518,435.943 780,435.5C 778.333,434.167 776.667,432.833 775,431.5C 773.667,428.167 772.333,424.833 771,421.5C 769.607,416.905 769.274,412.239 770,407.5C 772.333,406.5 774.667,405.5 777,404.5C 778.398,405.051 779.732,405.384 781,405.5C 781.995,404.934 782.828,404.267 783.5,403.5 Z"/></g>
<g><path style="opacity:0.023" fill="#fefffe" d="M 667.5,407.5 C 668.5,407.5 669.5,407.5 670.5,407.5C 670.562,420.575 669.562,420.575 667.5,407.5 Z"/></g>
<g><path style="opacity:0.27" fill="#fefffe" d="M 472.5,414.5 C 474.017,414.511 475.184,415.177 476,416.5C 505.706,472.08 535.539,527.58 565.5,583C 564.584,583.374 563.75,583.874 563,584.5C 559.501,580.173 556.501,575.506 554,570.5C 526.365,519.397 498.865,468.23 471.5,417C 471.743,416.098 472.077,415.265 472.5,414.5 Z"/></g>
<g><path style="opacity:0.582" fill="#030303" d="M 958.5,419.5 C 961.015,421.182 963.015,423.348 964.5,426C 963.771,427.987 964.104,429.987 965.5,432C 965.041,434.355 964.208,436.521 963,438.5C 961.383,437.464 961.216,436.297 962.5,435C 960.983,433.315 959.316,431.815 957.5,430.5C 955.263,432.647 953.263,434.98 951.5,437.5C 950.575,436.359 949.741,436.359 949,437.5C 946.101,433.136 942.267,431.136 937.5,431.5C 931.283,435.768 924.949,439.102 918.5,441.5C 916.576,441.894 914.743,441.227 913,439.5C 911.853,440.458 910.853,440.125 910,438.5C 908.757,439.336 907.59,439.003 906.5,437.5C 905.754,436.264 905.421,434.93 905.5,433.5C 907.484,433.617 909.15,432.95 910.5,431.5C 913.145,431.842 915.645,433.175 918,435.5C 919.242,434.128 920.742,433.128 922.5,432.5C 924.167,432.5 925.833,432.5 927.5,432.5C 929.872,429.63 932.705,427.297 936,425.5C 937.587,426.727 938.921,426.394 940,424.5C 943.965,425.687 947.631,428.021 951,431.5C 951.923,428.878 953.089,426.378 954.5,424C 954.167,423.667 953.833,423.333 953.5,423C 955.346,421.97 957.013,420.804 958.5,419.5 Z"/></g>
<g><path style="opacity:0.004" fill="#fefffe" d="M 1085.5,429.5 C 1086.83,430.167 1086.83,430.167 1085.5,429.5 Z"/></g>
<g><path style="opacity:0.004" fill="#fefffe" d="M 1086.5,431.5 C 1087.83,432.167 1087.83,432.167 1086.5,431.5 Z"/></g>
<g><path style="opacity:0.091" fill="#fefffe" d="M 727.5,433.5 C 728.885,434.574 730.051,435.907 731,437.5C 738.746,451.995 746.746,466.328 755,480.5C 758.14,486.443 760.973,492.443 763.5,498.5C 760.358,498.201 758.191,496.534 757,493.5C 748,477.167 739,460.833 730,444.5C 729.1,440.829 728.266,437.163 727.5,433.5 Z"/></g>
<g><path style="opacity:0.52" fill="#030303" d="M 965.5,444.5 C 966.748,445.334 967.415,446.667 967.5,448.5C 967.167,449.833 966.833,451.167 966.5,452.5C 965.167,453.5 963.833,454.5 962.5,455.5C 962.833,456.167 963.167,456.833 963.5,457.5C 959.723,466.435 954.056,473.768 946.5,479.5C 945.386,478.277 945.219,476.944 946,475.5C 948.856,469.638 952.523,464.305 957,459.5C 958.916,456.102 959.916,452.435 960,448.5C 962.015,447.303 963.849,445.97 965.5,444.5 Z"/></g>
<g><path style="opacity:0.264" fill="#fefffe" d="M 692.5,478.5 C 694.656,481.437 696.156,484.771 697,488.5C 700.099,498.987 701.766,509.653 702,520.5C 698.248,514.664 694.748,508.664 691.5,502.5C 692.469,494.556 692.802,486.556 692.5,478.5 Z"/></g>
<g><path style="opacity:0.767" fill="#020203" d="M 947.5,484.5 C 946.395,485.6 945.062,486.267 943.5,486.5C 942.244,486.461 941.244,486.961 940.5,488C 963.137,522.774 985.137,557.941 1006.5,593.5C 1002.83,593.5 999.167,593.5 995.5,593.5C 990.881,587.043 986.881,580.21 983.5,573C 983.645,572.228 983.978,571.561 984.5,571C 970.223,548.099 956.39,525.933 943,504.5C 937.922,500.093 933.589,495.093 930,489.5C 929.5,490 929,490.5 928.5,491C 950.194,525.189 971.194,559.356 991.5,593.5C 988.167,593.5 984.833,593.5 981.5,593.5C 965.013,567.851 949.68,542.684 935.5,518C 930.033,508.952 924.2,500.119 918,491.5C 917.167,492.333 916.333,493.167 915.5,494C 934.056,526.56 953.556,558.727 974,590.5C 974.483,591.448 974.649,592.448 974.5,593.5C 971.167,593.5 967.833,593.5 964.5,593.5C 944.582,559.613 924.082,525.613 903,491.5C 900.882,491.792 898.716,491.959 896.5,492C 913.626,521.788 931.293,551.121 949.5,580C 949.167,580.333 948.833,580.667 948.5,581C 951.502,584.825 953.835,588.991 955.5,593.5C 950.5,593.5 945.5,593.5 940.5,593.5C 932.836,579.816 925.336,566.483 918,553.5C 905.27,533.765 892.937,513.765 881,493.5C 880.5,494 880,494.5 879.5,495C 897.404,527.234 915.738,560.067 934.5,593.5C 932.833,593.5 931.167,593.5 929.5,593.5C 926.576,585.943 922.243,578.777 916.5,572C 916.833,571.667 917.167,571.333 917.5,571C 901.815,545.613 886.315,520.113 871,494.5C 869.212,493.642 867.378,492.642 865.5,491.5C 865.167,491.833 864.833,492.167 864.5,492.5C 869.518,499.735 873.684,507.402 877,515.5C 888.069,533.742 898.569,552.242 908.5,571C 908.167,571.333 907.833,571.667 907.5,572C 909.781,575.277 911.615,578.777 913,582.5C 916.317,585.64 918.817,589.307 920.5,593.5C 918.833,593.5 917.167,593.5 915.5,593.5C 914.637,590.077 913.47,586.744 912,583.5C 893.729,553.567 875.062,523.9 856,494.5C 855.641,497.62 856.808,500.12 859.5,502C 859.167,502.333 858.833,502.667 858.5,503C 864.865,512.381 870.865,522.048 876.5,532C 876.167,532.333 875.833,532.667 875.5,533C 882.732,543.968 889.232,555.468 895,567.5C 900.909,576.072 905.742,584.739 909.5,593.5C 907.5,593.5 905.5,593.5 903.5,593.5C 893.303,574.931 882.803,555.931 872,536.5C 863.535,522.826 855.201,509.493 847,496.5C 845.57,496.306 844.07,496.306 842.5,496.5C 844.059,499.132 845.726,501.632 847.5,504C 847.043,504.414 846.709,504.914 846.5,505.5C 849.614,509.046 851.447,513.046 852,517.5C 845.029,509.308 838.695,501.308 833,493.5C 831.366,494.99 831.699,496.324 834,497.5C 835.118,499.765 835.951,502.099 836.5,504.5C 835.325,504.719 834.325,504.386 833.5,503.5C 830.904,499.981 828.071,496.648 825,493.5C 822.119,495.028 819.786,494.362 818,491.5C 817.667,491.833 817.333,492.167 817,492.5C 807.349,483.44 800.182,473.107 795.5,461.5C 795.709,460.914 796.043,460.414 796.5,460C 793.811,454.937 791.311,449.771 789,444.5C 787.259,440.638 786.426,436.805 786.5,433C 790.269,426.234 794.436,419.734 799,413.5C 800.69,421.78 798.19,428.446 791.5,433.5C 792.624,434.914 793.624,436.414 794.5,438C 794.5,439.667 794.5,441.333 794.5,443C 795.743,444.154 796.743,445.488 797.5,447C 797.5,449 797.5,451 797.5,453C 798.874,456.134 800.54,459.134 802.5,462C 802.167,462.333 801.833,462.667 801.5,463C 806.458,471.753 811.791,480.253 817.5,488.5C 819.35,487.758 820.016,486.758 819.5,485.5C 820.967,485.723 822.467,486.056 824,486.5C 824.667,485.833 825.333,485.167 826,484.5C 833.556,484.946 841.556,484.946 850,484.5C 851,485.167 852,485.833 853,486.5C 872.75,485.667 893.083,485.667 914,486.5C 915.667,485.833 917.333,485.167 919,484.5C 920.533,484.944 922.033,485.277 923.5,485.5C 924.478,485.023 925.311,484.357 926,483.5C 930.443,484.39 935.109,484.39 940,483.5C 941,482.833 942,482.167 943,481.5C 943.667,482.833 944.333,482.833 945,481.5C 946.417,482.078 947.25,483.078 947.5,484.5 Z"/></g>
<g><path style="opacity:0.787" fill="#020203" d="M 1051.5,593.5 C 1049.5,593.5 1047.5,593.5 1045.5,593.5C 1028.91,568.517 1013.24,543.35 998.5,518C 994.039,512.903 990.206,507.403 987,501.5C 985.527,501.868 984.027,501.368 982.5,500C 979.408,496.154 976.408,492.321 973.5,488.5C 979.26,500.224 986.427,511.557 995,522.5C 1009.29,546.913 1023.79,570.579 1038.5,593.5C 1035.5,593.5 1032.5,593.5 1029.5,593.5C 1013.08,570.154 998.082,546.321 984.5,522C 978.393,514.299 972.893,506.132 968,497.5C 966.829,495.384 965.329,494.718 963.5,495.5C 981.334,526.151 1000,556.318 1019.5,586C 1019.17,586.333 1018.83,586.667 1018.5,587C 1020.67,588.678 1022,590.845 1022.5,593.5C 1019.17,593.5 1015.83,593.5 1012.5,593.5C 1002.82,577.645 993.324,561.645 984,545.5C 970.958,525.592 957.458,505.925 943.5,486.5C 945.062,486.267 946.395,485.6 947.5,484.5C 948.151,483.909 948.818,483.243 949.5,482.5C 950.548,483.383 951.715,484.05 953,484.5C 957.064,483.981 961.064,483.314 965,482.5C 967.043,484.521 969.043,484.854 971,483.5C 972,484.167 973,484.833 974,485.5C 975.667,485.5 977.333,485.5 979,485.5C 979.853,487.125 980.853,487.458 982,486.5C 988.611,489.444 993.611,494.111 997,500.5C 1002.13,496.981 1005.3,498.314 1006.5,504.5C 1005.25,507.579 1003.42,510.246 1001,512.5C 1000.19,511.04 999.355,510.707 998.5,511.5C 1005.92,521.426 1012.76,531.76 1019,542.5C 1030.84,558.851 1041.68,575.851 1051.5,593.5 Z M 994.5,505.5 C 992.915,504.998 992.415,503.998 993,502.5C 994.039,503.244 994.539,504.244 994.5,505.5 Z"/></g>
<g><path style="opacity:0.297" fill="#fefffe" d="M 1102.5,523.5 C 1102.5,527.5 1102.5,531.5 1102.5,535.5C 1095.27,524.063 1088.27,512.396 1081.5,500.5C 1082.85,499.05 1084.52,498.383 1086.5,498.5C 1086.62,501.688 1087.45,504.688 1089,507.5C 1093.77,512.754 1098.27,518.087 1102.5,523.5 Z"/></g>
<g><path style="opacity:0.099" fill="#fefffe" d="M 729.5,534.5 C 730.787,535.871 731.453,537.705 731.5,540C 731.333,541.833 731.167,543.667 731,545.5C 727.715,541.942 727.215,538.275 729.5,534.5 Z"/></g>
<g><path style="opacity:0.307" fill="#0a0a0a" d="M 884.5,593.5 C 883.167,593.5 881.833,593.5 880.5,593.5C 880.249,590.592 878.916,588.425 876.5,587C 876.833,586.667 877.167,586.333 877.5,586C 872.635,578.444 868.135,570.61 864,562.5C 863.301,560.926 863.635,559.593 865,558.5C 870,566.167 875,573.833 880,581.5C 882.628,585.436 884.128,589.436 884.5,593.5 Z"/></g>
<g><path style="opacity:0.918" fill="#0b0b0c" d="M 897.5,593.5 C 895.833,593.5 894.167,593.5 892.5,593.5C 888.999,585.523 884.833,577.856 880,570.5C 872.531,554.896 863.531,540.23 853,526.5C 852.226,524.597 852.56,522.93 854,521.5C 861.056,530.023 867.389,539.023 873,548.5C 881.019,563.165 889.185,578.165 897.5,593.5 Z"/></g>
<g><path style="opacity:0.11" fill="#fefffe" d="M 760.5,593.5 C 757.833,593.5 755.167,593.5 752.5,593.5C 752.238,592.022 752.571,590.689 753.5,589.5C 756.163,590.476 758.496,591.81 760.5,593.5 Z"/></g>
</svg>
