<svg width="58" height="39" viewBox="0 0 58 39" fill="none" xmlns="http://www.w3.org/2000/svg">
<path d="M50.5565 0.603929H6.83017C3.39151 0.603929 0.603929 3.39151 0.603929 6.83017V31.6084C0.603929 35.0471 3.39152 37.8346 6.83018 37.8346H50.5565C53.9951 37.8346 56.7827 35.0471 56.7827 31.6084V6.83017C56.7827 3.39151 53.9951 0.603929 50.5565 0.603929Z" fill="url(#paint0_linear_768_7822)" stroke="#B7B7B7" stroke-width="0.792143"/>
<g clip-path="url(#clip0_768_7822)">
<path fill-rule="evenodd" clip-rule="evenodd" d="M7.20612 1.3291L7.57962 1.70733L18.0094 12.269L28.7685 7.10394L28.9977 6.67957L29.3058 6.84599L29.6853 6.66381L29.9362 7.18643L39.3119 12.25L49.723 1.70733L50.0965 1.3291L50.5708 1.56922C57.7597 5.20913 72.7067 12.7952 74.8769 13.9673L74.1842 15.2497C72.0825 14.1146 57.7513 6.8394 50.3866 3.10972L39.965 13.663L39.581 14.0519L39.1001 13.7922L29.2669 8.48148L18.1716 13.808L17.7029 14.0329L17.3376 13.663L6.91605 3.10972C-0.448648 6.8394 -14.7798 14.1146 -16.8816 15.2497L-17.5742 13.9673C-15.404 12.7952 -0.457052 5.20913 6.73188 1.56922L7.20612 1.3291ZM7.24793 38.1516L7.62143 37.7734L18.0513 27.2117L28.81 32.3766L29.0393 32.8012L29.3475 32.6347L29.7271 32.8169L29.9781 32.2941L39.3535 27.2307L49.7646 37.7734L50.1381 38.1516L50.6123 37.9115C57.8013 34.2716 72.7483 26.6855 74.9184 25.5134L74.2258 24.231C72.1241 25.3661 57.7929 32.6413 50.4282 36.371L40.0066 25.8177L39.6226 25.4288L39.1417 25.6885L29.3085 30.9992L18.2134 25.6728L17.7447 25.4478L17.3794 25.8177L6.95786 36.371C-0.406839 32.6413 -14.738 25.3661 -16.8398 24.231L-17.5324 25.5134C-15.3622 26.6855 -0.415243 34.2716 6.77369 37.9115L7.24793 38.1516Z" fill="#C9C9C9"/>
</g>
<rect x="0.603929" y="0.603929" width="56.1788" height="37.2307" rx="6.22624" stroke="#B7B7B7" stroke-width="0.792143"/>
<defs>
<linearGradient id="paint0_linear_768_7822" x1="11.2028" y1="-9.2028" x2="49.8277" y2="46.1838" gradientUnits="userSpaceOnUse">
<stop stop-color="#B7B7B7"/>
<stop offset="0.423384" stop-color="white"/>
<stop offset="0.551508" stop-color="white"/>
<stop offset="1" stop-color="#AEAEAE"/>
</linearGradient>
<clipPath id="clip0_768_7822">
<rect x="1" y="1" width="55.3866" height="36.4386" rx="5.83017" fill="white"/>
</clipPath>
</defs>
</svg>
