<svg width="17" height="31" viewBox="0 0 17 31" fill="none" xmlns="http://www.w3.org/2000/svg">
<path fill-rule="evenodd" clip-rule="evenodd" d="M6.09766 30.6676C5.6162 30.6676 5.15257 30.4189 4.91878 29.9903C4.58394 29.3799 4.84349 28.6317 5.49336 28.3217C10.6824 25.8419 13.906 20.8879 13.906 15.3944C13.906 9.89316 10.6785 4.93728 5.47949 2.45935C4.82962 2.14937 4.56809 1.4012 4.89897 0.790808C5.22985 0.180413 6.02237 -0.0645104 6.68017 0.247384C12.7668 3.15011 16.5511 8.95365 16.5511 15.3944C16.5511 21.8236 12.7727 27.6271 6.69404 30.5337C6.50581 30.6255 6.29976 30.6676 6.09766 30.6676Z" fill="#FFF"/>
<path fill-rule="evenodd" clip-rule="evenodd" d="M2.99496 26.7259C2.51944 26.7259 2.0895 26.4714 1.87156 26.06C1.73484 25.7979 1.70314 25.4955 1.78834 25.2143C1.88344 24.8928 2.10733 24.6287 2.4184 24.4718C5.93127 22.7421 8.24742 19.2749 8.24742 15.4231C8.24742 11.5693 5.92532 8.09831 2.40651 6.36663C2.09743 6.21546 1.87156 5.95332 1.77843 5.63568C1.69126 5.34866 1.72296 5.04634 1.85967 4.78037C2.07365 4.3728 2.50558 4.11831 2.98307 4.11831C3.18517 4.11831 3.37933 4.16423 3.55963 4.25034C7.91654 6.39724 10.625 10.6757 10.625 15.4231C10.625 20.1665 7.9205 24.4431 3.5735 26.5862C3.38924 26.6781 3.19507 26.7259 2.99496 26.7259Z" fill="#FFF"/>
<path fill-rule="evenodd" clip-rule="evenodd" d="M1.09882 21.1558C0.690673 21.1558 0.306298 20.8879 0.125999 20.4746C-0.153366 19.8623 0.0625967 19.1103 0.603495 18.7927C1.70907 18.1536 2.39262 16.883 2.39262 15.4785C2.39262 14.0721 1.70511 12.7997 0.601514 12.1606C0.0625967 11.8468 -0.155348 11.0929 0.118074 10.4825C0.30828 10.0596 0.680766 9.79937 1.09486 9.79937C1.26922 9.79937 1.43763 9.84338 1.59415 9.93331C3.44074 11.0029 4.58792 13.1288 4.58792 15.4785C4.58792 17.8283 3.44074 19.9522 1.59613 21.0199C1.44159 21.106 1.26922 21.1558 1.09882 21.1558Z" fill="#FFF"/>
</svg>
