<svg width="522" height="32" viewBox="0 0 522 32" fill="none" xmlns="http://www.w3.org/2000/svg">
<rect width="34" height="32" rx="2" fill="url(#paint0_linear_147_758)" fill-opacity="0.6"/>
<rect x="0.4" y="0.4" width="33.2" height="31.2" rx="1.6" stroke="white" stroke-opacity="0.15" stroke-width="0.8"/>
<path d="M18.6667 7.66667C19.7718 7.66667 20.8316 8.10566 21.613 8.88706C22.3944 9.66846 22.8334 10.7283 22.8334 11.8333V20.1667C22.8334 21.2717 22.3944 22.3315 21.613 23.1129C20.8316 23.8944 19.7718 24.3333 18.6667 24.3333H15.3334C14.2283 24.3333 13.1685 23.8944 12.3871 23.1129C11.6057 22.3315 11.1667 21.2717 11.1667 20.1667V11.8333C11.1667 10.7283 11.6057 9.66846 12.3871 8.88706C13.1685 8.10566 14.2283 7.66667 15.3334 7.66667H18.6667ZM17.0001 11C16.7791 11 16.5671 11.0878 16.4108 11.2441C16.2545 11.4004 16.1667 11.6123 16.1667 11.8333V15.1667L16.1726 15.2642C16.1977 15.4751 16.3023 15.6685 16.4652 15.8048C16.6281 15.9411 16.8369 16.0101 17.0489 15.9976C17.261 15.9852 17.4602 15.8923 17.606 15.7378C17.7518 15.5834 17.8332 15.3791 17.8334 15.1667V11.8333L17.8276 11.7358C17.8037 11.5331 17.7063 11.3462 17.5537 11.2106C17.4012 11.075 17.2042 11 17.0001 11Z" fill="white" fill-opacity="0.6"/>
<path d="M41.368 20.5V12.1H44.788C45.684 12.1 46.468 12.28 47.14 12.64C47.82 12.992 48.348 13.484 48.724 14.116C49.1 14.748 49.288 15.476 49.288 16.3C49.288 17.124 49.1 17.852 48.724 18.484C48.348 19.116 47.82 19.612 47.14 19.972C46.468 20.324 45.684 20.5 44.788 20.5H41.368ZM42.256 19.732H44.74C45.484 19.732 46.128 19.588 46.672 19.3C47.224 19.004 47.652 18.6 47.956 18.088C48.26 17.568 48.412 16.972 48.412 16.3C48.412 15.62 48.26 15.024 47.956 14.512C47.652 14 47.224 13.6 46.672 13.312C46.128 13.016 45.484 12.868 44.74 12.868H42.256V19.732ZM51.2821 20.5V12.1H52.1701V20.5H51.2821ZM54.9032 20.5V12.1H58.0472C58.7592 12.1 59.3712 12.216 59.8832 12.448C60.3952 12.672 60.7872 13 61.0592 13.432C61.3392 13.856 61.4792 14.372 61.4792 14.98C61.4792 15.572 61.3392 16.084 61.0592 16.516C60.7872 16.94 60.3952 17.268 59.8832 17.5C59.3712 17.724 58.7592 17.836 58.0472 17.836H55.3952L55.7912 17.428V20.5H54.9032ZM60.6392 20.5L58.4792 17.452H59.4392L61.6112 20.5H60.6392ZM55.7912 17.5L55.3952 17.08H58.0232C58.8632 17.08 59.4992 16.896 59.9312 16.528C60.3712 16.16 60.5912 15.644 60.5912 14.98C60.5912 14.308 60.3712 13.788 59.9312 13.42C59.4992 13.052 58.8632 12.868 58.0232 12.868H55.3952L55.7912 12.448V17.5ZM64.367 15.856H68.807V16.612H64.367V15.856ZM64.463 19.732H69.515V20.5H63.575V12.1H69.335V12.868H64.463V19.732ZM71.6024 20.5V12.1H72.4904V20.5H71.6024ZM76.8555 20.5V12.868H73.9035V12.1H80.6955V12.868H77.7435V20.5H76.8555ZM85.6689 20.572C85.0369 20.572 84.4489 20.468 83.9049 20.26C83.3689 20.044 82.9009 19.744 82.5009 19.36C82.1089 18.968 81.8009 18.516 81.5769 18.004C81.3609 17.484 81.2529 16.916 81.2529 16.3C81.2529 15.684 81.3609 15.12 81.5769 14.608C81.8009 14.088 82.1089 13.636 82.5009 13.252C82.9009 12.86 83.3689 12.56 83.9049 12.352C84.4409 12.136 85.0289 12.028 85.6689 12.028C86.3009 12.028 86.8849 12.136 87.4209 12.352C87.9569 12.56 88.4209 12.856 88.8129 13.24C89.2129 13.624 89.5209 14.076 89.7369 14.596C89.9609 15.116 90.0729 15.684 90.0729 16.3C90.0729 16.916 89.9609 17.484 89.7369 18.004C89.5209 18.524 89.2129 18.976 88.8129 19.36C88.4209 19.744 87.9569 20.044 87.4209 20.26C86.8849 20.468 86.3009 20.572 85.6689 20.572ZM85.6689 19.78C86.1729 19.78 86.6369 19.696 87.0609 19.528C87.4929 19.352 87.8649 19.108 88.1769 18.796C88.4969 18.476 88.7449 18.108 88.9209 17.692C89.0969 17.268 89.1849 16.804 89.1849 16.3C89.1849 15.796 89.0969 15.336 88.9209 14.92C88.7449 14.496 88.4969 14.128 88.1769 13.816C87.8649 13.496 87.4929 13.252 87.0609 13.084C86.6369 12.908 86.1729 12.82 85.6689 12.82C85.1649 12.82 84.6969 12.908 84.2649 13.084C83.8329 13.252 83.4569 13.496 83.1369 13.816C82.8249 14.128 82.5769 14.496 82.3929 14.92C82.2169 15.336 82.1289 15.796 82.1289 16.3C82.1289 16.796 82.2169 17.256 82.3929 17.68C82.5769 18.104 82.8249 18.476 83.1369 18.796C83.4569 19.108 83.8329 19.352 84.2649 19.528C84.6969 19.696 85.1649 19.78 85.6689 19.78ZM95.2039 20.5V12.1H98.3479C99.0599 12.1 99.6719 12.216 100.184 12.448C100.696 12.672 101.088 13 101.36 13.432C101.64 13.856 101.78 14.372 101.78 14.98C101.78 15.572 101.64 16.084 101.36 16.516C101.088 16.94 100.696 17.268 100.184 17.5C99.6719 17.732 99.0599 17.848 98.3479 17.848H95.6959L96.0919 17.428V20.5H95.2039ZM96.0919 17.5L95.6959 17.068H98.3239C99.1639 17.068 99.7999 16.888 100.232 16.528C100.672 16.16 100.892 15.644 100.892 14.98C100.892 14.308 100.672 13.788 100.232 13.42C99.7999 13.052 99.1639 12.868 98.3239 12.868H95.6959L96.0919 12.448V17.5ZM101.934 20.5L105.774 12.1H106.65L110.49 20.5H109.554L106.026 12.616H106.386L102.858 20.5H101.934ZM103.446 18.256L103.71 17.536H108.594L108.858 18.256H103.446ZM111.88 20.5V12.1H115.024C115.736 12.1 116.348 12.216 116.86 12.448C117.372 12.672 117.764 13 118.036 13.432C118.316 13.856 118.456 14.372 118.456 14.98C118.456 15.572 118.316 16.084 118.036 16.516C117.764 16.94 117.372 17.268 116.86 17.5C116.348 17.724 115.736 17.836 115.024 17.836H112.372L112.768 17.428V20.5H111.88ZM117.616 20.5L115.456 17.452H116.416L118.588 20.5H117.616ZM112.768 17.5L112.372 17.08H115C115.84 17.08 116.476 16.896 116.908 16.528C117.348 16.16 117.568 15.644 117.568 14.98C117.568 14.308 117.348 13.788 116.908 13.42C116.476 13.052 115.84 12.868 115 12.868H112.372L112.768 12.448V17.5ZM119.208 20.5L123.048 12.1H123.924L127.764 20.5H126.828L123.3 12.616H123.66L120.132 20.5H119.208ZM120.72 18.256L120.984 17.536H125.868L126.132 18.256H120.72Z" fill="white" fill-opacity="0.6"/>
<path d="M135.666 20.62C134.514 20.62 133.61 20.296 132.954 19.648C132.306 19 131.982 18.064 131.982 16.84V12.1H133.542V16.78C133.542 17.644 133.726 18.272 134.094 18.664C134.47 19.056 134.998 19.252 135.678 19.252C136.358 19.252 136.882 19.056 137.25 18.664C137.618 18.272 137.802 17.644 137.802 16.78V12.1H139.338V16.84C139.338 18.064 139.01 19 138.354 19.648C137.706 20.296 136.81 20.62 135.666 20.62ZM144.127 20.62C143.471 20.62 142.843 20.528 142.243 20.344C141.643 20.152 141.167 19.908 140.815 19.612L141.355 18.4C141.691 18.664 142.107 18.884 142.603 19.06C143.099 19.236 143.607 19.324 144.127 19.324C144.567 19.324 144.923 19.276 145.195 19.18C145.467 19.084 145.667 18.956 145.795 18.796C145.923 18.628 145.987 18.44 145.987 18.232C145.987 17.976 145.895 17.772 145.711 17.62C145.527 17.46 145.287 17.336 144.991 17.248C144.703 17.152 144.379 17.064 144.019 16.984C143.667 16.904 143.311 16.812 142.951 16.708C142.599 16.596 142.275 16.456 141.979 16.288C141.691 16.112 141.455 15.88 141.271 15.592C141.087 15.304 140.995 14.936 140.995 14.488C140.995 14.032 141.115 13.616 141.355 13.24C141.603 12.856 141.975 12.552 142.471 12.328C142.975 12.096 143.611 11.98 144.379 11.98C144.883 11.98 145.383 12.044 145.879 12.172C146.375 12.3 146.807 12.484 147.175 12.724L146.683 13.936C146.307 13.712 145.919 13.548 145.519 13.444C145.119 13.332 144.735 13.276 144.367 13.276C143.935 13.276 143.583 13.328 143.311 13.432C143.047 13.536 142.851 13.672 142.723 13.84C142.603 14.008 142.543 14.2 142.543 14.416C142.543 14.672 142.631 14.88 142.807 15.04C142.991 15.192 143.227 15.312 143.515 15.4C143.811 15.488 144.139 15.576 144.499 15.664C144.859 15.744 145.215 15.836 145.567 15.94C145.927 16.044 146.251 16.18 146.539 16.348C146.835 16.516 147.071 16.744 147.247 17.032C147.431 17.32 147.523 17.684 147.523 18.124C147.523 18.572 147.399 18.988 147.151 19.372C146.911 19.748 146.539 20.052 146.035 20.284C145.531 20.508 144.895 20.62 144.127 20.62ZM147.881 20.5L151.661 12.1H153.197L156.989 20.5H155.357L152.105 12.928H152.729L149.489 20.5H147.881ZM149.621 18.556L150.041 17.332H154.577L154.997 18.556H149.621ZM158.058 20.5V12.1H161.514C162.258 12.1 162.894 12.22 163.422 12.46C163.958 12.7 164.37 13.044 164.658 13.492C164.946 13.94 165.09 14.472 165.09 15.088C165.09 15.704 164.946 16.236 164.658 16.684C164.37 17.124 163.958 17.464 163.422 17.704C162.894 17.936 162.258 18.052 161.514 18.052H158.922L159.618 17.344V20.5H158.058ZM163.554 20.5L161.43 17.452H163.098L165.234 20.5H163.554ZM159.618 17.512L158.922 16.768H161.442C162.13 16.768 162.646 16.62 162.99 16.324C163.342 16.028 163.518 15.616 163.518 15.088C163.518 14.552 163.342 14.14 162.99 13.852C162.646 13.564 162.13 13.42 161.442 13.42H158.922L159.618 12.652V17.512Z" fill="white" fill-opacity="0.9"/>
<rect x="196" width="34" height="32" rx="2" fill="url(#paint1_linear_147_758)" fill-opacity="0.6"/>
<rect x="196.4" y="0.4" width="33.2" height="31.2" rx="1.6" stroke="white" stroke-opacity="0.15" stroke-width="0.8"/>
<path d="M214.667 7.66667C215.772 7.66667 216.832 8.10566 217.613 8.88706C218.394 9.66846 218.833 10.7283 218.833 11.8333V20.1667C218.833 21.2717 218.394 22.3315 217.613 23.1129C216.832 23.8944 215.772 24.3333 214.667 24.3333H211.333C210.228 24.3333 209.169 23.8944 208.387 23.1129C207.606 22.3315 207.167 21.2717 207.167 20.1667V11.8333C207.167 10.7283 207.606 9.66846 208.387 8.88706C209.169 8.10566 210.228 7.66667 211.333 7.66667H214.667ZM213 11C212.779 11 212.567 11.0878 212.411 11.2441C212.255 11.4004 212.167 11.6123 212.167 11.8333V15.1667L212.173 15.2642C212.198 15.4751 212.302 15.6685 212.465 15.8048C212.628 15.9411 212.837 16.0101 213.049 15.9976C213.261 15.9852 213.46 15.8923 213.606 15.7378C213.752 15.5834 213.833 15.3791 213.833 15.1667V11.8333L213.828 11.7358C213.804 11.5331 213.706 11.3462 213.554 11.2106C213.401 11.075 213.204 11 213 11Z" fill="white" fill-opacity="0.6"/>
<path d="M238.16 15.856H242.6V16.612H238.16V15.856ZM238.256 19.732H243.308V20.5H237.368V12.1H243.128V12.868H238.256V19.732ZM247.711 20.572C247.087 20.572 246.487 20.472 245.911 20.272C245.343 20.064 244.903 19.8 244.591 19.48L244.939 18.796C245.235 19.084 245.631 19.328 246.127 19.528C246.631 19.72 247.159 19.816 247.711 19.816C248.239 19.816 248.667 19.752 248.995 19.624C249.331 19.488 249.575 19.308 249.727 19.084C249.887 18.86 249.967 18.612 249.967 18.34C249.967 18.012 249.871 17.748 249.679 17.548C249.495 17.348 249.251 17.192 248.947 17.08C248.643 16.96 248.307 16.856 247.939 16.768C247.571 16.68 247.203 16.588 246.835 16.492C246.467 16.388 246.127 16.252 245.815 16.084C245.511 15.916 245.263 15.696 245.071 15.424C244.887 15.144 244.795 14.78 244.795 14.332C244.795 13.916 244.903 13.536 245.119 13.192C245.343 12.84 245.683 12.56 246.139 12.352C246.595 12.136 247.179 12.028 247.891 12.028C248.363 12.028 248.831 12.096 249.295 12.232C249.759 12.36 250.159 12.54 250.495 12.772L250.195 13.48C249.835 13.24 249.451 13.064 249.043 12.952C248.643 12.84 248.255 12.784 247.879 12.784C247.375 12.784 246.959 12.852 246.631 12.988C246.303 13.124 246.059 13.308 245.899 13.54C245.747 13.764 245.671 14.02 245.671 14.308C245.671 14.636 245.763 14.9 245.947 15.1C246.139 15.3 246.387 15.456 246.691 15.568C247.003 15.68 247.343 15.78 247.711 15.868C248.079 15.956 248.443 16.052 248.803 16.156C249.171 16.26 249.507 16.396 249.811 16.564C250.123 16.724 250.371 16.94 250.555 17.212C250.747 17.484 250.843 17.84 250.843 18.28C250.843 18.688 250.731 19.068 250.507 19.42C250.283 19.764 249.939 20.044 249.475 20.26C249.019 20.468 248.431 20.572 247.711 20.572ZM256.45 20.572C255.818 20.572 255.23 20.468 254.686 20.26C254.15 20.044 253.682 19.744 253.282 19.36C252.89 18.968 252.582 18.516 252.358 18.004C252.142 17.484 252.034 16.916 252.034 16.3C252.034 15.684 252.142 15.12 252.358 14.608C252.582 14.088 252.89 13.636 253.282 13.252C253.682 12.86 254.15 12.56 254.686 12.352C255.222 12.136 255.81 12.028 256.45 12.028C257.082 12.028 257.666 12.136 258.202 12.352C258.738 12.56 259.202 12.856 259.594 13.24C259.994 13.624 260.302 14.076 260.518 14.596C260.742 15.116 260.854 15.684 260.854 16.3C260.854 16.916 260.742 17.484 260.518 18.004C260.302 18.524 259.994 18.976 259.594 19.36C259.202 19.744 258.738 20.044 258.202 20.26C257.666 20.468 257.082 20.572 256.45 20.572ZM259.198 22.168C258.942 22.168 258.694 22.136 258.454 22.072C258.214 22.008 257.97 21.904 257.722 21.76C257.482 21.624 257.234 21.444 256.978 21.22C256.722 20.996 256.442 20.724 256.138 20.404L257.11 20.164C257.358 20.46 257.598 20.704 257.83 20.896C258.07 21.088 258.302 21.228 258.526 21.316C258.758 21.412 258.986 21.46 259.21 21.46C259.834 21.46 260.366 21.204 260.806 20.692L261.238 21.208C260.71 21.848 260.03 22.168 259.198 22.168ZM256.45 19.78C256.954 19.78 257.418 19.696 257.842 19.528C258.274 19.352 258.646 19.104 258.958 18.784C259.278 18.464 259.526 18.096 259.702 17.68C259.878 17.256 259.966 16.796 259.966 16.3C259.966 15.796 259.878 15.336 259.702 14.92C259.526 14.496 259.278 14.128 258.958 13.816C258.646 13.496 258.274 13.252 257.842 13.084C257.418 12.908 256.954 12.82 256.45 12.82C255.946 12.82 255.478 12.908 255.046 13.084C254.614 13.252 254.238 13.496 253.918 13.816C253.606 14.128 253.358 14.496 253.174 14.92C252.998 15.336 252.91 15.796 252.91 16.3C252.91 16.796 252.998 17.256 253.174 17.68C253.358 18.096 253.606 18.464 253.918 18.784C254.238 19.104 254.614 19.352 255.046 19.528C255.478 19.696 255.946 19.78 256.45 19.78ZM266.229 20.572C265.157 20.572 264.313 20.264 263.697 19.648C263.081 19.032 262.773 18.12 262.773 16.912V12.1H263.661V16.876C263.661 17.868 263.885 18.6 264.333 19.072C264.781 19.544 265.413 19.78 266.229 19.78C267.053 19.78 267.689 19.544 268.137 19.072C268.585 18.6 268.809 17.868 268.809 16.876V12.1H269.673V16.912C269.673 18.12 269.365 19.032 268.749 19.648C268.141 20.264 267.301 20.572 266.229 20.572ZM273.14 15.856H277.58V16.612H273.14V15.856ZM273.236 19.732H278.288V20.5H272.348V12.1H278.108V12.868H273.236V19.732ZM280.376 20.5V12.1H283.52C284.232 12.1 284.844 12.216 285.356 12.448C285.868 12.672 286.26 13 286.532 13.432C286.812 13.856 286.952 14.372 286.952 14.98C286.952 15.572 286.812 16.084 286.532 16.516C286.26 16.94 285.868 17.268 285.356 17.5C284.844 17.724 284.232 17.836 283.52 17.836H280.868L281.264 17.428V20.5H280.376ZM286.112 20.5L283.952 17.452H284.912L287.084 20.5H286.112ZM281.264 17.5L280.868 17.08H283.496C284.336 17.08 284.972 16.896 285.404 16.528C285.844 16.16 286.064 15.644 286.064 14.98C286.064 14.308 285.844 13.788 285.404 13.42C284.972 13.052 284.336 12.868 283.496 12.868H280.868L281.264 12.448V17.5ZM289.048 20.5V12.1H292.468C293.364 12.1 294.148 12.28 294.82 12.64C295.5 12.992 296.028 13.484 296.404 14.116C296.78 14.748 296.968 15.476 296.968 16.3C296.968 17.124 296.78 17.852 296.404 18.484C296.028 19.116 295.5 19.612 294.82 19.972C294.148 20.324 293.364 20.5 292.468 20.5H289.048ZM289.936 19.732H292.42C293.164 19.732 293.808 19.588 294.352 19.3C294.904 19.004 295.332 18.6 295.636 18.088C295.94 17.568 296.092 16.972 296.092 16.3C296.092 15.62 295.94 15.024 295.636 14.512C295.332 14 294.904 13.6 294.352 13.312C293.808 13.016 293.164 12.868 292.42 12.868H289.936V19.732ZM302.634 20.572C302.002 20.572 301.414 20.468 300.87 20.26C300.334 20.044 299.866 19.744 299.466 19.36C299.074 18.968 298.766 18.516 298.542 18.004C298.326 17.484 298.218 16.916 298.218 16.3C298.218 15.684 298.326 15.12 298.542 14.608C298.766 14.088 299.074 13.636 299.466 13.252C299.866 12.86 300.334 12.56 300.87 12.352C301.406 12.136 301.994 12.028 302.634 12.028C303.266 12.028 303.85 12.136 304.386 12.352C304.922 12.56 305.386 12.856 305.778 13.24C306.178 13.624 306.486 14.076 306.702 14.596C306.926 15.116 307.038 15.684 307.038 16.3C307.038 16.916 306.926 17.484 306.702 18.004C306.486 18.524 306.178 18.976 305.778 19.36C305.386 19.744 304.922 20.044 304.386 20.26C303.85 20.468 303.266 20.572 302.634 20.572ZM302.634 19.78C303.138 19.78 303.602 19.696 304.026 19.528C304.458 19.352 304.83 19.108 305.142 18.796C305.462 18.476 305.71 18.108 305.886 17.692C306.062 17.268 306.15 16.804 306.15 16.3C306.15 15.796 306.062 15.336 305.886 14.92C305.71 14.496 305.462 14.128 305.142 13.816C304.83 13.496 304.458 13.252 304.026 13.084C303.602 12.908 303.138 12.82 302.634 12.82C302.13 12.82 301.662 12.908 301.23 13.084C300.798 13.252 300.422 13.496 300.102 13.816C299.79 14.128 299.542 14.496 299.358 14.92C299.182 15.336 299.094 15.796 299.094 16.3C299.094 16.796 299.182 17.256 299.358 17.68C299.542 18.104 299.79 18.476 300.102 18.796C300.422 19.108 300.798 19.352 301.23 19.528C301.662 19.696 302.13 19.78 302.634 19.78ZM312.169 20.5V12.1H315.313C316.025 12.1 316.637 12.216 317.149 12.448C317.661 12.672 318.053 13 318.325 13.432C318.605 13.856 318.745 14.372 318.745 14.98C318.745 15.572 318.605 16.084 318.325 16.516C318.053 16.94 317.661 17.268 317.149 17.5C316.637 17.732 316.025 17.848 315.313 17.848H312.661L313.057 17.428V20.5H312.169ZM313.057 17.5L312.661 17.068H315.289C316.129 17.068 316.765 16.888 317.197 16.528C317.637 16.16 317.857 15.644 317.857 14.98C317.857 14.308 317.637 13.788 317.197 13.42C316.765 13.052 316.129 12.868 315.289 12.868H312.661L313.057 12.448V17.5ZM318.899 20.5L322.739 12.1H323.615L327.455 20.5H326.519L322.991 12.616H323.351L319.823 20.5H318.899ZM320.411 18.256L320.675 17.536H325.559L325.823 18.256H320.411ZM328.845 20.5V12.1H331.989C332.701 12.1 333.313 12.216 333.825 12.448C334.337 12.672 334.729 13 335.001 13.432C335.281 13.856 335.421 14.372 335.421 14.98C335.421 15.572 335.281 16.084 335.001 16.516C334.729 16.94 334.337 17.268 333.825 17.5C333.313 17.724 332.701 17.836 331.989 17.836H329.337L329.733 17.428V20.5H328.845ZM334.581 20.5L332.421 17.452H333.381L335.553 20.5H334.581ZM329.733 17.5L329.337 17.08H331.965C332.805 17.08 333.441 16.896 333.873 16.528C334.313 16.16 334.533 15.644 334.533 14.98C334.533 14.308 334.313 13.788 333.873 13.42C333.441 13.052 332.805 12.868 331.965 12.868H329.337L329.733 12.448V17.5ZM336.172 20.5L340.012 12.1H340.888L344.728 20.5H343.792L340.264 12.616H340.624L337.096 20.5H336.172ZM337.684 18.256L337.948 17.536H342.832L343.096 18.256H337.684Z" fill="white" fill-opacity="0.6"/>
<path d="M349.019 20.5V12.1H350.303L353.975 18.232H353.303L356.915 12.1H358.199L358.211 20.5H356.735L356.723 14.416H357.035L353.963 19.54H353.267L350.147 14.416H350.507V20.5H349.019ZM364.416 20.62C363.76 20.62 363.156 20.512 362.604 20.296C362.052 20.08 361.572 19.78 361.164 19.396C360.756 19.004 360.44 18.548 360.216 18.028C359.992 17.5 359.88 16.924 359.88 16.3C359.88 15.676 359.992 15.104 360.216 14.584C360.44 14.056 360.756 13.6 361.164 13.216C361.572 12.824 362.052 12.52 362.604 12.304C363.156 12.088 363.756 11.98 364.404 11.98C365.06 11.98 365.66 12.088 366.204 12.304C366.756 12.52 367.236 12.824 367.644 13.216C368.052 13.6 368.368 14.056 368.592 14.584C368.816 15.104 368.928 15.676 368.928 16.3C368.928 16.924 368.816 17.5 368.592 18.028C368.368 18.556 368.052 19.012 367.644 19.396C367.236 19.78 366.756 20.08 366.204 20.296C365.66 20.512 365.064 20.62 364.416 20.62ZM364.404 19.252C364.828 19.252 365.22 19.18 365.58 19.036C365.94 18.892 366.252 18.688 366.516 18.424C366.78 18.152 366.984 17.84 367.128 17.488C367.28 17.128 367.356 16.732 367.356 16.3C367.356 15.868 367.28 15.476 367.128 15.124C366.984 14.764 366.78 14.452 366.516 14.188C366.252 13.916 365.94 13.708 365.58 13.564C365.22 13.42 364.828 13.348 364.404 13.348C363.98 13.348 363.588 13.42 363.228 13.564C362.876 13.708 362.564 13.916 362.292 14.188C362.028 14.452 361.82 14.764 361.668 15.124C361.524 15.476 361.452 15.868 361.452 16.3C361.452 16.724 361.524 17.116 361.668 17.476C361.82 17.836 362.028 18.152 362.292 18.424C362.556 18.688 362.868 18.892 363.228 19.036C363.588 19.18 363.98 19.252 364.404 19.252ZM372.807 20.5L369.135 12.1H370.827L374.103 19.696H373.131L376.443 12.1H378.003L374.343 20.5H372.807ZM380.33 15.592H384.506V16.876H380.33V15.592ZM380.45 19.192H385.19V20.5H378.89V12.1H385.022V13.408H380.45V19.192ZM386.929 20.5V12.1H390.385C391.129 12.1 391.765 12.22 392.293 12.46C392.829 12.7 393.241 13.044 393.529 13.492C393.817 13.94 393.961 14.472 393.961 15.088C393.961 15.704 393.817 16.236 393.529 16.684C393.241 17.124 392.829 17.464 392.293 17.704C391.765 17.936 391.129 18.052 390.385 18.052H387.793L388.489 17.344V20.5H386.929ZM392.425 20.5L390.301 17.452H391.969L394.105 20.5H392.425ZM388.489 17.512L387.793 16.768H390.313C391.001 16.768 391.517 16.62 391.861 16.324C392.213 16.028 392.389 15.616 392.389 15.088C392.389 14.552 392.213 14.14 391.861 13.852C391.517 13.564 391.001 13.42 390.313 13.42H387.793L388.489 12.652V17.512Z" fill="white" fill-opacity="0.9"/>
<rect x="425" width="34" height="32" rx="2" fill="url(#paint2_linear_147_758)" fill-opacity="0.6"/>
<rect x="425.4" y="0.4" width="33.2" height="31.2" rx="1.6" stroke="white" stroke-opacity="0.15" stroke-width="0.8"/>
<path d="M435.875 22.125L448.125 9.875M448.125 22.125L435.875 9.875" stroke="white" stroke-opacity="0.6" stroke-linecap="round" stroke-linejoin="round"/>
<path d="M467.16 15.856H471.6V16.612H467.16V15.856ZM467.256 19.732H472.308V20.5H466.368V12.1H472.128V12.868H467.256V19.732ZM476.711 20.572C476.087 20.572 475.487 20.472 474.911 20.272C474.343 20.064 473.903 19.8 473.591 19.48L473.939 18.796C474.235 19.084 474.631 19.328 475.127 19.528C475.631 19.72 476.159 19.816 476.711 19.816C477.239 19.816 477.667 19.752 477.995 19.624C478.331 19.488 478.575 19.308 478.727 19.084C478.887 18.86 478.967 18.612 478.967 18.34C478.967 18.012 478.871 17.748 478.679 17.548C478.495 17.348 478.251 17.192 477.947 17.08C477.643 16.96 477.307 16.856 476.939 16.768C476.571 16.68 476.203 16.588 475.835 16.492C475.467 16.388 475.127 16.252 474.815 16.084C474.511 15.916 474.263 15.696 474.071 15.424C473.887 15.144 473.795 14.78 473.795 14.332C473.795 13.916 473.903 13.536 474.119 13.192C474.343 12.84 474.683 12.56 475.139 12.352C475.595 12.136 476.179 12.028 476.891 12.028C477.363 12.028 477.831 12.096 478.295 12.232C478.759 12.36 479.159 12.54 479.495 12.772L479.195 13.48C478.835 13.24 478.451 13.064 478.043 12.952C477.643 12.84 477.255 12.784 476.879 12.784C476.375 12.784 475.959 12.852 475.631 12.988C475.303 13.124 475.059 13.308 474.899 13.54C474.747 13.764 474.671 14.02 474.671 14.308C474.671 14.636 474.763 14.9 474.947 15.1C475.139 15.3 475.387 15.456 475.691 15.568C476.003 15.68 476.343 15.78 476.711 15.868C477.079 15.956 477.443 16.052 477.803 16.156C478.171 16.26 478.507 16.396 478.811 16.564C479.123 16.724 479.371 16.94 479.555 17.212C479.747 17.484 479.843 17.84 479.843 18.28C479.843 18.688 479.731 19.068 479.507 19.42C479.283 19.764 478.939 20.044 478.475 20.26C478.019 20.468 477.431 20.572 476.711 20.572ZM485.426 20.572C484.794 20.572 484.21 20.468 483.674 20.26C483.138 20.044 482.674 19.744 482.282 19.36C481.89 18.976 481.582 18.524 481.358 18.004C481.142 17.484 481.034 16.916 481.034 16.3C481.034 15.684 481.142 15.116 481.358 14.596C481.582 14.076 481.89 13.624 482.282 13.24C482.682 12.856 483.15 12.56 483.686 12.352C484.222 12.136 484.806 12.028 485.438 12.028C486.046 12.028 486.618 12.132 487.154 12.34C487.69 12.54 488.142 12.844 488.51 13.252L487.946 13.816C487.602 13.464 487.222 13.212 486.806 13.06C486.39 12.9 485.942 12.82 485.462 12.82C484.958 12.82 484.49 12.908 484.058 13.084C483.626 13.252 483.25 13.496 482.93 13.816C482.61 14.128 482.358 14.496 482.174 14.92C481.998 15.336 481.91 15.796 481.91 16.3C481.91 16.804 481.998 17.268 482.174 17.692C482.358 18.108 482.61 18.476 482.93 18.796C483.25 19.108 483.626 19.352 484.058 19.528C484.49 19.696 484.958 19.78 485.462 19.78C485.942 19.78 486.39 19.7 486.806 19.54C487.222 19.38 487.602 19.124 487.946 18.772L488.51 19.336C488.142 19.744 487.69 20.052 487.154 20.26C486.618 20.468 486.042 20.572 485.426 20.572Z" fill="white" fill-opacity="0.6"/>
<path d="M495.908 20.62C495.252 20.62 494.624 20.528 494.024 20.344C493.424 20.152 492.948 19.908 492.596 19.612L493.136 18.4C493.472 18.664 493.888 18.884 494.384 19.06C494.88 19.236 495.388 19.324 495.908 19.324C496.348 19.324 496.704 19.276 496.976 19.18C497.248 19.084 497.448 18.956 497.576 18.796C497.704 18.628 497.768 18.44 497.768 18.232C497.768 17.976 497.676 17.772 497.492 17.62C497.308 17.46 497.068 17.336 496.772 17.248C496.484 17.152 496.16 17.064 495.8 16.984C495.448 16.904 495.092 16.812 494.732 16.708C494.38 16.596 494.056 16.456 493.76 16.288C493.472 16.112 493.236 15.88 493.052 15.592C492.868 15.304 492.776 14.936 492.776 14.488C492.776 14.032 492.896 13.616 493.136 13.24C493.384 12.856 493.756 12.552 494.252 12.328C494.756 12.096 495.392 11.98 496.16 11.98C496.664 11.98 497.164 12.044 497.66 12.172C498.156 12.3 498.588 12.484 498.956 12.724L498.464 13.936C498.088 13.712 497.7 13.548 497.3 13.444C496.9 13.332 496.516 13.276 496.148 13.276C495.716 13.276 495.364 13.328 495.092 13.432C494.828 13.536 494.632 13.672 494.504 13.84C494.384 14.008 494.324 14.2 494.324 14.416C494.324 14.672 494.412 14.88 494.588 15.04C494.772 15.192 495.008 15.312 495.296 15.4C495.592 15.488 495.92 15.576 496.28 15.664C496.64 15.744 496.996 15.836 497.348 15.94C497.708 16.044 498.032 16.18 498.32 16.348C498.616 16.516 498.852 16.744 499.028 17.032C499.212 17.32 499.304 17.684 499.304 18.124C499.304 18.572 499.18 18.988 498.932 19.372C498.692 19.748 498.32 20.052 497.816 20.284C497.312 20.508 496.676 20.62 495.908 20.62ZM499.663 20.5L503.443 12.1H504.979L508.771 20.5H507.139L503.887 12.928H504.511L501.271 20.5H499.663ZM501.403 18.556L501.823 17.332H506.359L506.779 18.556H501.403ZM509.839 20.5V12.1H511.399V20.5H509.839ZM513.671 20.5V12.1H517.127C517.871 12.1 518.507 12.22 519.035 12.46C519.571 12.7 519.983 13.044 520.271 13.492C520.559 13.94 520.703 14.472 520.703 15.088C520.703 15.704 520.559 16.236 520.271 16.684C519.983 17.124 519.571 17.464 519.035 17.704C518.507 17.936 517.871 18.052 517.127 18.052H514.535L515.231 17.344V20.5H513.671ZM519.167 20.5L517.043 17.452H518.711L520.847 20.5H519.167ZM515.231 17.512L514.535 16.768H517.055C517.743 16.768 518.259 16.62 518.603 16.324C518.955 16.028 519.131 15.616 519.131 15.088C519.131 14.552 518.955 14.14 518.603 13.852C518.259 13.564 517.743 13.42 517.055 13.42H514.535L515.231 12.652V17.512Z" fill="white" fill-opacity="0.9"/>
<defs>
<linearGradient id="paint0_linear_147_758" x1="0" y1="16" x2="34" y2="16" gradientUnits="userSpaceOnUse">
<stop/>
<stop offset="1" stop-opacity="0.85"/>
</linearGradient>
<linearGradient id="paint1_linear_147_758" x1="196" y1="16" x2="230" y2="16" gradientUnits="userSpaceOnUse">
<stop/>
<stop offset="1" stop-opacity="0.85"/>
</linearGradient>
<linearGradient id="paint2_linear_147_758" x1="425" y1="16" x2="459" y2="16" gradientUnits="userSpaceOnUse">
<stop/>
<stop offset="1" stop-opacity="0.85"/>
</linearGradient>
</defs>
</svg>
