<svg width="66" height="66" viewBox="0 0 66 66" fill="none" xmlns="http://www.w3.org/2000/svg">
<path d="M53.625 20.625H45.375V14.4375C45.375 11.1554 44.0712 8.00782 41.7504 5.68705C39.4297 3.36629 36.2821 2.0625 33 2.0625C29.7179 2.0625 26.5703 3.36629 24.2496 5.68705C21.9288 8.00782 20.625 11.1554 20.625 14.4375V20.625H12.375C11.281 20.625 10.2318 21.0596 9.45818 21.8332C8.6846 22.6068 8.25 23.656 8.25 24.75V53.625C8.25 54.719 8.6846 55.7682 9.45818 56.5418C10.2318 57.3154 11.281 57.75 12.375 57.75H53.625C54.719 57.75 55.7682 57.3154 56.5418 56.5418C57.3154 55.7682 57.75 54.719 57.75 53.625V24.75C57.75 23.656 57.3154 22.6068 56.5418 21.8332C55.7682 21.0596 54.719 20.625 53.625 20.625ZM24.75 14.4375C24.75 12.2495 25.6192 10.151 27.1664 8.60387C28.7135 7.05669 30.812 6.1875 33 6.1875C35.188 6.1875 37.2865 7.05669 38.8336 8.60387C40.3808 10.151 41.25 12.2495 41.25 14.4375V20.625H24.75V14.4375Z" fill="#8544E6"/>
</svg>
