<svg width="330" height="211" viewBox="0 0 330 211" fill="none" xmlns="http://www.w3.org/2000/svg">
<rect x="0.700012" y="0.5" width="328.2" height="210" rx="1.5" fill="#0F0509"/>
<rect x="0.700012" y="0.5" width="328.2" height="210" rx="1.5" fill="url(#paint0_radial_587_777)"/>
<rect x="0.700012" y="0.5" width="328.2" height="210" rx="1.5" stroke="#4F0F25"/>
<path d="M52.7278 13H18.2064C15.4425 13 13.2029 15.2425 13.2064 18.0064L13.4309 193.006C13.4344 195.765 15.672 198 18.4309 198H40.8543C41.7905 198 42.6431 197.461 43.0445 196.615C43.9209 194.768 46.5487 194.768 47.4251 196.615C47.8265 197.461 48.6791 198 49.6153 198H100.053C100.518 198 100.975 197.881 101.381 197.655L105.941 195.111C106.84 194.61 107.853 195.558 107.411 196.489C107.078 197.191 107.59 198 108.367 198H151.543C152.557 198 153.481 197.416 153.916 196.5C154.865 194.499 157.712 194.499 158.662 196.5C159.096 197.416 160.02 198 161.034 198H177.533C178.211 198 178.859 197.722 179.326 197.23L179.571 196.971C180.126 196.386 180.265 195.519 179.919 194.79C179.304 193.494 180.249 192 181.683 192H182.628H183.342C184.915 192 186.077 193.469 185.713 195C185.35 196.531 186.511 198 188.085 198H311.7C314.461 198 316.7 195.761 316.7 193V20.6263C316.7 19.8847 316.535 19.1524 316.217 18.4825L314.971 15.8562C314.143 14.1118 312.385 13 310.454 13H235.545H176.459H143.814C142.969 13 142.138 13.2141 141.398 13.6224L135.902 16.6556C134.09 17.6554 131.81 16.9209 130.923 15.0513C130.328 13.7985 129.065 13 127.678 13H94.8655C93.5391 13 92.3313 13.7637 91.7626 14.962C90.5211 17.578 86.7984 17.578 85.5569 14.962C84.9882 13.7637 83.7804 13 82.454 13H58.3029C57.7129 13 57.1756 13.3397 56.9227 13.8727L56.4642 14.8387C55.8758 16.0785 54.0147 15.6593 54.0147 14.2869C54.0147 13.5762 53.4385 13 52.7278 13Z" stroke="url(#paint1_linear_587_777)" stroke-width="2"/>
<defs>
<radialGradient id="paint0_radial_587_777" cx="0" cy="0" r="1" gradientUnits="userSpaceOnUse" gradientTransform="translate(48.4662 -105) rotate(77.2618) scale(419.833 238.961)">
<stop stop-color="#A6013A"/>
<stop offset="1" stop-color="#0F0509" stop-opacity="0"/>
</radialGradient>
<linearGradient id="paint1_linear_587_777" x1="13.2" y1="98.5" x2="320.259" y2="98.5" gradientUnits="userSpaceOnUse">
<stop stop-color="#A6013A"/>
<stop offset="0.135" stop-color="#A6013A" stop-opacity="0.44"/>
<stop offset="0.25" stop-color="#A6013A"/>
<stop offset="0.32" stop-color="#A6013A" stop-opacity="0.37"/>
<stop offset="0.46" stop-color="#A6013A"/>
<stop offset="0.62" stop-color="#A6013A" stop-opacity="0.52"/>
<stop offset="0.77" stop-color="#A6013A"/>
<stop offset="0.88" stop-color="#A6013A" stop-opacity="0.62"/>
<stop offset="1" stop-color="#A6013A"/>
</linearGradient>
</defs>
</svg>
