<svg width="74" height="74" viewBox="0 0 74 74" fill="none"
  xmlns="http://www.w3.org/2000/svg">
  <path d="M57.9921 21.926C57.701 21.6326 57.3548 21.3997 56.9732 21.2408C56.5917 21.0818 56.1825 21 55.7692 21C55.3559 21 54.9467 21.0818 54.5652 21.2408C54.1837 21.3997 53.8374 21.6326 53.5463 21.926L30.2218 45.2805L20.4223 35.4503C20.1201 35.1584 19.7634 34.9289 19.3725 34.7749C18.9816 34.6208 18.5642 34.5453 18.1441 34.5526C17.724 34.5598 17.3095 34.6498 16.9241 34.8172C16.5388 34.9847 16.1902 35.2264 15.8983 35.5286C15.6064 35.8308 15.3769 36.1875 15.2228 36.5784C15.0688 36.9692 14.9932 37.3866 15.0005 37.8067C15.0077 38.2268 15.0977 38.6413 15.2652 39.0266C15.4326 39.4119 15.6744 39.7605 15.9766 40.0524L27.9989 52.074C28.2899 52.3674 28.6362 52.6003 29.0177 52.7592C29.3993 52.9182 29.8085 53 30.2218 53C30.6351 53 31.0443 52.9182 31.4258 52.7592C31.8073 52.6003 32.1536 52.3674 32.4447 52.074L57.9921 26.5281C58.3099 26.2349 58.5635 25.8791 58.737 25.4831C58.9104 25.087 59 24.6594 59 24.227C59 23.7947 58.9104 23.367 58.737 22.971C58.5635 22.575 58.3099 22.2192 57.9921 21.926Z" fill="#F0BA2E"/>
</svg>
