<svg width="74" height="74" viewBox="0 0 74 74" fill="none"
  xmlns="http://www.w3.org/2000/svg">
  <path d="M58.5833 33.9167H15.4167C12.0109 33.9167 9.25 36.6776 9.25 40.0833V61.6667C9.25 65.0724 12.0109 67.8333 15.4167 67.8333H58.5833C61.9891 67.8333 64.75 65.0724 64.75 61.6667V40.0833C64.75 36.6776 61.9891 33.9167 58.5833 33.9167Z" stroke="#F0BA2E" stroke-width="5" stroke-linecap="round" stroke-linejoin="round"/>
  <path d="M21.5833 33.9167V21.5833C21.5833 17.4946 23.2076 13.5733 26.0988 10.6821C28.9899 7.79091 32.9112 6.16666 37 6.16666C41.0887 6.16666 45.01 7.79091 47.9012 10.6821C50.7924 13.5733 52.4166 17.4946 52.4166 21.5833V33.9167" stroke="#F0BA2E" stroke-width="5" stroke-linecap="round" stroke-linejoin="round"/>
</svg>
