<svg width="21" height="20" viewBox="0 0 21 20" fill="none" xmlns="http://www.w3.org/2000/svg">
<path d="M13.625 15.9417C12.9333 15.9417 12.375 15.2417 12.375 14.375C12.375 13.5167 12.9333 12.8167 13.625 12.8167C14.3167 12.8167 14.875 13.5167 14.875 14.375C14.875 15.2417 14.3167 15.9417 13.625 15.9417ZM10.5 9.375C9.46668 9.375 8.62501 8.675 8.62501 7.81667C8.62501 6.95 9.46668 6.25 10.5 6.25C11.5333 6.25 12.375 6.95 12.375 7.81667C12.375 8.675 11.5333 9.375 10.5 9.375ZM7.37501 15.9417C6.68334 15.9417 6.12501 15.2417 6.12501 14.375C6.12501 13.5167 6.68334 12.8167 7.37501 12.8167C8.06668 12.8167 8.62501 13.5167 8.62501 14.375C8.62501 15.2417 8.06668 15.9417 7.37501 15.9417ZM10.5 6.875C10.8417 6.875 11.125 7.15833 11.125 7.5C11.125 7.84167 10.8417 8.125 10.5 8.125C10.1583 8.125 9.87501 7.84167 9.87501 7.5C9.87501 7.15833 10.1583 6.875 10.5 6.875ZM16.125 10C15.8583 10 15.6 10.0583 15.3667 10.1667C14.9667 9.65833 14.425 9.225 13.775 8.89167C14.25 8.225 14.5333 7.41667 14.5333 6.54167V6.49167C15.4417 6.3 16.125 5.49167 16.125 4.51667C16.125 3.40833 15.2167 2.5 14.1083 2.5C13.5333 2.5 13 2.74167 12.65 3.125C12.0072 2.71682 11.2615 2.50006 10.5 2.50006C9.73855 2.50006 8.99283 2.71682 8.35001 3.125C8.00001 2.74167 7.46668 2.5 6.89168 2.5C5.78334 2.5 4.87501 3.40833 4.87501 4.51667C4.87501 5.48333 5.55834 6.29167 6.45834 6.49167V6.54167C6.45834 7.41667 6.75001 8.23333 7.21668 8.89167C6.57501 9.225 6.03334 9.65833 5.63334 10.1667C5.34856 10.0384 5.03615 9.98361 4.72471 10.0074C4.41328 10.0311 4.11278 10.1326 3.85075 10.3026C3.58872 10.4726 3.37353 10.7056 3.2249 10.9803C3.07627 11.255 2.99894 11.5627 3.00001 11.875C3.00001 12.9167 3.83334 13.75 4.87501 13.75H4.92501C4.89168 13.95 4.87501 14.1667 4.87501 14.375C4.87501 16.1 5.99168 17.5 7.37501 17.5C8.21668 17.5 8.95834 16.975 9.41668 16.175C9.76668 16.225 10.125 16.25 10.5 16.25C10.875 16.25 11.2333 16.225 11.5833 16.175C12.0417 16.975 12.7833 17.5 13.625 17.5C15.0083 17.5 16.125 16.1 16.125 14.375C16.125 14.1667 16.1083 13.95 16.075 13.75H16.125C17.1667 13.75 18 12.9167 18 11.875C18 10.8333 17.1667 10 16.125 10Z" fill="white"/>
</svg>
