<svg width="21" height="20" viewBox="0 0 21 20" fill="none" xmlns="http://www.w3.org/2000/svg">
<path d="M15.2167 9.33333C15.025 9.08333 14.7917 8.86667 14.575 8.65C14.0167 8.15 13.3834 7.79167 12.85 7.26667C11.6084 6.05 11.3334 4.04167 12.125 2.5C11.3334 2.69167 10.6417 3.125 10.05 3.6C7.89171 5.33333 7.04171 8.39167 8.05837 11.0167C8.09171 11.1 8.12504 11.1833 8.12504 11.2917C8.12504 11.475 8.00004 11.6417 7.83337 11.7083C7.64171 11.7917 7.44171 11.7417 7.28337 11.6083C7.2358 11.569 7.19619 11.5209 7.16671 11.4667C6.22504 10.275 6.07504 8.56667 6.70837 7.2C5.31671 8.33333 4.55837 10.25 4.66671 12.0583C4.71671 12.475 4.76671 12.8917 4.90837 13.3083C5.02504 13.8083 5.25004 14.3083 5.50004 14.75C6.40004 16.1917 7.95837 17.225 9.63337 17.4333C11.4167 17.6583 13.325 17.3333 14.6917 16.1C16.2167 14.7167 16.75 12.5 15.9667 10.6L15.8584 10.3833C15.6834 10 15.2167 9.33333 15.2167 9.33333ZM12.5834 14.5833C12.35 14.7833 11.9667 15 11.6667 15.0833C10.7334 15.4167 9.80004 14.95 9.25004 14.4C10.2417 14.1667 10.8334 13.4333 11.0084 12.6917C11.15 12.025 10.8834 11.475 10.775 10.8333C10.675 10.2167 10.6917 9.69167 10.9167 9.11667C11.075 9.43333 11.2417 9.75 11.4417 10C12.0834 10.8333 13.0917 11.2 13.3084 12.3333C13.3417 12.45 13.3584 12.5667 13.3584 12.6917C13.3834 13.375 13.0834 14.125 12.5834 14.5833Z" fill="white"/>
</svg>
