<svg width="21" height="20" viewBox="0 0 21 20" fill="none" xmlns="http://www.w3.org/2000/svg">
<path d="M10.5001 18C11.6001 18 12.5001 17.1 12.5001 16H8.5001C8.5001 17.1 9.4001 18 10.5001 18ZM14.5001 9.8V7.5C14.5001 5.7 13.3001 4.1 11.5001 3.6C11.6001 3.4 11.6001 3.2 11.7001 3.1C11.6001 2.5 11.1001 2 10.5001 2C9.9001 2 9.4001 2.5 9.4001 3.1C9.4001 3.3 9.5001 3.5 9.6001 3.6C7.8001 4 6.6001 5.6 6.6001 7.5V9.7C6.5001 10.9 5.7001 12 4.6001 12.5V15H16.6001V12.5C15.4001 12.1 14.6001 11 14.5001 9.8Z" fill="white"/>
</svg>
