<svg width="22" height="22" viewBox="0 0 22 22" fill="none" xmlns="http://www.w3.org/2000/svg">
<path d="M20.625 8.07813C20.625 14.0938 11.7055 18.963 11.3257 19.1641C11.2256 19.2179 11.1137 19.2461 11 19.2461C10.8863 19.2461 10.7744 19.2179 10.6743 19.1641C10.2945 18.963 1.375 14.0938 1.375 8.07813C1.37659 6.66551 1.93846 5.3112 2.93733 4.31233C3.9362 3.31346 5.29051 2.75159 6.70312 2.75C8.47773 2.75 10.0315 3.51313 11 4.80305C11.9685 3.51313 13.5223 2.75 15.2969 2.75C16.7095 2.75159 18.0638 3.31346 19.0627 4.31233C20.0615 5.3112 20.6234 6.66551 20.625 8.07813Z" fill="white" fill-opacity="0.85"/>
<path d="M11.3074 19.1295L11.3072 19.1297C11.2128 19.1805 11.1072 19.207 11 19.207C10.8928 19.207 10.7872 19.1805 10.6928 19.1297L10.6926 19.1295C10.504 19.0297 8.18209 17.7638 5.90794 15.7722C3.63174 13.7788 1.41406 11.0677 1.41406 8.07813H1.375L1.41406 8.07817C1.41564 6.6759 1.97339 5.33151 2.96495 4.33995C3.9565 3.3484 5.30088 2.79065 6.70315 2.78906C8.46633 2.78907 10.0081 3.54709 10.9688 4.8265L11 4.8681L11.0312 4.8265C11.9919 3.54708 13.5337 2.78906 15.2969 2.78906V2.75L15.2968 2.78906C16.6991 2.79064 18.0435 3.34839 19.035 4.33995C20.0266 5.33151 20.5844 6.6759 20.5859 8.07817C20.5859 11.0677 18.3682 13.7788 16.0921 15.7722C13.8179 17.7638 11.496 19.0297 11.3074 19.1295Z" stroke="white" stroke-opacity="0.15" stroke-width="0.078125"/>
</svg>
