<svg width="21" height="20" viewBox="0 0 21 20" fill="none" xmlns="http://www.w3.org/2000/svg">
<path d="M18.1417 12.8331L13.2167 4.6248C12.5667 3.54147 11.5834 2.9248 10.5 2.9248C9.41668 2.9248 8.43335 3.54147 7.78335 4.61647L2.85835 12.8331C2.49168 13.4415 2.30835 14.0748 2.30835 14.6748C2.30835 15.1498 2.42502 15.6165 2.65835 16.0248C3.19168 16.9581 4.22502 17.4998 5.50002 17.4998H15.5C16.775 17.4998 17.8084 16.9581 18.3417 16.0248C18.575 15.6165 18.6917 15.1748 18.6917 14.7081C18.7 14.0915 18.5167 13.4498 18.1417 12.8331ZM10.5 7.04147C11.2084 7.04147 11.7917 7.6248 11.7917 8.33314C11.7917 9.04147 11.2167 9.6248 10.5 9.6248C9.79168 9.6248 9.20835 9.04147 9.20835 8.33314C9.20835 7.61647 9.78335 7.04147 10.5 7.04147ZM11.9083 14.0915C11.8833 14.1248 11.2417 14.8581 10.1833 14.8581H10.0584C9.63335 14.8331 9.28335 14.6498 9.07502 14.3331C8.81668 13.9415 8.77502 13.4081 8.97502 12.8165L9.31668 11.7998C9.50835 11.2331 9.32502 11.1415 9.22502 11.0915L9.10835 11.0748C8.90002 11.0748 8.60835 11.1998 8.51668 11.2498C8.43335 11.2915 8.32502 11.2748 8.25835 11.1915C8.20002 11.1081 8.20002 10.9998 8.26668 10.9248C8.29168 10.8915 8.99168 10.0998 10.1167 10.1665C10.5417 10.1915 10.8917 10.3748 11.1 10.6915C11.3667 11.0831 11.4 11.6165 11.2 12.2165L10.8583 13.2331C10.6667 13.7998 10.85 13.8915 10.95 13.9415L11.0667 13.9581C11.275 13.9581 11.5667 13.8331 11.6583 13.7915C11.75 13.7415 11.85 13.7665 11.9167 13.8498C11.975 13.9081 11.975 14.0165 11.9083 14.0915Z" fill="white"/>
</svg>
