<svg width="21" height="20" viewBox="0 0 21 20" fill="none" xmlns="http://www.w3.org/2000/svg">
<path fill-rule="evenodd" clip-rule="evenodd" d="M14.1791 9.78437C14.7929 9.78457 15.3979 9.63969 15.945 9.36155C16.492 9.0834 16.9655 8.67988 17.3268 8.18392C17.6881 7.68795 17.927 7.1136 18.0239 6.50774C18.1209 5.90189 18.0732 5.28169 17.8847 4.69778C17.7939 4.41759 17.4436 4.35965 17.2351 4.56806L14.9057 6.89603C14.8521 6.95233 14.7829 6.99143 14.707 7.00836C14.631 7.0253 14.5518 7.01931 14.4793 6.99116C13.8471 6.72754 13.3442 6.22544 13.0798 5.59368C13.0515 5.52106 13.0455 5.44169 13.0624 5.36564C13.0794 5.28959 13.1185 5.22027 13.1749 5.16649L15.5052 2.83852C15.7128 2.63011 15.6557 2.27901 15.3754 2.18821C14.7711 1.99315 14.1282 1.94888 13.5028 2.05927C12.8774 2.16967 12.2885 2.43136 11.7875 2.82153C11.2865 3.21171 10.8886 3.71851 10.6286 4.29772C10.3685 4.87694 10.2541 5.51098 10.2954 6.14454C10.343 6.89949 10.1847 7.70805 9.60339 8.19233L3.34957 13.4017C3.09857 13.6114 2.89401 13.8711 2.7489 14.1642C2.6038 14.4573 2.52132 14.7774 2.50674 15.1041C2.49215 15.4309 2.54577 15.757 2.66418 16.0619C2.7826 16.3667 2.96321 16.6436 3.19451 16.8749C3.42582 17.1061 3.70276 17.2867 4.00769 17.4051C4.31262 17.5235 4.63887 17.5771 4.96567 17.5625C5.29246 17.5479 5.61263 17.4654 5.90581 17.3204C6.19898 17.1753 6.45872 16.9708 6.6685 16.7199L11.8792 10.4675C12.3635 9.88642 13.1723 9.72816 13.9274 9.77573C14.0105 9.78178 14.0944 9.78437 14.1791 9.78437ZM5.96181 14.973C5.96181 15.2024 5.87068 15.4223 5.70847 15.5845C5.54625 15.7467 5.32624 15.8378 5.09683 15.8378C4.86742 15.8378 4.64741 15.7467 4.4852 15.5845C4.32298 15.4223 4.23185 15.2024 4.23185 14.973C4.23185 14.7437 4.32298 14.5237 4.4852 14.3615C4.64741 14.1993 4.86742 14.1082 5.09683 14.1082C5.32624 14.1082 5.54625 14.1993 5.70847 14.3615C5.87068 14.5237 5.96181 14.7437 5.96181 14.973Z" fill="white"/>
<path d="M14.1791 11.0816C14.3288 11.0816 14.4776 11.0756 14.6237 11.0626L17.8709 14.3089C18.2765 14.7144 18.5043 15.2644 18.5043 15.8379C18.5043 16.4113 18.2765 16.9613 17.8709 17.3668C17.4653 17.7723 16.9152 18.0001 16.3416 18.0001C15.768 18.0001 15.2179 17.7723 14.8123 17.3668L10.9977 13.5531L12.8765 11.2987C12.9214 11.245 13.0036 11.1793 13.1723 11.1292C13.3913 11.0714 13.6187 11.0518 13.8444 11.0712C13.9551 11.0781 14.0667 11.0816 14.1791 11.0816ZM6.82678 5.10257L8.84219 7.11749C8.8227 7.1464 8.79943 7.17257 8.77299 7.19532L7.51877 8.23996L5.6037 6.32536H4.49911C4.41886 6.32535 4.34019 6.30303 4.27191 6.26087C4.20363 6.21872 4.14842 6.15841 4.11247 6.08668L2.642 3.14472C2.60136 3.06362 2.58727 2.97181 2.6017 2.88226C2.61614 2.79271 2.65838 2.70997 2.72244 2.64575L3.14628 2.22201C3.21042 2.15782 3.29313 2.11543 3.38271 2.10084C3.47228 2.08625 3.56417 2.1002 3.64538 2.14072L6.58805 3.61083C6.66006 3.64691 6.72056 3.70237 6.76274 3.77097C6.80492 3.83958 6.8271 3.91859 6.82678 3.99912V5.10257Z" fill="white"/>
</svg>
