<svg width="62" height="64" viewBox="0 0 62 64" fill="none" xmlns="http://www.w3.org/2000/svg">
<g filter="url(#filter0_d_160_82)">
<path d="M32.9513 49.9096C31.7387 50.5872 30.2613 50.5872 29.0487 49.9096L16.0487 42.6448C14.7837 41.9379 14 40.6021 14 39.1531L14 24.8464C14 23.3973 14.7838 22.0615 16.0488 21.3546L29.0488 14.0903C30.2614 13.4127 31.7386 13.4127 32.9512 14.0903L45.9512 21.3546C47.2162 22.0615 48 23.3973 48 24.8464L48 39.153C48 40.6021 47.2163 41.9379 45.9513 42.6448L32.9513 49.9096Z" fill="url(#paint0_linear_160_82)"/>
<path d="M32.7074 49.4731C31.6463 50.066 30.3537 50.066 29.2926 49.4731L16.2926 42.2083C15.1858 41.5898 14.5 40.421 14.5 39.1531L14.5 24.8464C14.5 23.5784 15.1858 22.4096 16.2927 21.7911L29.2927 14.5268C30.3537 13.9339 31.6463 13.9339 32.7073 14.5268L45.7073 21.7911C46.8142 22.4096 47.5 23.5784 47.5 24.8464L47.5 39.153C47.5 40.421 46.8142 41.5898 45.7074 42.2083L32.7074 49.4731Z" stroke="#000"/>
</g>
<defs>
<filter id="filter0_d_160_82" x="0.5" y="0.0821533" width="61" height="63.8356" filterUnits="userSpaceOnUse" color-interpolation-filters="sRGB">
<feFlood flood-opacity="0" result="BackgroundImageFix"/>
<feColorMatrix in="SourceAlpha" type="matrix" values="0 0 0 0 0 0 0 0 0 0 0 0 0 0 0 0 0 0 127 0" result="hardAlpha"/>
<feOffset/>
<feGaussianBlur stdDeviation="6.75"/>
<feComposite in2="hardAlpha" operator="out"/>
<feColorMatrix type="matrix" values="0 0 0 0 0.701961 0 0 0 0 0.0588235 0 0 0 0 0.137255 0 0 0 0.35 0"/>
<feBlend mode="normal" in2="BackgroundImageFix" result="effect1_dropShadow_160_82"/>
<feBlend mode="normal" in="SourceGraphic" in2="effect1_dropShadow_160_82" result="shape"/>
</filter>
<linearGradient id="paint0_linear_160_82" x1="31" y1="13" x2="31" y2="51" gradientUnits="userSpaceOnUse">
<stop stop-color="#b"/>
<stop offset="1" stop-color="#000"/>
</linearGradient>
</defs>
</svg>
