<svg width="20" height="20" viewBox="0 0 20 20" fill="none" xmlns="http://www.w3.org/2000/svg">
<path d="M18 6.57227C16.6566 6.49838 15.3237 6.84743 14.1891 7.57029C13.9148 7.25793 13.6328 6.94557 13.3355 6.64845L13.1145 6.44275L13.2212 6.35133C13.5939 6.03151 13.8595 5.60511 13.9822 5.12966C14.1048 4.65421 14.0786 4.15259 13.9071 3.69248C13.6594 3.17304 13.266 2.73669 12.7749 2.43645C12.2837 2.13621 11.7159 1.98499 11.1405 2.00118V3.52487C11.4116 3.5211 11.6789 3.58971 11.9147 3.72363C12.1505 3.85756 12.3463 4.05194 12.4819 4.28672C12.6114 4.59146 12.4819 4.92667 12.1237 5.28474L11.9484 5.44473C11.1534 4.78257 10.2806 4.21974 9.34935 3.76866C7.42105 2.90016 6.43023 3.30394 5.94244 3.76866C5.7938 3.9176 5.67483 4.0934 5.59184 4.28672L5.45465 4.6905L4.35712 7.99693C5.22599 10.1606 7.32959 14.0079 11.9026 15.6687L15.7135 14.4041C15.842 14.3563 15.9552 14.2747 16.0412 14.1679L16.2013 14.0308C17.2912 12.9337 16.59 10.8234 15.1266 8.77401C15.9955 8.26712 16.996 8.03102 18 8.09597V6.57227ZM15.1114 12.9489H15.0656C14.5397 13.2308 12.3599 12.5147 9.89049 10.0463C9.63135 9.78727 9.38745 9.53586 9.16642 9.28445C9.09021 9.20065 9.02161 9.10922 8.94539 9.0178L8.54144 8.53022L8.32804 8.2331C8.22133 8.08835 8.11463 7.9436 8.02317 7.80646C7.93171 7.66933 7.90122 7.60838 7.84025 7.50934C7.77927 7.4103 7.67257 7.25031 7.60397 7.1208C7.53538 6.99128 7.50489 6.93796 7.45916 6.83891C7.41343 6.73987 7.32959 6.6256 7.28386 6.51894C7.23813 6.41228 7.21526 6.34371 7.17716 6.25991C7.13905 6.17611 7.09332 6.05421 7.06283 5.95517C7.03234 5.85613 7.02472 5.81042 7.00948 5.73423C6.99423 5.65805 6.96375 5.55139 6.9485 5.47521C6.94484 5.41431 6.94484 5.35326 6.9485 5.29236C6.94101 5.22655 6.94101 5.1601 6.9485 5.09428L7.03234 4.85811C7.16191 4.72098 7.72592 4.68288 8.73199 5.13999C9.40434 5.46285 10.0405 5.85614 10.6298 6.31324C10.3085 6.45497 9.966 6.54249 9.61611 6.57227V8.09597C10.4258 8.05004 11.2115 7.80398 11.9026 7.37983L12.2761 7.73028C12.6114 8.05787 12.9087 8.38547 13.1831 8.69783C12.7235 9.48111 12.541 10.3962 12.6648 11.2957L14.1891 10.9986C14.1376 10.7114 14.1376 10.4173 14.1891 10.1301C15.1723 11.6309 15.3553 12.7128 15.1114 12.9489ZM3.8236 9.61966L2.12395 14.7241C2.00128 15.0988 1.96907 15.4973 2.02996 15.8868C2.09085 16.2764 2.2431 16.6461 2.47428 16.9656C2.70546 17.2851 3.009 17.5454 3.36008 17.7251C3.71117 17.9049 4.09984 17.9991 4.49431 18C4.75363 17.9975 5.0109 17.9538 5.25648 17.8705L10.2258 16.2173C7.42115 14.7855 5.16985 12.4655 3.8236 9.61966Z" fill="black"/>
</svg>
