<svg width="20" height="20" viewBox="0 0 20 20" fill="none" xmlns="http://www.w3.org/2000/svg">
<path d="M18.3334 3.33317L16.6667 1.6665C15.7084 2.19984 14.5001 2.49984 13.3334 2.49984C12.1667 2.49984 10.9501 2.1915 10.0001 1.6665C9.05008 2.1915 7.83342 2.49984 6.66675 2.49984C5.50008 2.49984 4.29175 2.19984 3.33341 1.6665L1.66675 3.33317C1.66675 3.33317 3.33341 4.99984 3.33341 6.6665C3.33341 8.33317 1.66675 11.6665 1.66675 13.3332C1.66675 16.6665 10.0001 18.3332 10.0001 18.3332C10.0001 18.3332 18.3334 16.6665 18.3334 13.3332C18.3334 11.6665 16.6667 8.33317 16.6667 6.6665C16.6667 4.99984 18.3334 3.33317 18.3334 3.33317ZM12.5417 13.7082L9.97508 12.1582L7.41675 13.7082L8.10008 10.7915L5.83342 8.8415L8.81675 8.58317L9.97508 5.83317L11.1417 8.57484L14.1251 8.83317L11.8584 10.7832L12.5417 13.7082Z" fill="white"/>
</svg>
