<svg width="8" height="17" viewBox="0 0 8 17" fill="none" xmlns="http://www.w3.org/2000/svg">
<g clip-path="url(#clip0_34_174)">
<path d="M0 10.9309C0 9.27651 0 7.62156 0 5.96719C0 5.23931 0.428064 4.86929 1.27067 4.86871C3.09383 4.86871 4.91699 4.86871 6.73948 4.86871C7.56585 4.86871 7.99932 5.24221 7.99932 5.95503C7.99932 9.27882 7.99932 12.6026 7.99932 15.9258C7.99932 16.6242 7.56382 16.9994 6.75368 17C4.91361 17 3.07354 17 1.23415 17C0.440913 17 0.000676247 16.6207 0 15.938C0 14.2691 0 12.5997 0 10.9309ZM1.50194 9.34715H6.50414V6.35168H1.50194V9.34715ZM1.96112 11.1509C2.07067 11.1509 2.18766 11.1712 2.28707 11.1445C2.36348 11.1237 2.45613 11.049 2.46965 10.9865C2.4798 10.9384 2.38309 10.8278 2.32561 10.8232C2.08419 10.8041 1.83804 10.8035 1.59594 10.8226C1.53779 10.8272 1.43905 10.939 1.44987 10.987C1.4634 11.0496 1.5574 11.1237 1.63516 11.1451C1.73457 11.1723 1.85156 11.1515 1.96112 11.1515V11.1509ZM6.02739 11.1527C6.13694 11.1527 6.25325 11.1723 6.35334 11.1463C6.43246 11.126 6.49265 11.0496 6.56095 10.998C6.49535 10.9355 6.43719 10.8266 6.36348 10.8185C6.14844 10.7942 5.92527 10.7971 5.70955 10.8185C5.63922 10.8255 5.52155 10.9344 5.53237 10.9772C5.54928 11.0444 5.64531 11.1196 5.72781 11.1469C5.81572 11.1758 5.92663 11.1532 6.02806 11.1532L6.02739 11.1527ZM1.9273 13.2674C1.9273 13.2674 1.9273 13.2674 1.9273 13.268C2.04497 13.268 2.1721 13.2911 2.27828 13.2604C2.35943 13.2373 2.45004 13.1527 2.46762 13.0832C2.47777 13.0433 2.35537 12.9385 2.28369 12.9315C2.06729 12.9113 1.8448 12.9107 1.6284 12.9315C1.55875 12.9385 1.4519 13.0369 1.4519 13.0931C1.4519 13.151 1.55063 13.2344 1.62705 13.2599C1.71496 13.2888 1.82654 13.2668 1.9273 13.2668V13.2674ZM6.05173 12.924C5.94218 12.924 5.82316 12.9014 5.72578 12.9309C5.64328 12.9558 5.54928 13.0352 5.5317 13.1035C5.52088 13.1452 5.6399 13.2535 5.71023 13.2604C5.92663 13.2819 6.14911 13.2819 6.36551 13.2604C6.43652 13.2535 6.55689 13.1452 6.54607 13.1035C6.52849 13.0346 6.43381 12.9587 6.35131 12.9304C6.26407 12.9008 6.15182 12.924 6.05106 12.9234L6.05173 12.924ZM1.96112 15.0405C1.85156 15.0405 1.73457 15.0202 1.63584 15.0468C1.55807 15.0683 1.46407 15.1418 1.4492 15.2043C1.43838 15.2512 1.53846 15.363 1.5973 15.367C1.83872 15.3856 2.08419 15.385 2.32561 15.3659C2.38309 15.3613 2.48047 15.2507 2.46965 15.2037C2.45545 15.1412 2.36348 15.0671 2.28707 15.0462C2.18766 15.019 2.07067 15.0399 1.96179 15.0399L1.96112 15.0405ZM6.05038 15.3798C6.15993 15.3798 6.27828 15.4024 6.37498 15.3728C6.45139 15.3497 6.5481 15.2622 6.54877 15.2032C6.54945 15.1499 6.43719 15.0555 6.36551 15.0486C6.14979 15.0277 5.9273 15.0283 5.71158 15.0486C5.64125 15.0549 5.5317 15.1487 5.5317 15.2032C5.5317 15.2622 5.62637 15.3526 5.70008 15.3728C5.80693 15.4018 5.93271 15.3804 6.05038 15.3809V15.3798ZM3.98039 11.1527C3.98039 11.1527 3.98039 11.1527 3.98039 11.1521C4.09738 11.1521 4.22181 11.1723 4.32933 11.1451C4.40304 11.126 4.49231 11.0455 4.50313 10.983C4.51124 10.9344 4.41522 10.8284 4.35638 10.8232C4.12443 10.8035 3.88707 10.8006 3.65579 10.8209C3.59222 10.8266 3.49484 10.9349 3.49687 10.994C3.4989 11.0484 3.6044 11.1231 3.68149 11.1463C3.77143 11.1729 3.8803 11.1527 3.98039 11.1527ZM4.0115 12.9246C3.90262 12.9246 3.78428 12.902 3.68757 12.9315C3.60642 12.9564 3.5131 13.0369 3.49822 13.1041C3.48876 13.1475 3.60575 13.2535 3.6754 13.2604C3.89045 13.2813 4.11158 13.2813 4.3273 13.2604C4.39628 13.2535 4.5126 13.1464 4.50245 13.1029C4.4869 13.0358 4.3929 12.9587 4.31107 12.9315C4.22384 12.902 4.11293 12.9252 4.01217 12.9252L4.0115 12.9246ZM3.98242 15.3786V15.3821C4.09129 15.3821 4.20964 15.4047 4.30566 15.3752C4.38884 15.3497 4.447 15.2651 4.51598 15.2066C4.44632 15.1511 4.38208 15.0555 4.30566 15.0468C4.09941 15.0248 3.88639 15.0266 3.68014 15.0468C3.60913 15.0538 3.4989 15.1435 3.49755 15.1974C3.4962 15.2564 3.58681 15.3474 3.65985 15.3705C3.75587 15.4006 3.87422 15.378 3.98309 15.378L3.98242 15.3786Z" fill="white"/>
<path d="M2.88555 4.51261H1.20711C1.19764 4.4605 1.18209 4.41301 1.18209 4.36553C1.18073 3.17441 1.17668 1.98328 1.18276 0.79216C1.18614 0.220629 1.76163 -0.142441 2.34117 0.0538602C2.66712 0.16446 2.87676 0.378133 2.87946 0.677506C2.89164 1.94738 2.88487 3.21668 2.88487 4.51203L2.88555 4.51261Z" fill="white"/>
<path d="M6.6827 4.51434H4.94745C4.96638 4.17501 5.33832 3.89532 5.78397 3.88027C6.22623 3.86521 6.62251 4.13621 6.6827 4.51434Z" fill="white"/>
</g>
<defs>
<clipPath id="clip0_34_174">
<rect width="8" height="17" fill="white"/>
</clipPath>
</defs>
</svg>
