<svg width="22" height="22" viewBox="0 0 22 22" fill="none" xmlns="http://www.w3.org/2000/svg">
<path d="M10.8937 1.83942L10.9982 1.83301L11.1063 1.83942L11.1604 1.84676L11.2163 1.85867L11.3181 1.88984C11.3884 1.91575 11.4552 1.95023 11.517 1.99251L11.6123 2.06767L11.8461 2.26751C13.6953 3.80344 16.0324 4.6282 18.436 4.59309L18.7495 4.58392C18.9545 4.57457 19.1566 4.63426 19.3237 4.75342C19.4907 4.87258 19.6129 5.04433 19.6708 5.24117C20.1212 6.77345 20.2591 8.38065 20.0761 9.96725C19.8931 11.5539 19.3931 13.0875 18.6057 14.477C17.8184 15.8666 16.7597 17.0837 15.4927 18.056C14.2256 19.0283 12.776 19.736 11.2301 20.137C11.0792 20.1761 10.9208 20.1761 10.7699 20.137C9.2239 19.7361 7.77424 19.0285 6.5071 18.0562C5.23995 17.0839 4.18119 15.8668 3.39372 14.4773C2.60625 13.0877 2.10615 11.5541 1.92313 9.96742C1.74011 8.38077 1.87791 6.77352 2.32835 5.24117C2.3862 5.04433 2.50842 4.87258 2.67544 4.75342C2.84247 4.63426 3.04464 4.57457 3.2496 4.58392C5.75894 4.69863 8.22074 3.87258 10.153 2.26751L10.3941 2.06126L10.4821 1.99251C10.5439 1.95023 10.6107 1.91575 10.681 1.88984L10.7837 1.85867C10.8196 1.85 10.857 1.84357 10.8937 1.83942Z" fill="white" fill-opacity="0.85"/>
<path d="M3.2496 4.58392C5.75894 4.69863 8.22074 3.87258 10.153 2.26751M3.2496 4.58392C3.04464 4.57457 2.84247 4.63426 2.67544 4.75342C2.50842 4.87258 2.3862 5.04433 2.32835 5.24117C1.87791 6.77352 1.74011 8.38077 1.92313 9.96742C2.10615 11.5541 2.60625 13.0877 3.39372 14.4773C4.18119 15.8668 5.23995 17.0839 6.5071 18.0562C7.77424 19.0285 9.2239 19.7361 10.7699 20.137C10.9208 20.1761 11.0792 20.1761 11.2301 20.137C12.776 19.736 14.2256 19.0283 15.4927 18.056C16.7597 17.0837 17.8184 15.8666 18.6057 14.477C19.3931 13.0875 19.8931 11.5539 20.0761 9.96725C20.2591 8.38065 20.1212 6.77345 19.6708 5.24117C19.6129 5.04433 19.4907 4.87258 19.3237 4.75342C19.1566 4.63426 18.9545 4.57457 18.7495 4.58392L10.153 2.26751M3.2496 4.58392L3.24782 4.62295M3.2496 4.58392L3.24781 4.62295L3.24782 4.62295M10.153 2.26751L10.3941 2.06126L10.153 2.26751ZM3.24782 4.62295C5.76688 4.7381 8.23822 3.90885 10.178 2.29756L10.1784 2.29719L10.4188 2.09151L10.5052 2.02406C10.5637 1.98413 10.627 1.95149 10.6935 1.92688L10.7939 1.89638C10.8275 1.88832 10.8625 1.88229 10.8971 1.87835L10.9982 1.87214L11.1026 1.87833L11.1537 1.88527L11.2065 1.89652L11.3056 1.92687C11.3721 1.95147 11.4353 1.98409 11.4939 2.02402L11.5876 2.09787L11.8207 2.2972L11.8211 2.29756C13.6775 3.83944 16.0236 4.6674 18.4366 4.63215L18.4372 4.63214L18.7507 4.62298L18.7513 4.62295C18.9475 4.61399 19.1411 4.67113 19.301 4.78521C19.4609 4.8993 19.5779 5.06373 19.6333 5.25219C20.0823 6.77945 20.2196 8.38137 20.0373 9.96278C19.8549 11.5442 19.3565 13.0728 18.5717 14.4578C17.7869 15.8428 16.7318 17.0559 15.4689 18.025C14.206 18.9941 12.7612 19.6995 11.2203 20.0992C11.0758 20.1367 10.9242 20.1367 10.7797 20.0992C9.23877 19.6996 7.79386 18.9943 6.53088 18.0252C5.26789 17.0561 4.21259 15.843 3.42771 14.458C2.64282 13.073 2.14435 11.5444 1.96194 9.96294C1.77952 8.38149 1.91687 6.77951 2.36582 5.25219C2.42121 5.06373 2.53822 4.8993 2.69813 4.78521L3.24782 4.62295Z" stroke="white" stroke-opacity="0.15" stroke-width="0.078125"/>
</svg>
