<svg width="20" height="20" viewBox="0 0 20 20" fill="none" xmlns="http://www.w3.org/2000/svg">
<g clip-path="url(#clip0_218_1125)">
<path d="M9.99989 15.8337C10.2209 15.8337 10.4329 15.9215 10.5891 16.0777C10.7454 16.234 10.8332 16.446 10.8332 16.667V17.5003C10.8332 17.7213 10.7454 17.9333 10.5891 18.0896C10.4329 18.2459 10.2209 18.3337 9.99989 18.3337C9.77888 18.3337 9.56692 18.2459 9.41063 18.0896C9.25435 17.9333 9.16656 17.7213 9.16656 17.5003V16.667C9.16656 16.446 9.25435 16.234 9.41063 16.0777C9.56692 15.9215 9.77888 15.8337 9.99989 15.8337ZM15.3032 14.1253L15.8924 14.7145C16.0442 14.8717 16.1282 15.0822 16.1263 15.3007C16.1244 15.5192 16.0367 15.7282 15.8822 15.8827C15.7277 16.0372 15.5187 16.1248 15.3002 16.1267C15.0817 16.1286 14.8712 16.0446 14.7141 15.8928L14.1249 15.3037C13.9731 15.1465 13.8891 14.936 13.891 14.7175C13.8929 14.499 13.9805 14.29 14.135 14.1355C14.2895 13.981 14.4986 13.8933 14.7171 13.8914C14.9356 13.8895 15.1461 13.9735 15.3032 14.1253ZM4.69656 14.1253C4.84652 13.9759 5.04775 13.8891 5.25938 13.8826C5.471 13.8762 5.67715 13.9505 5.83596 14.0905C5.99476 14.2306 6.09431 14.4258 6.11439 14.6366C6.13447 14.8473 6.07357 15.0578 5.94406 15.2253L5.87489 15.3037L5.28572 15.8928C5.13576 16.0423 4.93453 16.1291 4.7229 16.1355C4.51128 16.142 4.30513 16.0676 4.14632 15.9276C3.98752 15.7876 3.88797 15.5924 3.86789 15.3816C3.84781 15.1708 3.90871 14.9603 4.03822 14.7928L4.10739 14.7145L4.69656 14.1253ZM9.99989 5.00033C11.326 5.00033 12.5977 5.52711 13.5354 6.46479C14.4731 7.40247 14.9999 8.67424 14.9999 10.0003C14.9999 11.3264 14.4731 12.5982 13.5354 13.5359C12.5977 14.4735 11.326 15.0003 9.99989 15.0003C8.67381 15.0003 7.40204 14.4735 6.46436 13.5359C5.52667 12.5982 4.99989 11.3264 4.99989 10.0003C4.99989 8.67424 5.52667 7.40247 6.46436 6.46479C7.40204 5.52711 8.67381 5.00033 9.99989 5.00033ZM3.33322 9.16699C3.54562 9.16723 3.74992 9.24856 3.90436 9.39437C4.05881 9.54017 4.15175 9.73945 4.1642 9.95149C4.17665 10.1635 4.10766 10.3723 3.97134 10.5352C3.83501 10.6981 3.64164 10.8027 3.43072 10.8278L3.33322 10.8337H2.49989C2.28749 10.8334 2.0832 10.7521 1.92875 10.6063C1.7743 10.4605 1.68136 10.2612 1.66891 10.0492C1.65647 9.83713 1.72545 9.62834 1.86178 9.46547C1.9981 9.30259 2.19148 9.19791 2.40239 9.17283L2.49989 9.16699H3.33322ZM17.4999 9.16699C17.7209 9.16699 17.9329 9.25479 18.0891 9.41107C18.2454 9.56735 18.3332 9.77931 18.3332 10.0003C18.3332 10.2213 18.2454 10.4333 18.0891 10.5896C17.9329 10.7459 17.7209 10.8337 17.4999 10.8337H16.6666C16.4455 10.8337 16.2336 10.7459 16.0773 10.5896C15.921 10.4333 15.8332 10.2213 15.8332 10.0003C15.8332 9.77931 15.921 9.56735 16.0773 9.41107C16.2336 9.25479 16.4455 9.16699 16.6666 9.16699H17.4999ZM4.10739 4.10783C4.25088 3.96434 4.4418 3.87815 4.64432 3.86542C4.84684 3.85268 5.04705 3.91428 5.20739 4.03866L5.28572 4.10783L5.87489 4.69699C6.02435 4.84696 6.11112 5.04819 6.11758 5.25981C6.12404 5.47144 6.04971 5.67759 5.90968 5.83639C5.76966 5.9952 5.57443 6.09475 5.36366 6.11482C5.15289 6.1349 4.94238 6.074 4.77489 5.94449L4.69656 5.87533L4.10739 5.28616C3.95116 5.12989 3.8634 4.91796 3.8634 4.69699C3.8634 4.47602 3.95116 4.2641 4.10739 4.10783ZM15.8924 4.10783C16.0486 4.2641 16.1364 4.47602 16.1364 4.69699C16.1364 4.91796 16.0486 5.12989 15.8924 5.28616L15.3032 5.87533C15.2264 5.95492 15.1344 6.0184 15.0327 6.06208C14.9311 6.10575 14.8217 6.12874 14.7111 6.1297C14.6004 6.13066 14.4907 6.10958 14.3883 6.06768C14.2858 6.02578 14.1928 5.9639 14.1146 5.88565C14.0363 5.80741 13.9744 5.71437 13.9325 5.61195C13.8906 5.50954 13.8696 5.39981 13.8705 5.28916C13.8715 5.17851 13.8945 5.06916 13.9381 4.96749C13.9818 4.86582 14.0453 4.77386 14.1249 4.69699L14.7141 4.10783C14.8703 3.9516 15.0823 3.86384 15.3032 3.86384C15.5242 3.86384 15.7361 3.9516 15.8924 4.10783ZM9.99989 1.66699C10.2209 1.66699 10.4329 1.75479 10.5891 1.91107C10.7454 2.06735 10.8332 2.27931 10.8332 2.50033V3.33366C10.8332 3.55467 10.7454 3.76663 10.5891 3.92291C10.4329 4.07919 10.2209 4.16699 9.99989 4.16699C9.77888 4.16699 9.56692 4.07919 9.41063 3.92291C9.25435 3.76663 9.16656 3.55467 9.16656 3.33366V2.50033C9.16656 2.27931 9.25435 2.06735 9.41063 1.91107C9.56692 1.75479 9.77888 1.66699 9.99989 1.66699Z" fill="white"/>
</g>
<defs>
<clipPath id="clip0_218_1125">
<rect width="20" height="20" fill="white"/>
</clipPath>
</defs>
</svg>
