<svg width="431" height="64" viewBox="0 0 431 64" fill="none"
  xmlns="http://www.w3.org/2000/svg">
  <path d="M0 2C0 0.895431 0.895431 0 2 0H367V64H2C0.895431 64 0 63.1046 0 62V2Z" fill="url(#paint0_linear_96_21)" fill-opacity="0.6"/>
  <path d="M25.5385 16.714H27.4285L30.3125 24.12L33.2105 16.714H35.0865L31.1805 26.5H29.4585L25.5385 16.714ZM40.4806 26.71C39.5006 26.71 38.6139 26.5 37.8206 26.08C37.0366 25.6507 36.4159 25.0487 35.9586 24.274C35.5106 23.4993 35.2866 22.6127 35.2866 21.614C35.2866 20.6153 35.5106 19.7287 35.9586 18.954C36.4159 18.1793 37.0366 17.5773 37.8206 17.148C38.6139 16.7187 39.5006 16.504 40.4806 16.504C41.4512 16.504 42.3286 16.7187 43.1126 17.148C43.9059 17.5773 44.5266 18.1793 44.9746 18.954C45.4319 19.7287 45.6606 20.6153 45.6606 21.614C45.6606 22.6127 45.4319 23.4993 44.9746 24.274C44.5266 25.0393 43.9059 25.6367 43.1126 26.066C42.3286 26.4953 41.4512 26.71 40.4806 26.71ZM40.4806 25.1C41.1059 25.1 41.6752 24.96 42.1886 24.68C42.7019 24.3907 43.1079 23.9847 43.4066 23.462C43.7146 22.93 43.8686 22.314 43.8686 21.614C43.8686 20.9233 43.7192 20.3167 43.4206 19.794C43.1219 19.262 42.7159 18.8513 42.2026 18.562C41.6892 18.2727 41.1152 18.128 40.4806 18.128C39.8459 18.128 39.2672 18.2727 38.7446 18.562C38.2312 18.8513 37.8252 19.262 37.5266 19.794C37.2279 20.3167 37.0786 20.9233 37.0786 21.614C37.0786 22.314 37.2279 22.93 37.5266 23.462C37.8346 23.9847 38.2452 24.3907 38.7586 24.68C39.2812 24.96 39.8552 25.1 40.4806 25.1ZM51.8155 26.71C50.7889 26.71 49.8789 26.5047 49.0855 26.094C48.2922 25.674 47.6762 25.0813 47.2375 24.316C46.7989 23.5413 46.5795 22.6407 46.5795 21.614C46.5795 20.5873 46.7989 19.6913 47.2375 18.926C47.6762 18.1513 48.2922 17.554 49.0855 17.134C49.8789 16.714 50.7889 16.504 51.8155 16.504C53.1689 16.504 54.2982 16.826 55.2035 17.47V19.164C54.3915 18.4733 53.3135 18.128 51.9695 18.128C51.2509 18.128 50.6209 18.2727 50.0795 18.562C49.5382 18.842 49.1182 19.2433 48.8195 19.766C48.5209 20.2887 48.3715 20.9047 48.3715 21.614C48.3715 22.3233 48.5209 22.9393 48.8195 23.462C49.1275 23.9847 49.5522 24.3907 50.0935 24.68C50.6349 24.96 51.2602 25.1 51.9695 25.1C52.6602 25.1 53.2762 25.016 53.8175 24.848C54.3589 24.6707 54.8582 24.3907 55.3155 24.008V25.702C54.4569 26.374 53.2902 26.71 51.8155 26.71ZM59.041 13.718H60.609L62.653 16.112H60.889L59.825 14.726L58.761 16.112H56.983L59.041 13.718ZM56.717 16.714H63.339V18.184H58.495V20.872H62.093V22.342H58.495V25.03H63.339V26.5H56.717V16.714ZM74.7433 26.71C73.7166 26.71 72.8066 26.5047 72.0133 26.094C71.2199 25.674 70.6039 25.0813 70.1653 24.316C69.7266 23.5413 69.5073 22.6407 69.5073 21.614C69.5073 20.5873 69.7266 19.6913 70.1653 18.926C70.6039 18.1513 71.2199 17.554 72.0133 17.134C72.8066 16.714 73.7166 16.504 74.7433 16.504C76.0966 16.504 77.2259 16.826 78.1313 17.47V19.164C77.3193 18.4733 76.2413 18.128 74.8973 18.128C74.1786 18.128 73.5486 18.2727 73.0073 18.562C72.4659 18.842 72.0459 19.2433 71.7473 19.766C71.4486 20.2887 71.2993 20.9047 71.2993 21.614C71.2993 22.3233 71.4486 22.9393 71.7473 23.462C72.0553 23.9847 72.4799 24.3907 73.0213 24.68C73.5626 24.96 74.1879 25.1 74.8973 25.1C75.5879 25.1 76.2039 25.016 76.7453 24.848C77.2866 24.6707 77.7859 24.3907 78.2433 24.008V25.702C77.3846 26.374 76.2179 26.71 74.7433 26.71ZM79.6447 16.714H81.4227V20.774H86.1267V16.714H87.8907V26.5H86.1267V22.244H81.4227V26.5H79.6447V16.714ZM93.2105 16.714H94.9325L98.8385 26.5H97.0325L96.1365 24.246H91.9925L91.1105 26.5H89.2905L93.2105 16.714ZM95.6465 22.776L94.0645 18.618L92.4825 22.776H95.6465ZM99.8791 16.714H101.615L104.891 23.882L108.167 16.714H109.903V26.5H108.223V20.144L105.311 26.5H104.471L101.559 20.144V26.5H99.8791V16.714ZM116.496 26.71C115.516 26.71 114.63 26.5 113.836 26.08C113.052 25.6507 112.432 25.0487 111.974 24.274C111.526 23.4993 111.302 22.6127 111.302 21.614C111.302 20.6153 111.526 19.7287 111.974 18.954C112.432 18.1793 113.052 17.5773 113.836 17.148C114.63 16.7187 115.516 16.504 116.496 16.504C117.467 16.504 118.344 16.7187 119.128 17.148C119.922 17.5773 120.542 18.1793 120.99 18.954C121.448 19.7287 121.676 20.6153 121.676 21.614C121.676 22.6127 121.448 23.4993 120.99 24.274C120.542 25.0393 119.922 25.6367 119.128 26.066C118.344 26.4953 117.467 26.71 116.496 26.71ZM116.496 25.1C117.122 25.1 117.691 24.96 118.204 24.68C118.718 24.3907 119.124 23.9847 119.422 23.462C119.73 22.93 119.884 22.314 119.884 21.614C119.884 20.9233 119.735 20.3167 119.436 19.794C119.138 19.262 118.732 18.8513 118.218 18.562C117.705 18.2727 117.131 18.128 116.496 18.128C115.862 18.128 115.283 18.2727 114.76 18.562C114.247 18.8513 113.841 19.262 113.542 19.794C113.244 20.3167 113.094 20.9233 113.094 21.614C113.094 22.314 113.244 22.93 113.542 23.462C113.85 23.9847 114.261 24.3907 114.774 24.68C115.297 24.96 115.871 25.1 116.496 25.1ZM127.196 26.71C125.815 26.71 124.77 26.3507 124.06 25.632C123.36 24.904 123.01 23.924 123.01 22.692V16.714H124.788V22.72C124.788 23.4947 125.003 24.0873 125.432 24.498C125.871 24.8993 126.459 25.1 127.196 25.1C127.924 25.1 128.503 24.8993 128.932 24.498C129.371 24.0873 129.59 23.4947 129.59 22.72V16.714H131.368V22.692C131.368 23.924 131.018 24.904 130.318 25.632C129.618 26.3507 128.578 26.71 127.196 26.71ZM142.938 26.71C141.958 26.71 141.071 26.5 140.278 26.08C139.494 25.6507 138.873 25.0487 138.416 24.274C137.968 23.4993 137.744 22.6127 137.744 21.614C137.744 20.6153 137.968 19.7287 138.416 18.954C138.873 18.1793 139.494 17.5773 140.278 17.148C141.071 16.7187 141.958 16.504 142.938 16.504C143.908 16.504 144.786 16.7187 145.57 17.148C146.363 17.5773 146.984 18.1793 147.432 18.954C147.889 19.7287 148.118 20.6153 148.118 21.614C148.118 22.6127 147.889 23.4993 147.432 24.274C146.984 25.0393 146.363 25.6367 145.57 26.066C144.786 26.4953 143.908 26.71 142.938 26.71ZM142.938 25.1C143.563 25.1 144.132 24.96 144.646 24.68C145.159 24.3907 145.565 23.9847 145.864 23.462C146.172 22.93 146.326 22.314 146.326 21.614C146.326 20.9233 146.176 20.3167 145.878 19.794C145.579 19.262 145.173 18.8513 144.66 18.562C144.146 18.2727 143.572 18.128 142.938 18.128C142.303 18.128 141.724 18.2727 141.202 18.562C140.688 18.8513 140.282 19.262 139.984 19.794C139.685 20.3167 139.536 20.9233 139.536 21.614C139.536 22.314 139.685 22.93 139.984 23.462C140.292 23.9847 140.702 24.3907 141.216 24.68C141.738 24.96 142.312 25.1 142.938 25.1ZM151.994 26.71C151.416 26.71 150.842 26.654 150.272 26.542C149.712 26.4393 149.25 26.2993 148.886 26.122V24.596C149.353 24.82 149.843 24.988 150.356 25.1C150.87 25.212 151.374 25.268 151.868 25.268C152.494 25.268 152.97 25.1513 153.296 24.918C153.623 24.6847 153.786 24.3627 153.786 23.952C153.786 23.6627 153.712 23.4247 153.562 23.238C153.413 23.042 153.194 22.874 152.904 22.734C152.615 22.5847 152.172 22.3933 151.574 22.16C150.66 21.7867 149.997 21.3713 149.586 20.914C149.176 20.4567 148.97 19.8873 148.97 19.206C148.97 18.674 149.115 18.2027 149.404 17.792C149.694 17.3813 150.1 17.064 150.622 16.84C151.145 16.616 151.747 16.504 152.428 16.504C152.988 16.504 153.483 16.5507 153.912 16.644C154.351 16.728 154.78 16.8633 155.2 17.05V18.534C154.388 18.142 153.567 17.946 152.736 17.946C152.139 17.946 151.677 18.058 151.35 18.282C151.024 18.4967 150.86 18.8047 150.86 19.206C150.86 19.4953 150.935 19.7333 151.084 19.92C151.234 20.0973 151.43 20.2513 151.672 20.382C151.924 20.5033 152.372 20.6993 153.016 20.97C153.67 21.2407 154.183 21.5067 154.556 21.768C154.939 22.0293 155.224 22.3373 155.41 22.692C155.606 23.0373 155.704 23.462 155.704 23.966C155.704 24.834 155.392 25.5107 154.766 25.996C154.141 26.472 153.217 26.71 151.994 26.71ZM162.154 16.714H166.802C167.698 16.714 168.394 16.938 168.888 17.386C169.392 17.834 169.644 18.4873 169.644 19.346C169.644 19.8033 169.532 20.2187 169.308 20.592C169.094 20.956 168.804 21.236 168.44 21.432C169.458 21.768 169.966 22.5193 169.966 23.686C169.966 24.2647 169.836 24.7687 169.574 25.198C169.313 25.618 168.958 25.94 168.51 26.164C168.072 26.388 167.582 26.5 167.04 26.5H162.154V16.714ZM166.522 20.788C166.924 20.788 167.246 20.6807 167.488 20.466C167.731 20.242 167.852 19.906 167.852 19.458C167.852 18.9447 167.731 18.5947 167.488 18.408C167.255 18.212 166.905 18.114 166.438 18.114H163.918V20.788H166.522ZM166.634 25.1C167.129 25.1 167.507 24.9973 167.768 24.792C168.039 24.5867 168.174 24.2227 168.174 23.7C168.174 23.1773 168.034 22.7993 167.754 22.566C167.474 22.3327 167.068 22.216 166.536 22.216H163.918V25.1H166.634ZM175.928 26.71C174.948 26.71 174.061 26.5 173.268 26.08C172.484 25.6507 171.863 25.0487 171.406 24.274C170.958 23.4993 170.734 22.6127 170.734 21.614C170.734 20.6153 170.958 19.7287 171.406 18.954C171.863 18.1793 172.484 17.5773 173.268 17.148C174.061 16.7187 174.948 16.504 175.928 16.504C176.898 16.504 177.776 16.7187 178.56 17.148C179.353 17.5773 179.974 18.1793 180.422 18.954C180.879 19.7287 181.108 20.6153 181.108 21.614C181.108 22.6127 180.879 23.4993 180.422 24.274C179.974 25.0393 179.353 25.6367 178.56 26.066C177.776 26.4953 176.898 26.71 175.928 26.71ZM175.928 25.1C176.553 25.1 177.122 24.96 177.636 24.68C178.149 24.3907 178.555 23.9847 178.854 23.462C179.162 22.93 179.316 22.314 179.316 21.614C179.316 20.9233 179.166 20.3167 178.868 19.794C178.569 19.262 178.163 18.8513 177.65 18.562C177.136 18.2727 176.562 18.128 175.928 18.128C175.293 18.128 174.714 18.2727 174.192 18.562C173.678 18.8513 173.272 19.262 172.974 19.794C172.675 20.3167 172.526 20.9233 172.526 21.614C172.526 22.314 172.675 22.93 172.974 23.462C173.282 23.9847 173.692 24.3907 174.206 24.68C174.728 24.96 175.302 25.1 175.928 25.1ZM182.512 16.714H184.248L187.524 23.882L190.8 16.714H192.536V26.5H190.856V20.144L187.944 26.5H187.104L184.192 20.144V26.5H182.512V16.714ZM194.215 16.714H198.863C199.759 16.714 200.454 16.938 200.949 17.386C201.453 17.834 201.705 18.4873 201.705 19.346C201.705 19.8033 201.593 20.2187 201.369 20.592C201.154 20.956 200.865 21.236 200.501 21.432C201.518 21.768 202.027 22.5193 202.027 23.686C202.027 24.2647 201.896 24.7687 201.635 25.198C201.374 25.618 201.019 25.94 200.571 26.164C200.132 26.388 199.642 26.5 199.101 26.5H194.215V16.714ZM198.583 20.788C198.984 20.788 199.306 20.6807 199.549 20.466C199.792 20.242 199.913 19.906 199.913 19.458C199.913 18.9447 199.792 18.5947 199.549 18.408C199.316 18.212 198.966 18.114 198.499 18.114H195.979V20.788H198.583ZM198.695 25.1C199.19 25.1 199.568 24.9973 199.829 24.792C200.1 24.5867 200.235 24.2227 200.235 23.7C200.235 23.1773 200.095 22.7993 199.815 22.566C199.535 22.3327 199.129 22.216 198.597 22.216H195.979V25.1H198.695ZM203.43 16.714H210.052V18.184H205.208V20.872H208.806V22.342H205.208V25.03H210.052V26.5H203.43V16.714ZM211.319 16.714H213.097V26.5H211.319V16.714ZM214.778 16.714H218.866C219.948 16.714 220.784 16.98 221.372 17.512C221.96 18.044 222.254 18.814 222.254 19.822C222.254 20.5407 222.076 21.152 221.722 21.656C221.367 22.16 220.863 22.5193 220.21 22.734L222.198 26.5H220.378L218.488 22.916H216.556V26.5H214.778V16.714ZM218.544 21.446C219.122 21.446 219.589 21.3107 219.944 21.04C220.298 20.7693 220.476 20.3633 220.476 19.822C220.476 18.73 219.832 18.184 218.544 18.184H216.556V21.446H218.544ZM228.359 26.71C227.379 26.71 226.493 26.5 225.699 26.08C224.915 25.6507 224.295 25.0487 223.837 24.274C223.389 23.4993 223.165 22.6127 223.165 21.614C223.165 20.6153 223.389 19.7287 223.837 18.954C224.295 18.1793 224.915 17.5773 225.699 17.148C226.493 16.7187 227.379 16.504 228.359 16.504C229.33 16.504 230.207 16.7187 230.991 17.148C231.785 17.5773 232.405 18.1793 232.853 18.954C233.311 19.7287 233.539 20.6153 233.539 21.614C233.539 22.6127 233.311 23.4993 232.853 24.274C232.405 25.0393 231.785 25.6367 230.991 26.066C230.207 26.4953 229.33 26.71 228.359 26.71ZM228.359 25.1C228.985 25.1 229.554 24.96 230.067 24.68C230.581 24.3907 230.987 23.9847 231.285 23.462C231.593 22.93 231.747 22.314 231.747 21.614C231.747 20.9233 231.598 20.3167 231.299 19.794C231.001 19.262 230.595 18.8513 230.081 18.562C229.568 18.2727 228.994 18.128 228.359 18.128C227.725 18.128 227.146 18.2727 226.623 18.562C226.11 18.8513 225.704 19.262 225.405 19.794C225.107 20.3167 224.957 20.9233 224.957 21.614C224.957 22.314 225.107 22.93 225.405 23.462C225.713 23.9847 226.124 24.3907 226.637 24.68C227.16 24.96 227.734 25.1 228.359 25.1ZM237.416 26.71C236.837 26.71 236.263 26.654 235.694 26.542C235.134 26.4393 234.672 26.2993 234.308 26.122V24.596C234.775 24.82 235.265 24.988 235.778 25.1C236.291 25.212 236.795 25.268 237.29 25.268C237.915 25.268 238.391 25.1513 238.718 24.918C239.045 24.6847 239.208 24.3627 239.208 23.952C239.208 23.6627 239.133 23.4247 238.984 23.238C238.835 23.042 238.615 22.874 238.326 22.734C238.037 22.5847 237.593 22.3933 236.996 22.16C236.081 21.7867 235.419 21.3713 235.008 20.914C234.597 20.4567 234.392 19.8873 234.392 19.206C234.392 18.674 234.537 18.2027 234.826 17.792C235.115 17.3813 235.521 17.064 236.044 16.84C236.567 16.616 237.169 16.504 237.85 16.504C238.41 16.504 238.905 16.5507 239.334 16.644C239.773 16.728 240.202 16.8633 240.622 17.05V18.534C239.81 18.142 238.989 17.946 238.158 17.946C237.561 17.946 237.099 18.058 236.772 18.282C236.445 18.4967 236.282 18.8047 236.282 19.206C236.282 19.4953 236.357 19.7333 236.506 19.92C236.655 20.0973 236.851 20.2513 237.094 20.382C237.346 20.5033 237.794 20.6993 238.438 20.97C239.091 21.2407 239.605 21.5067 239.978 21.768C240.361 22.0293 240.645 22.3373 240.832 22.692C241.028 23.0373 241.126 23.462 241.126 23.966C241.126 24.834 240.813 25.5107 240.188 25.996C239.563 26.472 238.639 26.71 237.416 26.71ZM251.216 16.714H252.938L256.844 26.5H255.038L254.142 24.246H249.998L249.116 26.5H247.296L251.216 16.714ZM253.652 22.776L252.07 18.618L250.488 22.776H253.652ZM262.431 26.71C261.404 26.71 260.494 26.5047 259.701 26.094C258.907 25.674 258.291 25.0813 257.853 24.316C257.414 23.5413 257.195 22.6407 257.195 21.614C257.195 20.5873 257.414 19.6913 257.853 18.926C258.291 18.1513 258.907 17.554 259.701 17.134C260.494 16.714 261.404 16.504 262.431 16.504C263.131 16.504 263.756 16.5787 264.307 16.728C264.857 16.8773 265.357 17.1153 265.805 17.442V19.136C265.394 18.7813 264.923 18.5247 264.391 18.366C263.859 18.2073 263.257 18.128 262.585 18.128C261.913 18.128 261.301 18.2727 260.751 18.562C260.209 18.842 259.78 19.248 259.463 19.78C259.145 20.3027 258.987 20.914 258.987 21.614C258.987 22.3233 259.136 22.944 259.435 23.476C259.733 23.9987 260.149 24.4047 260.681 24.694C261.213 24.974 261.819 25.114 262.501 25.114C263.219 25.114 263.812 24.9927 264.279 24.75V22.552H262.627V21.138H266.057V25.702C265.189 26.374 263.98 26.71 262.431 26.71ZM271.571 26.71C270.19 26.71 269.145 26.3507 268.435 25.632C267.735 24.904 267.385 23.924 267.385 22.692V16.714H269.163V22.72C269.163 23.4947 269.378 24.0873 269.807 24.498C270.246 24.8993 270.834 25.1 271.571 25.1C272.299 25.1 272.878 24.8993 273.307 24.498C273.746 24.0873 273.965 23.4947 273.965 22.72V16.714H275.743V22.692C275.743 23.924 275.393 24.904 274.693 25.632C273.993 26.3507 272.953 26.71 271.571 26.71ZM280.078 16.714H281.8L285.706 26.5H283.9L283.004 24.246H278.86L277.978 26.5H276.158L280.078 16.714ZM282.514 22.776L280.932 18.618L279.35 22.776H282.514ZM287.102 16.714H291.19C292.272 16.714 293.108 16.98 293.696 17.512C294.284 18.044 294.578 18.814 294.578 19.822C294.578 20.5407 294.4 21.152 294.046 21.656C293.691 22.16 293.187 22.5193 292.534 22.734L294.522 26.5H292.702L290.812 22.916H288.88V26.5H287.102V16.714ZM290.868 21.446C291.446 21.446 291.913 21.3107 292.268 21.04C292.622 20.7693 292.8 20.3633 292.8 19.822C292.8 18.73 292.156 18.184 290.868 18.184H288.88V21.446H290.868ZM295.975 16.714H299.251C300.315 16.714 301.239 16.91 302.023 17.302C302.807 17.694 303.409 18.254 303.829 18.982C304.249 19.71 304.459 20.5687 304.459 21.558C304.459 23.182 303.987 24.414 303.045 25.254C302.102 26.0847 300.786 26.5 299.097 26.5H295.975V16.714ZM299.125 25.03C300.263 25.03 301.136 24.7267 301.743 24.12C302.359 23.504 302.667 22.65 302.667 21.558C302.667 20.8953 302.531 20.312 302.261 19.808C301.99 19.2947 301.603 18.898 301.099 18.618C300.595 18.3287 299.997 18.184 299.307 18.184H297.753V25.03H299.125ZM305.86 16.714H312.482V18.184H307.638V20.872H311.236V22.342H307.638V25.03H312.482V26.5H305.86V16.714ZM322.433 16.714H324.155L328.061 26.5H326.255L325.359 24.246H321.215L320.333 26.5H318.513L322.433 16.714ZM324.869 22.776L323.287 18.618L321.705 22.776H324.869ZM330.101 18.184H327.147V16.714H334.833V18.184H331.879V26.5H330.101V18.184ZM339.129 13.676H340.991L339.787 16.112H338.163L339.129 13.676ZM335.951 16.714H342.573V18.184H337.729V20.872H341.327V22.342H337.729V25.03H342.573V26.5H335.951V16.714ZM41.0737 47.5C39.9817 47.5 39.025 47.2993 38.2037 46.898C37.3917 46.4967 36.7617 45.9227 36.3137 45.176C35.875 44.4293 35.6557 43.5613 35.6557 42.572C35.6557 41.5733 35.8797 40.6913 36.3277 39.926C36.785 39.1513 37.4057 38.554 38.1897 38.134C38.983 37.714 39.8697 37.504 40.8497 37.504C41.8204 37.504 42.6977 37.714 43.4817 38.134C44.275 38.554 44.8957 39.1513 45.3437 39.926C45.801 40.6913 46.0297 41.5733 46.0297 42.572C46.0297 43.244 45.8804 43.888 45.5817 44.504C45.283 45.1107 44.8957 45.5913 44.4197 45.946H46.2117V47.5H41.0737ZM40.8497 45.89C41.8857 45.89 42.707 45.6007 43.3137 45.022C43.9297 44.4433 44.2377 43.6267 44.2377 42.572C44.2377 41.8813 44.0884 41.2747 43.7897 40.752C43.491 40.2293 43.085 39.828 42.5717 39.548C42.0584 39.268 41.4844 39.128 40.8497 39.128C40.215 39.128 39.6364 39.268 39.1137 39.548C38.6004 39.828 38.1944 40.2293 37.8957 40.752C37.597 41.2747 37.4477 41.8813 37.4477 42.572C37.4477 43.636 37.751 44.4573 38.3577 45.036C38.9737 45.6053 39.8044 45.89 40.8497 45.89ZM51.454 47.71C50.0727 47.71 49.0274 47.3507 48.318 46.632C47.618 45.904 47.268 44.924 47.268 43.692V37.714H49.046V43.72C49.046 44.4947 49.2607 45.0873 49.69 45.498C50.1287 45.8993 50.7167 46.1 51.454 46.1C52.182 46.1 52.7607 45.8993 53.19 45.498C53.6287 45.0873 53.848 44.4947 53.848 43.72V37.714H55.626V43.692C55.626 44.924 55.276 45.904 54.576 46.632C53.876 47.3507 52.8354 47.71 51.454 47.71ZM57.2365 37.714H63.8585V39.184H59.0145V41.872H62.6125V43.342H59.0145V46.03H63.8585V47.5H57.2365V37.714ZM70.1701 37.714H76.7921V39.184H71.9481V41.872H75.5461V43.342H71.9481V46.03H76.7921V47.5H70.1701V37.714ZM78.0588 37.714H79.8368V46.03H84.5408V47.5H78.0588V37.714ZM85.4552 37.714H92.0772V39.184H87.2332V41.872H90.8312V43.342H87.2332V46.03H92.0772V47.5H85.4552V37.714ZM98.3888 37.714H102.309C103.382 37.714 104.241 37.9987 104.885 38.568C105.538 39.1373 105.865 39.9167 105.865 40.906C105.865 41.9327 105.543 42.7167 104.899 43.258C104.255 43.79 103.387 44.056 102.295 44.056H100.167V47.5H98.3888V37.714ZM102.085 42.586C103.419 42.586 104.087 42.026 104.087 40.906C104.087 39.758 103.419 39.184 102.085 39.184H100.167V42.586H102.085ZM111.697 47.71C110.717 47.71 109.831 47.5 109.037 47.08C108.253 46.6507 107.633 46.0487 107.175 45.274C106.727 44.4993 106.503 43.6127 106.503 42.614C106.503 41.6153 106.727 40.7287 107.175 39.954C107.633 39.1793 108.253 38.5773 109.037 38.148C109.831 37.7187 110.717 37.504 111.697 37.504C112.668 37.504 113.545 37.7187 114.329 38.148C115.123 38.5773 115.743 39.1793 116.191 39.954C116.649 40.7287 116.877 41.6153 116.877 42.614C116.877 43.6127 116.649 44.4993 116.191 45.274C115.743 46.0393 115.123 46.6367 114.329 47.066C113.545 47.4953 112.668 47.71 111.697 47.71ZM111.697 46.1C112.323 46.1 112.892 45.96 113.405 45.68C113.919 45.3907 114.325 44.9847 114.623 44.462C114.931 43.93 115.085 43.314 115.085 42.614C115.085 41.9233 114.936 41.3167 114.637 40.794C114.339 40.262 113.933 39.8513 113.419 39.562C112.906 39.2727 112.332 39.128 111.697 39.128C111.063 39.128 110.484 39.2727 109.961 39.562C109.448 39.8513 109.042 40.262 108.743 40.794C108.445 41.3167 108.295 41.9233 108.295 42.614C108.295 43.314 108.445 43.93 108.743 44.462C109.051 44.9847 109.462 45.3907 109.975 45.68C110.498 45.96 111.072 46.1 111.697 46.1ZM120.754 47.71C120.175 47.71 119.601 47.654 119.032 47.542C118.472 47.4393 118.01 47.2993 117.646 47.122V45.596C118.113 45.82 118.603 45.988 119.116 46.1C119.629 46.212 120.133 46.268 120.628 46.268C121.253 46.268 121.729 46.1513 122.056 45.918C122.383 45.6847 122.546 45.3627 122.546 44.952C122.546 44.6627 122.471 44.4247 122.322 44.238C122.173 44.042 121.953 43.874 121.664 43.734C121.375 43.5847 120.931 43.3933 120.334 43.16C119.419 42.7867 118.757 42.3713 118.346 41.914C117.935 41.4567 117.73 40.8873 117.73 40.206C117.73 39.674 117.875 39.2027 118.164 38.792C118.453 38.3813 118.859 38.064 119.382 37.84C119.905 37.616 120.507 37.504 121.188 37.504C121.748 37.504 122.243 37.5507 122.672 37.644C123.111 37.728 123.54 37.8633 123.96 38.05V39.534C123.148 39.142 122.327 38.946 121.496 38.946C120.899 38.946 120.437 39.058 120.11 39.282C119.783 39.4967 119.62 39.8047 119.62 40.206C119.62 40.4953 119.695 40.7333 119.844 40.92C119.993 41.0973 120.189 41.2513 120.432 41.382C120.684 41.5033 121.132 41.6993 121.776 41.97C122.429 42.2407 122.943 42.5067 123.316 42.768C123.699 43.0293 123.983 43.3373 124.17 43.692C124.366 44.0373 124.464 44.462 124.464 44.966C124.464 45.834 124.151 46.5107 123.526 46.996C122.901 47.472 121.977 47.71 120.754 47.71ZM128.205 47.71C127.626 47.71 127.052 47.654 126.483 47.542C125.923 47.4393 125.461 47.2993 125.097 47.122V45.596C125.564 45.82 126.054 45.988 126.567 46.1C127.08 46.212 127.584 46.268 128.079 46.268C128.704 46.268 129.18 46.1513 129.507 45.918C129.834 45.6847 129.997 45.3627 129.997 44.952C129.997 44.6627 129.922 44.4247 129.773 44.238C129.624 44.042 129.404 43.874 129.115 43.734C128.826 43.5847 128.382 43.3933 127.785 43.16C126.87 42.7867 126.208 42.3713 125.797 41.914C125.386 41.4567 125.181 40.8873 125.181 40.206C125.181 39.674 125.326 39.2027 125.615 38.792C125.904 38.3813 126.31 38.064 126.833 37.84C127.356 37.616 127.958 37.504 128.639 37.504C129.199 37.504 129.694 37.5507 130.123 37.644C130.562 37.728 130.991 37.8633 131.411 38.05V39.534C130.599 39.142 129.778 38.946 128.947 38.946C128.35 38.946 127.888 39.058 127.561 39.282C127.234 39.4967 127.071 39.8047 127.071 40.206C127.071 40.4953 127.146 40.7333 127.295 40.92C127.444 41.0973 127.64 41.2513 127.883 41.382C128.135 41.5033 128.583 41.6993 129.227 41.97C129.88 42.2407 130.394 42.5067 130.767 42.768C131.15 43.0293 131.434 43.3373 131.621 43.692C131.817 44.0373 131.915 44.462 131.915 44.966C131.915 45.834 131.602 46.5107 130.977 46.996C130.352 47.472 129.428 47.71 128.205 47.71ZM136.332 37.714H138.054L141.96 47.5H140.154L139.258 45.246H135.114L134.232 47.5H132.412L136.332 37.714ZM138.768 43.776L137.186 39.618L135.604 43.776H138.768ZM153.357 47.71C152.33 47.71 151.42 47.5047 150.627 47.094C149.833 46.674 149.217 46.0813 148.779 45.316C148.34 44.5413 148.121 43.6407 148.121 42.614C148.121 41.5873 148.34 40.6913 148.779 39.926C149.217 39.1513 149.833 38.554 150.627 38.134C151.42 37.714 152.33 37.504 153.357 37.504C154.71 37.504 155.839 37.826 156.745 38.47V40.164C155.933 39.4733 154.855 39.128 153.511 39.128C152.792 39.128 152.162 39.2727 151.621 39.562C151.079 39.842 150.659 40.2433 150.361 40.766C150.062 41.2887 149.913 41.9047 149.913 42.614C149.913 43.3233 150.062 43.9393 150.361 44.462C150.669 44.9847 151.093 45.3907 151.635 45.68C152.176 45.96 152.801 46.1 153.511 46.1C154.201 46.1 154.817 46.016 155.359 45.848C155.9 45.6707 156.399 45.3907 156.857 45.008V46.702C155.998 47.374 154.831 47.71 153.357 47.71ZM158.258 37.714H160.036V41.774H164.74V37.714H166.504V47.5H164.74V43.244H160.036V47.5H158.258V37.714ZM168.184 37.714H174.806V39.184H169.962V41.872H173.56V43.342H169.962V46.03H174.806V47.5H168.184V37.714ZM180.823 47.71C179.797 47.71 178.887 47.5047 178.093 47.094C177.3 46.674 176.684 46.0813 176.245 45.316C175.807 44.5413 175.587 43.6407 175.587 42.614C175.587 41.5873 175.807 40.6913 176.245 39.926C176.684 39.1513 177.3 38.554 178.093 38.134C178.887 37.714 179.797 37.504 180.823 37.504C181.523 37.504 182.149 37.5787 182.699 37.728C183.25 37.8773 183.749 38.1153 184.197 38.442V40.136C183.787 39.7813 183.315 39.5247 182.783 39.366C182.251 39.2073 181.649 39.128 180.977 39.128C180.305 39.128 179.694 39.2727 179.143 39.562C178.602 39.842 178.173 40.248 177.855 40.78C177.538 41.3027 177.379 41.914 177.379 42.614C177.379 43.3233 177.529 43.944 177.827 44.476C178.126 44.9987 178.541 45.4047 179.073 45.694C179.605 45.974 180.212 46.114 180.893 46.114C181.612 46.114 182.205 45.9927 182.671 45.75V43.552H181.019V42.138H184.449V46.702C183.581 47.374 182.373 47.71 180.823 47.71ZM189.488 37.714H191.21L195.116 47.5H193.31L192.414 45.246H188.27L187.388 47.5H185.568L189.488 37.714ZM191.924 43.776L190.342 39.618L188.76 43.776H191.924ZM196.512 37.714H200.6C201.683 37.714 202.518 37.98 203.106 38.512C203.694 39.044 203.988 39.814 203.988 40.822C203.988 41.5407 203.811 42.152 203.456 42.656C203.101 43.16 202.597 43.5193 201.944 43.734L203.932 47.5H202.112L200.222 43.916H198.29V47.5H196.512V37.714ZM200.278 42.446C200.857 42.446 201.323 42.3107 201.678 42.04C202.033 41.7693 202.21 41.3633 202.21 40.822C202.21 39.73 201.566 39.184 200.278 39.184H198.29V42.446H200.278ZM210.43 37.714H214.35C215.423 37.714 216.282 37.9987 216.926 38.568C217.579 39.1373 217.906 39.9167 217.906 40.906C217.906 41.9327 217.584 42.7167 216.94 43.258C216.296 43.79 215.428 44.056 214.336 44.056H212.208V47.5H210.43V37.714ZM214.126 42.586C215.461 42.586 216.128 42.026 216.128 40.906C216.128 39.758 215.461 39.184 214.126 39.184H212.208V42.586H214.126ZM221.275 37.714H222.997L226.903 47.5H225.097L224.201 45.246H220.057L219.175 47.5H217.355L221.275 37.714ZM223.711 43.776L222.129 39.618L220.547 43.776H223.711ZM228.299 37.714H232.387C233.47 37.714 234.305 37.98 234.893 38.512C235.481 39.044 235.775 39.814 235.775 40.822C235.775 41.5407 235.598 42.152 235.243 42.656C234.888 43.16 234.384 43.5193 233.731 43.734L235.719 47.5H233.899L232.009 43.916H230.077V47.5H228.299V37.714ZM232.065 42.446C232.644 42.446 233.11 42.3107 233.465 42.04C233.82 41.7693 233.997 41.3633 233.997 40.822C233.997 39.73 233.353 39.184 232.065 39.184H230.077V42.446H232.065ZM240.183 37.714H241.905L245.811 47.5H244.005L243.109 45.246H238.965L238.083 47.5H236.263L240.183 37.714ZM242.619 43.776L241.037 39.618L239.455 43.776H242.619ZM254.646 39.184H251.692V37.714H259.378V39.184H256.424V47.5H254.646V39.184ZM260.496 37.714H267.118V39.184H262.274V41.872H265.872V43.342H262.274V46.03H267.118V47.5H260.496V37.714ZM273.43 37.714H275.208V46.03H279.912V47.5H273.43V37.714ZM280.826 37.714H287.448V39.184H282.604V41.872H286.202V43.342H282.604V46.03H287.448V47.5H280.826V37.714ZM288.367 37.714H290.257L293.141 45.12L296.039 37.714H297.915L294.009 47.5H292.287L288.367 37.714ZM301.064 37.714H302.786L306.692 47.5H304.886L303.99 45.246H299.846L298.964 47.5H297.144L301.064 37.714ZM303.5 43.776L301.918 39.618L300.336 43.776H303.5ZM308.088 37.714H309.768L314.346 44.532V37.714H316.124V47.5H314.444L309.866 40.668V47.5H308.088V37.714ZM320.203 39.184H317.249V37.714H324.935V39.184H321.981V47.5H320.203V39.184ZM327.943 37.714H329.665L333.571 47.5H331.765L330.869 45.246H326.725L325.843 47.5H324.023L327.943 37.714ZM330.379 43.776L328.797 39.618L327.215 43.776H330.379ZM334.967 37.714H339.055C340.138 37.714 340.973 37.98 341.561 38.512C342.149 39.044 342.443 39.814 342.443 40.822C342.443 41.5407 342.266 42.152 341.911 42.656C341.556 43.16 341.052 43.5193 340.399 43.734L342.387 47.5H340.567L338.677 43.916H336.745V47.5H334.967V37.714ZM338.733 42.446C339.312 42.446 339.778 42.3107 340.133 42.04C340.488 41.7693 340.665 41.3633 340.665 40.822C340.665 39.73 340.021 39.184 338.733 39.184H336.745V42.446H338.733Z" fill="white"/>
  <path d="M367 0H429C430.105 0 431 0.895431 431 2V62C431 63.1046 430.105 64 429 64H367V0Z" fill="url(#paint1_linear_96_21)"/>
  <path d="M399.875 43.375H398.125C397.661 43.375 397.216 43.1906 396.888 42.8624C396.559 42.5342 396.375 42.0891 396.375 41.625L396.378 36.9317C396.378 36.8933 396.368 36.8555 396.349 36.8222C396.329 36.7889 396.302 36.7613 396.269 36.742C396.235 36.7228 396.198 36.7127 396.159 36.7126C396.121 36.7126 396.083 36.7227 396.05 36.742L391.984 39.0968C391.589 39.3251 391.119 39.3869 390.678 39.2688C390.237 39.1506 389.861 38.8622 389.633 38.4668L388.73 36.9005L388.727 36.8951C388.505 36.4999 388.447 36.0333 388.565 35.5956C388.683 35.1579 388.968 34.7841 389.359 34.5545L393.439 32.1892C393.473 32.17 393.5 32.1424 393.519 32.1092C393.538 32.076 393.548 32.0383 393.548 32C393.548 31.9617 393.538 31.924 393.519 31.8908C393.5 31.8576 393.473 31.83 393.439 31.8108L389.363 29.4477C389.167 29.3352 388.995 29.185 388.857 29.0057C388.719 28.8265 388.617 28.6217 388.559 28.4032C388.5 28.1847 388.485 27.9567 388.515 27.7324C388.544 27.5081 388.618 27.2919 388.731 27.0962L389.63 25.5348C389.744 25.3375 389.896 25.1646 390.077 25.0262C390.257 24.8878 390.464 24.7867 390.684 24.7288C390.902 24.6703 391.129 24.6557 391.353 24.6857C391.576 24.7158 391.791 24.7899 391.986 24.9037L396.05 27.2553C396.083 27.2745 396.121 27.2846 396.159 27.2846C396.198 27.2846 396.235 27.2745 396.269 27.2552C396.302 27.236 396.329 27.2083 396.349 27.175C396.368 27.1417 396.378 27.104 396.378 27.0655L396.375 22.375C396.375 21.9109 396.559 21.4658 396.888 21.1376C397.216 20.8094 397.661 20.625 398.125 20.625H399.875C400.339 20.625 400.784 20.8094 401.112 21.1376C401.441 21.4658 401.625 21.9109 401.625 22.375V27.0628C401.625 27.1012 401.635 27.139 401.654 27.1723C401.673 27.2056 401.701 27.2333 401.734 27.2525C401.768 27.2717 401.805 27.2819 401.844 27.2819C401.882 27.2819 401.92 27.2718 401.953 27.2526L406.019 24.8977C406.414 24.6699 406.884 24.6083 407.325 24.7264C407.766 24.8445 408.142 25.1327 408.37 25.5277L409.272 27.094L409.275 27.0989C409.5 27.4945 409.559 27.9629 409.44 28.402C409.321 28.8411 409.033 29.2152 408.639 29.4428L404.563 31.8053C404.53 31.8245 404.502 31.8521 404.483 31.8854C404.464 31.9186 404.454 31.9562 404.454 31.9945C404.454 32.0329 404.464 32.0705 404.483 32.1037C404.502 32.1369 404.53 32.1645 404.563 32.1837L408.639 34.5462C408.835 34.6588 409.007 34.809 409.145 34.9882C409.283 35.1675 409.385 35.3722 409.443 35.5907C409.502 35.8092 409.517 36.0371 409.487 36.2615C409.458 36.4858 409.384 36.702 409.271 36.8978L408.372 38.4591C408.258 38.6565 408.107 38.8294 407.926 38.9678C407.745 39.1062 407.538 39.2073 407.318 39.2652C407.1 39.3237 406.873 39.3383 406.65 39.3082C406.426 39.2782 406.211 39.2041 406.016 39.0902L401.953 36.7387C401.919 36.7195 401.882 36.7094 401.843 36.7094C401.805 36.7094 401.767 36.7194 401.734 36.7386C401.701 36.7578 401.673 36.7854 401.654 36.8186C401.635 36.8518 401.625 36.8895 401.624 36.9279L401.625 41.625C401.625 42.0891 401.441 42.5342 401.112 42.8624C400.784 43.1906 400.339 43.375 399.875 43.375Z" fill="white"/>
  <defs>
    <linearGradient id="paint0_linear_96_21" x1="0" y1="32" x2="367" y2="32" gradientUnits="userSpaceOnUse">
      <stop stop-opacity="0.25"/>
      <stop offset="1"/>
    </linearGradient>
    <linearGradient id="paint1_linear_96_21" x1="389.857" y1="-16" x2="418.429" y2="81.1429" gradientUnits="userSpaceOnUse">
      <stop stop-color="#8544E6"/>
      <stop offset="1" stop-color="#6B31C2" stop-opacity="0.27"/>
    </linearGradient>
  </defs>
</svg>
