<svg width="219" height="218" viewBox="0 0 219 218" fill="none" xmlns="http://www.w3.org/2000/svg">
<mask id="path-1-inside-1_638_211" fill="white">
<path d="M23.6308 171.644C22.3249 172.6 20.4878 172.318 19.5676 170.987C8.57386 155.085 1.9965 136.53 0.536324 117.218C-0.997566 96.9316 3.17667 76.6207 12.5868 58.5833C21.9968 40.546 36.2672 25.5021 53.7832 15.1539C71.2992 4.80572 91.3617 -0.433825 111.701 0.0280998C132.04 0.490024 151.844 6.63498 168.872 17.7677C185.9 28.9005 199.473 44.5766 208.055 63.0226C216.636 81.4686 219.884 101.948 217.431 122.144C215.095 141.369 207.682 159.607 195.978 174.993C194.998 176.281 193.15 176.479 191.889 175.465L167.807 156.102C166.546 155.088 166.351 153.247 167.313 151.946C174.728 141.917 179.43 130.125 180.938 117.711C182.564 104.326 180.411 90.7538 174.724 78.5289C169.037 66.3039 160.041 55.9147 148.756 48.5366C137.471 41.1584 124.346 37.0859 110.866 36.7798C97.3866 36.4736 84.0903 39.9461 72.4817 46.8043C60.8731 53.6625 51.4156 63.6326 45.1792 75.5868C38.9427 87.5409 36.1763 101.002 37.1928 114.447C38.1357 126.916 42.2976 138.91 49.2492 149.265C50.1512 150.608 49.8728 152.438 48.5669 153.394L23.6308 171.644Z"/>
</mask>
<path d="M23.6308 171.644C22.3249 172.6 20.4878 172.318 19.5676 170.987C8.57386 155.085 1.9965 136.53 0.536324 117.218C-0.997566 96.9316 3.17667 76.6207 12.5868 58.5833C21.9968 40.546 36.2672 25.5021 53.7832 15.1539C71.2992 4.80572 91.3617 -0.433825 111.701 0.0280998C132.04 0.490024 151.844 6.63498 168.872 17.7677C185.9 28.9005 199.473 44.5766 208.055 63.0226C216.636 81.4686 219.884 101.948 217.431 122.144C215.095 141.369 207.682 159.607 195.978 174.993C194.998 176.281 193.15 176.479 191.889 175.465L167.807 156.102C166.546 155.088 166.351 153.247 167.313 151.946C174.728 141.917 179.43 130.125 180.938 117.711C182.564 104.326 180.411 90.7538 174.724 78.5289C169.037 66.3039 160.041 55.9147 148.756 48.5366C137.471 41.1584 124.346 37.0859 110.866 36.7798C97.3866 36.4736 84.0903 39.9461 72.4817 46.8043C60.8731 53.6625 51.4156 63.6326 45.1792 75.5868C38.9427 87.5409 36.1763 101.002 37.1928 114.447C38.1357 126.916 42.2976 138.91 49.2492 149.265C50.1512 150.608 49.8728 152.438 48.5669 153.394L23.6308 171.644Z" fill="url(#paint0_linear_638_211)"/>
<path d="M23.6308 171.644C22.3249 172.6 20.4878 172.318 19.5676 170.987C8.57386 155.085 1.9965 136.53 0.536324 117.218C-0.997566 96.9316 3.17667 76.6207 12.5868 58.5833C21.9968 40.546 36.2672 25.5021 53.7832 15.1539C71.2992 4.80572 91.3617 -0.433825 111.701 0.0280998C132.04 0.490024 151.844 6.63498 168.872 17.7677C185.9 28.9005 199.473 44.5766 208.055 63.0226C216.636 81.4686 219.884 101.948 217.431 122.144C215.095 141.369 207.682 159.607 195.978 174.993C194.998 176.281 193.15 176.479 191.889 175.465L167.807 156.102C166.546 155.088 166.351 153.247 167.313 151.946C174.728 141.917 179.43 130.125 180.938 117.711C182.564 104.326 180.411 90.7538 174.724 78.5289C169.037 66.3039 160.041 55.9147 148.756 48.5366C137.471 41.1584 124.346 37.0859 110.866 36.7798C97.3866 36.4736 84.0903 39.9461 72.4817 46.8043C60.8731 53.6625 51.4156 63.6326 45.1792 75.5868C38.9427 87.5409 36.1763 101.002 37.1928 114.447C38.1357 126.916 42.2976 138.91 49.2492 149.265C50.1512 150.608 49.8728 152.438 48.5669 153.394L23.6308 171.644Z" fill="url(#paint1_radial_638_211)" fill-opacity="0.2"/>
<path d="M23.6308 171.644C22.3249 172.6 20.4878 172.318 19.5676 170.987C8.57386 155.085 1.9965 136.53 0.536324 117.218C-0.997566 96.9316 3.17667 76.6207 12.5868 58.5833C21.9968 40.546 36.2672 25.5021 53.7832 15.1539C71.2992 4.80572 91.3617 -0.433825 111.701 0.0280998C132.04 0.490024 151.844 6.63498 168.872 17.7677C185.9 28.9005 199.473 44.5766 208.055 63.0226C216.636 81.4686 219.884 101.948 217.431 122.144C215.095 141.369 207.682 159.607 195.978 174.993C194.998 176.281 193.15 176.479 191.889 175.465L167.807 156.102C166.546 155.088 166.351 153.247 167.313 151.946C174.728 141.917 179.43 130.125 180.938 117.711C182.564 104.326 180.411 90.7538 174.724 78.5289C169.037 66.3039 160.041 55.9147 148.756 48.5366C137.471 41.1584 124.346 37.0859 110.866 36.7798C97.3866 36.4736 84.0903 39.9461 72.4817 46.8043C60.8731 53.6625 51.4156 63.6326 45.1792 75.5868C38.9427 87.5409 36.1763 101.002 37.1928 114.447C38.1357 126.916 42.2976 138.91 49.2492 149.265C50.1512 150.608 49.8728 152.438 48.5669 153.394L23.6308 171.644Z" stroke="url(#paint2_linear_638_211)" stroke-opacity="0.35" stroke-width="0.586021" mask="url(#path-1-inside-1_638_211)"/>
<path d="M21.2663 173.374C9.251 156.957 2.07021 137.505 0.536324 117.218C-0.997566 96.9316 3.17667 76.6207 12.5868 58.5833C21.9968 40.546 36.2672 25.5021 53.7832 15.1539C71.2992 4.80572 91.3617 -0.433825 111.701 0.0280998C132.04 0.490024 151.844 6.63498 168.872 17.7677C185.9 28.9005 199.473 44.5766 208.055 63.0226C216.636 81.4686 219.884 101.948 217.431 122.144C214.977 142.34 206.921 161.446 194.173 177.301L187.375 171.835C199.103 157.249 206.514 139.672 208.771 121.092C211.028 102.512 208.04 83.6718 200.146 66.702C192.251 49.7322 179.764 35.3105 164.099 25.0687C148.434 14.8269 130.214 9.17369 111.503 8.74873C92.7914 8.32377 74.3343 13.144 58.2201 22.6641C42.1058 32.1842 28.9775 46.0241 20.3204 62.618C11.6634 79.2119 7.82324 97.8974 9.23437 116.56C10.6455 135.224 17.2516 153.119 28.3054 168.223L21.2663 173.374Z" fill="black" fill-opacity="0.15"/>
<path fill-rule="evenodd" clip-rule="evenodd" d="M16.0413 144.235L23.4985 141.415C23.3284 140.965 23.1618 140.514 22.9988 140.061L15.4981 142.763C15.6753 143.255 15.8564 143.746 16.0413 144.235ZM19.3086 91.2571L11.4869 89.7137C11.5882 89.2007 11.6934 88.6885 11.8027 88.1772L19.5991 89.8436C19.4986 90.314 19.4018 90.7851 19.3086 91.2571ZM42.2374 46.4502C42.5657 46.0987 42.8968 45.7497 43.2305 45.4033L37.4897 39.8712C37.1269 40.2477 36.7671 40.627 36.4102 41.0092L42.2374 46.4502ZM83.2945 12.8104L85.3697 20.5081C85.8341 20.3829 86.2995 20.2614 86.7659 20.1435L84.8121 12.4141C84.3052 12.5422 83.7993 12.6743 83.2945 12.8104ZM135.697 21.2548L137.999 13.622C138.5 13.773 138.999 13.928 139.498 14.0868L137.075 21.6824C136.617 21.5362 136.157 21.3937 135.697 21.2548ZM178.041 48.465C178.358 48.8261 178.673 49.1898 178.985 49.5559L185.053 44.385C184.714 43.987 184.372 43.5918 184.027 43.1992L178.041 48.465ZM199.63 93.9323L207.494 92.6216C207.58 93.1373 207.662 93.6537 207.74 94.1708L199.856 95.3575C199.784 94.8818 199.709 94.4068 199.63 93.9323ZM193.954 143.944L201.324 146.984C201.125 147.467 200.922 147.949 200.715 148.429L193.393 145.274C193.584 144.832 193.771 144.389 193.954 143.944Z" fill="white" fill-opacity="0.45"/>
<path fill-rule="evenodd" clip-rule="evenodd" d="M9.40518 117.818L20.1118 116.873C20.0786 116.497 20.0478 116.121 20.0194 115.745C19.9909 115.369 19.9648 114.993 19.9412 114.616L9.21409 115.291C9.24059 115.713 9.26978 116.134 9.30165 116.555C9.33352 116.977 9.36801 117.398 9.40518 117.818ZM19.8012 63.7764L29.3928 68.627C29.5629 68.2906 29.7352 67.9552 29.9097 67.6207C30.0842 67.2862 30.2607 66.953 30.4393 66.621L20.9735 61.5294C20.7735 61.9012 20.5757 62.2745 20.3803 62.6492C20.1848 63.0239 19.9918 63.3996 19.8012 63.7764ZM62.7512 32.5578L57.1674 23.3736C57.5282 23.1543 57.8905 22.9371 58.2544 22.7222C58.6182 22.5072 58.9833 22.2947 59.3495 22.0845L64.6992 31.4069C64.3722 31.5945 64.0464 31.7843 63.7215 31.9762C63.3967 32.1681 63.0732 32.3619 62.7512 32.5578ZM110.126 19.5432L110.234 8.79541C110.657 8.79966 111.079 8.80658 111.501 8.81617C111.924 8.82577 112.346 8.83803 112.768 8.85295L112.388 19.5945C112.011 19.5812 111.635 19.5703 111.257 19.5617C110.88 19.5531 110.503 19.547 110.126 19.5432ZM157.23 33.5084L162.997 24.4385C163.353 24.665 163.708 24.8939 164.062 25.1252C164.416 25.3564 164.768 25.5898 165.118 25.8253L159.123 34.7465C158.811 34.5362 158.496 34.3279 158.181 34.1214C157.865 33.915 157.548 33.7106 157.23 33.5084ZM189.856 70.2415L199.543 65.5849C199.726 65.9654 199.906 66.3473 200.085 66.7305C200.263 67.1136 200.439 67.4978 200.612 67.8828L190.81 72.293C190.655 71.9492 190.498 71.6063 190.339 71.2642C190.18 70.9222 190.019 70.5813 189.856 70.2415ZM198.164 118.664L208.849 119.825C208.804 120.245 208.755 120.665 208.705 121.084C208.654 121.504 208.6 121.923 208.544 122.341L197.891 120.91C197.941 120.537 197.989 120.162 198.035 119.788C198.08 119.413 198.123 119.039 198.164 118.664Z" fill="white"/>
<path fill-rule="evenodd" clip-rule="evenodd" d="M186.892 141.08C186.788 141.336 186.495 141.457 186.24 141.351V141.351C185.985 141.245 185.864 140.953 185.968 140.697C189.857 131.155 192 120.715 192 109.771C192 98.828 189.857 88.3877 185.968 78.8454C185.864 78.5897 185.985 78.2973 186.24 78.1915V78.1915C186.495 78.0857 186.788 78.2066 186.892 78.4623C190.83 88.1239 193 98.6942 193 109.771C193 120.849 190.83 131.419 186.892 141.08ZM33.7599 78.1915C33.5049 78.0858 33.2122 78.2066 33.108 78.4623C29.17 88.1239 27 98.6942 27 109.771C27 120.849 29.17 131.419 33.108 141.08C33.2122 141.336 33.5049 141.457 33.7599 141.351V141.351C34.015 141.245 34.136 140.953 34.0318 140.697C30.1432 131.155 28 120.715 28 109.771C28 98.828 30.1432 88.3877 34.0318 78.8454C34.136 78.5897 34.015 78.2973 33.7599 78.1915V78.1915Z" fill="url(#paint3_linear_638_211)"/>
<defs>
<linearGradient id="paint0_linear_638_211" x1="109.226" y1="0" x2="109.226" y2="172.504" gradientUnits="userSpaceOnUse">
<stop stop-color="#171717"/>
<stop offset="1" stop-color="#171717" stop-opacity="0"/>
</linearGradient>
<radialGradient id="paint1_radial_638_211" cx="0" cy="0" r="1" gradientUnits="userSpaceOnUse" gradientTransform="translate(109.226 67.0995) rotate(90) scale(58.0161)">
<stop stop-color="white"/>
<stop offset="1" stop-opacity="0"/>
</radialGradient>
<linearGradient id="paint2_linear_638_211" x1="109.226" y1="109" x2="117.567" y2="64.5631" gradientUnits="userSpaceOnUse">
<stop stop-color="white"/>
<stop offset="1" stop-color="white" stop-opacity="0"/>
</linearGradient>
<linearGradient id="paint3_linear_638_211" x1="117.632" y1="185.139" x2="117.632" y2="118.771" gradientUnits="userSpaceOnUse">
<stop stop-color="white"/>
<stop offset="1" stop-color="white" stop-opacity="0"/>
</linearGradient>
</defs>
</svg>
