<svg width="190" height="144" viewBox="0 0 190 144" fill="none" xmlns="http://www.w3.org/2000/svg">
<mask id="mask0_307_266" style="mask-type:alpha" maskUnits="userSpaceOnUse" x="0" y="0" width="190" height="144">
<path fill-rule="evenodd" clip-rule="evenodd" d="M169.516 137.059C169.516 137.676 169.715 137.763 170.042 138.177C170.285 138.485 170.464 138.729 170.707 139.036L173.394 142.447C173.933 143.093 174.324 143.918 175.035 143.918C175.658 143.918 175.847 143.503 176.075 143.125L178.121 139.627C178.28 139.346 178.399 139.129 178.567 138.854C178.737 138.576 178.887 138.261 178.783 137.906C178.578 137.203 177.917 137.174 177.164 137.077C176.234 136.956 171.099 136.209 170.436 136.209C170.057 136.209 169.805 136.405 169.637 136.693C169.574 136.8 169.516 136.891 169.516 137.059ZM4.23179 121.763L5.06892 124.333C5.4337 124.886 6.01826 124.316 6.30239 124.055L7.65713 122.846C7.84401 122.698 8.27955 122.411 8.27955 122.127C8.27955 121.677 7.93432 121.565 7.53507 121.528L5.07207 121.292C4.62243 121.228 4.23179 121.406 4.23179 121.763ZM156.391 27.0718C156.556 27.0718 158.574 26.1269 158.987 25.9387C159.295 25.7984 159.642 25.7442 159.642 25.3115C159.642 24.9311 158.722 24.2718 158.4 23.9909C158.28 23.886 158.212 23.7952 158.094 23.6871C157.755 23.3763 157.214 22.8843 156.881 23.49L155.902 26.3516C155.763 26.7851 156.094 27.0718 156.391 27.0718ZM162.647 33.2631C162.647 34.1923 163.925 33.5594 164.295 33.4375L166.266 32.7781C167.005 32.3808 166.158 31.7001 165.789 31.3063C164.977 30.4381 164.408 29.3027 163.811 30.652C163.748 30.7947 163.681 30.8975 163.61 31.0604C163.441 31.4525 162.647 33.1102 162.647 33.2631ZM27.3532 33.2631C27.3532 33.0999 26.3984 31.1028 26.2082 30.6936C26.0665 30.3888 26.0117 30.0461 25.5746 30.0461C25.1902 30.0461 24.524 30.956 24.2402 31.2748L23.6254 31.9413C22.9177 32.7229 24.2789 32.9673 24.6928 33.1039L26.6255 33.7471C26.8319 33.8123 26.9464 33.8002 27.1109 33.694C27.2417 33.6095 27.3532 33.4538 27.3532 33.2631ZM30.3583 25.3115C30.3583 25.7309 30.8141 25.8774 31.3832 26.1182C31.7793 26.2858 33.4542 27.0718 33.6088 27.0718C33.9831 27.0718 34.2013 26.7102 34.1137 26.3972C34.0268 26.0865 33.8906 25.7544 33.785 25.4407L33.1187 23.49C32.7173 22.7588 32.0295 23.5969 31.6317 23.9617C31.4913 24.0904 31.4332 24.1047 31.2928 24.2334C30.8466 24.6425 30.3583 24.9681 30.3583 25.3115ZM7.66626 57.0572C7.66626 57.4298 7.95816 57.6035 8.3409 57.6035H11.2847C11.2847 57.6035 12.265 57.3741 11.2081 56.3439L9.92022 54.9479C9.71061 54.7431 9.02618 53.7929 8.59416 54.8799C8.41667 55.3265 7.66626 56.8387 7.66626 57.0572ZM20.7909 41.154C21.1372 41.154 21.2815 40.9332 21.2815 40.6078C21.2815 40.3674 20.1248 38.5313 19.9201 38.1918C19.5849 37.6363 19.3017 37.1413 18.6347 38.0489L17.6799 39.3497C17.2918 39.8618 17.0363 40.3712 17.9435 40.5729L19.8096 40.972C20.0781 41.0348 20.4916 41.154 20.7909 41.154ZM185.707 84.4932C185.707 84.8724 185.999 85.0185 186.311 85.1095C186.627 85.2016 186.946 85.2959 187.248 85.3962L189.141 85.95C189.882 85.95 189.547 84.7039 189.508 84.2521C189.479 83.9265 189.426 83.5274 189.394 83.2115C189.245 81.7661 187.848 83.125 186.361 83.8658C186.126 83.9826 185.707 84.1961 185.707 84.4932ZM131.798 8.25508V11.1686C131.798 11.1686 132.034 12.1401 133.07 11.0926L134.481 9.81815C134.695 9.60365 135.616 8.91748 134.55 8.5055C133.341 8.03801 131.798 6.89817 131.798 8.25508ZM7.66626 130.989C7.66626 131.207 8.41667 132.72 8.59416 133.166C9.13863 134.536 10.1385 132.745 11.1465 131.762C11.3002 131.613 11.714 131.228 11.714 130.989C11.714 130.752 11.48 130.443 11.2847 130.443H8.3409C7.95816 130.443 7.66626 130.616 7.66626 130.989ZM148.418 20.577C148.418 20.9198 148.641 21.0626 148.97 21.0626C149.213 21.0626 151.068 19.9179 151.411 19.7152C151.973 19.3835 152.473 19.1032 151.556 18.4431L150.241 17.498C148.921 16.5176 149.042 17.7671 148.602 19.6059C148.539 19.8716 148.418 20.2809 148.418 20.577ZM178.286 57.0572C178.286 57.2942 178.52 57.6035 178.715 57.6035H181.659C182.89 57.6035 182.067 56.3315 181.741 55.6408C181.628 55.401 181.507 55.1348 181.423 54.9238C180.853 53.4925 179.899 55.2646 178.854 56.2836C178.7 56.4335 178.286 56.8177 178.286 57.0572ZM178.286 130.928C178.286 131.259 179.183 132.155 179.436 132.4C180.04 132.986 180.899 134.441 181.406 133.166C181.505 132.918 181.612 132.688 181.721 132.447C182.779 130.118 182.805 130.443 178.715 130.443C178.536 130.443 178.286 130.745 178.286 130.928ZM123.334 8.19437C123.689 8.19437 124.067 7.66008 124.392 7.29848C124.525 7.14986 124.545 7.08488 124.698 6.93397C124.934 6.7006 125.076 6.50972 125.313 6.26829C125.458 6.12081 125.48 6.05392 125.62 5.90447C126.049 5.4475 125.892 5.08111 125.322 4.89229C125.045 4.80059 124.86 4.7419 124.584 4.65095C122.427 3.93902 122.421 3.86323 122.67 6.18105C122.757 6.99199 122.685 8.19437 123.334 8.19437ZM103.157 0.789068C103.157 1.14304 103.843 3.0783 103.993 3.60393C104.227 4.42525 104.791 4.51769 105.243 3.6424C105.388 3.35965 105.535 3.11415 105.707 2.82699C107.237 0.267154 106.866 0.771251 103.873 0.377243C103.672 0.350801 103.555 0.362178 103.422 0.443973C103.342 0.493437 103.157 0.707724 103.157 0.789068ZM184.235 75.0242C184.235 75.4295 184.325 75.5953 184.789 75.6897C185.499 75.8341 187.278 76.2382 187.792 76.2382C187.938 76.2382 188.273 76.0146 188.181 75.5566L187.748 73.5508C187.496 72.2265 186.565 73.2285 185.645 73.8705C185.405 74.0379 184.235 74.7661 184.235 75.0242ZM37.9632 19.0595C37.9632 19.4603 38.2751 19.5332 38.5506 19.6922C38.9904 19.9461 40.7254 21.0626 41.091 21.0626C41.8638 21.0626 41.5058 20.0601 41.4099 19.6545L41.0053 17.809C40.8138 16.9214 40.3662 17.0515 39.7935 17.4719L38.4797 18.4174C38.25 18.5801 37.9632 18.7191 37.9632 19.0595ZM168.719 40.6077C168.719 41.4322 169.589 41.112 170.141 40.984L172.006 40.5834C172.905 40.3953 172.769 39.9485 172.347 39.3843L171.391 38.084C170.605 36.9954 170.294 37.7506 169.62 38.9501C169.459 39.2362 168.719 40.3799 168.719 40.6077ZM64.1511 5.34152C64.1511 5.65362 64.1565 5.66922 64.349 5.87404L65.8774 7.57835C66.0266 7.76331 66.3172 8.19437 66.6043 8.19437C67.3562 8.19437 67.203 7.1596 67.3227 6.23465C67.6425 3.76388 67.4243 3.98848 65.4621 4.63605C65.0402 4.7753 64.1511 4.94926 64.1511 5.34152ZM83.4087 1.15326C83.4087 1.41325 84.5351 3.20427 84.7373 3.6017C85.2499 4.60961 85.7944 4.32083 85.9938 3.65114L86.5746 1.79801C86.6511 1.57253 86.8432 1.07521 86.8432 0.849793C86.8432 0.57398 86.5355 0.336187 86.1814 0.369152L84.0762 0.599938C83.6809 0.639776 83.4087 0.751065 83.4087 1.15326ZM54.9516 9.04416C54.9516 9.48101 55.77 9.99911 56.1938 10.4248C56.4434 10.6756 57.4112 11.5935 57.6501 11.5935C57.8896 11.5935 58.2021 11.3619 58.2021 11.1686V8.25508C58.2021 6.90114 56.6638 8.03325 55.4502 8.50573C55.2017 8.60248 54.9516 8.68444 54.9516 9.04416ZM181.72 65.9193C181.72 66.6635 182.766 66.5118 183.701 66.6303C184.131 66.6849 184.558 66.7018 184.928 66.7542C186.322 66.9519 185.561 65.5169 185.316 64.7889C185.224 64.5168 185.163 64.3329 185.072 64.0593C184.65 62.7891 183.826 63.9417 183.385 64.2894L182.343 65.1999C182.156 65.3476 181.72 65.6352 181.72 65.9193ZM184.235 112.9C184.235 113.281 184.472 113.338 184.858 113.62C185.116 113.808 185.335 113.964 185.609 114.151C186.464 114.735 187.488 115.83 187.738 114.547C187.805 114.205 187.877 113.912 187.95 113.543C188.024 113.17 188.092 112.9 188.169 112.54C188.437 111.293 186.713 111.967 185.815 112.157C185.47 112.23 185.161 112.285 184.841 112.347C184.5 112.412 184.235 112.517 184.235 112.9ZM0.797301 85.95C1.10445 85.95 1.51115 85.7856 1.77076 85.6995L3.64141 85.1229C4.47126 84.8909 4.56464 84.3322 3.68027 83.8858C3.29 83.6888 1.41659 82.5509 1.16526 82.5509C0.524083 82.5509 0.576354 83.3743 0.496305 84.1954C0.447811 84.6927 0.287359 85.432 0.448637 85.6873C0.498597 85.7664 0.715111 85.95 0.797301 85.95ZM1.16528 105.495C1.37544 105.495 2.55704 104.791 2.81802 104.642C3.29336 104.371 4.2931 103.932 4.2931 103.553C4.2931 102.958 3.48593 102.894 2.75228 102.65C2.43394 102.544 2.14613 102.471 1.81673 102.362C1.58889 102.286 1.0864 102.096 0.858639 102.096C0.579978 102.096 0.339714 102.401 0.373021 102.751C0.402097 103.057 0.462795 103.457 0.492378 103.794C0.567133 104.646 0.530539 105.495 1.16528 105.495ZM185.707 103.492C185.707 103.859 186.066 104.032 186.32 104.16L187.964 105.082C189.385 105.933 189.351 105.415 189.504 103.851C189.552 103.353 189.713 102.614 189.551 102.359C189.257 101.893 188.767 102.168 188.229 102.347L186.359 102.923C186.056 103.008 185.707 103.153 185.707 103.492ZM112.97 2.18515C112.97 2.73772 113.371 4.37797 113.514 5.10608C113.613 5.60742 113.758 5.70572 114.196 5.70572C114.494 5.70572 115.654 3.92477 115.877 3.6056C116.108 3.27472 116.884 2.45799 115.737 2.23852L113.71 1.81191C113.187 1.70185 112.97 2.02283 112.97 2.18515ZM4.23176 66.2835C4.23176 66.6131 4.59333 66.8121 5.01753 66.7628L7.47793 66.522C8.38562 66.457 8.60714 65.9162 7.72755 65.2516L7.006 64.6304C6.77671 64.4032 5.86125 63.4913 5.51967 63.4913C5.15069 63.4913 5.0654 63.6514 4.94309 64.0133C4.80455 64.4232 4.23176 66.0711 4.23176 66.2835ZM2.20787 76.2382C2.76619 76.2382 4.42346 75.8406 5.15912 75.6992C5.66567 75.6019 5.76499 75.4581 5.76499 75.0242C5.76499 74.7292 3.96555 73.5812 3.64308 73.3609C3.30876 73.1325 2.48355 72.364 2.26179 73.4994L1.83075 75.5058C1.79158 75.688 1.75234 75.7999 1.85804 75.9732C1.92117 76.0767 2.07112 76.2382 2.20787 76.2382ZM2.82115 115.146C3.12534 115.146 4.76284 113.901 5.10762 113.646C5.50625 113.351 5.76499 113.288 5.76499 112.9C5.76499 112.307 4.99417 112.323 4.23616 112.168C3.43734 112.004 1.57817 111.288 1.81894 112.489L2.25239 114.495C2.32227 114.863 2.41161 115.146 2.82115 115.146ZM73.6572 2.79214C73.6572 3.09321 74.9154 4.71386 75.1732 5.05511C75.4711 5.44962 75.535 5.70572 75.9264 5.70572C76.5265 5.70572 76.5098 4.94281 76.6668 4.19261C76.8322 3.40199 77.5553 1.56194 76.3417 1.80023L74.315 2.22922C73.9438 2.29839 73.6572 2.38681 73.6572 2.79214ZM181.72 122.066C181.72 122.389 182.078 122.648 182.272 122.794C182.72 123.133 184.065 124.555 184.48 124.555C185.022 124.555 185.048 124.052 185.301 123.303C185.565 122.517 186.296 121.131 184.982 121.283L182.522 121.524C182.138 121.552 181.72 121.665 181.72 122.066ZM19.5029 51.8371C19.9315 51.8371 20.1724 51.6801 20.3634 51.3534C20.7987 50.6082 19.9809 49.8818 19.293 49.0099L16.9529 46.0451C16.8169 45.8727 16.7425 45.7623 16.6062 45.5991L15.9374 44.7435C15.3557 43.9632 14.6138 43.9277 14.1567 44.5428L12.7755 46.8785C12.473 47.4143 12.1817 47.8834 11.8791 48.4192C11.5517 48.9989 11.0639 49.6164 11.2166 50.1399C11.4215 50.8428 12.0824 50.8718 12.836 50.9694L19.5029 51.8371ZM190 96.8152V91.2309C190 90.7548 189.701 90.4352 189.266 90.3143C188.759 90.1735 187.306 90.9016 186.758 91.1182C186.36 91.2758 185.955 91.4348 185.54 91.6121L181.921 93.0682C180.913 93.4734 180.942 94.5717 181.877 94.9605C182.313 95.1416 182.656 95.2796 183.096 95.4538L187.932 97.4047C188.433 97.6032 189.242 98.067 189.768 97.4353C189.903 97.2729 190 97.0934 190 96.8152ZM97.8212 0H92.1788C91.6978 0 91.3749 0.296015 91.2528 0.726659C91.1325 1.1509 91.417 1.63577 91.5655 2.00307L94.0352 7.99598C94.4447 8.99376 95.5544 8.96457 95.9472 8.03929C96.1302 7.60838 96.2696 7.26877 96.4457 6.83304L98.4171 2.04655C98.6151 1.55335 99.0875 0.750965 98.4478 0.229635C98.2837 0.095908 98.1023 0 97.8212 0ZM0 91.2309V96.8152C0 97.0832 0.077672 97.2333 0.205423 97.401C0.814039 98.1996 2.08344 97.386 3.24171 96.9279C3.6402 96.7703 4.04504 96.6113 4.45987 96.434C4.86277 96.2617 5.2495 96.1201 5.64246 95.9655L8.07906 94.9779C9.08721 94.5727 9.0577 93.4744 8.12282 93.0856L2.06759 90.6413C1.56655 90.4429 0.757554 89.979 0.232005 90.6107C0.0968877 90.7731 0 90.9527 0 91.2309ZM137.624 19.3023C137.624 19.8824 138.037 20.2735 138.606 20.2735C139.109 20.2735 139.944 19.5097 140.481 19.0946C140.786 18.8587 141.029 18.6563 141.339 18.426C141.504 18.3025 141.596 18.2339 141.752 18.1072L143.927 16.4355C144.077 16.313 144.185 16.2437 144.345 16.1204C144.514 15.9892 144.623 15.8966 144.791 15.7735C145.58 15.1978 145.616 14.4636 144.994 14.0111C144.892 13.9369 144.716 13.8435 144.612 13.7821L143.451 13.111C143.176 12.9642 142.916 12.8122 142.634 12.6446C142.108 12.332 141.613 12.0533 141.078 11.7569C140.492 11.4329 139.868 10.9502 139.339 11.1012C138.629 11.3041 138.6 11.9582 138.501 12.704C138.398 13.4789 138.317 14.1226 138.203 14.8982C138.092 15.6551 138.009 16.3216 137.896 17.0828L137.624 19.3023ZM169.516 50.8659C169.516 51.4034 169.88 51.8371 170.497 51.8371C170.949 51.8371 171.221 51.7634 171.606 51.7207C173.344 51.5285 175.264 51.1803 177.054 50.9823C177.848 50.8945 178.544 50.8521 178.768 50.1872C178.887 49.8368 178.773 49.5453 178.613 49.2676L175.868 44.5786C175.451 43.9731 174.687 43.911 174.088 44.7085L170.068 49.8347C169.848 50.1204 169.516 50.3803 169.516 50.8659ZM14.9645 143.918C15.6717 143.918 16.0397 143.132 16.5781 142.48C16.8166 142.191 17.027 141.928 17.2513 141.629L19.9315 138.211C20.2069 137.855 20.8744 137.176 20.2058 136.484C19.7554 136.019 19.0523 136.253 18.3939 136.325C18.0005 136.369 17.7117 136.413 17.3134 136.47L12.9456 137.064C12.1518 137.152 11.4563 137.194 11.2316 137.859C11.1132 138.209 11.2269 138.501 11.387 138.778C11.5439 139.051 11.6936 139.286 11.8366 139.547L14.1315 143.468C14.3071 143.722 14.5594 143.918 14.9645 143.918ZM44.5868 14.8106C44.5868 15.4518 45.0851 15.6607 45.5872 16.0664L46.8998 17.0739C47.0652 17.1953 47.1509 17.2712 47.3112 17.3951L48.6261 18.4003C48.9222 18.6186 49.1962 18.8395 49.4848 19.0679C49.9068 19.402 50.8774 20.2736 51.3944 20.2736C51.9375 20.2736 52.3757 19.9128 52.3757 19.3024C52.3757 18.6466 51.6315 13.8708 51.512 12.8126C51.4233 12.0269 51.3805 11.3386 50.7086 11.1162C50.1282 10.924 49.5952 11.3973 49.0026 11.715L45.0417 13.9862C44.7842 14.1601 44.5868 14.4097 44.5868 14.8106Z" fill="black"/>
</mask>
<g mask="url(#mask0_307_266)">
<rect width="190" height="144" fill="black" />
</g>
</svg>
