<svg width="37" height="39" viewBox="0 0 37 39" fill="none" xmlns="http://www.w3.org/2000/svg">
  <path
    d="M31.6603 20.8061V17.3541H28.9904V21.3589C28.9905 21.7129 29.1312 22.0524 29.3815 22.3027L32.9952 25.9165V28.0336H3.62671V25.9165L7.24037 22.3027C7.49074 22.0524 7.63143 21.7129 7.63151 21.3589V16.0192C7.62807 14.1434 8.11963 12.3 9.05655 10.675C9.99348 9.05005 11.3426 7.70106 12.9676 6.76427C14.5927 5.82749 16.4362 5.33609 18.3119 5.33969C20.1877 5.3433 22.0292 5.84177 23.6507 6.78479V3.80015C22.3799 3.23755 21.0284 2.87898 19.6459 2.73768V0H16.976V2.73768C13.685 3.07252 10.635 4.61576 8.41582 7.06899C6.19665 9.52221 4.96593 12.7112 4.96164 16.0192V20.8061L1.34798 24.4199C1.09762 24.6702 0.956924 25.0097 0.956848 25.3637V29.3685C0.956848 29.7225 1.09749 30.0621 1.34784 30.3124C1.59819 30.5628 1.93773 30.7034 2.29178 30.7034H11.6363V32.0384C11.6363 33.8086 12.3395 35.5063 13.5913 36.7581C14.843 38.0098 16.5407 38.713 18.311 38.713C20.0812 38.713 21.7789 38.0098 23.0307 36.7581C24.2824 35.5063 24.9856 33.8086 24.9856 32.0384V30.7034H34.3301C34.6842 30.7034 35.0237 30.5628 35.2741 30.3124C35.5244 30.0621 35.6651 29.7225 35.6651 29.3685V25.3637C35.665 25.0097 35.5243 24.6702 35.2739 24.4199L31.6603 20.8061ZM22.3158 32.0384C22.3158 33.1005 21.8938 34.1191 21.1428 34.8702C20.3917 35.6212 19.3731 36.0432 18.311 36.0432C17.2488 36.0432 16.2302 35.6212 15.4791 34.8702C14.7281 34.1191 14.3062 33.1005 14.3062 32.0384V30.7034H22.3158V32.0384Z"
    fill="white" />
  <path
    d="M31.6603 14.6842C34.6093 14.6842 37 12.2936 37 9.34452C37 6.39547 34.6093 4.00479 31.6603 4.00479C28.7112 4.00479 26.3205 6.39547 26.3205 9.34452C26.3205 12.2936 28.7112 14.6842 31.6603 14.6842Z"
    fill="white" />
</svg>