<svg width="68" height="68" viewBox="0 0 68 68" fill="none" xmlns="http://www.w3.org/2000/svg">
  <g filter="url(#filter0_d_1659_2018)">
    <path
      d="M22.1112 32.556C22.5844 32.556 23.0221 32.5438 23.458 32.556C24.0444 32.5762 24.4821 33.0133 24.487 33.5581C24.4925 34.1237 24.0518 34.5596 23.4463 34.5755C23.1201 34.5847 22.7938 34.5755 22.4669 34.5755H22.1351C22.5318 40.1877 27.2625 44.7984 32.7253 45.1614C32.7253 44.7329 32.7131 44.3087 32.7253 43.8845C32.7467 43.2594 33.1581 42.8328 33.7219 42.826C34.2398 42.8199 34.6799 43.1854 34.727 43.702C34.7625 44.0871 34.7485 44.4764 34.7558 44.8651C34.7558 44.9643 34.7558 45.0628 34.7558 45.1859C35.7409 45.1036 36.7111 44.8937 37.6421 44.5615C38.9986 44.0767 40.2544 43.3465 41.3468 42.4073C41.7484 42.0664 41.9461 42.0578 42.3844 42.3565C43.0835 42.8332 43.7813 43.3119 44.4779 43.7926C44.9805 44.1397 45.016 44.5272 44.5722 44.9465C42.2461 47.1399 39.5269 48.5582 36.3694 49.0675C31.6822 49.8217 27.4522 48.7161 23.7708 45.7221C20.7627 43.2735 18.9152 40.0995 18.2516 36.2687C17.593 32.4648 18.2204 28.8617 20.2154 25.561C22.645 21.5367 26.2016 19.0514 30.8197 18.1099C31.0388 18.0652 31.2616 18.0328 31.4839 18.0065C31.8928 17.9575 32.2037 18.1901 32.2105 18.6002C32.227 19.5687 32.2227 20.5377 32.2105 21.5067C32.2062 21.8379 31.9834 22.0007 31.6761 22.0852C30.9415 22.2872 30.1812 22.4347 29.4809 22.7249C25.6176 24.3281 23.2223 27.1869 22.2986 31.2711C22.2496 31.4897 22.219 31.7125 22.1859 31.9341C22.1584 32.1275 22.1394 32.3197 22.1112 32.556Z"
      fill="white" />
    <path
      d="M37.022 35.0536C36.7361 35.0536 36.4502 35.0615 36.165 35.0536C35.6752 35.0371 35.2467 35.0891 34.8097 35.4092C34.0708 35.9479 33.2285 35.91 32.4535 35.427C31.711 34.9642 31.362 34.2639 31.419 33.383C31.4375 33.1616 31.3719 32.9413 31.2353 32.766C30.3604 31.5499 29.4917 30.329 28.6294 29.1035C28.1354 28.4044 28.1678 27.6166 28.7004 27.0626C29.3126 26.4241 30.3532 26.4302 30.9188 27.1238C31.4202 27.736 31.8603 28.4038 32.3231 29.0502C32.8128 29.7383 33.2964 30.4343 33.7965 31.1162C33.8774 31.2264 34.0249 31.295 34.1522 31.3611C34.4713 31.5325 34.7939 31.697 35.12 31.8545C35.2498 31.9157 35.3912 31.9977 35.5283 31.9996C36.4974 32.0124 37.4658 31.9996 38.4348 32.0088C39.4038 32.0179 40.0754 32.6729 40.0515 33.5789C40.0301 34.3937 39.4069 35.015 38.5505 35.0481C38.0418 35.0695 37.5319 35.0536 37.022 35.0536Z"
      fill="white" />
    <path
      d="M49.3917 35.4178C49.2135 36.2326 49.0617 37.0547 48.8505 37.8609C48.5481 39.0178 48.0762 40.1118 47.5038 41.161C47.2259 41.6678 46.8837 41.7572 46.4019 41.4315C45.7082 40.9634 45.0189 40.4907 44.3341 40.0132C43.8854 39.701 43.826 39.4721 44.077 38.9725C44.6087 37.9391 44.9897 36.8348 45.2082 35.6933C45.3093 35.1497 45.4635 35.0309 46.0298 34.9777C46.9027 34.8962 47.775 34.8081 48.6491 34.7414C49.0764 34.712 49.3513 34.9923 49.3917 35.4178Z"
      fill="white" />
    <path
      d="M46.034 31.9328C45.4972 31.9475 45.3141 31.7798 45.1874 31.3488C44.9377 30.5016 44.6714 29.6595 44.3886 28.8225C44.2392 28.3824 44.2661 28.1687 44.6218 27.881C45.305 27.3325 45.9914 26.7877 46.6811 26.2466C47.1396 25.8891 47.5228 25.9925 47.786 26.5196C48.4573 27.8703 48.9369 29.308 49.2111 30.7912C49.3176 31.3598 49.1052 31.6427 48.531 31.6953C47.6685 31.7749 46.8065 31.8588 46.034 31.9328Z"
      fill="white" />
    <path
      d="M40.289 23.6884C40.3502 23.4858 40.3808 23.3554 40.4335 23.2361C40.7767 22.4525 41.1236 21.6704 41.4741 20.8897C41.719 20.3492 42.1144 20.2212 42.5699 20.5836C43.3963 21.2448 44.2078 21.9246 45.0044 22.6233C45.4329 23.0016 45.3962 23.383 44.9432 23.7472C44.2821 24.2777 43.6195 24.8048 42.9555 25.3284C42.5785 25.6271 42.3165 25.6118 41.9528 25.2929C41.5158 24.9097 41.0658 24.5418 40.6373 24.1494C40.488 24.0141 40.3931 23.8256 40.289 23.6884Z"
      fill="white" />
    <path
      d="M35.2608 20.0406C35.2608 19.5925 35.2535 19.1444 35.2608 18.6939C35.2712 18.1772 35.5669 17.925 36.0799 18.0291C36.8267 18.1809 37.57 18.3495 38.3099 18.5347C38.8088 18.6572 38.9692 19.0159 38.7623 19.4952C38.4158 20.2983 38.0624 21.0984 37.7021 21.8954C37.5184 22.3068 37.2834 22.4152 36.8451 22.3197C36.4974 22.2446 36.1505 22.165 35.8044 22.0809C35.4322 21.9909 35.2694 21.7957 35.2633 21.4137C35.2553 20.9576 35.2608 20.4991 35.2608 20.0406Z"
      fill="white" />
  </g>
  <defs>
    <filter id="filter0_d_1659_2018" x="0" y="0" width="67.3917" height="67.2967" filterUnits="userSpaceOnUse"
      color-interpolation-filters="sRGB">
      <feFlood flood-opacity="0" result="BackgroundImageFix" />
      <feColorMatrix in="SourceAlpha" type="matrix" values="0 0 0 0 0 0 0 0 0 0 0 0 0 0 0 0 0 0 127 0"
        result="hardAlpha" />
      <feOffset />
      <feGaussianBlur stdDeviation="9" />
      <feComposite in2="hardAlpha" operator="out" />
      <feColorMatrix type="matrix" values="0 0 0 0 1 0 0 0 0 1 0 0 0 0 1 0 0 0 0.08 0" />
      <feBlend mode="normal" in2="BackgroundImageFix" result="effect1_dropShadow_1659_2018" />
      <feBlend mode="normal" in="SourceGraphic" in2="effect1_dropShadow_1659_2018" result="shape" />
    </filter>
  </defs>
</svg>