<svg width="44" height="44" viewBox="0 0 44 44" fill="none" xmlns="http://www.w3.org/2000/svg">
  <g filter="url(#filter0_d_1659_2026)">
    <path
      d="M21.8794 13.704C24.0352 13.704 26.1911 13.7137 28.3496 13.704C29.188 13.704 29.864 13.9656 30.3637 14.6677C30.6886 15.1234 30.7767 15.6313 30.7767 16.16C30.7767 17.5587 30.7767 18.9578 30.7767 20.3574V27.3783C30.7767 27.5848 30.7767 27.7913 30.7767 27.9978C30.6941 29.2987 29.813 30.1646 28.5066 30.1936C27.5663 30.2142 26.6261 30.1936 25.6858 30.1936C22.269 30.1936 18.8521 30.1936 15.4353 30.1936C14.7649 30.1936 14.1743 30.0339 13.6814 29.552C13.4611 29.3531 13.2886 29.1068 13.177 28.8316C13.0654 28.5565 13.0176 28.2596 13.0372 27.9634C13.0716 27.1649 13.0055 26.3623 13.0041 25.5611C12.9986 22.3967 12.9986 19.2304 13.0041 16.0622C13.0041 14.8948 13.5548 14.073 14.5405 13.8073C14.8754 13.7311 15.2187 13.6983 15.5619 13.7095C17.671 13.7013 19.7814 13.7095 21.8945 13.7095L21.8794 13.704ZM21.9152 14.3772V14.3924C20.4491 14.3924 18.9829 14.3924 17.5168 14.3924C16.6371 14.3924 16.2682 14.7159 16.264 15.5721C16.2494 18.5512 16.2526 21.5294 16.2737 24.5066C16.2737 25.2665 16.6192 25.601 17.375 25.6079C20.3761 25.6208 23.3772 25.6208 26.3783 25.6079C27.1258 25.6079 27.4796 25.2486 27.4796 24.5066C27.4915 21.5055 27.4915 18.5044 27.4796 15.5033C27.4796 14.815 27.0446 14.3882 26.3686 14.3869C24.8887 14.3745 23.402 14.3772 21.9152 14.3772ZM27.1988 26.1737H16.443C15.8249 27.1112 15.1751 28.0928 14.4716 29.1583C14.802 29.2643 15.0223 29.3896 15.2618 29.402C15.8965 29.4323 16.5325 29.4268 17.1671 29.4157C18.6167 29.3896 20.0663 29.3345 21.516 29.3235C23.7379 29.3084 25.9598 29.3235 28.1817 29.3153C28.4818 29.3153 28.7833 29.2533 29.1839 29.2093L27.1988 26.1737ZM27.9917 14.5452C28.0206 15.0711 28.0661 15.5226 28.0674 15.9755C28.0674 18.6779 28.0674 21.3802 28.0674 24.084C28.0674 24.6856 28.044 25.2679 27.6765 25.7841C28.3249 26.7671 28.9567 27.7225 29.5873 28.6751L29.7772 28.631C29.8461 28.2834 29.8921 27.9316 29.9149 27.5779C29.925 23.7976 29.925 20.0178 29.9149 16.2385C29.9196 16.033 29.9021 15.8276 29.8626 15.6258C29.808 15.3187 29.6459 15.041 29.4053 14.8425C29.1646 14.644 28.8612 14.5376 28.5493 14.5424C28.3772 14.5397 28.1955 14.5452 27.9917 14.5452ZM15.712 14.6168C14.5212 14.3814 13.8535 14.9114 13.8397 16.1421C13.8397 16.2797 13.8397 16.4174 13.8397 16.5551C13.8269 20.3565 13.8168 24.1569 13.8095 27.9565C13.8263 28.1632 13.8627 28.3679 13.9182 28.5677L14.111 28.6063L15.8772 25.9025C15.7863 25.133 15.6693 24.5754 15.6652 24.0179C15.6445 21.5 15.6528 18.9807 15.6652 16.4615C15.6597 15.8489 15.6927 15.2363 15.712 14.6168Z"
      fill="white" fill-opacity="0.64" />
    <path
      d="M19.9328 22.7004V17.1828H24.0256V18.1162H21.0479V19.34H23.8177V20.2693H21.0479V21.7712H24.1302V22.7004H19.9328Z"
      fill="white" fill-opacity="0.64" />
  </g>
  <defs>
    <filter id="filter0_d_1659_2026" x="0" y="0.704041" width="43.7767" height="42.4987" filterUnits="userSpaceOnUse"
      color-interpolation-filters="sRGB">
      <feFlood flood-opacity="0" result="BackgroundImageFix" />
      <feColorMatrix in="SourceAlpha" type="matrix" values="0 0 0 0 0 0 0 0 0 0 0 0 0 0 0 0 0 0 127 0"
        result="hardAlpha" />
      <feOffset />
      <feGaussianBlur stdDeviation="6.5" />
      <feComposite in2="hardAlpha" operator="out" />
      <feColorMatrix type="matrix" values="0 0 0 0 1 0 0 0 0 1 0 0 0 0 1 0 0 0 0.25 0" />
      <feBlend mode="normal" in2="BackgroundImageFix" result="effect1_dropShadow_1659_2026" />
      <feBlend mode="normal" in="SourceGraphic" in2="effect1_dropShadow_1659_2026" result="shape" />
    </filter>
  </defs>
</svg>