<svg width="21" height="15" viewBox="0 0 21 15" fill="none" xmlns="http://www.w3.org/2000/svg">
  <path
    d="M1.48364 11.1884C0.982776 9.10909 0.468998 7.04746 0.00779695 4.97611C-0.0392455 4.76366 0.13416 4.38391 0.324174 4.27769C0.536327 4.15907 0.936648 4.17058 1.16448 4.28831C2.5158 4.98673 3.83944 5.73384 5.17416 6.46324C5.3199 6.54291 5.46749 6.61903 5.64367 6.71197C5.74606 6.57034 5.84291 6.44111 5.93423 6.30833C7.14504 4.56686 8.35523 2.82597 9.5648 1.08568C10.026 0.427094 10.5195 0.408506 11.025 1.0308C12.4036 2.72978 13.7814 4.42935 15.1582 6.12952L15.6333 6.71197C16.4395 6.19767 17.2309 5.69312 18.0205 5.18767C18.4558 4.90972 18.894 4.63708 19.3229 4.35205C19.6356 4.14403 19.9547 4.02542 20.3016 4.2538C20.6484 4.48218 20.665 4.81854 20.5718 5.19829C20.083 7.1891 19.6116 9.18167 19.131 11.1911L1.48364 11.1884Z"
    fill="#FFD600" />
  <path
    d="M1.83506 12.6366H18.7777C18.6421 13.196 18.5342 13.7378 18.3737 14.2653C18.252 14.6672 17.8987 14.7549 17.4938 14.754C15.0512 14.7475 12.6084 14.7475 10.1653 14.754H3.20483C2.49089 14.754 2.31841 14.6256 2.15238 13.9662C2.04538 13.5342 1.94667 13.1004 1.83506 12.6366Z"
    fill="#FFD600" />
</svg>