<svg width="21" height="15" viewBox="0 0 21 15" fill="none" xmlns="http://www.w3.org/2000/svg">
  <path
    d="M1.48364 10.6751C0.982776 8.59578 0.468998 6.53416 0.00779695 4.4628C-0.0392455 4.25035 0.13416 3.8706 0.324174 3.76438C0.536327 3.64576 0.936648 3.65727 1.16448 3.775C2.5158 4.47342 3.83944 5.22053 5.17416 5.94993C5.3199 6.0296 5.46749 6.10572 5.64367 6.19867C5.74606 6.05704 5.84291 5.9278 5.93423 5.79502C7.14504 4.05355 8.35523 2.31267 9.5648 0.572374C10.026 -0.0862112 10.5195 -0.1048 11.025 0.517492C12.4036 2.21648 13.7814 3.91605 15.1582 5.61621L15.6333 6.19867C16.4395 5.68437 17.2309 5.17981 18.0205 4.67436C18.4558 4.39641 18.894 4.12378 19.3229 3.83875C19.6356 3.63072 19.9547 3.51211 20.3016 3.74049C20.6484 3.96887 20.665 4.30524 20.5718 4.68499C20.083 6.67579 19.6116 8.66837 19.131 10.6778L1.48364 10.6751Z"
    fill="#CACACA" />
  <path
    d="M1.83506 12.1233H18.7777C18.6421 12.6827 18.5342 13.2245 18.3737 13.752C18.252 14.1539 17.8987 14.2416 17.4938 14.2407C15.0512 14.2342 12.6084 14.2342 10.1653 14.2407H3.20483C2.49089 14.2407 2.31841 14.1123 2.15238 13.4528C2.04538 13.0209 1.94667 12.5871 1.83506 12.1233Z"
    fill="#CACACA" />
</svg>