<svg width="21" height="15" viewBox="0 0 21 15" fill="none" xmlns="http://www.w3.org/2000/svg">
  <path
    d="M1.48364 11.1617C0.982776 9.08235 0.468998 7.02073 0.00779695 4.94937C-0.0392455 4.73693 0.13416 4.35718 0.324174 4.25095C0.536327 4.13234 0.936648 4.14384 1.16448 4.26158C2.5158 4.95999 3.83944 5.7071 5.17416 6.4365C5.3199 6.51617 5.46749 6.59229 5.64367 6.68524C5.74606 6.54361 5.84291 6.41437 5.93423 6.2816C7.14504 4.54012 8.35523 2.79924 9.5648 1.05895C10.026 0.400361 10.5195 0.381772 11.025 1.00406C12.4036 2.70305 13.7814 4.40262 15.1582 6.10279L15.6333 6.68524C16.4395 6.17094 17.2309 5.66638 18.0205 5.16094C18.4558 4.88299 18.894 4.61035 19.3229 4.32532C19.6356 4.1173 19.9547 3.99868 20.3016 4.22706C20.6484 4.45544 20.665 4.79181 20.5718 5.17156C20.083 7.16236 19.6116 9.15494 19.131 11.1643L1.48364 11.1617Z"
    fill="#CC7C5A" />
  <path
    d="M1.83506 12.6099H18.7777C18.6421 13.1693 18.5342 13.711 18.3737 14.2386C18.252 14.6405 17.8987 14.7281 17.4938 14.7272C15.0512 14.7208 12.6084 14.7208 10.1653 14.7272H3.20483C2.49089 14.7272 2.31841 14.5989 2.15238 13.9394C2.04538 13.5074 1.94667 13.0737 1.83506 12.6099Z"
    fill="#CC7C5A" />
</svg>