<svg width="18" height="21" viewBox="0 0 18 21" fill="none" xmlns="http://www.w3.org/2000/svg">
  <path
    d="M15.7584 4.49115C15.6183 4.4179 15.4818 4.33759 15.3496 4.25054C14.9651 3.9935 14.6125 3.69063 14.2995 3.34846C13.5165 2.44244 13.224 1.5233 13.1163 0.879769H13.1206C13.0306 0.345608 13.0678 0 13.0734 0H9.50666V13.9459C9.50666 14.1332 9.50666 14.3182 9.49887 14.5011C9.49887 14.5238 9.49671 14.5448 9.49541 14.5693C9.49541 14.5794 9.49541 14.5899 9.49325 14.6004V14.6083C9.45565 15.1086 9.29702 15.592 9.03131 16.0159C8.7656 16.4397 8.40096 16.791 7.96945 17.0389C7.51973 17.2976 7.01109 17.4333 6.49369 17.4326C4.83188 17.4326 3.48504 16.0624 3.48504 14.3703C3.48504 12.6781 4.83188 11.3079 6.49369 11.3079C6.80826 11.3076 7.12089 11.3577 7.41999 11.4562L7.42431 7.78405C6.51634 7.66545 5.59391 7.73842 4.71522 7.99834C3.83653 8.25827 3.02065 8.6995 2.31905 9.29422C1.70428 9.83433 1.18745 10.4788 0.791797 11.1986C0.641235 11.4611 0.0731662 12.5158 0.00437489 14.2277C-0.0388901 15.1993 0.249687 16.2059 0.38727 16.622V16.6307C0.4738 16.8757 0.809103 17.7117 1.35554 18.4165C1.79617 18.9819 2.31675 19.4785 2.90053 19.8904V19.8816L2.90918 19.8904C4.63589 21.0768 6.55036 20.999 6.55036 20.999C6.88177 20.9854 7.99195 20.999 9.25269 20.3948C10.651 19.725 11.4471 18.7271 11.4471 18.7271C11.9557 18.1309 12.3601 17.4514 12.6429 16.7178C12.9657 15.8599 13.0734 14.8309 13.0734 14.4197V7.02109C13.1167 7.04734 13.693 7.43275 13.693 7.43275C13.693 7.43275 14.5232 7.97085 15.8186 8.32127C16.7479 8.57063 18 8.62313 18 8.62313V5.04281C17.5613 5.09093 16.6705 4.95094 15.7584 4.49115Z"
    fill="white" />
</svg>