<svg width="22" height="28" viewBox="0 0 22 28" fill="none" xmlns="http://www.w3.org/2000/svg">
  <path
    d="M10.9944 27.9976C8.36183 27.9976 5.72892 27.9976 3.09565 27.9976C1.2302 27.9976 -0.00434702 26.7486 1.15034e-05 24.875C0.0130871 19.4796 4.267 14.7032 9.60728 14.0962C15.5708 13.4148 20.8098 17.3009 21.8634 23.2125C21.959 23.8059 22.0046 24.4063 21.9996 25.0074C22.0116 26.6994 20.7346 27.99 19.0511 27.9955C16.3673 28.0042 13.6792 27.9976 10.9944 27.9976Z"
    fill="white" />
  <path
    d="M10.9268 12.5245C7.33104 12.4151 4.67997 9.59439 4.78349 5.97849C4.88155 2.57697 7.77561 -0.0895696 11.2701 0.00230446C14.6664 0.0908973 17.3251 3.02321 17.2216 6.56474C17.1246 9.87329 14.2208 12.6208 10.9268 12.5245Z"
    fill="white" />
</svg>